<?xml version="1.0" encoding="UTF-8"?>
<svg id="Layer_4" data-name="Layer 4" xmlns="http://www.w3.org/2000/svg" xmlns:xlink="http://www.w3.org/1999/xlink" viewBox="0 0 292.89 301.99">
  <defs>
    <style>
      .cls-1 {
        fill: none;
      }

      .cls-2 {
        fill: #606161;
        isolation: isolate;
        opacity: .34;
      }

      .cls-3 {
        fill: #010101;
      }

      .cls-4 {
        fill: #ddad6f;
      }

      .cls-5 {
        fill: #c69e81;
      }

      .cls-6 {
        fill: #638e9f;
      }

      .cls-7 {
        fill: #98554a;
      }

      .cls-8 {
        fill: #27153c;
      }

      .cls-9 {
        fill: url(#linear-gradient);
      }

      .cls-10 {
        fill: #784f81;
      }

      .cls-11 {
        fill: #060606;
      }

      .cls-12 {
        fill: #0a2f44;
      }

      .cls-13 {
        fill: #fff;
      }

      .cls-14 {
        fill: #383938;
      }

      .cls-15 {
        fill: #251911;
      }

      .cls-16 {
        fill: #4c3059;
      }

      .cls-17 {
        fill: #4f2f26;
      }

      .cls-18 {
        fill: #a382ad;
      }

      .cls-19 {
        fill: #14162a;
      }

      .cls-20 {
        fill: #523936;
      }

      .cls-21 {
        fill: #161412;
      }

      .cls-22 {
        fill: #94674b;
      }

      .cls-23 {
        clip-path: url(#clippath);
      }
    </style>
    <clipPath id="clippath">
      <path class="cls-1" d="M268.73,104.15c2.17-4.94,3.39-10.39,3.39-16.14,0-22.17-17.97-40.14-40.14-40.14-2.73,0-5.4.28-7.97.79-22.1-15.94-49.23-25.35-78.56-25.35-12.95,0-25.46,1.84-37.31,5.25-8.34-12.81-22.78-21.29-39.2-21.29-25.83,0-46.76,20.94-46.76,46.76,0,11.41,4.09,21.86,10.88,29.98-13.9,21.16-22,46.48-22,73.69,0,74.22,60.17,134.39,134.39,134.39s134.39-60.17,134.39-134.39c0-19.04-3.97-37.15-11.11-53.57Z"/>
    </clipPath>
    <linearGradient id="linear-gradient" x1="148.1" y1="205.42" x2="132.27" y2="-62.91" gradientUnits="userSpaceOnUse">
      <stop offset="0" stop-color="#bbe5f5"/>
      <stop offset=".94" stop-color="#77c5da"/>
    </linearGradient>
  </defs>
  <g class="cls-23">
    <circle class="cls-9" cx="145.27" cy="157.51" r="134.39"/>
    <path class="cls-14" d="M188.01,190.47c.32,0,.53-.11.85-.11h5.21c2.13,0,3.83,1.38,3.83,2.98s-1.7,2.98-3.83,2.98h-5.21c-.32,0-.53,0-.85-.11v-5.74Z"/>
    <path class="cls-2" d="M184.18,185.79c3.3.43,7.02,1.38,10.31.21,2.87-1.06,4.57-3.62,5.74-6.27,1.49-2.98,3.3-5.64,6.7-6.49,2.34-.53,6.06-.32,7.23,2.23.43.96.43,2.13-.11,3.08s-1.38,1.59-2.45,1.81c-1.17.43-2.45-.21-2.76-1.38h0c-.11-.43,0-.85.11-1.28.11-.11,0-.32-.11-.32h-.21c-.64.32-1.06,1.06-.96,1.81.11.43.21.74.43,1.06,1.38,2.13,4.25,2.66,6.38,1.28.64-.43,1.17-1.06,1.49-1.7,1.17-2.66.96-5.53-1.59-7.23-3.62-2.34-7.76-1.59-11.06.85-2.66,1.91-3.93,4.68-5.32,7.55-2.02,5-8.93,5.42-13.82,4.78Z"/>
    <path class="cls-2" d="M188.97,184.62c2.34-.43,4.15-.64,6.06-2.34,1.91-1.7,3.19-4.04,3.4-6.7.21-1.91-.32-5.1-2.66-5.42-1.06-.11-2.13.21-2.98.85-.85.96-1.17,2.34-.85,3.51,0,.53.21.96.32,1.49.11.21.43.32.74.21.21-.11.32-.32.21-.53-.11-.64-.11-1.17-.11-1.81,0-.74.43-1.49,1.06-1.91,1.17-.53,2.34.74,2.66,1.7,1.59,5-3.3,9.99-7.87,10.95Z"/>
    <path class="cls-2" d="M207.79,186.85c.64-.53.74-1.59.21-2.23l-.21-.21c-.64-.53-1.59-.74-2.45-.53-.74.11-1.28.96.11,2.02.11.11.11.21,0,.32,0,.11-.11.11-.21.11-3.08-.53-1.81-3.08-.96-3.4.96-.43,2.02-.43,2.98-.21,1.06.21,1.91,1.06,2.13,2.13.43,2.34-1.7,4.04-3.51,4.47-1.38.32-2.76.32-4.15,0-1.81-.53-8.08-1.28-8.08-1.28,0,0,6.7.21,8.4.43s4.47-.11,5.74-1.59Z"/>
    <path class="cls-18" d="M201.83,135.92s-12.44,6.06-16.16,11.48c-3.72,5.42-21.16,49.97-19.99,59.44s7.12,15.31,12.33,15.42c4.36,0,8.4-2.02,11.06-5.42,5.1-6.17,5.32-10.63,5.32-10.63l3.19-67.41"/>
    <path class="cls-18" d="M256.17,131.56s18.08,8.72,23.07,16.16c7.02,10.42,15.49,84.41-11.84,77.61-21.58-5.32-21.76-56.02-21.76-56.02l5-29.13"/>
    <path class="cls-18" d="M263.18,230.44l-1.59-4.36,12.44-76.55-16.69-11.27-9.68-2.45-.21,1.7c-3.3,4.15-8.4,6.49-13.72,6.27-1.7,0-3.4-.21-5.21-.43-4.89-.74-11.16-3.83-13.29-7.76-.11-.11-7.44,1.06-8.19,1.17-3.93.43-11.27,2.66-12.23,4.04,0,0-4.36,40.08-4.57,45.93-.21,4.04,4.89,14.89,3.72,39.34-.21,5.64-1.38,18.08-2.98,23.29-.96,3.19,1.17-9.36.21-6.17,5.95,4.15,5.74,16.91,12.23,20.31,9.14,4.68,19.35,6.8,29.35,8.19,9.46,1.28,19.14,2.55,28.5.43,4.04-.96,7.87-2.34,11.59-4.15"/>
    <path class="cls-10" d="M242.88,165.69c3.51-1.7,19.67-22.01,19.67-22.01,6.17-7.12,9.36-1.7,2.55-10.95l-5.1-11.48s20.31-59.75-21.8-67.3c0,0-26.26-7.34-34.13,18.18,0,0-4.25,16.48-4.25,27.43,0,10.21,2.34,29.13,2.34,29.13"/>
    <path class="cls-10" d="M192.48,143.05s2.23,1.91,4.47,9.04c.85,4.68,2.55,9.25,5,13.4,6.7,11.91,20.63,14.46,33.92,9.14,9.46-3.83,21.69-24.88,21.69-24.88l.43-36.68-12.87,3.19s-6.06,19.78-26.58,18.08-16.59-18.61-16.59-18.61l-1.81,14.46c-.64,5.85-2.55,5.85-5.95,10.31l-1.7,2.55Z"/>
    <path class="cls-5" d="M203.43,84.57c.21-3.93,3.08-12.12,3.08-12.12.11-.43,1.81-6.27,2.02-6.59,6.27-2.02,15.1-4.78,21.26-2.66,5.95,2.02,19.67,7.02,19.24,14.78-.11,2.34-3.08,17.44-1.28,17.97,0,.32,0,.53-.11.85-.21,2.13-.21,4.25-.11,6.38.96-.96,1.7-1.91,2.45-2.98.43-.74.21-1.7.64-2.34,1.17-1.59,3.4-.85,4.57.32l.21.32c1.59,2.55-1.06,9.78-2.55,11.91-.74,4.47-4.89,6.49-6.91,3.08l-.74,1.7-5.74,5.42c-5,4.25-13.93,10.95-21.05,10.31-4.89-.53-6.27-1.81-7.87-3.62-2.45-2.76-3.62-5.74-5.42-8.82-1.49-2.55-2.45-5.32-2.87-8.29-.53-2.55-.43-5.21.21-7.76.32-1.7.53-3.51.64-5.32.32-1.91.11-8.61.32-12.55Z"/>
    <path class="cls-3" d="M237.99,94.24c-.32-.21-.64-.43-.96-.64-2.13-1.17-4.25-2.13-6.59-2.76-2.02-.53-4.04-.96-6.17-1.17.11-.43-.11-.21.11-.64s.32-1.06.53-1.59c3.4.64,6.7,1.7,9.78,3.19.96.53,1.81,1.17,2.55,1.91.85.74,1.59,1.59,2.23,2.55.11.43-1.49-.85-1.49-.85Z"/>
    <path class="cls-3" d="M202.58,90.95v-.21h0c.43-.43.96-.74,1.49-1.06,2.66-1.17,5.53-1.91,8.4-2.34.21.74.53,1.49.74,2.23-1.81,0-3.62.21-5.42.64-1.7.43-3.3.96-4.89,1.7-.11-.11-.21-.32-.32-.43,0-.11-.11-.21-.11-.32.11-.11.11-.21.11-.21Z"/>
    <path class="cls-13" d="M249.04,99.03s-3.62-22.33-25.84-25.2c-12.87-1.7-19.78,8.72-19.78,8.72,0,0,1.17-12.01,6.8-16.06,5.64-4.04,22.54-3.08,29.98,1.28s8.82,31.26,8.82,31.26Z"/>
    <path class="cls-10" d="M259.78,83.4s-4.15-25.41-25.41-28.28c-26.37-3.51-31.9,24.03-31.9,24.03l-1.7,20.73c.32-5.32.43-10.21,2.34-15.2.53-2.98.11-11.06,9.25-15.42,4.89-2.34,10.63-2.34,15.84-1.06,4.78,1.17,10.1,3.51,12.65,8.08,2.13,3.83,3.51,7.97,4.04,12.23.85,5.74.11,13.82-.96,19.46-1.06,5.1-1.81,12.01-10.95,19.88,23.71-5.21,27.43-31.79,27.43-44.23l-.64-.21Z"/>
    <path class="cls-8" d="M247.77,61.71c4.25,4.25,6.7,10.53,7.44,16.37,1.17,9.14-1.91,18.71-5.1,27.22-.85,2.23-1.7,4.57-2.76,6.7-.21.32.64.32.74,0,2.66-5.74,4.78-11.7,6.27-17.86,1.28-4.57,1.91-9.46,1.81-14.25-.32-4.57-1.59-9.04-3.83-13.08-1.06-2.02-2.34-3.83-3.83-5.42-.21-.32-.96,0-.74.32h0Z"/>
    <path class="cls-8" d="M259.04,121.25c-1.28,3.3-2.76,6.49-4.36,9.57-3.08,5.85-6.8,11.8-11.8,16.27-2.76,2.45-6.17,4.57-9.99,4.78-.21,0-.85.32-.32.32,6.49-.43,11.7-5.1,15.63-9.99,4.04-5.21,7.44-10.95,9.99-17.01.64-1.38,1.17-2.66,1.7-4.04,0-.21-.74-.11-.85.11h0Z"/>
    <path class="cls-8" d="M238.52,121.78c-3.51,6.7-7.97,14.03-15.31,17.01-3.72,1.49-7.97,1.38-11.59-.21-3.4-1.49-6.59-3.62-9.46-6.06-.21-.21-.96.11-.64.43,3.08,2.76,6.59,4.89,10.42,6.49,3.51,1.38,7.34,1.49,10.85.11,7.97-2.87,12.76-10.53,16.48-17.76.21-.32-.53-.32-.74,0h0Z"/>
    <path class="cls-8" d="M199.18,136.45c1.91.53,3.72,1.7,5.1,3.19,1.59,2.02,2.87,4.15,4.04,6.49,2.13,3.72,4.57,9.14,9.68,9.04.21,0,.85-.43.32-.43-2.66,0-4.68-1.81-6.17-3.83s-2.76-4.57-4.15-6.91c-.96-1.81-2.13-3.62-3.4-5.1-1.28-1.28-2.98-2.23-4.68-2.76-.43-.11-1.06.21-.74.32h0Z"/>
    <path class="cls-21" d="M216.72,109.13c-1.06.32-2.13.43-3.19.11-1.28-.21-2.13-1.28-2.02-2.55.21-.74.53-1.59.96-2.34,0-.11-.32-.11-.43,0-.43.74-.74,1.49-.96,2.23-.11.64.11,1.38.53,1.81.85.85,2.13,1.17,3.3,1.06.64,0,1.28-.11,1.91-.32.32,0,.11-.11-.11,0h0Z"/>
    <path class="cls-21" d="M220.34,107.11c.53,0,.53.96.53,1.38,0,.32-.11.53-.32.74-.32.21-.64.32-1.06.32-.53-.11-1.06-.21-1.49-.53h-.21s-.11.11,0,.11c.53.21,1.06.43,1.59.53.53,0,.96-.11,1.38-.32.32-.21.53-.43.64-.85.11-.32.11-.64,0-.96s-.21-.64-.64-.64c-.11,0-.21,0-.21.11q-.21,0-.21.11h0Z"/>
    <path class="cls-17" d="M221.72,85.74s-4.89,3.72.53,6.17c-.11,0-3.83-2.66-.53-6.17Z"/>
    <path class="cls-15" d="M215.98,113.27c2.66,0,8.4,1.7,9.57,2.76,0,0-3.08,3.51-9.14,3.4s-7.12-3.72-7.12-3.72c0,0,3.3-2.55,6.7-2.45Z"/>
    <path class="cls-13" d="M223.1,114.87s-3.08-.32-5.64-.32-6.38.21-6.38.21c0,0,.32-1.81,4.89-1.7,2.45-.21,4.89.43,7.12,1.81Z"/>
    <path class="cls-7" d="M216.4,118.7c2.87-.32,5.74-2.98,9.14-2.76,0,0-.96,5.42-8.19,5.21s-8.08-5.53-8.08-5.53c3.3-.11,4.25,2.66,7.12,3.08Z"/>
    <path class="cls-7" d="M212.89,111.79c1.06,0,2.13.21,3.08.53,1.06-.21,2.13-.43,3.08-.43,1.38.11,7.34,3.62,6.59,4.04s-5.21-2.13-9.78-2.23-6.27,2.34-6.91,1.91,2.45-3.72,3.93-3.83Z"/>
    <path class="cls-20" d="M199.71,158.14h0l.11-.21-.11.21Z"/>
    <path class="cls-18" d="M288.6,291.26c-.85-5.32-1.91-10.63-3.08-15.74h0c-2.34-10.21-5.32-20.1-9.14-29.88l-6.17-19.99-.96-11.59-61.46,11.38c-4.47-3.83-8.4-8.61-13.72-8.82,3.4,12.87-8.82,42.42-9.68,49.12.21.53-5,59.44-.21,46.68l2.98,64.96c.21,11.8,1.06,33.07,2.55,44.87,1.06,8.4.43,12.44,1.28,20.84,7.12,4.04,18.39,8.51,24.56,8.72,21.48.43,42.85-3.3,62.94-10.85,0,0,10.74-145.45,10.1-149.71Z"/>
    <path class="cls-18" d="M193.75,208.12s1.59-6.49,5-26.69c3.4-20.2,3.93-28.18,3.93-28.18l.64-3.51-13.29-4.89-1.7,3.62s-15.95,37.43-17.97,46.25"/>
    <path class="cls-8" d="M193.97,208.12c1.49-6.17,2.55-12.44,3.62-18.71,1.91-11.16,3.93-22.43,5.1-33.71.21-2.02.53-3.93.85-5.85v-.11l-13.29-4.89c-.11,0-.53,0-.53.11-2.13,4.47-4.04,8.93-5.95,13.5-3.51,8.51-7.02,17.12-10.31,25.84-1.38,3.4-2.55,6.91-3.51,10.53,0,.11.53,0,.64-.11.85-3.08,1.81-6.17,2.98-9.14,1.59-4.36,3.3-8.61,5-12.87,2.98-7.44,6.06-14.78,9.14-22.12.85-1.91,1.7-3.83,2.66-5.74l-.64.11,11.91,4.47c.32.11,1.17.32,1.28.53s-.21,1.17-.32,1.49c-.11.64-.21,1.17-.32,1.81s-.11,1.17-.11,1.7c-1.38,14.67-4.04,29.24-6.8,43.7-.64,3.19-1.17,6.38-1.91,9.57,0,.11.53,0,.53-.11h0Z"/>
    <path class="cls-18" d="M266.65,229.06s-12.29-.1-18.88-18.39c-4.47-12.23-16.37-58.37-16.37-58.37l3.08-1.59,11.8-6.17,10.31,22.33s19.14,27.96,19.35,41.04"/>
    <path class="cls-8" d="M271.71,225.5c-5.74-.11-11.7-2.98-15.84-6.7-6.7-6.17-9.16-11.86-11.61-20.25-2.66-9.25-5.21-18.5-7.66-27.75-1.06-3.93-2.13-7.76-3.08-11.7-.32-1.38-.74-2.76-1.06-4.04-.11-.74-.32-1.49-.64-2.23-.11-.11-.11-.32-.11-.43,0,.32-.32.21,0,.11.21-.11.43-.21.64-.32l1.38-.74,3.08-1.59,9.68-5-.43-.11c3.4,7.34,6.59,14.78,10.1,22.01,1.17,2.02,2.45,3.93,3.72,5.85,3.3,5.32,6.49,10.74,9.36,16.37,1.7,3.3,3.19,6.7,4.47,10.1,1.17,2.87,1.81,5.85,2.02,8.93,0,.32.64.21.64-.11-.21-5.74-2.76-11.38-5.21-16.48-2.76-5.74-5.85-11.38-9.25-16.8-1.59-2.55-3.62-5.32-5-7.76-.64-1.06-.96-2.23-1.49-3.3l-3.3-7.02-5.53-12.01c-.11-.21-.32-.11-.43-.11l-14.99,7.76c-.11.11-.21.11-.21.21,2.87,10.95,5.74,21.8,8.72,32.64,1.91,7.02,3.37,12.37,5.61,19.38.85,3.19,2.25,4.91,3.73,7.78,2.02,3.62,5.56,6.59,8.86,8.93,3.93,2.87,8.61,4.47,13.5,4.68.32.11.74-.32.32-.32h0Z"/>
    <path class="cls-8" d="M268.61,148.36c-1.38.43-2.66,1.17-3.72,2.13-2.66,2.34-4.57,5.53-5.42,9.04-.85,3.4-1.17,6.91-.96,10.42,0,.32.53.21.53,0-.32-7.34,1.06-16.91,8.4-20.63.43-.21.85-.43,1.28-.53.32-.11.21-.43-.11-.43h0Z"/>
    <path class="cls-5" d="M229.9,120.19c-.21,2.02,2.66,6.8,2.66,6.8,0,0-1.49,12.65-.96,15.31.11.64,3.08,2.66,3.72,4.36,2.23,5.42.96,3.3.96,3.3l10.1-5.42-.53-1.17,1.38-12.97-.11-12.44-7.12-7.97c-.11,0-.11.11-.21.11-.53.43-.64,1.17-.21,1.7l-2.76-2.76c-2.23,1.38.53,5.95.53,5.95l-3.4-3.83c-1.91,1.7,0,4.89,0,4.89l3.3,5.74c0,1.7-.11,3.4-.43,5.1-.43,1.28-.64,2.55-.64,2.55l-.64-4.36-4.57-7.76c-.64.85-1.06,1.81-1.06,2.87Z"/>
    <path class="cls-17" d="M232.56,126.88c-.74-1.38-1.49-2.76-2.02-4.15-.64-1.59-1.06-4.04.53-5.32h-.43l3.83,6.49c.43.53.64,1.17.85,1.81l.53,3.72c0,.11.43,0,.53-.11.21-1.06.64-2.13.74-3.3.11-.96.21-2.02.21-2.98.11-.53.11-1.06,0-1.59-.21-.53-.53-1.06-.85-1.49-.74-1.38-1.59-2.76-2.34-4.15-.74-1.38-1.49-3.51-.11-4.89l-.43.11,3.4,3.83c.11.11.53,0,.43-.21-.85-1.49-2.34-4.57-.53-5.85l-.43.11,2.76,2.76c.11.11.53,0,.43-.11-.43-.53-.32-1.17.21-1.59l.11-.11h-.32c.96,1.06,1.91,2.13,2.98,3.19.11.11.53-.11.43-.21-.96-1.06-2.02-2.13-2.98-3.19-.11-.11-.32,0-.43,0-.64.32-.96,1.06-.64,1.81,0,0,0,.11.11.11l.43-.21-2.76-2.76c-.11-.11-.32,0-.43.11-1.91,1.38-.43,4.47.43,6.06l.43-.11-3.3-3.83c-.11-.11-.32,0-.43.11-2.45,2.34.74,6.38,2.02,8.61.43.64.74,1.28,1.06,1.91.11.32.21.74.11,1.17,0,1.17-.11,2.34-.21,3.51-.21,1.06-.53,2.13-.74,3.3l.53-.11-.53-3.72c-.11-.64-.43-1.28-.85-1.81l-3.72-6.38c-.11-.11-.32,0-.43,0-1.38,1.17-1.38,3.3-.85,4.78.64,1.7,1.38,3.3,2.23,4.78.11.21.53,0,.43-.11h0Z"/>
    <path class="cls-17" d="M241.49,125.82c.11-1.28.11-3.19.21-5.1v-.74c-1.17-1.49-2.23-2.76-2.98-3.72-.43-.53-.85-.96-1.38-1.38.32.64.64,1.17,1.06,1.7.64.96,1.7,2.34,2.87,3.83l-.11-.21v5.64c0,.74,0,1.38.11,2.13.21-.74.32-1.38.21-2.13Z"/>
    <path class="cls-17" d="M244.68,122.31c.11-1.17.11-2.87.21-4.78v-.11l-.11-.11-.43-.43c-1.38-1.49-2.55-2.87-3.51-3.83-.43-.53-.96-1.06-1.59-1.49.32.64.74,1.17,1.28,1.7.85,1.06,2.02,2.34,3.4,3.93l.43.43-.11-.21v4.78c0,.64,0,1.28.11,1.91.32-.43.32-1.17.32-1.81Z"/>
    <path class="cls-5" d="M207.47,120.5c.21,2.02-2.13,7.12-2.13,7.12,0,0,1.38,12.33.96,14.99-.11.64-3.08,2.66-3.62,4.47-1.06,3.3-.74,2.66-.74,2.66l-10.74-3.72.85-2.13-1.7-12.97-.21-12.44,6.91-8.08.21.11c.53.43.64,1.17.32,1.7l2.76-2.76c2.23,1.38-.43,5.95-.43,5.95l3.3-3.93c2.02,1.7.11,4.89.11,4.89l-3.19,5.85c0,1.7.21,3.4.53,5.1.43,1.28.74,2.55.74,2.55l.53-4.36,4.36-7.87c.64.85,1.06,1.81,1.17,2.87Z"/>
    <path class="cls-17" d="M198.96,110.94l1.59-1.49-.43.11c1.91,1.28.53,4.36-.43,5.85-.11.11.43,0,.43,0l3.3-3.93-.43.11c1.49,1.28.85,3.4.11,4.89s-1.49,2.76-2.23,4.15c-.32.53-.64,1.06-.85,1.59-.11.43-.11.96,0,1.38,0,1.06.11,2.13.32,3.19s.64,2.13.85,3.3c0,.11.43,0,.43-.11l.43-3.62c.11-.74.43-1.38.85-2.02l3.62-6.59-.43.11c.53.43.85.96.96,1.59.21.64.32,1.28.32,1.91v.64c.21.32-.64-.43.32.11-.11-.11-.53.11-.43.21.43.32.64-.43.74-.74.11-1.28-.21-3.08-1.28-3.93-.11-.11-.43,0-.43.11l-3.72,6.7c-.32.53-.64,1.17-.74,1.81l-.43,3.72.43-.11c-.21-1.06-.64-2.13-.85-3.19s-.32-2.23-.32-3.4c-.11-.43-.11-.85,0-1.28.32-.64.64-1.38,1.06-1.91,1.17-2.23,4.36-6.38,1.91-8.72-.11-.11-.43,0-.43.11l-3.3,3.93h.43c.85-1.49,2.23-4.68.43-5.95-.11-.11-.32,0-.43.11l-1.59,1.28c-.32.21.21.21.21.11Z"/>
    <path class="cls-17" d="M195.88,126.35c-.11-1.28-.21-3.19-.32-5.1v-.64l.11-.11c1.17-1.49,2.13-2.87,2.87-3.83.43-.53.85-1.06,1.28-1.49-.32.64-.64,1.17-1.06,1.7-.64.96-1.7,2.34-2.76,3.93v-.21.53c.11,2.02.11,3.83.11,5.1.11.74,0,1.38-.11,2.13,0-.53-.11-1.28-.11-2.02Z"/>
    <path class="cls-17" d="M192.69,122.95c-.11-1.17-.21-2.87-.32-4.78v-.11l.11-.11.43-.43c1.28-1.49,2.55-2.98,3.4-3.93.43-.53.96-1.06,1.49-1.49-.32.64-.74,1.17-1.28,1.81-.85,1.06-2.02,2.45-3.3,4.04l-.43.43.11-.21c.11,1.91.11,3.62.11,4.78.11.64,0,1.28-.11,1.91-.11-.53-.21-1.28-.21-1.91Z"/>
    <path class="cls-5" d="M149.1,110.19l2.02-5.64s-.21-6.06.32-8.08c.53-2.02,4.89-9.04,5.21-9.36s1.17-10.63,3.08-10.95,3.62.53,3.93,3.08-2.02,8.82-.64,9.25c1.06.21,2.23.21,3.3.11,0,0-.43-2.98.74-4.36s3.51-.53,3.51-.53l.43,1.17,1.06-1.91s-.43-6.17,2.02-7.02c.11-1.38.53-2.76,1.28-4.04.64-1.06,2.02-1.28,3.08-.64h0c.21.11.32.21.43.43h0l.11,14.25-7.34,17.22s-6.17,4.78-7.34,5.95l-2.02,5.64-1.06-.21c-4.36-.74-9.57.85-11.59-3.62l-.53-.74Z"/>
    <path class="cls-17" d="M163.35,88.82c.11-.21-.85-.53-1.91-.43s-1.91.53-1.91.64.85,0,1.91,0,1.91,0,1.91-.21Z"/>
    <path class="cls-17" d="M177.7,86.48c-.32-.96-.53-1.91-.64-2.87-.32-1.81-.85-4.36-1.28-7.23l.32.32c-.53,0-1.06-.21-1.49-.11-.43,0-.85.21-1.17.64-.53.64-.85,1.49-.85,2.34-.11.85-.11,1.59,0,2.45.21,1.59.43,3.08.64,4.25.32,1.28.43,2.66.53,3.93-.53-1.28-.85-2.55-1.06-3.83-.21-1.17-.53-2.66-.74-4.25-.11-.85-.11-1.7,0-2.66,0-.96.43-1.91,1.06-2.76.43-.53,1.06-.74,1.7-.85.53,0,1.06.11,1.7.21h.21v.21c.43,2.98.85,5.53,1.06,7.34,0,.96.11,1.91,0,2.87Z"/>
    <path class="cls-17" d="M165.9,102.75c-.11-.21-.11-.43-.11-.53v-1.59c.21-1.91.74-3.83,1.49-5.64v.11c0-2.76-2.02-5.95-.96-9.89.32-.85,1.06-1.59,1.91-1.81s1.7-.21,2.45,0h.21l.11.21c.85,3.72,1.49,6.91,1.91,9.25.21.85.32,1.81.11,2.76-.11.64-.21.96-.32.96,0-.32,0-.64.11-.96.11-.85,0-1.81-.32-2.66-.53-2.23-1.38-5.42-2.23-9.14l.21.21c-.64-.21-1.38-.21-2.02,0-.64.21-1.28.74-1.49,1.38-.32.85-.43,1.7-.32,2.45.11.85.21,1.7.32,2.55s.32,1.49.53,2.34c.11.74.21,1.49.21,2.23v.21c-.85,1.7-1.38,3.51-1.7,5.42-.11,1.38,0,2.13-.11,2.13Z"/>
    <path class="cls-17" d="M151.12,104.56c1.81,1.59,4.36,2.34,6.8,1.91,0,0-5.32,2.34-6.8-1.91Z"/>
    <path class="cls-6" d="M92,109.66s10.21,3.62,16.91,9.78c8.61,7.76,19.35,40.83,23.5,50.29,4.15,9.46,8.93,20.63,8.93,20.63l-21.14,9.69-30.74-14.8,1.49-75.7,1.06.11Z"/>
    <path class="cls-4" d="M74.14,32.26h0c1.49-.11,2.66,1.06,2.76,2.45l.53,8.72c.11,1.49-1.06,2.66-2.45,2.76h0c-1.49.11-2.66-1.06-2.76-2.45l-.53-8.72c-.11-1.49.96-2.66,2.45-2.76Z"/>
    <path class="cls-16" d="M62.12,120.72c.32-7.12,1.17-14.14,2.34-21.16,1.06-5.85,2.13-12.33,6.49-16.8.74-.74-.96-.85-1.38-.32-4.25,4.36-5.53,10.53-6.59,16.37-1.28,7.34-2.23,14.67-2.55,22.12,0,.74,1.7.43,1.7-.21h0Z"/>
    <path class="cls-4" d="M63.61,50.44h0c1.28.74,1.7,2.34.96,3.62l-4.36,7.66c-.74,1.28-2.34,1.7-3.62.96h0c-1.28-.74-1.7-2.34-.96-3.62l4.36-7.66c.74-1.28,2.34-1.7,3.62-.96Z"/>
    <path class="cls-12" d="M3.33,270.42l-1.06,24.77c-.32,16.48,3.3,27.75,7.87,43.59l9.68,66.98s0,29.13-2.98,53.16c-2.55,20.95,4.04,58.37,4.04,58.37l7.23,1.38c6.49,1.28,13.18,1.49,19.78.74l14.25-1.59,13.29-123.44,9.78-75.6,13.4-45.4-95.27-2.98Z"/>
    <path class="cls-12" d="M109.86,270.42l-9.25,133.86c0,5.85-2.34,11.16-5,39.23l-5.1,47.85-1.81,20.84-4.15.74c-5.64,1.17-11.48,1.49-17.22,1.06l-12.55-.53,13.93-240.29,41.15-2.76Z"/>
    <path class="cls-5" d="M43.73,78.61c.74,4.15.85,8.29.53,12.55-.96,9.99-9.25,15.2-9.25,15.2l38.17,19.14,13.29-14.57s-8.61-4.47-8.93-6.38c-.32-1.91,2.66-16.8,2.66-16.8"/>
    <path class="cls-5" d="M67.76,100.73l9.99,1.06h4.57c1.91.11,3.62-.96,4.47-2.66,1.91-3.72,2.55-5.64,2.76-6.06,1.59-2.87,2.87-5.95,3.93-9.04.85-2.76,1.91-4.36,2.34-7.55.32-2.45.43-4.04-.85-8.08-.32-.96-.32-2.02,0-3.08.53-2.23.85-4.89,1.49-7.87.11-.53.21-1.06.21-1.59,0,0,.74-12.65-1.38-17.12s-4.36-9.25-7.66-10.1-14.35,2.02-14.35,2.02l-14.57-4.24-10.41,7.33-6.17,13.82.53,16.27,1.17,15.84"/>
    <path class="cls-3" d="M46.07,40.55c-.74-7.23,5.74-9.78,8.4-11.06,2.34-1.06,8.72-2.98,13.5-2.23,2.02.32.96,4.57,2.13,5.32.32.11,4.47,1.06,6.06,1.38,2.02.53,4.15.64,6.17.32,1.17-.43,2.34-.43,3.51-.21,2.13.32,3.08-4.78,7.23.11l.21-.21c-5.32-7.23-12.44-7.23-20.95-8.61-.85-.11-1.81-.32-2.76-.32-13.61-1.17-13.18-1.06-22.12,7.76-5.21,5.1-8.29,10.1-8.29,13.29v.74c0,3.3-3.51,12.12-2.34,13.93.74,1.17,2.98,6.27,4.89,10.63l6.49.21c-.11-1.28-.43-11.7-.53-12.97"/>
    <path class="cls-5" d="M44.05,79.89c-5.32,5-6.17-3.72-6.17-3.72-3.51-4.47-3.4-9.25-3.08-12.44s3.72-3.08,3.72-3.08c2.98.43,4.68,1.17,6.8,11.38"/>
    <path class="cls-3" d="M84.03,31.19c-4.89-.21-17.54-3.72-24.14-4.25-2.76-.21-11.91,6.38-13.08,7.97-2.76,3.51,3.4,11.7-1.49,22.86-1.59,3.72-3.62-2.87-5.64-.43s-2.76,3.4-2.76,3.4c-1.28-10.85-1.28-10.42,1.28-21.05,2.55-10.63,14.14-15.1,19.78-15.95,5.64-.85,23.6,1.28,28.39,3.62"/>
    <path class="cls-19" d="M42.56,71.06c-.64-1.49-1.38-2.98-2.34-4.36-.43-.74-.96-1.28-1.59-1.81-.21-.21-.53-.32-.85-.43-.43-.11-.64.21-.74.53-.64,1.28-.74,2.87-.43,4.25,0,.11.53,0,.53-.11-.32-1.17-.21-2.34.11-3.4.11-.43.32-.74.53-1.06l-.43.11h.21c.21.11.43.21.64.32.96.74,1.7,1.7,2.23,2.76.64,1.06,1.17,2.23,1.7,3.4,0,.11.43,0,.43-.21h0Z"/>
    <path class="cls-19" d="M41.39,71.6c-2.13-.21-.96,2.76-1.17,3.83v.32h0l.21-.11-.11-.11c-.11-.11-.11-.21-.21-.32-.21-.64-.43-1.28-.53-1.91-.21-.85-.21-1.7-.11-2.55.11-.96.43-2.34,1.49-2.76.32-.11,0-.32-.21-.21-.85.43-1.49,1.38-1.59,2.34-.21.74-.21,1.38-.21,2.13.11.85.21,1.7.43,2.55.11.32.21.96.64,1.17.32.11.64,0,.74-.32.11-.32.11-.74.11-1.06,0-.53-.53-2.76.43-2.66.11,0,.43-.32.11-.32h0Z"/>
    <path class="cls-3" d="M76.58,49.48c.21,1.49.21,3.08,0,4.57-1.38.21-2.98-.32-4.36-.21-2.66.11-5.42.11-7.87,1.06-1.17.43-2.23.96-3.19,1.81-.32.21-.96,1.28-1.49,1.17-.21,0-.11-1.06-.11-1.17.32-2.02,1.81-3.19,3.93-4.04,4.04-1.81,8.51-2.87,13.08-3.19"/>
    <path class="cls-3" d="M97.85,55.75l-1.06-.85c-2.02-1.49-4.25-2.76-6.59-3.72-.64-.21-2.98-1.38-3.51-1.06-.32.21-.43,1.59-.53,2.02-.21.53-.21,1.17-.21,1.81.21.53.64.43,1.17.43.74,0,1.38.11,2.13.32,2.23.43,4.36,1.17,6.27,2.23l1.06.74c1.06-.64,1.49-1.59,1.28-1.91Z"/>
    <path class="cls-11" d="M58.83,59.37l.64,2.45c.64,2.34,1.49,4.47,2.55,6.59.85,1.49,10.85,2.66,12.87,1.7s3.4-6.59,4.04-7.76l4.04.43c.21,1.7,1.17,7.12,1.91,7.87s5.32.96,5.85.96h1.7c1.7,0,3.83-.21,4.57-.74,1.06-.85,2.34-4.36,3.4-7.66l.21-.53c0-.11.11-.21.11-.21h0l.21-.64c-5.64-3.08-13.18-3.08-17.97-.11v.11l-3.93-.53c-4.25-3.19-11.8-5.21-17.33-3.4h0l-15.42,3.3-.11,1.49,12.65-3.3ZM85.41,70.11c-.43-.43-1.28-4.25-1.7-7.23,4.15-2.55,10.95-2.55,16.06-.11v.11c-.64,1.81-2.13,6.49-3.19,7.34-1.28,1.06-10.42.64-11.16-.11h0ZM63.29,68.09c-1.59-2.76-2.66-5.64-3.3-8.72,5-1.81,13.82,0,17.97,2.98-.85,2.34-1.91,6.38-3.4,7.02-2.13,1.06-10.74-.32-11.27-1.28h0Z"/>
    <path class="cls-6" d="M41.18,98.6h0c-7.44,3.3-34.13,14.57-39.23,20.84-7.66,9.46,24.03,37.11,25.09,44.87.53,3.83,3.93,32,.64,54.01-2.23,14.67-3.51,29.35-3.83,44.12l23.71,2.98c11.59,1.49,23.39,1.28,34.87-.53l30.52-5.1c-.74-15.1,0-28.07-1.81-47.95l-1.81-64.54-5.32-28.71s-7.76-6.17-8.51-7.66l-17.33-6.38s5.32,9.04-6.49,10.74c-12.12,1.81-16.06-2.55-25.31-9.57,0,0-4.15-2.87-5.21-7.12Z"/>
    <path class="cls-6" d="M11.41,150.38s5.42,50.61,3.72,65.39-5,44.23-3.83,53.69,43.81,14.35,64.22,12.12,42.85,6.7,37.53-32.85c-1.38-10.63-45.08-108.56-45.08-108.56l-56.56,10.21Z"/>
    <path class="cls-3" d="M85.41,102l1.06-1.91s-17.33,2.02-20.73.96c-8.72-2.76-15.2-15.84-15.2-15.84,1.38,4.04,3.62,7.76,6.38,11.06,4.78,5.64,5.95,6.38,11.27,6.49,4.04.11,11.38.43,14.67.53,1.06.21,2.02-.32,2.55-1.28Z"/>
    <path class="cls-3" d="M35.01,62.88s-2.66-5.53-2.55-14.35c.11-8.82.96-20.84,11.38-25.31,1.81-.74,3.83-1.28,5.74-1.59,0,0,6.91-6.91,25.73-2.87,13.29,2.76,18.39,8.4,19.35,18.61,0,0-3.62-5.42-4.68-4.89s-2.13,3.08-6.7,3.4-11.48-.43-14.46-2.34-8.19-3.93-11.27-3.62c-7.44.85-8.4,6.49-9.04,9.78s-2.76,14.89-6.38,16.37c-2.02.74-3.51,2.55-3.83,4.68l-.64.21c-1.06.32-2.02,1.06-2.66,1.91h0Z"/>
    <path class="cls-3" d="M50.53,85.31c8.08,9.99,13.08,12.87,16.27,13.18s5.53,1.38,7.87.43c2.76-1.06,3.62-2.45,4.25-1.91.32.21,1.38,2.02,1.7,2.23.64.53,3.62.64,4.36.32,1.91-.74,2.45-2.02,3.51-4.04-.85,2.02-1.49,4.89-3.4,5.85-1.17.64-2.98.32-4.36.32h-8.72c-2.55,0-5.21,0-7.66-.85-4.04-1.49-8.4-7.12-10.95-10.85l-2.87-4.68Z"/>
    <path class="cls-6" d="M26.4,163.67l-3.08-56.14s-21.69,6.06-28.07,21.05c-5.74,16.06-12.97,69.75-12.97,80.28,0,31.9,5.42,55.4,13.18,88.04l22.22-3.19-1.91-86.34,10.63-43.7Z"/>
    <path class="cls-21" d="M79.45,77.66c1.49.74,3.08.96,4.68.53.74-.21,1.28-.64,1.7-1.17.32-.53.32-1.17.21-1.7-.11-.74-.43-1.49-.64-2.34-.11-.21-.43-.11-.43.11.21.64.43,1.17.53,1.81.21.53.21,1.06.11,1.7-.43,1.38-2.34,1.59-3.62,1.49-.85-.11-1.59-.32-2.45-.64,0-.11-.32.11-.11.21Z"/>
    <path class="cls-21" d="M75.95,74.68c-.32,0-.74.11-.96.43-.21.32-.32.74-.32,1.06s.11.74.21.96c.32.32.85.64,1.38.64.32.11.64.11.96,0,.43-.11.74-.21,1.17-.32,0,0,.21,0,.21-.11s-.11,0-.21,0c-.53.21-1.06.32-1.59.32-.43,0-.96-.21-1.28-.43-.43-.43-.64-1.06-.43-1.7,0-.21.11-.32.21-.43,0-.11.11-.11.11-.21h.11s-.11,0,0,0,.21-.11.32-.11c.11,0,.21-.11.11-.11h0Z"/>
    <path class="cls-6" d="M107.75,198.88s-.65-10.54-.75-17.77c-.11-4.78,13.72-12.65,13.4-17.44l17.01-34.66c1.17-3.19,9.73-23.03,10.69-22.29v.21c3.51,3.72,9.57,5.32,14.46,5.42l1.91.11c1.28.85-5.91,22.93-6.65,25.9-2.98,13.08-8.4,34.45-11.8,46.15-2.45,8.19-5.39,19.96-19.22,22.4-10.74,1.91-19.05-8.03-19.05-8.03Z"/>
    <path class="cls-19" d="M117.31,181c-1.17-6.06.21-9.52,2.34-15.16,2.13-5.74,4.03-8.88,6.2-13.47.21-.32-.53-.21-.74,0-2.68,4.28-4.08,7.94-6.31,13.79-2.13,5.53-3.51,9.1-2.34,15.16.11.21.96.11.85-.32h0Z"/>
    <path class="cls-17" d="M79.77,48.74s5,4.04-.64,6.38c0,0,4.04-2.66.64-6.38Z"/>
    <path class="cls-15" d="M79.99,82.12c-2.87-.21-9.36,1.17-10.63,2.13,0,0,3.08,4.04,9.68,4.47s7.97-3.3,7.97-3.3c0,0-3.4-3.08-7.02-3.3Z"/>
    <path class="cls-13" d="M72.12,83.5s3.4-.11,6.17.11,6.91.74,6.91.74c0,0-.21-2.02-5.21-2.34-2.66-.21-5.42.32-7.87,1.49Z"/>
    <path class="cls-22" d="M79.03,88.39c-3.08-.64-6.06-3.83-9.68-3.83,0,0,.64,5.95,8.4,6.49s9.25-5.32,9.25-5.32c-3.62-.53-4.89,2.34-7.97,2.66Z"/>
    <path class="cls-22" d="M83.5,81.16c-1.17,0-2.34,0-3.4.32-1.06-.32-2.23-.64-3.4-.74-1.49,0-8.29,3.3-7.55,3.83s5.95-1.91,10.85-1.59,6.59,3.08,7.34,2.66-2.34-4.25-3.83-4.47Z"/>
    <path class="cls-3" d="M79.03,79.57l-.11.96c0,.32-.21.53-.43.53-1.81.43-8.4,2.34-10.1,2.55h-.43c-.64,0-.53-.85,0-1.17,1.38-.74,2.76-1.38,4.25-1.91,2.02-.74,4.04-1.28,6.17-1.7.32,0,.64.21.74.53-.11.11-.11.21-.11.21Z"/>
    <path class="cls-3" d="M81.9,79.57l-.21.96c0,.21.11.43.32.64,1.28.64,5.42,3.08,6.7,3.4l.53.21h.32c.43,0,.32-1.17-.11-1.49-.85-.74-1.7-1.49-2.66-2.13-1.28-.85-2.76-1.59-4.15-2.13-.43-.11-.74.21-.74.53Z"/>
    <path class="cls-19" d="M112.63,150.7c-.96,8.82-1.38,17.65-1.38,26.58-.21,10.21-.11,1.17-.21,11.38,0,4.57,0,9.14-.21,13.72,0,.43.74.21.74-.11.53-19.03-.11-19.03.74-38.06.21-4.57.43-9.14,1.06-13.61.11-.32-.64-.21-.74.11h0Z"/>
    <path class="cls-1" d="M282.11,73.08c0-28.92-23.39-52.42-52.42-52.42-12.33,0-24.35,4.36-33.81,12.33-26.16-10.63-54.97-12.76-82.4-6.06C97.32,2.91,64.78-3.36,40.75,12.8c-24.03,16.16-30.3,48.7-14.14,72.73.85,1.28,1.81,2.55,2.87,3.83-37.64,64.01-16.27,146.3,47.74,183.84,64.01,37.53,146.3,16.16,183.84-47.74,21.16-36.04,24.35-79.85,8.61-118.66,8.08-9.36,12.44-21.37,12.44-33.71Z"/>
    <path class="cls-13" d="M60.83,62.54s5.75,2.15,8.45,1.92,5.14-1.43,5.14-1.43c0,0-4.61-2.65-6.04-2.58s-6.54.64-7.55,2.09Z"/>
    <path class="cls-13" d="M85.1,64.06s3.81,1.9,6.64,1.89c2.28,0,3.48-1.75,3.48-1.75,0,0-1.64-1.76-3.13-1.86s-5.19.54-6.98,1.73Z"/>
    <path class="cls-3" d="M69.89,60.75c-.74-.32-1.49-.21-2.13.32-.32.21-.53.53-.64.85-.21.64,0,1.28.43,1.81.53.64,1.38.74,2.02.53.85-.43,1.28-1.38,1.06-2.23-.11-.64-.43-.96-.74-1.28"/>
    <path class="cls-3" d="M91.47,62.24c.74-.21,1.49.11,2.02.64.21.32.43.64.43.96.11.64-.21,1.28-.74,1.7-.64.53-1.49.53-2.13.11-.74-.53-1.06-1.59-.64-2.45.21-.53.53-.85,1.06-.96"/>
    <path class="cls-3" d="M84.88,64.15s3.4-2.55,5.64-2.45c3.19.21,3.93.96,4.89,2.66-1.17-1.06-2.55-1.7-4.15-1.91-2.23-.11-6.38,1.7-6.38,1.7Z"/>
    <path class="cls-3" d="M74.67,63.09s-4.36-2.98-6.59-3.19c-3.19-.21-7.12,1.59-8.19,3.08,0,0,5.1-2.55,7.44-2.34s7.34,2.45,7.34,2.45Z"/>
    <path class="cls-3" d="M68.25,60.64c.74-.21,1.49.11,2.02.64.21.32.43.64.43.96.11.64-.21,1.28-.74,1.7-.64.53-1.49.53-2.13.11-.74-.53-1.06-1.59-.64-2.45.21-.53.53-.85,1.06-.96"/>
    <path class="cls-13" d="M203.96,95.31s1.17,2.63,3.87,2.4,5.59-1,5.59-1c0,0-3.75-2.32-5.18-2.24s-3.26-.6-4.28.85Z"/>
    <path class="cls-13" d="M225.12,98.05s2.65,1.52,5.48,1.51c2.28,0,5.77-2.03,5.77-2.03,0,0-2.78-1.1-4.27-1.2s-5.19.54-6.98,1.73Z"/>
    <path class="cls-3" d="M207.9,94.35c-.64-.32-1.38-.32-1.91.11-.21.21-.43.43-.43.74-.21.53-.11,1.06.21,1.59.43.53,1.17.74,1.7.43.74-.32,1.17-1.17.96-1.91,0-.32-.21-.74-.53-.96"/>
    <path class="cls-3" d="M213.64,96.8c-1.06-.96-2.34-1.7-3.72-2.23-3.19-.85-5.53-.43-6.38.64,1.91-.43,4.04-.43,5.95,0,1.38.43,2.76.96,4.15,1.59Z"/>
    <path class="cls-3" d="M229.16,96.26c.74-.32,1.49-.21,2.13.32.21.21.32.53.43.85.11.53-.11,1.06-.53,1.49-.53.43-1.28.53-1.81.21-.64-.43-1.23-1.3-.91-2.04,0-.21.27-.51.7-.83"/>
    <path class="cls-3" d="M225.01,98.07c1.59-1.38,3.62-2.23,5.74-2.45,2.34,0,4.57.74,6.38,2.13,0,0-4.57-1.38-6.27-1.38-1.91.32-3.93.96-5.85,1.7Z"/>
    <path class="cls-21" d="M203.96,95.31c-.64.32-1.38.11-1.81-.43,0,0,.96.74,2.76-.43l-.96.85Z"/>
    <path class="cls-3" d="M236.5,97.75c.74.21,1.49-.11,1.7-.85-1.38.43-2.76.32-4.04-.21l2.34,1.06Z"/>
  </g>
</svg>