<?xml version="1.0" encoding="UTF-8"?>
<svg id="Layer_4" xmlns="http://www.w3.org/2000/svg" xmlns:xlink="http://www.w3.org/1999/xlink" version="1.1" viewBox="0 0 292.9 302">
  <!-- Generator: Adobe Illustrator 29.6.1, SVG Export Plug-In . SVG Version: 2.1.1 Build 9)  -->
  <defs>
    <style>
      .st0 {
        fill: none;
      }

      .st1 {
        fill: #f78e48;
      }

      .st2 {
        fill: #2b53a4;
      }

      .st3 {
        fill: #070808;
      }

      .st4 {
        fill: #4f2f26;
      }

      .st5 {
        fill: #87664e;
      }

      .st6 {
        fill: #d68881;
      }

      .st7 {
        fill: #010101;
      }

      .st8 {
        fill: #4c1816;
      }

      .st9 {
        fill: #ce8d2a;
      }

      .st10 {
        fill: #231f20;
      }

      .st11 {
        fill: #98554a;
      }

      .st12 {
        fill: #e2e2e2;
      }

      .st13 {
        fill: #171413;
      }

      .st14 {
        fill: #616262;
      }

      .st15 {
        fill: #527569;
      }

      .st16 {
        fill: #f1eef7;
      }

      .st17 {
        fill: url(#linear-gradient);
      }

      .st18 {
        fill: #906244;
      }

      .st19 {
        fill: #5b331f;
      }

      .st20 {
        fill: #661f0f;
      }

      .st21 {
        fill: #412c16;
      }

      .st22 {
        fill: #0a2f44;
      }

      .st23 {
        fill: #248140;
      }

      .st24 {
        fill: #a38166;
      }

      .st25 {
        fill: #ca5844;
      }

      .st26 {
        fill: #96c5d5;
      }

      .st27 {
        fill: #9e9d9e;
      }

      .st28 {
        fill: #1e1811;
      }

      .st29 {
        fill: #fff;
      }

      .st30 {
        fill: #0a0808;
      }

      .st31 {
        fill: #22582c;
      }

      .st32 {
        fill: #dbb28f;
      }

      .st33 {
        fill: #0f8dce;
      }

      .st34 {
        fill: #111f28;
      }

      .st35 {
        fill: #192141;
      }

      .st36 {
        fill: #192a19;
      }

      .st37 {
        fill: #ab3928;
      }

      .st38 {
        fill: #161412;
      }

      .st39 {
        fill: #f9da04;
      }

      .st40 {
        fill: #f07f29;
      }

      .st41 {
        fill: #94674b;
      }

      .st42 {
        clip-path: url(#clippath);
      }

      .st43 {
        fill: #523936;
      }
    </style>
    <clipPath id="clippath">
      <path class="st0" d="M292.9,97c0-16.6-13.5-30.1-30.1-30.1s-9.5,1.2-13.6,3.3c-2.4-2.8-5-5.6-7.7-8.3C203.1,23.5,147.3,13,99.4,30.6c-6.6-12.6-19.8-21.2-34.9-21.2-21.8,0-39.4,17.6-39.4,39.4s4.7,21.3,12.1,28.4C-2,130.1,2.4,205.1,50.4,253.1c52.8,52.8,138.4,52.8,191.2,0,35.1-35.1,49.4-84.6,37.9-129.4,9.5-5,13.5-15.1,13.5-26.6h0Z"/>
    </clipPath>
    <linearGradient id="linear-gradient" x1="145.6" y1="182.7" x2="151" y2="-87.6" gradientTransform="translate(0 301.9) scale(1 -1)" gradientUnits="userSpaceOnUse">
      <stop offset="0" stop-color="#d1d3d4"/>
      <stop offset=".9" stop-color="#6d6e71"/>
    </linearGradient>
  </defs>
  <g class="st42">
    <g>
      <circle class="st17" cx="146.4" cy="157.3" r="135.2"/>
      <path class="st32" d="M195.8,147.8c.5-.6,5.2.3,5.3-.1s-5.6-1.4-6.4-2.2c-.5-.4-.3-.7,0-.9.2-.1.5-.2.8-.1.6.2,1.6.1,3.3.4.9.2,1.9.4,2.8.5,0-.1-.8-.4-2.8-.8-1.1-.3-2.4-.8-3.6-1.1-.4,0-.7-.3-.9-.6-.3-.5-.1-1,.6-1.1,1.7,0,7.5,1.7,7.4,1.7s-1.6-.8-2.7-1.4-3.9-1.4-3.5-2.1,2.6-.2,4.1.2c1.7.4,6.5,1.8,6.5,1.8-1-.9-2-1.8-2.9-2.8-1.1-1.4-.3-2.1-.3-2.1,2.4,1.5,4.8,3.1,7,4.8.9.7,1.6,1.6,2.1,2.6l4.6,1.2c-.1.4-1.8,6.2-2.1,6.5,0,0-2.6-1.3-3.9-1.1-3.7,2.1-12.9-2-14-2.3s-1.6-.8-1.3-1.1h0Z"/>
      <path class="st2" d="M68.5,289.3l-4.9-78.4c0-.5-.1-1-.4-1.5l-5.3-6c-.7-1-1.8-1.6-3-1.6H5.6c-1.2,0-2.4.6-3,1.6l-5.3,6c-.3.4-.4.9-.4,1.5l-5,78.2c-1.3.2-2.3,1.3-2.4,2.7v1.2c0,1.6,1.4,2.8,3,2.8H.6c1.6,0,2.9-1.2,3-2.7v-1.3l2.5-33.1c.1-1.8,1.7-3.2,3.5-3.1h41.9c1.8-.1,3.3,1.3,3.5,3.1l2.5,32.4c-.1.3-.2.6-.2.9v1.2c0,1.6,1.4,2.8,3,2.7h7.6c1.6,0,2.9-1.2,3-2.7v-1.2c0-1.3-1-2.4-2.3-2.7h0ZM50.5,244.6H10.9c-4,0-3.1-2.9-3.1-6.4l.7-14.4c0-3.6,4.5-6.4,8.6-6.4h28.6c4,0,7.3,2.9,7.3,6.4l.7,14.4c0,3.5.9,6.4-3.2,6.4h0Z"/>
      <path class="st2" d="M191.5,288.3l-4.9-78.4c0-.5-.1-1-.4-1.5l-5.3-6c-.7-1-1.8-1.6-3.1-1.6h-49.1c-1.2,0-2.4.6-3.1,1.6l-5.3,6c-.3.4-.4.9-.4,1.5l-4.9,78.2c-1.3.2-2.4,1.3-2.4,2.7v1.2c0,1.6,1.4,2.8,3,2.7h8.1c1.6,0,2.9-1.2,3-2.7v-1.3l2.5-33.1c.1-1.8,1.7-3.2,3.5-3.1h41.9c1.8-.1,3.3,1.3,3.5,3.1l2.4,32.5c-.1.3-.1.6-.1.9v1.2c0,1.6,1.4,2.8,3,2.7h7.6c1.6,0,2.9-1.2,3-2.7v-1.2c0-1.3-1-2.4-2.3-2.6h0ZM173.5,243.6h-39.7c-4,0-3.1-2.9-3.1-6.4l.7-14.4c0-3.6,4.5-6.4,8.6-6.4h28.6c4,0,7.3,2.9,7.3,6.4l.7,14.4c0,3.5.9,6.4-3.1,6.4h0Z"/>
      <path class="st2" d="M299.1,287.3l-4.9-78.4c0-.5-.1-1-.4-1.5l-5.3-6c-.7-1-1.8-1.6-3-1.6h-49.1c-1.2,0-2.4.6-3.1,1.6l-5.3,6c-.3.4-.4.9-.4,1.5l-4.9,78.2c-1.3.2-2.4,1.3-2.4,2.7v1.2c0,1.6,1.4,2.8,3,2.7h8.1c1.6,0,2.9-1.2,3-2.7v-1.2h0c0,0,2.5-33.2,2.5-33.2.1-1.8,1.7-3.2,3.5-3.1h41.9c1.8-.1,3.4,1.3,3.5,3.1l2.5,32.4c-.1.3-.2.6-.2.9v1.2c0,1.6,1.4,2.8,3,2.7h7.6c1.6,0,2.9-1.2,3-2.7v-1.2c0-1.3-1-2.4-2.3-2.6h0ZM281.2,242.6h-39.7c-4,0-3.1-2.9-3.1-6.4l.7-14.4c0-3.6,4.5-6.4,8.6-6.4h28.7c4,0,7.3,2.9,7.3,6.4l.7,14.4c0,3.5.9,6.4-3.2,6.4h0Z"/>
      <path class="st4" d="M90.2,287.4c1.2.4,2.2,1.2,3,2.1h-.1c.8-.3,1.6-.2,2.4.2-.8-.3-1.6-.3-2.4,0-.8-1-1.8-1.7-2.9-2.3h0Z"/>
      <path class="st32" d="M82.5,126.7l.7-2.5c-1.1,1.2-2.3,2.3-3.8,3.1,0,0-.9-.5-.9-.5-3.6,5.3-6.2,13.4-1.4,18.6,4.3,3,8.6,2.6,15.1-4.8.5-.6,5.4-7.1,6.6-9-3.4-3.8-12.4-1.6-16.3-4.9h0Z"/>
      <path class="st32" d="M81.2,93.3c-3.4-.1-3.8,5.2-7.2,5.2-2.4,0-4.8,0-7.1.2-1.1.1-2.1.3-3.1.5v.7c.8,8.4,2.1,11.2,3.7,19.5,1.1,5.5,1.1,11.2,2.5,16.6.7,2.8,1.9,5.4,3.6,7.7,2.1,2.8,4.8,3.4,8.2,3.5.9,0,7.4-16.1,7-17.9-2.6-10.9-6.4-29.1-7.6-35.9h0Z"/>
      <path class="st32" d="M97.4,133.6c6.2-8.2,14.7-23,14.7-23-2.8-2.4-4.2-2.5-5-5.1l-23.1,19.9c1.3,6.9,10.1,4.6,13.4,8.3Z"/>
      <path class="st32" d="M103.8,108l3.6-3.2s1.4-3.8,2.3-4.8c1.7-1.3,3.6-2.5,5.5-3.5.2,0,3.7-5.3,4.8-5,1,.2,1.7,1.3,1.4,2.3,0,.2,0,.3-.2.5-.6,1.5-3.6,4.2-3,4.8.5.4,1.1.8,1.8,1,0,0,.6-1.7,1.7-2.1s2,.7,2,.7v.8c0,0,1-.7,1-.7,0,0,1.6-3.4,3.1-3.1.5-.7,1.1-1.4,1.9-1.9.7-.3,1.5,0,1.8.6,0,.1.1.2.1.4h0l-4,7.6-8.9,7.1s-4.8.4-5.8.7-2.7,4.3-2.9,3.9c-1.8-2.2-3.8-4.3-6.1-6h0Z"/>
      <path class="st4" d="M107.4,105.2c0,.4.3.8.6,1.1.5.3,1,.6,1.5.8.1,0,.3,0,.4,0,0,0,.2-.1,0-.2-.5-.2-1-.5-1.4-.8-.2-.1-.3-.3-.4-.4,0-.2-.2-.4-.2-.6,0-.2-.6,0-.5.1h0c0,0,0,0,0,0Z"/>
      <path class="st4" d="M87.2,122.3c-2.3,1.3-4.2,3.1-5.7,5.3-.9,1.6-1.6,3.3-2,5.1,0,.1.5,0,.5,0,.4-1.7,1-3.3,1.8-4.9,1.4-2.3,3.4-4.1,5.7-5.5.2-.1-.3-.1-.4,0h0s0,0,0,0Z"/>
      <path class="st4" d="M114.9,108c.6-1.2,1.5-2.2,2.6-2.8.5-.3,1-.8,1.3-1.3.4-.7.6-1.6.9-2.3.5-1.2,1-3.2,2.6-3.4.2,0,.7,0,.9.1s0,.3,0,.5l-.2.7c-.3.8-.5,1.5-.8,2.3s-.5,1.7-.8,2.5c-.3.8-.8,1.6-1.3,2.2-.2.2.3.3.4.1.9-1.1,1.5-2.4,1.9-3.8.5-1.6,1.1-3.1,1.5-4.6,0,0,0,0,0-.1-.8-.4-1.9-.4-2.7.1-1.1.8-1.5,2.4-2,3.5-.2.8-.6,1.5-1,2.2-.4.5-1,1-1.6,1.3-1,.6-1.8,1.6-2.3,2.6,0,.3.4.3.5,0h0c0,0,0,0,0,0Z"/>
      <path class="st4" d="M123.9,102.7c.2-1.2.7-2.4,1.2-3.6.3-.6.6-1.1.9-1.7.3-.5.7-1,1.1-1.4.3-.3.8-.4,1.2-.2.2,0,.3.2.2.4-.1.6-.3,1.1-.5,1.6l-1.2,4.2c0,.2.5.2.5,0l1.1-3.9.5-1.6c0-.3.2-.6,0-.8-.9-.4-1.9-.2-2.5.6-.7.9-1.3,1.8-1.7,2.8-.5,1.2-.9,2.4-1.2,3.6,0,.2.5.2.5,0h0c0,0,0,0,0,0Z"/>
      <path class="st4" d="M115.9,98.2c.7.2,1.3.6,1.9,1.1.1,0,.2,0,.3,0,0,0,.2-.2.1-.2-.6-.5-1.3-.9-2.1-1.1-.1,0-.3,0-.4,0,0,0,0,0,0,.2,0,0,0,0,0,0h0Z"/>
      <path class="st32" d="M236.9,135.2c-1.6,4.2-3.8,10.9-3.8,10.9l-19.6-1.3-1.8,6.1s18.1,8.2,27.7,6.4c3.1-.6,4.3-5.5,6-11.2l-.5-6.3c-3.1-.7-5.9-2.4-8.1-4.7h0Z"/>
      <path class="st4" d="M232.9,146.2c1.3.5,2.3,1.6,2.7,2.9,0,.2.6,0,.5-.1-.4-1.4-1.4-2.4-2.8-3-.1,0-.3,0-.4,0,0,0-.2.1,0,.2h0Z"/>
      <path class="st32" d="M242.9,161.4l-.9,3.7.6,1.9s-5.6,1.7-7,1.4-4.8-.5-4.8-.5c.1.4.1.9,0,1.3-.2.4-.6.8-1.1,1l-1.3-2.4c-.5,1-1.4.1-1.4.1l-.9-2.1c-.6,1.3-1.7.2-1.7.2l-.4-2.8c-.4.4-.8.8-1.4,1-.7.2-.8-.9-.8-.9l2.8-4.1,6.6-1.4,10.2,3.4h1.4Z"/>
      <path class="st4" d="M228.6,159.3c-.6.1-1.3.3-1.9.5-.6.2-1.2.5-1.8.8-.5.3-1,.6-1.2,1.1,0,.3-.1.6-.1.9,0,.3,0,.7,0,1,0,.2.6.1.5-.1,0-.3,0-.6,0-.9,0-.3,0-.6.1-.9.1-.5.8-.8,1.2-1,1-.5,2.1-.9,3.2-1.1.1,0,.2-.1.2-.2s-.2-.1-.3-.1h0s0,0,0,0Z"/>
      <path class="st4" d="M229.6,161.9c-.5.1-1,.2-1.5.4-.6.1-1.2.3-1.7.6-.2.1-.4.3-.6.6-.1.2-.2.5-.3.8,0,.3-.1.6,0,.9,0,.3.1.6.3.9,0,.2.6,0,.5-.1-.1-.2-.2-.5-.2-.8,0-.3,0-.5,0-.8,0-.3.2-.5.3-.8.1-.2.3-.4.5-.5.9-.3,1.9-.6,2.8-.8,0,0,.2-.1.2-.2s-.2-.1-.3,0h0Z"/>
      <path class="st4" d="M230.6,165c-.6,0-1.1,0-1.7,0-.5,0-.9.3-1.3.7-.3.4-.4.9-.2,1.3.1.2.2.5.4.7,0,0,.2.2.3.2.1,0,.3,0,.4-.1s0-.2,0-.2h-.1c-.1-.3-.2-.5-.3-.7-.2-.4-.2-.8,0-1.2.4-.6,1.1-.5,1.7-.6h.6c.1,0,.3,0,.3-.1,0-.1,0-.2-.1-.2h0s0,0,0,0Z"/>
      <path class="st32" d="M184.4,251.3l-1.7-12.1-3.3-18.5c-.6-4-1.3-16-.3-19.5l-10.8-14.1,20.4-3.1s8.8,4.4,8.2,19.5c-.6,16.3-3.6,44.6-2.7,45.7,0,0,0,1.2.1,1.2-.4,0-3.3.3-3.7.4-2.6.5-2.8.8-5.4,1.1-.6-.7,0-.4-.9-.6h0Z"/>
      <path class="st34" d="M173.5,193.8c1-.6,2.2-.9,3.4-.7.3,0,.6,0,.8-.2.2-.1.1-.4-.1-.4-1.6-.3-3.3,0-4.8.9-.1.1-.3.3-.1.4.3,0,.6,0,.8-.1h0s0,0,0,0Z"/>
      <path class="st32" d="M171.1,115.9c3,1.5,5.3,4.2,6.3,7.4,1.4,4.7,1.1,32.5,1.6,36.6.9,5.8,5.1,13.6,4.6,19.4-.2,2.2-4-2.2-4.2,0-.2-.8-.3-1.7-.3-2.5l-6-1.1s0-29.3-2.4-35.8c-2.4-6.6.5-23.9.5-23.9h0Z"/>
      <path class="st22" d="M155.9,189l-.8-26.6,18.3,2.8,1.7,21.4c-6.4.7-12.9,1.6-19.3,2.4Z"/>
      <path class="st22" d="M172.2,168.4l25.4,17.6c-5,1-11.6,2.6-12.7,5.5-1.3,3.2-5.1,9-5.6,12l-23.7-2.9c2.6-5.7,13.9-26.6,16.6-32.2Z"/>
      <path class="st22" d="M156.2,190.4c-6.2.6-12.5,1.1-18.7,1.9-3.4.4-6.7,1.1-9.9,1.9l-2.6-9.1c-1.2-4.8-3.2-5.6-3-10.5l4.4-10.1,32.6-2.6-3.5,17.9.8,10.6h0Z"/>
      <path class="st32" d="M169.4,88.7c.2-2.4.2-4.8-.1-7.2,0-1,0-2.1,0-3.4v-1.1c0-.2,0-.4,0-.6-.3-6.6-2.5-10-2.5-10-2.8-4.3-7.7-6.8-12.8-6.6-5.7.4-10.9,3.2-14.3,7.7-1.4,1.8-2.1,4.2-1.9,6.5.2,2.2.6,4.3,1.2,6.3-2.1,0-4.2.7-3.4,4.6,1.1,5.3,4.6,7,6.2,5.5.4,0,1.1,1.7,1.2,2.8.2,2.1.1,6-.9,7.9v.6c4.7,7.3,7.4,11.6,23,7.1l-5.1-7.1v-2.4c.7,0,1.6,0,2.5-.4,4.9-1.3,6.5-7.6,6.8-10.1h0Z"/>
      <path class="st15" d="M127.8,130.3c-1.1,5.7-2.9,3.7-3,4.5s-.2,24.6-1.7,41.1c1.5,1.6,8.6,1.9,11.7,2.5,4.6.8,9.2,1.1,13.8.9,4.2,0,7.8-1.1,12-1.5,4.8-.4,10.5-.3,15.1-2.2-1.1-9.8-1-30-1.1-34.6-.1-5.1,0-3,0-3,0,0,5-.4,6.7-4-2.1-5.8-2.2-23.4-11.9-28.9-1.4-.8-7.1-3.4-9.2-3.5.5,1.1.7,2.3.6,3.5-.1,1.3-.9,2.5-2.1,3-1.3.7-5,.9-6.5.6-4.7-1-8.2-5.7-9.8-8.6-4.1,1.3-8,2.9-11.9,4.7-11.8,4.9-6.7,23.1-6.7,23.1,2,1.2,4.2,2.4,4.2,2.4h0Z"/>
      <path class="st4" d="M159.8,98.9c-3.9.2-7.7-.8-11-2.9,0,0,.6,1.7,4.4,3,2.1.8,4.4,1,6.7.8v-.9h0Z"/>
      <path class="st18" d="M160.4,89.8c-1.9,0-4.9-.2-4.9-.2,0,0-.2,4.7,4.9,4.6,4.3,0,4.4-4.5,4.4-4.5,0,0-2.6.1-4.4.1h0Z"/>
      <path class="st30" d="M160.4,89.8h-4.2c.6,1.6,2.2,2.6,4,2.5,3.5,0,4-2.3,4-2.3l-3.8-.2h0Z"/>
      <path class="st16" d="M160.4,90.2c-.9,0-3.6-.1-3.6-.1,1.1.6,2.4.8,3.7.7,2.6,0,3.4-.7,3.4-.7,0,0-3.5.1-3.5.1Z"/>
      <path class="st18" d="M164.8,89.6c0,0-.2-.1-.6-.2-.7,0-1-.3-1.5-.3-.6,0-1.3.1-1.9.3-.6-.2-1.2-.2-1.9-.3-.5,0-1.8.2-2.6.3-.4,0-.7,0-1.1-.1-.1,0,.2,1.2,5.1,1.2s4.4-.8,4.4-.9h0Z"/>
      <path class="st38" d="M156.2,74h-.2c-1.7,0-3.3.4-4.9,1.1-.5.3-.9.6-1.2,1.1-.4.4-.8.9-1.1,1.5,0,.3.7-.4.7-.4.1-.1.3-.2.5-.3,1-.6,2-1.1,3.1-1.4,1.1-.1,2.3-.1,3.5,0-.1-.5-.3-.9-.4-1.4h0Z"/>
      <path class="st38" d="M169.1,76.9c0,0,0-.1.1-.2-.3-.4-.6-.8-.6-.8-.3-.4-.6-.7-1.1-.9-1.4-.5-2.8-.8-4.3-.7h-.1c0,.5-.3.9-.4,1.4,1-.2,2-.3,3.1-.3,1,.3,1.9.7,2.7,1.2.1,0,.3.2.4.3l.2.2s0-.1,0-.2h0Z"/>
      <path class="st36" d="M174.8,120c.1,3.2,0,6.5-.3,9.7,0,.7-.1,1.3-.2,2-.3,2.3-.3,4.7,0,7,0,.2.7,0,.7-.2-.5-3.1,0-6.1.3-9.2.3-3.2.4-6.3.3-9.5,0-.2-.7,0-.7.2,0,0,0,0,0,0Z"/>
      <path class="st13" d="M141.7,83.9h-.2c-.3-.8-.5-1.9-1.1-2.4-.3-.2-.9-1.1-1.3-1.2-.5-.1-1-.2-1.5-.2-.6,0-1.2,0-1.7.3,0,0-.4.3-.5.3-1.5-4.7-2.1-9.2,1.2-15,.9-1.7,3.5-3.5,4.3-4.2,4.8-3.6,9.1-3.9,14.4-3.5,6.1.5,12,4.3,13.5,10.5.3,1,.1,2,0,3-.8-1.9-2-3.6-3.8-4.6-3-1.7-3.4-.8-7.6-.7-4.9.2-6.5-2.4-10.4-.3-2.1,1.1-3.7,2.9-4.5,5.1-.5,2.1-1.4,3.6-.8,6,.1.6.3,1.2.4,1.7.1,1.1.2,2.1,0,3.2,0,.5,1.1,1.1.7,1.5s-.6.7-1.1.5h0Z"/>
      <path class="st38" d="M139.5,58.4c-1.4,1.5-2.6,3.2-3.3,5.1l-.8.8c-.9.8-2.1,1.7-2.5,2.8-3.2,9.8,2.6,13.9,2.6,13.9,0,0,2.8-15.4,13.4-19.8s19.6,7.3,19.6,7.3c-.3-12.2-11.4-14.2-11.4-14.2,0,0-12.8-.6-17.5,4.1Z"/>
      <path class="st38" d="M159.8,87.1c.5.2,1,.3,1.5.3.5,0,.9,0,1.4-.2.6-.2,1.3-.8,1-1.5,0-.2-.2-.4-.3-.6-.1-.3-.2-.5-.3-.8,0,0-.3,0-.2,0,.2.4.4.9.6,1.3.1.4,0,.8-.3,1.1-.4.3-.9.5-1.4.4-.6,0-1.2,0-1.8-.3,0,0-.3,0-.2.1h0s0,0,0,0Z"/>
      <path class="st38" d="M157.7,85.4c-.2,0-.4,0-.5.3,0,.2-.1.4-.1.6,0,.2,0,.4.2.6.2.2.5.3.8.3.2,0,.4,0,.6,0,.2,0,.4-.2.6-.2,0,0,.1,0,.1,0s0,0-.1,0c-.1,0-.3,0-.4.1-.1,0-.3.1-.5.1-.3,0-.6,0-.8-.2-.3-.2-.5-.7-.3-1.1,0-.1,0-.2.1-.3,0,0,0,0,0-.1h0c0,0,.1,0,.2,0h0c0-.1,0-.1,0-.1Z"/>
      <path class="st43" d="M181.1,125.2h0c0,0,.1,0,.1,0,0,0-.1,0-.1,0Z"/>
      <path class="st33" d="M135.2,82.2s.4-1.5,1.5-1.7c1.5-.4,3.1.4,3.6,1.9,0,0,.4-1.3,0-2-.8-1.5-2.7-2-4.2-1.2,0,0,0,0-.1,0-2.4,1.5-.8,3-.8,3h0Z"/>
      <path class="st1" d="M140.4,81s1.5,3-.2,3.8c-1,.5-1.2-.2-1.6.3-.2.3-.2.7-.1,1,0,0-.6.7-.8-.3-.1-.6.4-1.8,1.4-1.5,0,0,.9.6,1.1-.7.1-.7,0-1.4-.4-2.1-.4-.7.6-.5.6-.5h0Z"/>
      <path class="st10" d="M140.4,81c.4.8.6,1.6.6,2.4,0,.8-.5,1.5-1.4,1.6-.2,0-.4,0-.6,0-.1,0-.3,0-.4,0-.2.2-.3.5-.2.8,0,.2.1.2,0,.3-.1.2-.3.2-.5,0,0,0,0,0-.1-.1-.2-.3-.2-.7,0-1,.1-.6.7-1,1.3-.8,0,0,.1,0,.1,0,.2.2.6.1.8,0,.2-.2.3-.6.3-.9,0-.4,0-.9-.1-1.3,0-.2-.2-.4-.3-.6,0-.2-.2-.4,0-.5.2,0,.4,0,.5,0h0c-.2,0-.8,0-.6.3,0,.2.2.4.3.6.1.3.2.6.3.9,0,.5,0,1-.3,1.4-.2.2-.5.2-.7,0-.2,0-.4-.1-.6,0-.6.2-.9.8-.9,1.4,0,.2.1.7.4.7.2,0,.3,0,.4-.2h0c-.1-.3,0-.6,0-.9.2-.3.4-.2.6-.2.5,0,1,0,1.4-.5.5-.8.5-1.8,0-2.7,0-.3-.2-.5-.3-.8,0,0,0,0,0,0h0Z"/>
      <path class="st39" d="M139.6,84.9s-.7-2.4-2.4-2.4c-.7,0-1.1,1.3-.2,3,.4.6,1,.9,1.7,1,0,0-.6-1.4.4-1.5.2,0,.3,0,.5,0h0Z"/>
      <path class="st10" d="M139.6,84.9c-.2-1-.9-1.8-1.7-2.3-.2-.1-.5-.2-.8,0-.2.1-.4.3-.4.6,0,.3,0,.7,0,1.1,0,.5.3,1,.6,1.5.4.5.9.7,1.6.8h0c-.1-.3-.2-.6-.2-.9,0-.3.2-.5.4-.5.2,0,.4,0,.6-.1h0c-.3.2-.7,0-1,.3-.1.2-.2.5-.1.8,0,.1,0,.2.1.4h0c0,0-.3,0-.4,0-.2,0-.4-.1-.6-.2-.6-.3-.9-.9-1.1-1.5-.2-.5-.2-1.1,0-1.7.4-1,1.6-.3,2.1.2.4.5.7,1.1.9,1.7h0c0,0,0,0,0,0Z"/>
      <path class="st10" d="M139.7,85.1c-.2-.1-.4-.2-.6-.2-.2,0-.3,0-.5.1-.1,0-.2.2-.2.3-.1.4,0,.9.4,1.2.3.2.7.4,1.1.4,0,0,.2,0,.2,0,0,0,0-.1-.1-.1-.5,0-1-.3-1.2-.8,0-.2,0-.3,0-.5,0,0,0-.1,0-.2,0,0,0,0,0-.1h0c.1,0,.2,0,.3,0,0,0,.1,0,.2,0,.1,0,.4,0,.2-.2h0Z"/>
      <path class="st22" d="M190.2,183.9c.6-.5,1.4-.9,2.1-1.2l2-1.2c1,.7,3.2,1.7,4.1,2.5.2.3.5.7.6,1.1.3.6.5,1.2.5,1.8.2,1.6.2,3.2-.1,4.7-2.1-5-5.5-6.4-9.3-7.7h0Z"/>
      <path class="st32" d="M178.6,237.4c-.1,1.7-3.1,15.3-1.5,16.9-.4,0-4.6,0-5,0-2.8.6-1.8-.3-4.6,0-1,.1-.3-.7-1.3-.6-.3-.1,1.4-3.2,1.4-3.2l-.3-4.3-2.9-23.9c-.6-4-3-14.7-.4-19.5h0l-10.8-13.9,23.2-1.7s10,1.4,7.8,18c-2.1,16.1-5.4,30.1-5.6,32.2h0Z"/>
      <path class="st32" d="M169,249.2c-1.3,2.2-2.7,4.3-4.3,6.2-.8.9-2.9,3.1-1.8,4.4,1.8,2.2,5.2,2.9,6.3,3.5,2.2,1.3,4.2,2.1,6.3,3.5,1.5,1.2,3.2,2.2,5.1,2.9.4.2.8.3,1.1.3.3,0,.5,0,.8,0,.9,0,1.7.7,2.6,1,.4,0,.8.1,1.2.1,1.1.1,2.2.4,3.3.6,1.1.3,2.1.3,3.2.1,1-.2,1.7-.9,1.5-1.6-.4-1.1-1.9-1.1-3-1.6-.9-.4-1.7-.9-2.4-1.6-2.2-1.9-2.5-2.2-4.4-3.8-1.4-1.2-6.1-7.4-7.9-9.6l2.8-22.6"/>
      <path class="st4" d="M182.6,270.3c.4,0,.8-.1,1.1-.4.2-.2.2-.6,0-.9-.2-.3-.4-.6-.6-.8-.3-.2-.6-.5-.8-.7s-.6.1-.4.3c.5.3.9.8,1.3,1.2.1.2.2.4.1.6,0,.2-.3.4-.5.3-.1,0-.3,0-.3.2,0,.1,0,.2.2.2h0Z"/>
      <path class="st4" d="M185.1,271.2c.7.2,1.4-.2,1.6-.9.1-.3,0-.6-.1-.9-.3-.4-.6-.7-1-.9-.4-.4-.8-.6-1.2-.9-.1,0-.3,0-.4,0,0,0-.2,0,0,.1.4.2.8.5,1.1.8.4.3.8.6,1.1,1.1.1.3,0,.6,0,.9,0,.1-.2.3-.3.4h0c0,0-.2,0-.2,0-.1,0-.2,0-.4,0,0,0-.2,0,0,.1h0s0,0,0,0Z"/>
      <path class="st4" d="M187.3,271.5c.5,0,1-.2,1.4-.6.2-.3.3-.7.1-1.1-.2-.4-.5-.8-.9-1.1-.4-.3-.8-.6-1.2-.9-.1,0-.3,0-.4,0,0,0-.1.2,0,.3.4.2.7.5,1.1.7.3.2.6.5.8.9.2.2.3.6.2.9-.1.3-.5.5-.8.5-.1,0-.3,0-.3.2,0,.1,0,.2.2.2h0s0,0,0,0Z"/>
      <path class="st4" d="M189.3,272c.5,0,1,0,1.4-.4.4-.2.6-.6.6-1,0-.4-.2-.7-.5-.9-.3-.3-.6-.6-1-.9l-.5-.4c-.2-.2-.4-.3-.7-.5-.1,0-.3,0-.4.1,0,0,0,.1,0,.2,0,0,0,0,0,0,.2.1.5.3.7.5l.5.4c.4.3.7.6,1,.9.3.2.4.6.2,1-.3.4-.8.6-1.3.6-.1,0-.3,0-.3.2,0,.1,0,.2.2.2h0Z"/>
      <path class="st32" d="M184.6,249.6c-.7,1.1-2.2,6-2.9,7.1-.8,1.3-.4,2.4,1.4,3.2,1.4.7,6,.4,7.7.6,2.3.3,5.3,1.2,7.6,1.5,2,.2,8.2.8,10,1.4,2,.7,4.1.9,6.2.7.4,0,.6,0,.9-.2.6-.5.8-1.1,0-1.7-1.1-.8-2.8-.2-3.7-1.1-.2-.2-.3-.3-.5-.5-.5-.2-1-.3-1.5-.4-2.6-.4-2.1-1.2-5.3-2.5-.9-.4-9.4-7.4-10.2-7.8"/>
      <path class="st4" d="M208.7,260.5c.9.2,1.8.6,2.5,1.2h-.1c.6-.2,1.3-.1,2,.1-.6-.2-1.3-.1-2,0-.7-.6-1.5-1-2.4-1.4h0Z"/>
      <path class="st22" d="M121.9,173.8c.3-.8.8-1.6,1.2-2.4,9.4,5.3,21.1,3.8,31.4,2.8l14.9,10.6,3.4,2c-.1.8,10.7,2.4,10.5,3.1-.4,2.3-3.5.3-6.1.6-3.1.4-8.3,3.7-9.8,5.6-3.4,4.5-3.9,9.8-5,11.5-2.6-1.1-26-6.4-26-6.4l-7.9-.3c-11.9-7.7-8-24.1-6.6-27.1h0Z"/>
      <path class="st14" d="M184.1,193.7l.4-.6-.6-.2c.4.1.6.1.6-.2v-.3c0-.2.1-.5.1-.7.1-.6.2-1.1.1-1.7,0-1-.3-2-.8-2.9-1.2-2-3.5-2.6-5.4-3.6-1.8-.9-3.6-2-5.2-3.2-1.7-1.2-3.4-2.5-4.9-4-.2-.2-.9,0-.6.3,1.6,1.5,3.4,2.9,5.2,4.2,1.8,1.3,3.7,2.4,5.7,3.4,1.4.5,2.7,1.2,3.8,2.1,1,1,1.5,2.4,1.5,3.8,0,.6,0,1.2-.2,1.8,0,.2-.2.7-.1,1s.6.2.7,0-.4-.3-.6-.2c-.3.2-.5.6-.6.9-.2.3.5.3.7,0h0,0Z"/>
      <path class="st21" d="M182.7,192.9c2.2,3.1,1.7,7.5,1.2,11-.4,2.8-.7,5.5-1.1,8.3-.7,5.1-1.6,10.1-2.6,15.2,0,.2.5.1.5,0,1-5.3,2-10.6,2.7-15.9.4-2.9.8-5.8,1.1-8.7.4-3.3.7-7.2-1.4-10-.1-.2-.6,0-.5.2h0q0,0,0,0Z"/>
      <path class="st43" d="M149.2,144.2h0c0,0,.1,0,.1,0h-.1Z"/>
      <path class="st32" d="M134.7,152.4c-4.9-6.7-9-17.2-10.3-24.1l4.3-17.3c8.7-2.9,8.6,9.5,8.6,9.5.2,3,5.9,19.3,7.7,24.6-4.5,1.2-7.1,4-10.2,7.4Z"/>
      <path class="st32" d="M139.2,147c0-2.4.5-4.8,1.4-7l28.7-12.5,2.5,6.4s-17.7,17.5-28.4,20.8c-.8,0-1.6,0-2.5-.2-.5-2.7-1.8-4.8-1.6-7.4Z"/>
      <path class="st15" d="M142.2,100.2s-20.5,4.5-20.3,16.7c0,6.8.7,13.6,1.8,20.3,0,0,13.6-2.1,18.8-4.5,5.2-2.4,2-19.7,2-19.7"/>
      <path class="st36" d="M141.3,133.2l2-.8c0,0,.2-.1.2-.2-.6-3.4-1.3-6.7-2.1-10.1-1.1-4.3-2.4-9.5-7-11.4-1.3-.6-2.7-.8-4.1-.8-.2,0-.8.3-.3.3,3.7,0,7.1,2.1,8.6,5.5,1.7,4.2,2.9,8.5,3.6,13,.2,1.2.5,2.4.7,3.6l.2-.2-2,.8c-.5.2,0,.3.3.2h0Z"/>
      <path class="st32" d="M128.6,141.4s2.6,8.4,4.5,11,6.3,3.3,8.4,2.9c7.6-1.5,13.8-7.4,13.8-7.4l-12.2-8.4-14.5,1.9h0Z"/>
      <path class="st32" d="M64.7,278.5s14.7,9.2,19.7,10.4c5,1.2,6.2,2.7,6.2,2.7,0,0-8.9-12.1-14.6-16.6-1.2-1,13.5-40.1,20.6-63.7,4.1-13.7,4.6-20.6,4.6-20.6l-19.6-2.7-4,21.2-1.9,3.6c-1.2,2.4-2.3,4.8-3.2,7.3-1.7,5.5-2.4,14.2-2.8,17.1-.7,4.9-1.5,11-1.7,12.7l-2.1,23.7-1.2,4.8h0Z"/>
      <path class="st32" d="M64.7,273.8c0,1.8-1.3,5.6-2.1,7.4-1,2.1-.4,4,1.7,5.5,1.4,1.1,3.1,1.7,4.9,1.9,2.8.5,5.8.7,8.6,1.3,2.4.5,9.9,1.6,12.1,2.7,2.3,1.2,4.9,1.7,7.5,1.4.5,0,.8,0,1.1-.3.8-.8.8-2,0-2.8,0,0,0-.1-.2-.1-1.3-1.4-3.3-.4-4.5-2-.2-.3-.4-.5-.6-.8-.5-.4-1.2-.6-1.8-.7-3.2-.8-2.6-2.1-6.5-4.3-1.1-.6-7.3-5-8.3-5.9"/>
      <path class="st32" d="M54.4,278s19.3,13.6,24.5,14.2,3.6-2.3,3.6-2.3c0,0-14.2-12.7-15.2-15.2-.6-1.4,12.9-42.2,17.2-62.2,3-13.9,4.3-25.1,4.3-25.1h-27.5c0-.1-1.1,20.4-1.1,20.4l-1.4,3.8c-.9,2.5-1.6,5.1-2.1,7.7-1,5.7-.6,15.4-.6,18.4,0,5,0,11.1,0,12.8l-.5,22-1,5.6h0Z"/>
      <path class="st32" d="M55.5,271.4c-.1,2.1-2.9,6.6-4,11-.5,1.9-.7,2.9,1.1,4.7,3.1,3.1,8.3,3.1,9.8,3.8,2.2.8,4.3,1.8,6.4,2.9,2.2,1.4,4.7,2.3,7.2,2.8.5.1,1,.1,1.5,0,.3-.1.6-.3.9-.4,1.1-.4,2.3.6,3.4.6.5,0,1-.1,1.5-.3,1.3-.2,2.7-.3,4.1-.3,1.3,0,2.7-.4,3.8-1.1,1.1-.8,1.5-2.2,1-3.4-1-1.8-2.7-1.1-4.3-1.5-1.3-.3-2.5-.9-3.5-1.7-3.4-2.3-3.9-2.8-6.8-4.7-4-2.7-7.7-5.7-11.2-8.9l.7-5.9"/>
      <path class="st43" d="M233.2,99.1h0c0,0,0,0,0,0Z"/>
      <path class="st32" d="M279.4,169l5,8.9c1.8,3.2-1-1.3.6,1.8,2.2,4.1-36.7,20.2-37.1,20.8,2.7,4.3,1.1,26.3,1.1,26.3l-10.4,3.7s-10.2-37.8-7.7-41.8c2.7-4.4,17.8-14.7,30.6-18.2.9-.4,1.7-.9,2.4-1.6,6.3.2,13.6,0,15.4,0h0Z"/>
      <path class="st32" d="M275.5,169.9l4.3,9.2c1.6,3.4-.9-1.4.5,1.8,1.9,4.3-36.6,7.1-37.1,7.7s-3.4,39.5-3.4,39.5l-6,.6s-12.7-38.1-9.9-42c2.1-7.1,20.7-13.6,33.7-16.3.9-.3,1.8-.8,2.5-1.5,6.2.5,13.5.8,15.3,1h0s0,0,0,0Z"/>
      <path class="st7" d="M277.1,109c-1.2,1.9-2.9,3.5-4.9,4.7-2.1,1.1-4.5.9-6.8.7-4.5-.3-8.7-2-12.3-4.7-3.6-2.9-6-7-6.7-11.5-.5-3.3-.4-6.6.3-9.8.1-.2.2-.4.3-.6,3.1-5.6,5.4-8.1,11.5-8.3,3.7-.2,7-.8,12.3,2.1,1.1.6,2.3,2.1,3.7,3.1,2.2,1.4,4.5,3.8,5.2,5.9,1.4,4,.2,9.4-.1,13.9-.7,1.6-1.6,3.1-2.6,4.5h0Z"/>
      <path class="st32" d="M244.3,105.9c.1-2.1.5-4.2,1-6.2.1-.8.3-1.8.4-2.9,0-.3.1-.7.2-1,0-.2,0-.3.1-.5,1.1-5.6,3.5-8.2,3.5-8.2,3-3.3,7.5-4.7,11.9-3.8,4.8,1.1,8.8,4.2,11.1,8.6.9,1.8,1.2,3.8.7,5.8-.5,1.8-1.1,3.6-1.9,5.2,1.8.2,3.5,1.2,2.2,4.4-1.7,4.4-4.7,5.3-6.1,3.8-.9.3-1.3,1.5-1.5,2.5-.5,2.2-.5,4.5.1,6.7v.5c-5.1,5.6-8,8.8-20.7,2.8l5.3-6.1.3-1.3c-.7-.2-1.4-.4-2.1-.7-4-1.8-4.7-7.3-4.6-9.5h0Z"/>
      <path class="st4" d="M251.1,116c3.1.7,6.4.4,9.4-.9,0,0-.4,1.4-3.7,1.9-1.9.3-3.9.3-5.8-.3v-.8q.1,0,.1,0Z"/>
      <path class="st7" d="M269.4,105.5h0c.3-.7.8-1.2,1.4-1.6.3-.2.6-.3.9-.4.4-.1.7-.2,1.1-.2.5,0,1,0,1.4.3l.2.2c1.9-3.7,3.2-7.8,1.2-13.1-.8-1.5-1.8-2.9-3-4.1-3.5-3.7-7-4.5-11.5-4.9-5.2-.4-10.7,2-12.8,7-.5,1.2-.4.2-.5,1.4.9-1.7,2.3-3,4.1-3.7,2.8-1.1,2.8,1.2,6.3,1.9,4,.8,5.8-1.1,8.7,1.2,2.7,2.1,2.2,3.2,2.2,3.2.1.8.3,1.5.6,2.3.1.7.2,1.5,0,2.3-.1,1.6-.4,3.1-.7,4.6-.2.9-.7,2.1.1,3,.3.4-.2.8.2.8h0Z"/>
      <path class="st10" d="M272.7,107.3c.3-.5.4-1.1.4-1.6,0-.1,0-.3-.2-.3-.5,0-.9.2-1.2.6-.5.4-1.1.9-1.5,1.5-.1.1.1.1.2.1.1,0,.3-.1.4,0,.2,0,.2.3.1.5-.1.5-.6.8-1.2.7-.1,0-.3.2-.1.2.7.1,1.4-.3,1.5-1,0-.2,0-.6-.3-.6-.2,0-.5,0-.7.1h.2c.5-.6,1.2-1.2,1.9-1.7h.2c0-.1.2-.1.2-.1h0c.2.6,0,1.3-.3,1.8,0,.1.2.1.2,0h0c0,0,0,0,0,0Z"/>
      <path class="st41" d="M251.6,108.2c1.6.3,4.2.5,4.2.5,0,0-.5,4.8-4.9,4-3.7-.7-3.1-5.2-3.1-5.2,0,0,2.2.5,3.8.7h0Z"/>
      <path class="st30" d="M251.6,108.2l3.6.6s-1.2,2.8-3.9,2.3c-1.6-.2-2.9-1.6-2.9-3.3l3.2.4h0Z"/>
      <path class="st16" d="M251.5,108.5c.8.1,3.1.4,3.1.4-1,.5-2.1.6-3.2.3-2.3-.4-2.9-1.3-2.9-1.3l3,.6h0Z"/>
      <path class="st41" d="M247.9,107.5c0,0,.2,0,.6,0,.6,0,.9-.1,1.3,0,.5.1,1.1.3,1.6.5.5,0,1.1,0,1.6,0,.4.1,1.5.5,2.1.6.3,0,.6,0,.9,0s-.3,1.1-4.5.3-3.6-1.3-3.6-1.4h0Z"/>
      <path class="st38" d="M255.9,97.7s.1,0,.1-.1c1.4-.7,2.9-1.2,4.5-1.4.5,0,1,0,1.5.2.6.1,1.1.3,1.6.6.2.2-.8,0-.8,0-.2,0-.4,0-.6,0-1.1,0-2.2,0-3.3.3-1,.4-2,1-2.8,1.6-.2-.4-.2-.8-.4-1.2h0Z"/>
      <path class="st38" d="M251.8,96.7c-1-.9-2.2-1.6-3.5-2.1-.4,0-.9-.1-1.4,0-.2,0-.5,0-.7,0,0,0,0,0,0,0,0,0,0,.2,0,.3h.4c1,.2,1.9.4,2.7.9.7.6,1.4,1.2,2,2,.2-.3.4-.6.7-1,0,0-.1,0,0-.1h0Z"/>
      <path class="st7" d="M271.3,94.2s-8.5.6-14.8-2.1l-.5-3.9c-.3,1.3-.5,2.6-.6,4l-1.5-.2c0-1.3.3-2.7.6-4-.8,1.2-1.4,2.5-1.9,3.8,0,0-5-.7-5.5-1.2s5-6.5,8-6.6c3,0,15.2,1,16.1,10.2Z"/>
      <path class="st7" d="M279.8,91.4c0-2,1.5-4.3,3.5-4,.5,0,1,.2,1.4.4l2,.9c.6.2,1.2.6,1.7,1,.9.8,1.3,2,1.3,3.2,0,1.2-.2,2.4-.6,3.5-.3,1.1-.7,2.3-1.8,2.6-.6,0-1.3,0-1.9,0-.6,0-1.1.2-1.7.4-2,.4-4-.5-5-2.2"/>
      <path class="st38" d="M252.3,105.9c-.5.1-1,.1-1.5,0-.4,0-.8-.2-1.1-.5-.3-.3-.3-.7-.2-1,0-.1.2-.3.3-.4.1-.2.3-.4.4-.6,0,0-.2,0-.2,0-.2.3-.4.7-.6.9-.2.2-.2.5-.1.8.2.7,1.1.9,1.7,1.1.5,0,.9,0,1.4,0,.1,0,.1-.2,0-.1h0c0,0,0,0,0,0Z"/>
      <path class="st38" d="M254.4,105c.3,0,.3.6.2.8,0,.2-.1.3-.2.4-.2.1-.4.2-.7.1-.3,0-.5-.2-.8-.4,0,0,0,0-.1,0,0,0-.1,0,0,0,.2.2.5.3.8.4.3,0,.5,0,.8,0,.2,0,.4-.2.4-.4,0-.2,0-.4,0-.6,0-.2-.1-.3-.3-.4h-.1s0,0,0,0h0c0,.1,0,.2,0,.2Z"/>
      <line class="st0" x1="250.6" y1="122" x2="248.5" y2="121.6"/>
      <path class="st37" d="M278.1,199c.9-.5,1.7-1.1,2.4-1.7,3.2-2.8,4.5-8.1,5.1-12.2.7-4.9.5-9.8-.4-14.7-1-5.1-3.8-6.5-3.7-11.7,0,0,0-1.5,0-1.6-.4-1.1-.6-2.4-.5-5.5-1.5-.2-3.1-.2-4.7,0-2.3.4-4.5.9-6.8,1.4-2.3.4-4.6.7-7,.9-2.6.2-5.2.3-7.8.3-1.8,0-7.6,1.2-9.3,1.2.9,4.3,1.2,8.4,2.9,10.8l-.2,2.1-3.7,10.5s7.9.1,12.7,3.8c2.2,1.7,5,6,5.7,5.9l2.1,2.7c1,1.4,5,8.9,5,8.9,2.8.2,5.5-.2,8.1-1.2h0Z"/>
      <path class="st6" d="M239.6,124.2c1.9-2.5,10.7-6.3,10.7-6.3-.9,2.1,0,4.5,2.2,5.4.1,0,.3.1.4.2,1.8.2,10.8-.7,13-6.9,0,0,0,.6,4.6,2.4,7.6,3,9.8,11.8,10.1,15.2.2,2.2-.5,9.3-.5,15.3-2,0-4,.4-6,.9-2.5.6-4.9,1.4-7.4,2.1-1.2.3-2.4.6-3.6.9-1.2.2-2.5.4-3.7.4-2.7.2-5.4.4-8.1.4s-4.4,1.1-5.8.9c-.4-1.9-.9-3.7-1.7-7.2l-1.3-6.1c-6.2-.4-8.4-4.3-8.4-4.3,0,0,3.6-10.8,5.5-13.4h0Z"/>
      <path class="st37" d="M249.3,168.5c-2.5.5-6.2,4-8.7,4.5-4.3.9-8.2,2.8-11.6,5.6-.2.2-.4.5-.3.8s.3.2.6.3c1.4.4,1.8,2.4,3.1,3.3s2.7.4,3.9,1.2,1.3,2.2,2.1,3.2c.9.9,2.1,1.5,3.3,1.5,1.2.1-.2.2,1.1.3.6,0,1.4,1.5,1.7,2,.3.5.4,1.1.4,1.7,0,.9-.3,2.8.5,3.3.8.5,1.6.9,2.4,1.2.4.1.7.4.9.8,0,.3.1.5,0,.8,0,.7-.3.8-.3,1.5,5.2.2,17.6-.4,22.8-.1,0,0,3.5-10.9-1.6-18.3-5.1-7.4-20.3-13.7-20.3-13.7h0Z"/>
      <path class="st8" d="M242.8,141.6c-.3-1.1-.4-2.1-.6-3.2-.4-1.9-.8-3.9-1.3-5.8,0-.1-.5,0-.5.1.5,1.9.9,3.8,1.3,5.8.2,1.1.4,2.1.6,3.3,0,.1.5,0,.5-.1h0Z"/>
      <path class="st6" d="M280.1,147.9c0,1.6.3,3.3.7,4.9,0,0-9.8,3.8-16.9,4.5-6,.4-11.9.4-17.9,0l-1.2-4.6c6.5.4,13,.2,19.4-.5,5.5-.7,10.8-2.2,15.9-4.3h0Z"/>
      <path class="st8" d="M279.8,148c0,1.7.2,3.3.7,4.9l.2-.2c-5.3,2.2-10.8,3.7-16.5,4.4-3.6.3-7.2.4-10.8.3-1.5,0-3,0-4.5-.1-.8,0-1.6,0-2.4-.1-.4-.1,0,.1-.2-.2-.2-.5-.3-.9-.4-1.4l-.8-2.9-.6.2c11.9.9,24.8,0,35.8-4.9.4-.2-.2-.2-.4,0-10.7,4.9-23.3,5.6-34.9,4.8-.1,0-.6,0-.6.2l1.2,4.6h.1c6,.5,12,.5,17.9,0,5.9-.7,11.7-2.3,17.2-4.6,0,0,.3,0,.2-.2-.5-1.6-.7-3.2-.7-4.9,0,0-.7,0-.7.2h0Z"/>
      <path class="st32" d="M262.6,153.9h0c0,.1-22.4,5.5-22.4,5.5v5.3c0,0,20.9,2.5,29.1-.4,0,0,.5-.5.6-.5-.7-3.7-4-7.8-7.2-9.8h0Z"/>
      <path class="st32" d="M260.8,154.2c2,.6,3.9,1.7,5.5,3.1,1.5,1.2,2.4,4.8,3.4,6.4,2.8-3.9,6.8-17.3,7.8-23.9l-4.5-14.6c-7.5-2.1-6.9,8.3-6.9,8.3,0,2.7-4,16.4-5.3,20.7h0Z"/>
      <path class="st8" d="M274.9,146.3c.8-.1,2.1-.1,2.7-.8.4-.6.7-1.2.9-1.9.3-.7.6-1.5.8-2.2.8-2.9.9-6,.2-9,0-.1-.5,0-.5.1.6,2.6.6,5.4,0,8.1-.3,1.3-.7,2.5-1.2,3.7-.3.6-.5,1.4-1.2,1.6-.5.1-1.1.2-1.6.3-.2,0-.5.2-.1.2h0,0Z"/>
      <path class="st6" d="M276.5,145.9c-5.6,1.1-11.1-1.8-16.2-4.4-.5-.2-.9-.5-1.2-.9-.8-1.1-.4-2.6.1-3.8,1.1-3.2,2.6-6.2,4.4-9.1,1.8-2.9,4.5-5.1,7.8-6.2.3,0,.6-.1.9-.1.3,0,.6.2.8.4,2.6,2,3.7,5.5,4.3,8.7,1,5,1.3,10.2-.3,15"/>
      <path class="st8" d="M264.1,143.1c-.9-.1-1.6-.5-2.3-1-.2,0-.4-.2-.5-.3-.3-.4,0-1.3,0-1.8.3-2.3.8-4.6,1.5-6.9.5-1.6,1-3.2,1.6-4.7.9-2.4,3.1-4.1,5.7-4.3.1,0,.5-.2.2-.2-2.2,0-4.2,1.1-5.5,2.9-1,1.7-1.7,3.6-2.2,5.5-.9,2.7-1.5,5.6-1.8,8.4-.1,1.1,0,1.2.8,1.7.7.5,1.5.8,2.3.9.1,0,.6-.2.3-.2h0s0,0,0,0Z"/>
      <path class="st32" d="M248.8,225.9c.9,2.3,2.1,4.5,3.4,6.6.6.8,2.3,1.8,1.4,2.8-1.7,1.8-4.6,2.2-5.6,2.7-2,1.1-3.7,1.6-5.5,2.7-1.4,1-2.9,1.7-4.5,2.2-.3.1-.6.2-1,.2s-.4,0-.6,0c-.8,0-1.4.6-2.3.7-.4,0-.7,0-1.1,0-.9,0-1.9.2-2.8.4-.9.2-1.9.2-2.8,0-.8-.2-1.4-.8-1.2-1.5.4-.9,1.6-.8,2.7-1.2.8-.3,1.5-.7,2.1-1.2,2-1.5,2.2-1.8,3.9-3,2.1-1.9,4.1-4,5.9-6.1l-1.3-4.7"/>
      <path class="st4" d="M236.1,243c-.2,0-.4-.2-.5-.4,0-.2,0-.4.1-.6.3-.4.7-.7,1.2-1,0,0,0-.1,0-.2-.1,0-.3,0-.4.1-.2.2-.5.4-.7.6-.2.2-.4.4-.6.7-.1.2-.1.5,0,.7.2.3.5.4.9.4,0,0,.3,0,.3-.2s-.2-.1-.2-.1h0Z"/>
      <path class="st4" d="M233.8,243.8c0,0-.2,0-.3,0-.1,0-.2-.2-.3-.3-.1-.2-.2-.4-.1-.7.2-.4.5-.6.8-.8.3-.3.6-.5,1-.7,0,0,.3-.1.2-.2s-.2-.1-.3,0c-.4.1-.8.4-1.1.6-.3.2-.6.5-.9.7-.2.2-.3.5-.3.8,0,.2.1.5.3.7.2.3.6.4,1,.2,0,0,.3-.1.2-.2s-.2,0-.3,0h0c0,0,0,0,0,0Z"/>
      <path class="st4" d="M232.1,243.9c-.3,0-.6-.2-.8-.5-.1-.3,0-.6.1-.8.2-.3.4-.5.7-.7.3-.2.6-.4.9-.6,0,0,.1-.1,0-.2-.1,0-.3,0-.4,0-.4.2-.7.4-1.1.7-.3.2-.6.5-.8.9-.2.3-.2.6,0,.9.2.4.6.6,1.1.5.1,0,.3,0,.4-.1,0-.1,0-.1-.1-.1h0Z"/>
      <path class="st4" d="M230.5,244.2c-.5,0-.9-.2-1.2-.6-.2-.3-.2-.6,0-.9.3-.3.6-.6.9-.8l.5-.3.2-.2h.2c0-.1.1-.2,0-.2s.3,0,.2-.1-.2,0-.3,0c-.4.1-.8.3-1.1.6-.3.2-.6.4-.9.7-.3.2-.5.4-.6.7-.1.3,0,.6.2.8.4.3.8.5,1.3.5.1,0,.2,0,.4-.1,0,0,0-.1,0-.1h0Z"/>
      <path class="st32" d="M240,226.7c.8.7,1.2,1.2,2,1.9s.9,1.8-.3,2.8c-1.1,1-2.4,1.8-3.8,2.4-1.7.8-3.7,1.4-5.3,2.1-2.6,1-5.1,2.2-7.5,3.4-1.4,1-3,1.7-4.6,2-.3,0-.5.1-.7,0-.6-.2-.8-.7-.3-1.4.6-.9,2.1-.8,2.6-1.7,0-.2.2-.3.3-.5.3-.3.7-.5,1.1-.6,1.9-.9,1.4-1.5,3.6-3.2.6-.5,5.5-7.9,6.1-8.5"/>
      <path class="st4" d="M224.2,237.2c-.6.5-1.1,1-1.5,1.6-.5,0-1.1.1-1.5.4.4-.4.9-.6,1.5-.6h0c.4-.6,1-1.1,1.7-1.5h0Z"/>
      <path class="st21" d="M232.6,183.1c-1.8,1.6-2.9,3.8-3.3,6.2-.1,2.1,0,4.3.4,6.4.7,3.6,1.7,7.2,2.9,10.7,2,6.2,4.1,12.3,6.2,18.5.4,1.1.7,2.1,1.1,3.1.3.6.5,1.3.6,2-.3.7-.7,1.4-1.2,2l-1,1.6c-.1.2.4.2.5,0,.6-1.1,1.4-2.1,2-3.3.5-.9-.2-2.1-.6-3.1-1.3-4-2.8-8-4.1-12-1.9-5.8-3.9-11.6-5.3-17.5-.5-2-.8-4.1-.9-6.1-.3-3.2.9-6.3,3.2-8.5.2-.2-.3-.3-.4-.1h0Z"/>
      <path class="st4" d="M260.2,154.3c1.3,0,2.5.6,3.3,1.6.1.1.6,0,.5-.2-.9-1.1-2.2-1.7-3.6-1.7-.1,0-.2,0-.3.1,0,.1,0,.1.1.1h0Z"/>
      <path class="st35" d="M8.8,146.4s-19.9,27.1-6.4,48.6c4.9,9.9,36.2,7.1,36.2,7.1l-1.8-17.4,22.9-31.1-50.9-7.2h0Z"/>
      <path class="st35" d="M63.6,201.5c.6,4.1,1.1,8.4,1.4,12.9.3,0-1,2.1-.6,2.2,12.3,2,23.4,3.6,35.3,0,1.3-7.5,3.4-17.7,4.4-23.8,2.5-15.9.8-23.3-6.3-27.3-10.7-6-68.4-11.4-77.9-9-6.1,1.5,39.7,17.8,43.8,45h0Z"/>
      <path class="st35" d="M93.5,202.4c.3-1.5.7-3.1,1.2-4.5,1-3.3,2.3-6.6,3.8-9.8,1.5-3.2,3.3-6.3,5.2-9.2,1.3-2-6.1-5.6-4.5-7.3-27.7-9.4-78.1-9.3-78.1-9.3,0,0-23.2,4.1-18.9,25.2,4.2,20.1,66.9,14.6,90.9,15,.1,0,.2,0,.3,0h0Z"/>
      <path class="st35" d="M53.2,214.8c3.9.6,8.4,1.5,12.3,2.1,7.5,1.2,15.7-.2,23.2-.4,4.9-24,9-44.3,9-44.3-2.6-.2-5.2-.2-7.8.2.4-1.4.7-2.8.9-4.2-.5-.5-.9-1.1-1.5-1.6-2.6,1.1-5.1,2.3-7.5,3.8-2.8,1.8-5.5,3.7-8,5.9-2.5,2.1-4.8,4.5-6.9,7-.6.7-7.8.5-8.3,1.3,0,0-.6,4.8-.5,4.8-3.9,5.9-5.4,16-5,25.3h0Z"/>
      <path class="st3" d="M40.1,34s-5,14.1,0,22.2,25.4,15,32,11.5c6.5-3.5,10.8-19.5,7.6-23.2-3.2-3.7-39.4-10.5-39.4-10.5h0Z"/>
      <path class="st3" d="M39.2,45.4s-5.6,2.1-7.1,7.7c-1.5,5.5,1.5,10.6,8.3,13.6,6.8,3,17,3.4,18.2-.5s3.2-10.1,0-12.8c-3.1-2.7-19.5-7.9-19.5-7.9Z"/>
      <path class="st32" d="M50.2,52.5s.6,9.5-3.5,15.7c-.6.9-6.4,2.1-6.4,2.1l4.3,4.5c3.5,3.7,9.5,9.5,14.6,10.1,2.8.3,7.1-1.4,9.5-1.7l1.9-5.8-5-3.9c0-1.2,2.1-9.4,2.1-9.4"/>
      <path class="st25" d="M78.5,116.9c.3,10-3.7,12.1-3.7,12.1-1.2,2.6-5.8,3.2-7.1,5.7-.8,1.4-3.5,16.6-2.7,24.1-9.6,2.7-19.6,3.4-29.4,2.1-11.2-1.4-22.2-3.7-33.1-6.8,5.7-15.9,13.5-22.6,13.5-22.6l2.6-22.1-1.8-23.6c2.4-9,11.5-13.6,20.1-15.5l9.2-1.8s3.7,12.8,14.7,13.2c11,.4,5.2-7.8,5.2-7.8,0,0,11,5.2,13.2,7.7,2.2,2.5,6.8,9,7.3,16.3.3,4.9,1.3,9.8,2.8,14.5.4,1.3-10.9,2.7-10.9,2.7"/>
      <path class="st4" d="M74.6,160.1h1.7c.6,0,1.2.2,1.6.6.4.4.5,1,.3,1.5,0,.3-.2.6-.5.9,0,0-.1.2-.2.2h0s.2,0,.2,0-.3,0-.3.2.1.2.2.1c.4,0,.7-.6.9-.9.4-.6.4-1.3.2-1.9-.5-1.1-1.8-1.2-2.8-1.2h-1.1c-.1,0-.3,0-.3.1,0,.1,0,.2.2.2h0c0,0,0,0,0,0Z"/>
      <path class="st25" d="M73.6,78s8.9,3.5,8.9,17.5.7,17.3.7,17.3l-13.2,1.2,3.6-36Z"/>
      <path class="st3" d="M88.6,39.1s3.1-16.7-10.2-19c-5.2-3.9-11.7-5.6-18.2-4.9-10.8,1.3-18.2,7.3-21.6,25.9-3.4,18.5,50-1.9,50-1.9Z"/>
      <path class="st3" d="M45.5,39.6c1.4,4.8,5.5,8.5,10,11,4.5,2.4,9.6,3.7,14.6,4.9l6.2,1c3.3-2.7,6.8-4.2,9-7.8,1.7-3.2,2.8-6.5,3.3-10.1.6-3.4-1-7.7-2.2-10.9-1.1-2.7-3.2-5-5.8-6.4-2.6-1.5-4-2.8-7.9-3.8-6.7-1.8-13.8-.6-19.5,3.3-5.8,3.9-9.8,12.1-7.8,18.8h0Z"/>
      <path class="st4" d="M65.9,71.7c-.9-.6-1.9-1.1-2.9-1.6-1.4-.6-3.9-.9-9.9-7.4,0,0,1.1,7.1,9.4,9.8,1,.4,2,.6,3,.6l.3-1.4h0Z"/>
      <path class="st32" d="M85.3,39.4c.3,1.8.2,3.5-.3,5.2-.8,2.8-1.9,6-2.3,7.2-.3,1.3-.6,2.6-.8,3.9-.1,2-.7,3.9-1.7,5.6-.9,2-2.2,3.8-3.8,5.2-2,1.8-4.3,3.4-6.7,4.8-1.5.9-1.8,1.1-5.2.3-4.9-1.3-9.1-4.5-11.6-8.9l-2.7-6.2v-2.5c-3.2,2.1-4-2.3-3.7-3.1-.5-1.8-2.3-8.1.3-9.8l.2-.2c1.1-.6,2.3-.5,2.7.9.1.6.3,1.2.4,1.8.2.9.6,1.8,1,2.7.6-1.5,1-3,1.4-4.6.3-1.5,2.2-5.5,5.2-7,0,0,1.1-5.2,2.6-6.5h.5c.2,0,.4.1.6.2v-.3c.3.2.7.3,1.1.3,0-.1-.2-.2-.2-.3.3.1.6.2,1,.2,0-.1-.2-.3-.2-.4.4.2.6.1,1,.2,0-.1,0-.2,0-.4.3.2.6.3.9.3,0-.1-.1-.3-.2-.4.4.2.6.1,1,.2,0,0-.1-.2-.1-.3.2.1.5.2.8.3,0,0-.1-.2-.1-.3.3.2.7.2,1.1.2l-.2-.4c.2.3.6.4.9.4,0-.1-.1-.2-.2-.4.3.3.8.5,1.3.5,0,0-.2-.3-.2-.4.3.3.7.5,1.1.5,0-.1-.1-.3-.2-.5.4.4.9.7,1.5.6,0,0-.1-.2,0-.3s0-.2.2-.2c0,0,.8.5.9.5.3.3-.6-1.5-.1-1.4,0-.2,2.3.7,2.1.5.3.4.3.2.8.3,0,0,1.5,1.3,1.4,1.2,0,.1.2.2.4.3,0,0,5.4,6.3,8.3,10.2h0Z"/>
      <path class="st9" d="M48.5,53c-1-.1-1.9.4-2.1,1.4,0,.5,0,.9.2,1.3.1.2.3.4.6.5.5.3,1.1.3,1.7,0,0,0,.1,0,0-.1s-.2,0-.2,0c-.8.3-1.7-.1-2-.9-.2-.6,0-1.2.4-1.6.3-.3.7-.5,1.2-.4,0,0,.2,0,.2,0,0,0,0-.1,0-.1h0s0,0,0,0Z"/>
      <path class="st3" d="M58.8,34l-1.8,2.5c-2,2.9-3.7,6.1-4.8,9.5l-.3,1c0,.2-.2.2-.4.2,0,0-.2,0-.2-.2l-1.2-3.4s2.1-10.7,8.7-9.5Z"/>
      <path class="st10" d="M48.8,45.6c-.7.1-1.1.9-1.4,1.5-.2.6-.3,1.2-.2,1.9,0,.5.4,1.7,1.2,1.6s.8-.8.7-1.3c0-.3-.1-.7-.1-1.1,0-.4.3-.4.7-.3,0,0,.3,0,.2-.2-.2-1.2-.5-2.4-.9-3.5-.2-.6-.5-1.2-1.2-1.3-.8-.2-1.3.7-1.5,1.4-.3,1-.2,2.1,0,3,0,.2.4,0,.3,0-.2-.7-.3-1.4-.2-2.1,0-.6.5-2.4,1.5-1.8.4.4.7.9.8,1.5.2.6.4,1.3.5,1.9,0,.4.2.8.2,1.2l.2-.2c-.4,0-1.1,0-1.1.4,0,.5,0,1,.1,1.5,0,.2,0,.6-.3.7s-.6-.5-.7-.7c-.3-.7-.3-1.4-.2-2.1.2-.6.5-1.6,1.2-1.7.2,0,.2-.3,0-.2,0,0,0,0,0,0Z"/>
      <path class="st3" d="M51.6,28.5c1.5-6,11.5-5.9,16.5-5.3,3.3.4,7.8,4.2,10.5,6.2,1-.7-8.7,7.3-26.7,7.5l-.5,4.4c-.8-4.2-.7-8.5.2-12.7Z"/>
      <path class="st38" d="M71,43.6s-.2-.1-.2-.2c-1.9-1.2-4-2.2-6.2-3-.7-.2-1.4-.2-2.1-.2-.8,0-1.5.1-2.3.3-.3.2,1.1.2,1.1.2.3,0,.5,0,.8.1,1.5.2,3.1.7,4.5,1.3,1.3.8,2.6,1.7,3.8,2.7.2-.5.4-.9.6-1.4h0Z"/>
      <path class="st38" d="M85.4,47.7v-.2h0c-.4-.3-.8-.5-1.2-.8-2.1-.8-4.2-1.4-6.4-1.7l-.4,1.2c1.2,0,2.5.2,3.7.5,1.4.3,2.9.8,4.2,1.4,0-.1,0,0,0-.1,0,0,0-.2,0-.2,0,0,0-.1,0-.2h0Z"/>
      <path class="st30" d="M69.2,61.4l-5.4-1.5s.7,4.1,4.4,5.1c2.2.7,4.7-.4,5.7-2.5l-4.7-1.2h0Z"/>
      <path class="st16" d="M69.2,61.5c-1.1-.3-4.1-1.3-4.1-1.3,0,0,.8,1.5,3.9,2.3s4.4,0,4.4,0l-4.2-1h0Z"/>
      <path class="st38" d="M75,55.9c0,.4,0,.8,0,1.2s0,.5,0,.8c0,.2,0,.3,0,.5-.2.5-.9.6-1.4.6-.6,0-1.1,0-1.7-.2-.7-.1-1.4-.4-1.9-.8,0,0-.3,0-.2.1.5.4,1.2.7,1.8.8.6.2,1.3.3,1.9.3.5,0,1.1,0,1.5-.4.3-.3.2-.8.2-1.2s0-1.1-.1-1.5c0-.1-.3,0-.2,0h0Z"/>
      <path class="st38" d="M68.6,55.7c-.3,0-.5,0-.8.2-.2.1-.4.4-.5.6-.1.3,0,.6.1.8.2.2.5.4.8.5.3.1.7.2,1.1.3,0,0,.1,0,.2,0h0c-.4,0-.7-.1-1.1-.3-.3,0-.6-.3-.8-.5-.2-.3-.2-.6,0-.9.1-.3.4-.5.7-.4,0,0,.1,0,.2,0,0,0,0,0,0,0,0,0,0-.1,0-.1Z"/>
      <path class="st20" d="M79.4,105.1c-2.1,2.2-1.5,5.3-1.4,8.1.2,2.7.1,5.5-.2,8.2-.4,3-1.7,5.9-3.8,8.1-1.7,1.7-3.9,2.8-5.9,4.2-.4.3.2.6.5.4,2-1.2,3.9-2.6,5.7-4.1,1.9-1.9,3.3-4.4,3.9-7.1.6-2.7.8-5.5.6-8.3-.1-3-1.1-6.8,1.2-9.2.3-.3-.4-.5-.6-.2h0,0Z"/>
      <path class="st29" d="M64.5,60.2s2.4.7,4.3,1.3c1.9.7,4.1,1.7,4.1,1.7,0,0,.9-1.1-2.5-2.3-1.9-.7-3.9-1-5.9-.7h0Z"/>
      <path class="st11" d="M69.6,61c-2.3-.8-6.5-2-6.5-2,0,0-.9,6.2,4.4,8.1,5.3,1.8,7.7-4.3,7.7-4.3,0,0-3.3-1-5.6-1.8h0Z"/>
      <path class="st30" d="M69.7,61l-5.7-2s.3,4.5,4.3,5.9c2.4.9,5.1,0,6.4-2.3l-5-1.6h0Z"/>
      <path class="st16" d="M69.6,61.2c-1.1-.4-4.3-1.7-4.3-1.7,0,0,.8,1.7,4,2.8s4.7.3,4.7.3l-4.5-1.3Z"/>
      <path class="st11" d="M75.4,62.7c-.3,0-.6-.2-.9-.3-.9-.5-1.2-1-1.8-1.2-.8-.2-1.6-.4-2.4-.4-.7-.5-1.4-.9-2.1-1.2-.7-.2-2.2-.2-3.1-.4-.6-.1-1.9-.4-2-.4s.3.8,6.4,2.9c6.1,2.1,6.1,1.1,6,1h0Z"/>
      <path class="st4" d="M81.4,218.8c-3.9,15.2-7.5,30.5-11.3,45.7-.7,2.6-1.3,5.2-1.8,7.8-.2,1.1-.2,2.2,0,3.3,0,.7.2,1.3.6,1.9.4.4.9.8,1.4,1.1l2.6,2c2.2,1.7,4.5,3.4,6.7,5,2.1,1.6,4.3,3,6.6,4.1,1.9.9,6.4-.2,5.9,3.1,0,.2.5,0,.5,0,.4-3-2.8-2.6-4.7-2.8s-3.8-1.8-5.2-2.8c-4.3-2.8-8.3-5.9-12.3-9.1-.4-.2-.8-.5-1.1-.9-.5-1.1-.7-2.4-.6-3.6,0-2.5,1-5.1,1.5-7.5,1.4-6,2.9-11.9,4.4-17.9,2.4-9.9,4.8-19.7,7.4-29.6,0-.2-.5,0-.5,0h0c0,0,0,0,0,0Z"/>
      <rect class="st5" x="-11.3" y="167.3" width="315.4" height="24.8"/>
      <polygon class="st5" points="6.6 170.4 -11.3 170.4 -11.3 296.8 -4.9 296.8 6.6 170.4"/>
      <polygon class="st5" points="286.1 170.4 304.1 170.4 304.1 296.8 297.7 296.8 286.1 170.4"/>
      <rect class="st24" x="-16.7" y="163.8" width="326.2" height="6.7"/>
      <polygon class="st12" points="194.9 130.4 211.3 130.4 209.4 150.4 196.8 150.3 194.9 130.4"/>
      <path class="st10" d="M194.6,130.5h15.5c.2,0,.7-.1.8,0s0,0,0,.2c-.1.9-.2,1.9-.3,2.8l-1,9.9-.7,7.1h.4c0-.1-6.4-.2-6.4-.2h-5.6c-.2,0-.6,0-.5,0-.1-.5-.2-1-.1-1.5l-.3-3.5-.8-9-.5-5.9c0,0-.5,0-.4.1l1.6,17.4.2,2.5h12.7c0,.1.3.1.4,0l1.7-17.5.2-2.5h-16.5c-.1,0-.5.1-.3.1h0Z"/>
      <polygon class="st12" points="105.6 143.9 122 143.9 120.1 163.9 107.5 163.8 105.6 143.9"/>
      <path class="st10" d="M105.5,144h15.6c.2,0,.7,0,.8,0s0,0,0,.2c-.1.9-.2,1.9-.3,2.8l-1,9.9-.7,7.1h.4c0-.1-6.4-.2-6.4-.2h-5.7c-.2,0-.6,0-.5,0-.2-.2-.1-1.2-.1-1.5l-.3-3.5-.9-9.1-.6-5.9c0,0-.4,0-.4.1l1.6,17.4.2,2.5h12.7c0,.1.3.1.4,0l1.7-17.5.2-2.5h-16.5c0,0-.4.2-.3.2h0Z"/>
      <path class="st26" d="M118.6,152.2c-.9-.2-1.8-.5-2.6-.8-1.6-.6-3.1.8-4.7.5-.8-.2-1.6-.6-2.4-.8-.4-.1-.9,0-1.3,0l1.1,11.4h10.3c0,.1,1.1-10.3,1.1-10.3-.5,0-.9,0-1.4,0h0Z"/>
      <path class="st31" d="M154.6,159.1c-.8.2-1.6.2-2.4,0-.5-.1-.9-.4-1.3-.6-.6-.4-1.1-.7-1.7-1.1,0,0-.1,0-.1-.1s0-.1.1-.1c1.5-.4,3.1-.2,4.4.7.4.2.7.5.8.9"/>
      <path class="st31" d="M153.8,159.7c-.6.4-1.4.8-2.1.9-.5,0-1,0-1.5,0-.7-.1-1.3-.2-2-.4,0,0-.1,0-.1-.1s0-.1,0-.2c1.2-1,2.8-1.4,4.3-1.1.4,0,.9.2,1.1.6"/>
      <path class="st31" d="M158.5,160.2c0-.8,0-1.6.3-2.3.2-.4.5-.9.8-1.2.4-.5.9-1,1.3-1.5,0,0,.1-.1.2,0,0,0,.1,0,.1.2.2,1.5-.2,3.1-1.2,4.3-.2.4-.6.6-1.1.7"/>
      <path class="st40" d="M159.6,160.1c-.1-.8,0-1.6.3-2.3.4-.6,1.1-1,1.9-1.1.5,0,.9-.2,1.4-.2,1.1-.2,2.2.1,3,.8.5.6.8,1.4.7,2.3,0,.2,0,.3-.1.4-.1.2-.3.3-.5.3-.9.2-1.9.3-2.9.3h-2.5c-.4,0-.8,0-.9-.5"/>
      <path class="st40" d="M151.9,160.1c-.1-.8,0-1.6.3-2.3.4-.6,1.1-1,1.9-1.1.5,0,1-.2,1.4-.2,1.1-.2,2.2.1,3,.8.5.6.8,1.4.7,2.3,0,.2,0,.3-.1.4-.1.2-.3.3-.5.3-.9.2-1.9.3-2.9.3h-2.5c-.4,0-.8,0-.9-.5"/>
      <path class="st19" d="M167.6,159.8c-.2-.5-.2-1-.2-1.5.1-.6.6-1,1.2-1,.2,0,.3,0,.5,0,.2-.1.2-.4.2-.6.1-.5.7-.8,1.2-1.1.6-.1,1.1-.3,1.7-.6.8-.5,1.3-1.4,2.2-1.5s1.5.6,2.3.8,2-.2,2.8.2c.4.3.6.7,1.1,1.1s.8.4,1.1.7c.7.7.9,1.8.7,2.7,0,.1,0,.3-.1.4-.2.1-.4.1-.6.1l-13.9-.2"/>
      <path class="st23" d="M180.8,159c.7-.3,1.5-.4,2.3-.4.5,0,1,.2,1.4.4.6.3,1.2.5,1.8.8,0,0,.1,0,.1.1s0,.1-.1.1c-1.4.6-3,.6-4.4,0-.4-.1-.8-.4-1-.8"/>
      <path class="st31" d="M181.5,158.2c.6-.5,1.2-1,2-1.2.5-.1,1-.2,1.5-.2h2c0,0,.1,0,.2,0v.2c-1,1.2-2.5,1.8-4.1,1.8-.4,0-.9,0-1.2-.4"/>
      <path class="st31" d="M165.2,160.1c.2-.8.6-1.4,1.1-2,.4-.3.8-.6,1.2-.9.6-.3,1.2-.6,1.8-.9h.2c0,0,0,.1,0,.2-.4,1.5-1.3,2.8-2.7,3.5-.4.3-.8.4-1.2.3"/>
      <path class="st31" d="M165.5,159c0-.8,0-1.6.3-2.3.2-.4.5-.9.8-1.2.4-.5.9-1,1.3-1.5,0,0,.1-.1.2,0s0,.1.1.2c.2,1.5-.2,3.1-1.2,4.3-.2.4-.6.6-1.1.7"/>
      <polygon class="st29" points="186.1 163.8 145.4 163.8 144 161.3 187.5 161.3 186.1 163.8"/>
      <path class="st10" d="M186.1,163.6h-40.4c-.4,0-.2,0-.2,0-.5-.7-1-1.5-1.4-2.4l-.2.2h40c1,0,2,0,3.1,0,.6,0,.1,0,.2-.1-.4.8-.9,1.6-1.4,2.4-.1.2.3.2.4,0l1.4-2.5c0-.1,0-.2-.2-.2h-43.5c-.1,0-.3.1-.2.2l1.4,2.5s.1,0,.2,0h40.7c.2,0,.3-.3,0-.3h0Z"/>
      <path class="st29" d="M141.3,159.6h48.1c.5,0,.9.4.9.9h0c0,.5-.4.9-.9.9h-48.1c-.5,0-.9-.4-.9-.9h0c0-.5.4-.9.9-.9Z"/>
      <path class="st10" d="M189.4,161.2h-46.3c-.6,0-1.2,0-1.8,0-.4,0-.8-.4-.8-.8,0-.4.3-.7.6-.8.2,0,.5,0,.7,0h44.8c.8,0,1.5,0,2.3,0,.6.1,1.8,1.3.4,1.6-.2,0-.3.2,0,.2,1.3-.3,1.4-1.8,0-1.9h-41.3c-2.1,0-4.4-.2-6.6,0-1.3.1-1.7,1.7-.2,1.9.5,0,1,0,1.5,0h38.3c2.6,0,5.2.1,7.8,0h.4c.1,0,.5-.2.2-.2h0Z"/>
      <path class="st31" d="M219.3,159c-.8.2-1.6.2-2.4,0-.5-.1-.9-.4-1.3-.6-.6-.4-1.1-.7-1.7-1.1,0,0-.1-.1-.1-.2s0-.1.1-.1c1.5-.4,3.1-.2,4.4.7.4.2.8.5.8,1"/>
      <path class="st31" d="M218.4,159.7c-.6.4-1.4.8-2.1.9-.5,0-1,0-1.5,0-.6-.1-1.3-.2-2-.4,0,0-.1,0-.1-.1,0,0,0-.1,0-.2,1.2-1,2.8-1.4,4.3-1.1.4,0,.9.2,1.1.6"/>
      <path class="st31" d="M223.1,160.2c0-.8,0-1.6.3-2.3.2-.4.5-.9.8-1.2.4-.5.9-1,1.3-1.5,0,0,.1-.1.2,0s.1,0,.1.2c.2,1.5-.2,3.1-1.2,4.3-.2.4-.6.6-1.1.7"/>
      <path class="st40" d="M216.6,160c-.1-.8,0-1.6.3-2.3.4-.6,1.1-1,1.9-1.1.5,0,1-.2,1.4-.2,1.1-.2,2.2.1,3,.8.5.6.8,1.4.7,2.3,0,.2,0,.3-.1.4-.1.2-.3.3-.5.3-.9.2-1.9.3-2.9.3h-2.5c-.4,0-.8,0-.9-.5"/>
      <path class="st19" d="M235.9,157.9h0c0,0-.1-.2-.1-.2-1,0-1.9-.7-2.1-1.7-.5,0-1.1,0-1.6,0-.7-.1-1.4-.3-2.1-.6l-.3.2c-.4.3-.9.5-1.4.7-1,.3-2.1.4-3.2.4,0,.2,0,.4-.2.5-.1,0-.3,0-.5,0-.6,0-1.1.5-1.2,1.1,0,.5,0,1,.2,1.5l.2-.4,12.7.2c-.2-.4-.2-.7-.2-1.1v-.6s0,0,0,0Z"/>
      <path class="st23" d="M238,158.3c.7-.3,1.5-.4,2.3-.4.5,0,1,.2,1.4.4.6.3,1.2.5,1.8.8,0,0,.1,0,.1.1s0,.1-.1.1c-1.4.6-3,.6-4.4,0-.4-.1-.8-.4-1-.8"/>
      <polygon class="st29" points="250.7 163.7 210 163.7 208.6 161.3 252.1 161.3 250.7 163.7"/>
      <path class="st10" d="M250.8,163.6h-37.5c-.9,0-1.9,0-2.8,0-.4,0-.2,0-.3,0-.5-.7-1-1.5-1.3-2.4h-.3c0,.1,40,.1,40,.1,1,0,2,0,3.1,0,.1,0,.2,0,.3,0,.2.1,0-.2,0,0s-.6,1-.7,1.3l-.6,1.1c0,0,.3,0,.4,0l1.4-2.5s0,0-.1,0h-43.5s-.3,0-.3.1l1.4,2.5s0,0,.1,0h40.7c.1,0,.4-.2.1-.2h0Z"/>
      <path class="st29" d="M206,159.5h48.1c.5,0,.9.4.9.9h0c0,.5-.4.9-.9.9h-48.1c-.5,0-.9-.4-.9-.9h0c0-.5.4-.9.9-.9Z"/>
      <path class="st10" d="M254.1,161.1h-46.2c-.6,0-1.2,0-1.9,0-1.1-.3-.9-1.2-.1-1.5.2,0,.5,0,.7,0h44.6c.8,0,1.6,0,2.4,0,.7.1,1.8,1.2.3,1.5-.2,0-.2.3,0,.2,1.4-.3,1.2-1.9-.1-2-.8,0-1.6,0-2.4,0h-39c-2.1,0-4.3-.2-6.4,0-1.3.1-1.7,1.8-.2,2,.5,0,1.1,0,1.6,0h38.4c2.6,0,5.2.1,7.8,0h.4c.1,0,.4-.3,0-.3h0Z"/>
      <path class="st27" d="M176.5,114.5c1.5-.9,1.5-2.5.7-5.2l-2.6-7-.6.2,2.1,7.3c0,.2,0,.3-.2.4-.2,0-.4,0-.4-.2l-2.1-7.3-.6.2,2.1,7.3c0,.2,0,.3-.2.4-.2,0-.4,0-.4-.2l-2.1-7.3-.6.2,2.1,7.3c0,.2,0,.3-.2.4-.2,0-.4,0-.4-.2l-2.1-7.3-.6.2,1.5,7.4c.8,2.7,1.6,4.1,3.3,4l3.1,10.9c.4,2.1.4,6.3.9,7.9.4,1.4,1.4,3.2,2.9,2.8s1.4-2.6,1-3.9c-.5-1.6-2.4-5-3.4-7.2l-3.2-10.9h0Z"/>
      <path class="st40" d="M175.7,100.3c-.5-.5-1.1-.8-1.8-.9,0,.2-.2.3-.3.5-.3.2-.6.3-1,.2h-.1c0,.6-.3,1.2-1.1,1.3-.6,0-1.1-.1-1.4-.6-.5.3-1.1.1-1.5-.3-.3.2-.5.5-.6.8-.4.9-.4,2-.2,2.9v.2c.3.5,1.2.4,1.6.4h3.1c1.2,0,2.4-.2,3.6-.6.3,0,.5-.2.6-.5,0-.2.1-.4.2-.6.1-1-.2-2.1-.9-2.8h0Z"/>
      <path class="st32" d="M167.6,128.1c1.2-.7,2.3-1.5,3.4-2.3.3-.4,3-6.3,3.4-6.6s4.5-2.3,4.5-2.3l2.2,1.2s2.6.2,3.1.8c.4.6.2,1.4-.4,1.9-.3.2-.5.5-.7.8.4.2.8.5,1,1,.1.6-.9,1.4-.9,1.4.3.4.6.8.7,1.3.1.6-.5,1.1-.5,1.1,0,0,1.2,1,1.2,1.5s-1.3,2.1-3.4,3c-.8.5-1.6.9-2.5,1.3-1.3.4-8.1,2.8-8.1,2.8l-2.5-4.8"/>
      <path class="st32" d="M212.8,144.4c-.6-1.1-1.4-2-2.4-2.9-.3-.3-.7-.5-1.1-.7-.5-.2-1-.2-1.4-.2-.8,0-1.6,0-2.4.1-.2,0-.4,0-.5.1-.4.3-.2.9.2,1.2.4.2.9.4,1.4.5,1,.4,1.8,1.1,2.4,2.1.5.9,1.2,1.8,2,2.5.8.7,1.9.9,2.9.6"/>
      <path class="st4" d="M78.2,296.3c.5,0,.9-.5,1.1-1,.1-.5,0-1-.2-1.4-.7-.8-1.5-1.5-2.5-2-.1-.1-.6.1-.4.2.8.4,1.5,1,2.1,1.6.3.3.5.7.5,1.1,0,.3-.2,1-.5,1,0,0-.3,0-.3.2s.2.1.2.1h0Z"/>
      <path class="st4" d="M81.6,296.9c1.1.1,1.5-.9,1.5-1.8,0-.5,0-.9-.3-1.3-.4-.5-.9-1-1.6-1.3-.6-.5-1.4-.8-2.1-1.1-.1,0-.3,0-.4.1,0,0,0,.2,0,.2.7.2,1.4.6,2.1,1.1.7.3,1.3.9,1.6,1.6.2.4.2.9,0,1.4,0,.3-.2,1.1-.6,1-.1,0-.3,0-.4.1,0,0,0,.2,0,.2h0c0,0,0,0,0,0Z"/>
      <path class="st4" d="M84.4,296.5c.7-.1,1.2-.6,1.3-1.3.2-.6,0-1.3-.3-1.8-.4-.5-.9-1-1.4-1.4-.6-.4-1.2-.8-1.9-1.1-.1,0-.6.1-.4.2.6.2,1.1.5,1.7.9.5.3,1,.7,1.4,1.2.4.4.6,1,.6,1.5,0,.3,0,.6-.2.9-.1.2-.3.6-.6.7,0,0-.3,0-.3.1s.2,0,.2,0h0Z"/>
      <path class="st4" d="M84.2,290.5c.4.1.8.3,1.1.5.3.1.6.3.8.5.6.3,1.2.7,1.7,1.2.5.4.8,1.1.7,1.7,0,.8-.7,1.5-1.4,1.8,0,0-.3,0-.2.2s.2,0,.3,0c.8-.2,1.4-.8,1.7-1.6.3-.7.2-1.5-.3-2-.6-.6-1.2-1.1-1.9-1.5l-.9-.5c-.3-.2-.7-.4-1.1-.5-.1,0-.3,0-.4.1,0,0,0,.1,0,.1h0s0,0,0,0Z"/>
      <path class="st4" d="M142.6,138.7c-2.3,1.9-3.4,4.9-3.1,7.9,0,.2.6.1.5-.1-.3-2.8.8-5.6,2.9-7.5.3-.2-.1-.4-.3-.2h0Z"/>
      <path class="st0" d="M301.4,99.9c0-23.2-18.8-42-42-42-5.8,0-11.5,1.2-16.8,3.5-32-31.9-77.9-45.6-122.1-36.7C102.3-1.8,66.2-8.5,39.8,9.7c-22.4,15.4-31.1,44.2-21,69.4-.3.4-.6.8-.9,1.2-4.7,7.2-6.8,24-6.8,24,0,0,1.1.3,2.7.7-.8,7-4.3,29.6-4.1,32.8.2,4.2.7,8,2.6,10.8-.2,2.9-.3,5.7-.3,8.6,0,74.7,60.5,135.2,135.2,135.2s135.2-60.5,135.2-135.2c0-7.1-.6-14.2-1.7-21.2,12.8-7.6,20.6-21.3,20.6-36.2h0Z"/>
      <path class="st29" d="M162.5,80.4s3.4.7,4.7.3,1.8-1.9,1.8-1.9c0,0-.1,0-1.4-.5s-3.4-.7-5,2.1Z"/>
      <path class="st29" d="M148.5,79.8s2.3,1.4,4.5,1.3,3.6-.6,3.6-.6c0,0-1.2-1.6-2.7-1.8s-4.4-.4-5.4,1.1h0Z"/>
      <circle class="st10" cx="166.5" cy="79.5" r="1.3" transform="translate(51.2 223.6) rotate(-76.8)"/>
      <path class="st13" d="M168.2,78.3c-.9-.4-1.9-.5-2.9-.3-2,.2-2.9,2.7-2.9,2.7.6-1.1,1.8-1.9,3-2.1,1.2,0,2.4,0,3.6.5,0-.2-.4-.4-.8-.7h0Z"/>
      <circle class="st28" cx="153.1" cy="79.8" r="1.3"/>
      <path class="st13" d="M156.8,80.6s-2-2.7-4.2-2.4c-2.5.3-3.6.6-4.2,1.6,1.4-.6,2.8-1,4.3-1.1,2.2-.1,4.1,1.9,4.1,1.9h0Z"/>
      <path class="st29" d="M250.8,99.9s-2.6.4-3.6,0-1.7-1.8-1.7-1.8c0,0,.1,0,1.2-.3s2.5-.4,4.1,2.2h0Z"/>
      <path class="st29" d="M263.3,101.7s-2.2.9-4.2.4-3-1.2-3-1.2c0,0,1.3-1.2,2.7-1.2s4,.4,4.5,2Z"/>
      <circle class="st7" cx="247.7" cy="98.6" r="1.1"/>
      <path class="st7" d="M246.3,97.5c.7-.3,1.5-.4,2.2-.2,1.7.4,2.3,2.6,2.3,2.6-.6-1-1.4-1.8-2.5-2.1-.9-.1-1.9,0-2.8.2,0-.2.4-.3.8-.5h0Z"/>
      <circle class="st7" cx="259.1" cy="100.7" r="1.1" transform="translate(-6.2 17.6) rotate(-3.9)"/>
      <path class="st7" d="M255.9,100.9s2-1.9,3.9-1.5c2.6.7,2.6,1.2,3.5,2.1-1.1-.8-2.3-1.4-3.6-1.7-1.3-.1-2.7.3-3.8,1.1h0Z"/>
      <path class="st29" d="M59.8,44.5s3,2.8,4.8,3.4c1.8.6,4.1.7,4.1.7,0,0-2.3-2.8-3.3-3.1s-3.6-.7-5.6-.9Z"/>
      <path class="st29" d="M75.8,50.6s3.7,1.9,5.9,1.3c1.3-.4,1.2-1.2,1.2-1.2,0,0-.8-.9-2-1-1.2-.1-3.8,0-5.1.8Z"/>
      <path class="st38" d="M75.8,50.6c1-.7,2.1-1.2,3.3-1.3,1.7,0,3.3.7,4.5,2-1.4-.7-2.9-1.1-4.5-1.2-1.1,0-2.3.3-3.4.6Z"/>
      <path class="st38" d="M65.9,45.9c-.4-.3-1-.4-1.5-.2-.2,0-.4.3-.5.5-.2.4-.2.8,0,1.1.3.4.8.6,1.2.5.6-.2.9-.7.9-1.3,0,0,.1-.2-.2-.5"/>
      <path class="st38" d="M81.3,50.1c-.4-.3-1-.4-1.5-.2-.2,0-.4.3-.5.5-.2.4-.2.8,0,1.1.3.4.8.6,1.2.5.6-.2.9-.7.9-1.3,0,0,.1-.2-.2-.5"/>
      <path class="st38" d="M68.7,48.5s-1.5-2.9-3.6-3.4c-1.7-.4-3.5-.6-5.3-.6l5.1,1.3c1.1.3,3.8,2.7,3.8,2.7h0Z"/>
    </g>
  </g>
  <path class="st32" d="M29.3,82.7c2.7,1.2,2.7,7.6,2.7,7.6,3.1,12.9-5.6,46.1-5.6,46.1l33.6,20v7.4c-13.3-1.9-29.7-4-45-10.9-5.1-2.3-6.1-7.9-6.4-14.1-.2-3.7,4.6-33.5,4.3-35.2,1.6-4.3,2.6-8.8,3-13.4.9-8.3,8.1-9.9,13.5-7.5h0Z"/>
  <path class="st32" d="M82.7,153l-9.1-1.9-14,4.6h-2c0,0,1.2,5.1,1.2,5.1l-.8,2.6s7.7.3,9.6,0c1.3-.2,3.7.5,5.2.4,0-.3.2-.6.6-.7,1.6,0,3.3-.2,4.9.1.3,0,.5.4.4.7,0,0,.1,0,.2,0,.3-.1.4-.3.4-.3l1.2-1.8c.8,1.7,2.3.2,2.3.2l.5-3.8c.5.6,1.2,1,1.9,1.4.9.3,1.1-1.2,1.1-1.2l-3.7-5.5h0Z"/>
  <path class="st4" d="M77.1,153.3c.8.2,1.5.4,2.3.6.7.2,1.5.6,2.2.9.6.3,1.4.7,1.6,1.4,0,.4.1.8.2,1.2,0,.4,0,.9,0,1.3,0,.3.5.2.5,0,0-.4.1-.8,0-1.3,0-.4,0-.9-.2-1.3-.2-.8-1-1.2-1.6-1.5-.7-.4-1.5-.7-2.3-1-.8-.3-1.7-.5-2.5-.7-.3,0-.5.3-.2.4h0s0,0,0,0Z"/>
  <path class="st4" d="M75.5,156.8c.6.2,1.2.3,1.8.4.7.1,1.5.4,2.2.6.4.1.7.4.8.8.2.3.3.7.4,1,0,.4.1.7,0,1.1,0,.4-.2.8-.4,1.2,0,.1.5,0,.5,0,.2-.4.3-.7.4-1.1,0-.4,0-.8,0-1.2,0-.4-.2-.7-.4-1.1-.1-.4-.4-.6-.7-.8-.7-.3-1.4-.6-2.2-.7-.7-.2-1.3-.3-2-.5-.1,0-.3,0-.4,0,0,0-.2.1,0,.1h0,0Z"/>
  <path class="st4" d="M26.2,136.4c-1.4.1-2.7.7-3.7,1.7-.9,1-1.5,2.2-1.9,3.4,0,.1.5,0,.5,0,.3-1.2.9-2.3,1.7-3.2.9-.9,2.1-1.5,3.3-1.6,0,0,.3,0,.3-.2s-.1,0-.2,0h0s0,0,0,0Z"/>
  <path class="st25" d="M36.4,70.5s-14.8,2.9-19.5,10.1-6.9,24.3-6.9,24.3c0,0,16.3,4.5,25.2,3.4s1.2-37.8,1.2-37.8h0Z"/>
  <path class="st20" d="M29.1,77.8c3.1.4,5.4,3.4,6.6,6.1,1.2,2.7,1.9,5.6,2.1,8.5.3,5.6-1.5,11.2-2.2,16.8l.5-.3-2.8-.3c-.3,0-.8.4-.3.5l2.8.3c.2,0,.5,0,.5-.3.7-5.9,2.7-12,2-18-.5-5.1-3-13-9-13.8-.3,0-.8.4-.3.5,0,0,0,0,0,0Z"/>
  <polygon class="st29" points="86.2 164.3 45 164.3 43.6 161.8 87.6 161.8 86.2 164.3"/>
  <path class="st10" d="M86.2,164.1h-40.8c-.4,0-.2,0-.2,0-.5-.7-1-1.5-1.4-2.4l-.2.2h40.5c1,0,2.1,0,3.1,0,.6,0,.1,0,.2-.1-.4.8-.9,1.6-1.4,2.4-.1.2.3.2.4,0l1.4-2.5c0-.1,0-.2-.2-.2h-44c-.1,0-.3.1-.2.2l1.4,2.5s0,0,.2,0h41.2c.2,0,.3-.4,0-.4h0Z"/>
  <path class="st29" d="M40.9,160h48.6c.5,0,.9.4.9.9h0c0,.5-.4.9-.9.9h-48.6c-.5,0-.9-.4-.9-.9h0c0-.5.4-.9.9-.9Z"/>
  <path class="st10" d="M89.6,161.7h-46.8c-.6,0-1.2,0-1.8,0-.4,0-.8-.4-.8-.8,0-.4.3-.7.7-.8.2,0,.5,0,.7,0h45.3c.8,0,1.5,0,2.3,0,.7.1,1.8,1.3.4,1.6-.2,0-.3.2,0,.2,1.3-.3,1.4-1.8,0-1.9h-41.8c-2.2,0-4.4-.2-6.6,0-1.3.1-1.8,1.7-.2,1.9.5,0,1,0,1.6,0h38.7c2.6,0,5.3.1,7.9,0h.4c.1,0,.5-.2.2-.2h0Z"/>
</svg>