<?xml version="1.0" encoding="UTF-8"?>
<svg xmlns="http://www.w3.org/2000/svg" xmlns:xlink="http://www.w3.org/1999/xlink" viewBox="0 0 1334 1000">
  <defs>
    <style>
      .cls-1 {
        fill: #dbb28e;
      }

      .cls-2 {
        fill: #040404;
      }

      .cls-3 {
        fill: #3c5c2c;
      }

      .cls-4 {
        fill: #13110f;
      }

      .cls-5 {
        fill: #9f6a42;
      }

      .cls-6 {
        fill: #476c34;
      }

      .cls-7 {
        fill: #010101;
      }

      .cls-8 {
        fill: #ddad6f;
      }

      .cls-9 {
        fill: url(#linear-gradient-2);
      }

      .cls-10 {
        fill: #aa3828;
      }

      .cls-11 {
        fill: #231f20;
      }

      .cls-12 {
        fill: #27153c;
      }

      .cls-13 {
        fill: #7bbece;
      }

      .cls-14 {
        fill: url(#linear-gradient);
      }

      .cls-15 {
        fill: #f1eef7;
      }

      .cls-16 {
        fill: #31160e;
      }

      .cls-17 {
        fill: #0a2f44;
      }

      .cls-18 {
        fill: #d58780;
      }

      .cls-19 {
        fill: #874d3e;
      }

      .cls-20 {
        fill: #fff;
      }

      .cls-21 {
        fill: #354c24;
      }

      .cls-22 {
        fill: #4d1513;
      }

      .cls-23 {
        fill: #59341c;
      }

      .cls-24 {
        fill: #513835;
      }

      .cls-25 {
        fill: #1d170f;
      }

      .cls-26 {
        fill: #151210;
      }

      .cls-27 {
        fill: #628e9f;
      }

      .cls-28 {
        fill: #825639;
      }

      .cls-29 {
        fill: #94664a;
      }

      .cls-30 {
        fill: #060505;
      }

      .cls-31 {
        fill: #eb9944;
      }

      .cls-32 {
        fill: #4f2e25;
      }
    </style>
    <linearGradient id="linear-gradient" x1="956.22" y1="1259.01" x2="1047.37" y2="-905.16" gradientUnits="userSpaceOnUse">
      <stop offset=".29" stop-color="#bbe5f5"/>
      <stop offset=".81" stop-color="#76c7db"/>
    </linearGradient>
    <linearGradient id="linear-gradient-2" x1="890.8" y1="1208.33" x2="926" y2="372.62" gradientUnits="userSpaceOnUse">
      <stop offset=".01" stop-color="#769a3e"/>
      <stop offset=".98" stop-color="#496b33"/>
    </linearGradient>
  </defs>
  <g id="Layer_1" data-name="Layer 1">
    <rect class="cls-14" x="-159.47" y="-581.45" width="2313.73" height="1725.5"/>
    <polygon id="City_02" class="cls-13" points="1793.45 28.93 1793.45 142.9 1751.02 142.9 1751.02 -129.26 1580.6 -97.31 1580.6 78.77 1454.56 80.18 1454.83 39.83 1454.83 -106.07 1347.21 -57.44 1347.21 45.23 1248.81 45.23 1248.81 -60.14 1196.54 -92.56 1147.34 -65.55 1147.34 128.95 1036.64 128.95 1036.64 3.11 910.57 3.11 910.57 -96.3 801.16 -98.43 799.87 92.75 680 90.94 673.8 -92.87 553.79 -57.66 550.8 45.23 476.97 -5.92 477 -144.14 338.63 -84.7 338.63 64.15 274.05 64.15 270.98 -22.8 181.8 -22.8 181.8 116.59 101.77 116.3 101.86 -46.63 49.58 -79.05 52.66 -189.83 -58.04 -249.44 -61.12 478.17 1621.48 514.46 1962.8 478.17 1962.8 121.73 1793.45 28.93"/>
    <path class="cls-6" d="M1393.61,561.12c13.38-14.49,27.57-30.86,27.97-50.58.4-19.72-22.31-39.41-38.74-28.51,4.77-11.85.3-26.72-10.21-33.98-10.51-7.26-26-6.17-35.39,2.49-5.33-28.61-49.03-39.89-67.54-17.43,1.74-11.17-14.04-18.67-23.86-13.08-9.82,5.59-13.18,18.36-12.4,29.63-6.43-13.19-21.5-21.62-36.11-20.18-14.6,1.44-27.75,12.65-31.48,26.84-1.4-12.48-3.46-26.24-13.09-34.3-9.63-8.06-28.8-3.5-28.54,9.06,2.89-17.74-6.99-36.81-23.15-44.69-16.16-7.87-37.27-3.89-49.46,9.32-2.37-17.39-8.87-35.52-23.3-45.51-14.43-9.99-38.06-7.38-45.4,8.56-8.31-13.59-21.63-26.03-37.56-26.03-15.93,0-30.73,18.91-22.1,32.29-11.78-19.66-48.5-11.91-51.33,10.83-8.47-13.14-26.13-19.53-41.05-14.87-14.92,4.67-25.79,19.98-25.26,35.61-14.84-9.13-35.44-7.66-48.83,3.48-13.39,11.15-18.57,31.14-12.28,47.39-44.59,3.56-77.16,57.12-59.81,98.36"/>
    <path class="cls-3" d="M50.58,550.43c-13.32-15.76-27.43-33.57-27.71-55.13-.28-21.56,22.6-43.23,39-31.41-4.71-12.93-.13-29.21,10.44-37.21,10.58-8,26.09-6.9,35.45,2.51,5.51-31.31,49.38-43.92,67.78-19.48-1.67-12.2,14.19-20.5,23.99-14.45,9.8,6.06,13.1,19.99,12.24,32.32,6.52-14.47,21.68-23.77,36.31-22.29,14.63,1.48,27.72,13.65,31.37,29.15,1.48-13.66,3.63-28.71,13.33-37.59,9.7-8.87,28.88-4,28.54,9.73-2.79-19.38,7.24-40.3,23.48-49,16.24-8.71,37.37-4.49,49.5,9.89,2.48-19.03,9.11-38.89,23.63-49.9,14.52-11.01,38.18-8.3,45.44,9.08,8.41-14.91,21.84-28.6,37.8-28.69,15.96-.09,30.68,20.48,21.94,35.17,11.92-21.57,48.67-13.32,51.37,11.52,8.57-14.42,26.3-21.52,41.23-16.51,14.92,5.01,25.72,21.69,25.09,38.77,14.93-10.08,35.56-8.6,48.91,3.51,13.35,12.11,18.41,33.94,12.01,51.74,44.66,3.62,76.96,61.98,59.32,107.17"/>
    <path class="cls-21" d="M1072.54,596.04c-10.58-11.46-21.8-24.4-22.11-40-.32-15.59,17.64-31.17,30.64-22.54-3.77-9.37-.24-21.13,8.07-26.87,8.31-5.74,20.56-4.88,27.99,1.97,4.21-22.62,38.77-31.54,53.4-13.78-1.37-8.83,11.1-14.76,18.87-10.34,7.76,4.42,10.42,14.52,9.8,23.43,5.08-10.43,17-17.1,28.55-15.96,11.55,1.14,21.94,10,24.89,21.22,1.11-9.87,2.73-20.75,10.35-27.12,7.62-6.37,22.77-2.76,22.57,7.16-2.29-14.03,5.53-29.11,18.31-35.33,12.78-6.22,29.47-3.08,39.11,7.37,1.87-13.75,7.01-28.08,18.42-35.98,11.41-7.9,30.09-5.83,35.9,6.77,6.57-10.75,17.11-20.59,29.7-20.58,12.6,0,24.3,14.95,17.47,25.54,9.31-15.54,38.35-9.42,40.59,8.56,6.7-10.39,20.66-15.45,32.46-11.76,11.8,3.69,20.39,15.8,19.98,28.15,11.73-7.22,28.02-6.06,38.61,2.75,10.59,8.82,14.68,24.63,9.71,37.47,35.26,2.82,61.01,45.17,47.3,77.77"/>
    <path class="cls-21" d="M-279.59,549.18c-10.58-11.46-21.8-24.4-22.11-40-.32-15.59,17.64-31.17,30.64-22.54-3.77-9.37-.24-21.13,8.07-26.87,8.31-5.74,20.56-4.88,27.99,1.97,4.21-22.62,38.77-31.54,53.4-13.78-1.37-8.83,11.1-14.76,18.87-10.34,7.76,4.42,10.42,14.52,9.8,23.43,5.08-10.43,17-17.1,28.55-15.96,11.55,1.14,21.94,10,24.89,21.22,1.11-9.87,2.73-20.75,10.35-27.12,7.62-6.37,22.77-2.76,22.57,7.16-2.29-14.03,5.53-29.11,18.31-35.33,12.78-6.22,29.47-3.08,39.11,7.37,1.87-13.75,7.01-28.08,18.42-35.98,11.41-7.9,30.09-5.83,35.9,6.77,6.57-10.75,17.11-20.59,29.7-20.58,12.6,0,24.3,14.95,17.47,25.54,9.31-15.54,38.35-9.42,40.59,8.56,6.7-10.39,20.66-15.45,32.46-11.76,11.8,3.69,20.39,15.8,19.98,28.15,11.73-7.22,28.02-6.06,38.61,2.75,10.59,8.82,14.68,24.63,9.71,37.47,35.26,2.82,61.01,45.17,47.3,77.77"/>
    <path class="cls-9" d="M2193.58,1128.55H-380.18v-595.55l797.74-8.16c102.43-4.48,889.77-2.67,992.23,1.67l783.8,6.5v595.55Z"/>
    <g>
      <path class="cls-3" d="M690.99-134.14c-28.53.55-56.65,5.58-82.84,14.82,14.61-26.02,51.25-42.55,86.09-38.85l-13.08-27.2-34.82,20.36c4.72-30.1,25.54-56.97,56.87-73.42l-65.03,16.88c10.6-21.5,33.3-37.5,60.95-42.98l-62.23-.41c13.22-19.64,44.7-28.88,70.56-22.18-11.1-4-21.7-8.87-31.59-14.61-4.14-2.38-8.61-5.82-6.29-10.13,1.31-2.44,4.36-4.03,7.62-4.28,16.65-1.3,33.29,2.03,47.25,9.38l-44.77-42.45c21.73-5.19,47.35,6.03,53.95,23.68,5.2-35.04,36.04-66.01,69.85-82.34l-7.03,3.13c2.62-1.25,5.29-2.4,7.95-3.58.9-.43,1.81-.85,2.71-1.26l-54.02-34.27c40.13-9.21,79.74,1.59,110.88,15.95,2.17-.49,4.34-1,6.52-1.44l-52.31-38.2c36.74-10.29,66.17,5.54,84.86,21.29,3.57,1.28,7.03,2.78,10.33,4.52l-44.77-42.45c21.73-5.19,47.35,6.03,53.95,23.68,5.2-35.04,36.04-66.01,69.85-82.34l-7.03,3.13c2.62-1.25,5.29-2.4,7.95-3.58.9-.43,1.81-.85,2.71-1.26l-54.02-34.27c40.13-9.21,79.74,1.59,110.88,15.95,2.17-.49,4.34-1,6.52-1.45l-52.31-38.2c45.5-12.74,79.79,14.56,96.33,32.17,30.29-2.19,61.07-.46,91.17,5.43-17.2-14.77-37.42-26.99-59.75-36.14,43.79-15.25,99.87-1.45,125.83,30.99-8.81-16.73-14.65-34.4-17.36-52.47,26.36,5.38,44.77,29.22,39.32,50.9,4.75-18.65,12.89-36.64,24.15-53.36,2.21-3.27,6.8-5.27,11.28-4.47,6.43,1.14,7.18,6.52,6.96,10.96-.98,19.46-9.17,38.22-23.48,53.83,16.19-2.43,24.91-18.64,42.72-18.83,5.66-.06,11.14,2.51,13.14,6.82,4.05,8.71-8.37,15.66-19.07,17.51-10.33,1.79-22.66,2.67-28.06,10.06,55.2,4.78,101.29,47.46,100.04,92.57,8.49-12.95,16.97-25.88,25.46-38.8,3.53,18.77,1.04,37.97-7.23,55.72,10.71-23.05,42.94-37.99,72.76-33.73-19.73,13.63-36.26,30.07-48.8,48.5,19.23-10.43,43.93-11.46,64.38-2.69l-59.15,26.22c57.37-8.86,120.23,12.75,152.42,52.47-9.61-20.45-15.08-42.05-16.18-63.93,28.04,11.79,41.87,41.98,30.16,65.82,15.89-17.28,41.45-26.83,67.9-25.37-10.85,16.47-24.92,31.4-41.64,44.2l5.78,4.07c31.66.67,61.23,20.26,68.35,45.24l-35.02-12.66c11.87,11.98,19.59,26.33,22.36,41.55l-26.39-8.14c12.86,9.86,21.45,22.63,25.91,36.4v-.04s39.37-1.59,40.58,45.84l-37.25-18.04c-1.21,17.63-8.75,34.88-22.49,48.34,4.26,15.06,7.92,33.73,5.69,48.6-4.09,27.24-77.31,128.55-193.93,85.69-2.99,3.01-6.19,5.89-9.79,8.49.5,11.63-4.41,22.98-13.76,31.78-5.99-10.61-11.98-21.23-17.98-31.86-3.6,13.27-10.88,25.69-21.28,36.32-.87-12.97-5.9-25.54-14.58-36.44l-27.2,7.7c3.88,5.75,6.37,14.16,4.63,26.54-4.86,34.58-23.06,38.54-23.06,38.54l-17.31-54.96-44.98,12.73c13.61,12.36,17.83,29.78,11,45.42-8.02-11.22-19.39-20.6-33.06-27.28,7.95,16.77,7.83,35.37-.33,52.08-8.07-12.35-16.16-24.63-24.26-36.85,1.38,24.54-10.06,48.42-31.49,65.72-5.94-21.82-4.74-44.52,3.5-65.84-15.9,15.99-27.47,34.54-33.96,54.42-6.51-16.96-5.62-35.22,2.5-51.71l-7.13,7.07c-23.17,22.98-65.16,25.67-92.46,5.94-22.01-8.37-47.21-9.26-70.03-2.46,13.4,22.93,12.13,49.75-3.4,71.77-9-21.3-17.99-42.56-26.96-63.78-1.23,16.95-2.47,33.92-3.7,50.9-21.29-17.6-32.75-41.55-31.69-66.23-7.36,20.9-20,40.31-37.12,57.01-7.53-20.63-4.23-42.87,9.13-61.44-19.3,10.56-35.48,24.47-47.4,40.72-6.23-20.29.33-41.78,17.51-57.33-19.74,11.88-39.47,23.77-59.17,35.69-8.66-8.72-22.99-35.07-2.82-50.87-32.11-15.99-17.65-6.33-54.29-13.33l-31.1,18.97c-12.5-15.44-15.12-34.84-7.03-52.12l-41.72,49.35c-.12-23.24-.23-46.47-.33-69.71l-55.25,52.83c-.33-24.95,8.81-49.37,26.16-69.93-22.19,9.32-41.82,22.21-57.7,37.89-2.49-30.97,15.88-60.6,47.97-77.37l-62.93,10.93c11.15-25.76,37.34-45.3,69.83-52.1Z"/>
      <path class="cls-5" d="M1129.04,86.69s12.41,29.73,12.31,51.28c-.11,21.55,5.16,45.33,3.44,69.86-1.72,24.52-23.63,319.57-23.63,319.57l98.5,1.17s-6.58-263.97-9.03-315.43c-2.15-45.27-81.59-126.44-81.59-126.44Z"/>
      <path class="cls-5" d="M1067.94,9.64l-121.03-116.84,9.02-17.74,102.31,100.46,65.13,55.41-68.6-226.26,10.05-8.51,56.62,131.16,41.79-59.36h6.9s-48.69,69.65-48.69,69.65l24.3,114.77,41.38,37.69c.74-3.14,1.47-5.91,2.11-8.14l45.98-107.11-34.67-115.52,7.79-3.97s32.64,85.44,37.54,90.25c4.9,4.81,39.86-87.05,39.86-87.05l56.83-120.46,18.78,10.25-54.21,112.58,68.78-52.58,6.28,6.49-64.37,57.11s-51.56,80.73-49.59,88.63c1.98,7.9,151.72-38.79,151.72-38.79l4.92,9.11s-137.1,44.72-147.79,58.98c-10.69,14.26-32.18,60.14-36.94,75.19-3.79,11.71-12.07,28.22-11.49,34.96,0,0-19.2,41.6-20.7,95.01,9.11,24.1-11.27,55.03-8.15,80.11l-5.4,56.43-26.76-44.04,4.37-21.93c2.53-59.53-23.54-127.25-24.94-145.96l-76.21-98.9-106.94-38.77v-7.13s104.02,34.83,104.02,34.83Z"/>
      <path class="cls-3" d="M1061.99,60.43s-5,15,13.13,32.51l18.13,17.5s10-38.13-3.75-50.01c-13.75-11.88-27.51,0-27.51,0Z"/>
      <path class="cls-3" d="M1332.35,12.21s-5,15,13.13,32.51l18.13,17.5s10-38.13-3.75-50.01c-13.75-11.88-27.51,0-27.51,0Z"/>
    </g>
  </g>
  <g id="Layer_2" data-name="Layer 2">
    <rect class="cls-8" x="760.59" y="144.16" width="12.79" height="34.1" rx="4.28" ry="4.28" transform="translate(1549.71 201.23) rotate(171.06)"/>
    <rect class="cls-8" x="803.77" y="177.69" width="12.79" height="34.1" rx="4.28" ry="4.28" transform="translate(1544.28 -199.44) rotate(138.25)"/>
    <path class="cls-1" d="M860.76,238.8s.2,13.85,5.34,29.95c7.41,23.23,29.81,31.4,29.81,31.4l-80.78,65.23-39.37-27.64s18.08-17.81,17.72-22.63c-.36-4.82-14.97-35.82-14.97-35.82"/>
    <path class="cls-28" d="M861,241.42c.02.09.02.16.04.25,0-.11,0-.2-.04-.25Z"/>
    <path class="cls-1" d="M814.97,303.83l-23.27,7.84-10.69,2.37c-4.74,1.05-9.01-.32-12.08-4.07-6.43-7.87-8.88-12.12-9.7-13.05-4.28-4.85-10.9-13.85-14.16-19.46-3.49-6.01-6.64-9.29-9.48-16.84-2.08-5.53-3.05-9.52-2.21-19.55.21-2.55-.32-4.91-1.51-7.3-2.52-5.05-4.45-11.19-7.66-18-.25-.53-1.56-3.1-1.48-3.76,0,0-8.4-29.56-5.55-41.52,2.85-11.97,5.49-24.11,12.86-28.01,7.38-3.9,35.13-2.7,35.13-2.7l30.93-12.25,30.44,6.96,21.73,29.77,7.19,38.86,5.53,38.31"/>
    <path class="cls-26" d="M835.46,149.55c-1.93-17.57-18.68-20.38-25.74-21.83-5.98-1.23-22.38-2.52-33.15,1.77-4.63,1.85.02,11.41-2.16,13.84-.79.38-10.05,4.92-13.78,6.4-5.01,2-9.59,3.75-14.77,3.82-.7-.1-4.24-.49-8.42,1.18-4.8,1.92-9.83-9.84-17.25,4.12l-.62-.4c8.89-19.99,25.85-23.7,45.37-31.49,2.06-.82,4.22-1.59,6.39-2.27,31.64-9.92,30.66-9.44,56.59,6.92,15.07,9.51,25.01,19.66,26.61,27.16l.36,1.69c1.68,7.82,14.56,27.07,12.83,31.98-1.11,3.14-3.82,16.43-6.03,27.7l-15.28,3.95c-.36-2.97-4.98-28.01-5.53-31.02"/>
    <path class="cls-1" d="M860.44,242.13c15.3,9.11,12.82-12.06,12.82-12.06,6.02-12.55,3.23-23.61,1-31.09-2.22-7.48-10.51-5.27-10.51-5.27-6.87,2.55-10.4,5.29-10.29,30.6"/>
    <path class="cls-26" d="M740.29,146.9c11.48-2.91,39.85-17.99,55.26-22.65,6.38-1.93,31.64,9.04,35.29,12.02,8.37,6.85-1.92,29.53,15.4,53.58,5.72,7.94,7.22-8.67,13.19-3.99,5.97,4.68,8.29,6.6,8.29,6.6-2.59-26.31-2.47-25.39-14.03-49.26-11.52-23.8-41.5-28.35-55.26-27.34-13.76,1.01-55.34,15.22-65.58,23.28"/>
    <path class="cls-32" d="M860.79,220.27c.87-4.54,1.94-9.2,4-13.37.74-1.5,1.8-3.32,3.06-4.21.08-.06.17-.11.25-.16-.16.09,0,.05.05-.02.12-.15,0,0,0,0l-.68-.05c.08.06,0-.05.09.08.11.16.31.29.44.43.5.53.93,1.13,1.31,1.76,1.43,2.39,1.95,5.23,1.97,7.98,0,.68,1.46.42,1.46-.15-.02-3.27-.7-6.63-2.67-9.31-.57-.78-1.32-1.93-2.41-1.52-2.36.91-3.81,4.04-4.74,6.15-1.75,3.98-2.77,8.27-3.58,12.53-.12.64,1.35.42,1.46-.15h0Z"/>
    <path class="cls-32" d="M862.9,221.57c2.12-.63,2.31,3.53,2.44,4.76s.09,4.72,2.13,4.47c1.04-.13,1.44-.95,1.63-1.87.35-1.64.3-3.39.22-5.06-.11-2.42-.4-4.51-1.28-6.74-.97-2.45-2.55-5.35-5.4-5.81-.42-.07-1.7.61-.9.74,2.41.39,3.83,3.02,4.69,5.06.72,1.71,1.14,3.34,1.31,5.18.17,1.9.27,3.83.08,5.73-.06.56-.13,1.13-.31,1.66-.01.03-.27.54-.27.55l.68-.17-.07-.04c-.02-.07-.18-.15-.24-.22-.52-.61-.58-1.68-.67-2.43-.14-1.08-.21-2.16-.39-3.23-.16-.95-.38-2.09-1.08-2.81-.73-.75-1.82-.7-2.76-.42-.85.25-.69.92.18.66h0Z"/>
    <path class="cls-29" d="M778.46,268.91c8.91-2.55,23.04-7.72,23.04-7.72,0,0,4.48,22.14-16.18,28.04-20.65,5.91-25.35-15.65-25.35-15.65,0,0,9.58-2.12,18.48-4.67Z"/>
    <path class="cls-30" d="M778.38,268.93c4.23-1.21,21.1-6.81,21.1-6.81,0,0-2.23,15.3-17.55,19.69-16.61,4.75-19.09-7.57-19.09-7.57l15.54-5.31Z"/>
    <path class="cls-15" d="M778.37,269.62c4.23-1.21,16.92-5.61,16.92-5.61,0,0-3.31,5.96-16.02,9.59-12.7,3.64-18.03.29-18.03.29l17.13-4.27Z"/>
    <path class="cls-29" d="M757.94,273.31c.42-.24,1.04-.96,3.09-1.74,3.42-1.3,3-1.83,5.48-2.75,4.24-1.57,7.48-.65,9.37-1.19,1.89-.54,4.15-3.04,8.58-3.94,2.6-.53,9.15-1.41,12.74-2.11,2.15-.42,4.39-1.94,4.87-1.96.67-.03.77,4.91-22.93,11.69-23.7,6.78-21.78,2.34-21.2,2.01Z"/>
    <path class="cls-26" d="M873.32,196.84s3.5-14.51-1.48-35.5c-4.98-20.99-13.18-48.83-40.11-54.09-7.89-1.54-14.57-.68-14.57-.68,0,0-19.94-12.83-62.69,6.53-30.01,13.59-39.31,29.39-36.38,54.19,0,0,5.71-14.62,8.65-14.09,2.94.53,6.79,6.3,17.61,4.7,10.82-1.61,27.3-7.27,33.19-13.36,5.89-6.09,17.43-13.67,24.92-14.42,18.18-1.83,23.32,11.02,26.66,18.45,3.34,7.43,14.19,33.95,23.74,35.65s11.64,9.15,11.64,9.15l1.54.21c2.69.37,5.22,1.5,7.28,3.27h0Z"/>
    <path class="cls-4" d="M789.93,209.44c1.37-1.15,3.91-1.48,5.12-.81.29.16,1.06.62,1.59,1.57.67,1.21.48,2.8-.13,3.88-.82,1.44-2.59,2.05-4.13,1.71-2.09-.46-3.21-2.6-3.11-4.36.02-.32-.42-.84.69-1.77"/>
    <path class="cls-4" d="M733.98,225.27c1.37-1.15,3.91-1.48,5.12-.81.29.16,1.06.62,1.59,1.57.67,1.21.48,2.8-.13,3.88-.82,1.44-2.59,2.05-4.13,1.71-2.09-.46-3.21-2.6-3.11-4.36.02-.32-.42-.84.69-1.77"/>
    <path class="cls-26" d="M771.64,208.93s18.09-13.02,27.75-14.73c9.66-1.71,13.26-1.08,13.26-1.08,0,0,1.96-1.92,0-2.7s-11.15-3.01-16.48-2.12c-5.33.89-27.59,12.6-27.59,12.6l3.05,8.03Z"/>
    <path class="cls-26" d="M723.14,216.28c-.07-.28-.16-.55-.29-.81.05.1.09.2.14.31-.21-.46-.37-.95-.52-1.43.29-1.29.09-2.41.3-3.71,9.46-1.89,25.35-2.82,25.35-2.82l2.45,8.63s-14.75-1.88-26.26.48c-.36-.29-.75-.51-1.18-.64Z"/>
    <path class="cls-4" d="M758.14,248.12c-.11,1.59-.22,3.18-.3,4.77-.05,1-.08,2-.08,3,0,.51-.06,1.19.17,1.66.5,1.04,1.64,1.68,2.71,1.97.98.27,2.01.3,3.03.26,2.3-.1,4.55-.47,6.78-1.04,1.48-.38,2.94-.84,4.35-1.42,1.14-.47,2.31-1.03,3.25-1.84.12-.1.07-.2-.06-.23-.15-.04-.4.04-.51.14-.78.67-1.72,1.14-2.65,1.54-1.18.51-2.4.92-3.63,1.26-2.22.62-4.48,1.05-6.78,1.19-1.93.12-4.24.05-5.51-1.65-.19-.25-.29-.45-.34-.75s-.05-.61-.06-.91c-.02-.93,0-1.86.05-2.79.07-1.75.2-3.5.32-5.25.02-.27-.71-.13-.72.1h0Z"/>
    <path class="cls-4" d="M782.96,247.16c.85-.11,1.72.15,2.4.66.79.59,1.19,1.51,1.39,2.46.11.5.13,1.01-.05,1.49-.16.43-.43.81-.75,1.12-.71.68-1.66,1.05-2.56,1.41-1.1.43-2.23.79-3.41.86-.13,0-.4.05-.49.17s.08.11.17.1c1.2-.06,2.38-.39,3.51-.81,1.05-.39,2.15-.79,3.06-1.47.81-.61,1.43-1.52,1.34-2.57s-.51-2.11-1.28-2.81c-.81-.73-1.93-1.02-3-.88-.14.02-.39.05-.49.17s.08.11.17.1h0Z"/>
    <path class="cls-2" d="M845.62,201.57l-1.07-3.36-37.93.25h0c-13.93-1.2-30.53,7.42-38.85,16.96l-8.87,3.1.04-.16c-12.74-4.62-30.5-.68-42.06,9.34l.77,1.3h0c.03.09.18.26.33.54l.68,1.12c4.27,7.2,9,14.74,11.83,16.27,1.9,1.03,6.95.31,11.03-.55,1.55-.31,2.95-.65,3.95-.89,1.2-.31,11.89-3.03,13.18-5.19,1.29-2.16.74-15.28.48-19.4l9.1-3.14c2.05,2.66,8.21,14.89,13.47,16.2,5.26,1.3,28.02-6.51,29.22-10.34.85-2.73,2.78-12.26,2.67-16.83l.33-6.02,31.68.82ZM757.24,239.38c-1.47,2.14-22.69,7.79-25.97,6.02-2.78-1.5-8.87-11.76-11.16-15.62l-.05-.17c10.53-8.29,26.52-11.87,37.54-8.04.32,7.15.44,16.42-.37,17.77v.04ZM807.93,223.46c-.74,2.41-20.38,10.12-25.8,8.77-3.77-.92-8.43-9.82-11.54-14.79,8.19-9.13,27.94-17.85,40.54-16.05-.06,7.27-.89,16.05-3.2,22.06h0Z"/>
    <path class="cls-11" d="M914.91,853.89l48.77-.04c-2.36-7.9-6.46-15.19-11.2-21.93-2.51-3.57-5.25-7.04-8.66-9.76-2.96-2.37-6.37-4.13-9.89-5.56-5.69-2.31-11.73-3.78-17.84-4.36-.62-.06-1.33-.07-1.76.38-.3.33-.36.8-.41,1.24-1.48,14.39-2.15,28.86-2.01,43.32"/>
    <g>
      <path class="cls-23" d="M1078.69,857.01s-3.75,10.31-14.08,8.56c-10.34-1.75-32.49-7.64-50.47-9.38-24.97-2.42-44.92,4.7-53.82.11-9.06-4.67.91-17.13-17.73-29.14-18.48-11.91-38.38-11.12-39.43-11.37-2.78-5.02,6.59-37.51,15.92-41.36,9.34-3.85,56.99,21.02,56.99,21.02l40.92,15.42,37.46,21.1,24.24,25.04Z"/>
      <path class="cls-11" d="M957.52,786.85c-1.86,3.36-4.13,6.67-7.2,9.04-1.56,1.2-3.39,2.15-5.38,2.31-2.57.2-5.3-.77-7.79-1.32-7.99-1.8-17.47-4.88-25.26-.77-4.5,2.37-7.2,6.67-9.06,11.27-.26.65,1.89.4,2.17-.29,1.72-4.24,4.23-8.49,8.52-10.53,3.67-1.75,7.91-1.38,11.8-.75,5.14.84,10.18,2.21,15.28,3.26,3.93.81,7.68-.13,10.92-2.47,3.43-2.48,5.98-6.06,8-9.72.48-.86-1.68-.61-2.02-.02h0Z"/>
      <path class="cls-11" d="M902.24,813.19c8.8-.48,17.46.41,25.67,3.78,5.17,2.12,9.89,5.06,14.47,8.23,3.2,2.21,6.33,4.55,9.2,7.18,5.06,4.64,8.89,10.59,14.71,14.39,3.34,2.18,7.29,3.19,11.2,3.71,4.82.64,9.71.63,14.56.57,6.24-.07,12.49-.25,18.73.02,1.66.07,3.38-.31,4.58.98,1.57,1.68.5,3.7-.87,5.12-.86.9,1.25.81,1.73.31,1.2-1.24,2.53-2.91,2.04-4.76-.26-.98-1.04-1.84-1.91-2.33-.35-.2-.57-.24-1.01-.28-1.55-.17-3.13-.2-4.68-.25-3.04-.11-6.08-.12-9.13-.1-5.44.04-10.88.25-16.32.07-4.58-.15-9.32-.54-13.62-2.24-7.12-2.81-11.37-9.58-16.63-14.75-2.56-2.52-5.38-4.76-8.28-6.86-4.41-3.2-9-6.27-13.92-8.63-9.35-4.5-19.39-5.89-29.67-5.33-.4.02-1.26.13-1.44.58-.16.42.14.62.58.6h0Z"/>
      <path class="cls-11" d="M989.63,799.62c-2.84-1.07-5.68-2.14-8.53-3.21-.55-.21-1.93.19-1.72.99,1.45,5.45,4.16,10.49,7.86,14.74,4.31,4.95,9.75,8.38,15.21,11.91,6.17,3.98,12.36,7.95,18.37,12.18,4.75,3.34,9.64,6.81,13.55,11.14,1.3,1.44,2.68,3.11,3.14,5.05.68,2.87-2.01,4.94-4.23,6.16-1.3.71-.12,1.77.94,1.19,2.33-1.28,5.02-3.12,5.55-5.93.28-1.47-.28-2.92-.99-4.19-2.44-4.35-6.95-7.69-10.83-10.67-5.84-4.47-12.01-8.5-18.17-12.51s-12.64-7.5-17.89-12.51c-4.93-4.71-8.57-10.55-10.32-17.15l-1.72.99c2.84,1.07,5.68,2.14,8.53,3.21.87.33,2.54-.92,1.27-1.4h0Z"/>
      <g>
        <path class="cls-31" d="M983.54,798.46l.28-.09-.35-.13c.02.07.04.15.06.22Z"/>
        <path class="cls-11" d="M983.66,798.89c.08-.03.17-.05.25-.08h.04c.14-.05.26-.1.38-.18.1-.06.18-.14.24-.23.05-.08.07-.16.05-.25-.03-.09-.08-.15-.17-.19-.1-.04-.2-.08-.3-.11l-.04-.02-.15-.06c-.09-.02-.18-.03-.28-.02-.07,0-.14,0-.21.02-.11.01-.21.05-.31.09l-.18.09-.14.11c-.06.05-.1.11-.12.18-.03.06-.04.12-.02.19.02.07.04.15.06.22.02.07.06.12.11.15.06.05.12.08.2.1.09.02.18.03.28.02.11,0,.21-.01.31-.04l.2-.07c.12-.05.22-.12.32-.2l.1-.12c.05-.08.07-.16.05-.25-.02-.07-.04-.15-.06-.22l-1.4.61c.1.04.2.08.3.11l.04.02.5-.83c-.08.03-.17.05-.25.08h-.04c-.1.04-.2.07-.29.13-.08.04-.16.09-.23.16-.06.05-.1.11-.12.18-.03.06-.04.12-.02.19l.06.11c.07.07.15.12.25.14l.18.03c.14,0,.28,0,.41-.05Z"/>
      </g>
      <g>
        <path class="cls-31" d="M968.2,794.75l1.51.93c.72-1.17,1.4-2.04,1.82-2.54-.5-.25-1.05-.53-1.63-.81-.46.56-1.07,1.38-1.7,2.42Z"/>
        <path class="cls-11" d="M967.47,795.01c.5.31,1,.62,1.51.93.2.12.6.03.8-.03.23-.07.57-.16.71-.38.32-.51.65-1.01,1.01-1.5.14-.19.28-.38.43-.56.06-.08.12-.16.19-.24,0-.01.1-.13.05-.06.03-.03.06-.07.08-.1.04-.05.13-.15.03-.2-.54-.27-1.08-.54-1.63-.81-.23-.11-.57-.03-.8.03-.25.07-.54.16-.71.38-.62.77-1.18,1.58-1.7,2.42-.15.24.56.16.62.14.2-.04.41-.09.6-.19.12-.06.25-.12.32-.24.52-.84,1.08-1.65,1.7-2.42l-1.51.4c.54.27,1.09.54,1.63.81l.03-.2c-.69.82-1.32,1.7-1.89,2.61l1.51-.4c-.5-.31-1-.62-1.51-.93-.11-.07-.28-.05-.4-.04-.2.02-.42.07-.61.14-.08.03-.7.29-.47.44Z"/>
      </g>
      <g>
        <path class="cls-31" d="M960.45,792.22c.73-1.09,1.43-2.26,2.08-3.46l-.23-.13c-.45-.21-.91-.43-1.37-.65-.61,1.13-1.27,2.23-1.96,3.25l1.48.98Z"/>
        <path class="cls-11" d="M961.19,792.26c.75-1.12,1.44-2.28,2.08-3.46.09-.17.06-.34-.12-.44-.52-.29-1.07-.52-1.6-.77-.4-.19-1.13-.05-1.35.36-.61,1.11-1.26,2.2-1.96,3.25-.12.17-.04.34.12.44.49.33.98.66,1.48.98.3.2.84.06,1.11-.13.25-.17.43-.46.12-.67-.49-.33-.98-.66-1.48-.98l.12.44c.7-1.05,1.35-2.14,1.96-3.25l-1.35.36c.54.25,1.08.49,1.6.77l-.12-.44c-.64,1.18-1.34,2.34-2.08,3.46-.21.31.18.51.44.52.37.01.82-.12,1.03-.44Z"/>
      </g>
      <g>
        <path class="cls-7" d="M921.16,768.74s-3.4,4.28-2.46,4.71l-.48,1.47c5.94,2.77,26.43,12.27,39.32,17.44,3.93,1.58,9.04,3.31,14.95,5.32,13.72,4.65,32.51,11.03,50.8,20.46,3.28,1.69,6.47,3.44,9.5,5.21,25.31,14.8,43.36,31.69,47.19,35.39l.97-1.2c.59.57.89.88.89.88,0,0,1.47-1.55,2.81-2.97,0,0,0,0,0,0,.12-.13.23-.25.35-.37.48-.51.92-.97,1.24-1.31-8.19-14.31-61.34-46.87-75.32-50.91-.88-.25-1.83-.54-2.82-.84-.41-.13-.85-.27-1.27-.4-.65-.21-1.29-.41-1.97-.63-14.74-4.76-36.01-12.88-36.01-12.88,0,0,1.19-1.78,2.45-3.94h0s.02-.05.04-.07c.54-.92,1.08-1.89,1.56-2.84-22.53-13.62-45.71-22.6-45.71-22.6l-6.04,10.07Z"/>
        <path class="cls-11" d="M920.43,768.7c-.86,1.08-1.74,2.23-2.33,3.48-.27.56-.34.89-.24,1.47.07.4.07-.16.05-.07-.03.16-.11.33-.16.48l-.31.95c-.04.12.07.27.17.31,9.14,4.26,18.32,8.45,27.56,12.48,5.16,2.25,10.33,4.49,15.61,6.43,6.35,2.33,12.78,4.4,19.17,6.61,13.82,4.78,27.49,10.04,40.57,16.6,13.2,6.62,25.67,14.66,37.43,23.58,7.41,5.62,14.62,11.57,21.31,18.04.4.38,1.15.09,1.45-.28l.97-1.2c-.48.09-.97.18-1.45.28.3.29.6.58.89.88.33.33,1.06.15,1.35-.16.94-.99,1.87-1.98,2.81-2.97l-1.35.16h0c.27.38,1.1.11,1.35-.16.53-.56,1.06-1.12,1.59-1.69.14-.15.19-.29.09-.48-1.49-2.57-3.61-4.77-5.72-6.83-3-2.92-6.23-5.59-9.52-8.17-7.95-6.23-16.33-11.9-24.87-17.28-8-5.04-16.17-9.87-24.61-14.11-2.89-1.45-5.81-2.85-8.84-3.98-1.93-.71-3.92-1.23-5.88-1.85-3.06-.97-6.11-1.98-9.15-3.02-9.53-3.27-18.99-6.74-28.41-10.31-.22-.09-.28-.11-.49-.19l.12.44c.85-1.29,1.66-2.61,2.45-3.94-.45.12-.9.24-1.34.36h0c.39.21,1.13.04,1.34-.36.53-.97,1.09-1.92,1.6-2.91.09-.18.06-.33-.12-.44-13.58-8.19-27.88-15.26-42.53-21.32-1.05-.44-2.11-.87-3.17-1.28-.42-.16-1.09-.07-1.34.36-2.01,3.36-4.03,6.71-6.04,10.07-.4.66,1.17.56,1.46.08,2.01-3.36,4.03-6.71,6.04-10.07l-1.34.36c10.55,4.09,20.84,9.01,30.85,14.26,5.03,2.64,9.99,5.41,14.85,8.35l-.12-.44c-.51.99-1.07,1.94-1.6,2.91l1.34-.36h0c-.39-.22-1.11-.03-1.34.36-.79,1.33-1.6,2.65-2.45,3.94-.1.15-.06.37.12.44,7.92,3.02,15.87,5.94,23.86,8.76,6.09,2.15,12.21,4.21,18.4,6.06,2.71.81,5.31,2.01,7.86,3.23,8.14,3.89,15.97,8.45,23.64,13.16,8.75,5.38,17.33,11.06,25.53,17.25,3.52,2.66,6.98,5.42,10.25,8.39,2.41,2.19,4.81,4.51,6.72,7.16.36.5.7,1.02,1.01,1.56l.09-.48c-.53.56-1.06,1.12-1.59,1.69l1.35-.16h0c-.27-.38-1.1-.11-1.35.16-.94.99-1.87,1.98-2.81,2.97l1.35-.16c-.29-.3-.59-.59-.89-.88-.4-.39-1.15-.09-1.45.28l-.97,1.2,1.45-.28c-5.74-5.55-11.88-10.7-18.17-15.62-11.47-8.96-23.63-17.15-36.5-23.96-13.35-7.06-27.41-12.67-41.64-17.69-6.4-2.26-12.85-4.37-19.26-6.62-5.73-2.01-11.32-4.33-16.89-6.74-5.64-2.44-11.25-4.95-16.85-7.5-2.34-1.06-4.67-2.13-7-3.21-.97-.45-1.94-.89-2.91-1.34-.69-.32-1.44-.8-2.18-1.01-.09-.03-.43-.27-.33-.06.09.18.09-.13.15-.27.14-.34.23-.71.35-1.05.04-.13-.07-.25-.17-.31-.48-.33,2.24-3.85,2.58-4.28.46-.58-1.12-.51-1.46-.08Z"/>
      </g>
      <g>
        <path class="cls-7" d="M970.8,851.51c-.01-.5-.31-.94-.73-1.16-.19-.09-.39-.15-.62-.15-.73,0-1.3.58-1.28,1.3l.2,8.1c.85.02,1.73,0,2.64-.02l-.2-8.07Z"/>
        <path class="cls-11" d="M971.58,851.3c-.14-1.9-2.83-1.86-3.82-.68-.45.54-.38,1.17-.36,1.82.05,1.89.09,3.77.14,5.66l.04,1.71c0,.18.36.21.47.22.88.01,1.76,0,2.64-.02.35,0,1.1-.16,1.09-.64-.06-2.35-.12-4.71-.17-7.06,0-.34-.02-.67-.02-1.01-.01-.46-1.58-.16-1.57.42.06,2.35.12,4.71.17,7.06,0,.34.02.67.02,1.01l1.09-.64c-.88.02-1.76.03-2.64.02l.47.22c-.06-2.62-.13-5.25-.19-7.87,0-.21,0-.4.07-.6.05-.12.13-.21.21-.31.06-.08-.05.03-.1.02.13.04.24.05.36.13.34.22.49.57.52.96.04.48,1.61.16,1.57-.42Z"/>
      </g>
      <g>
        <path class="cls-7" d="M978.43,851.53c-.01-.5-.31-.94-.73-1.16-.19-.1-.39-.15-.61-.15-.73,0-1.3.58-1.29,1.3l.19,7.76c.86-.07,1.73-.15,2.63-.23l-.18-7.52Z"/>
        <path class="cls-11" d="M979.22,851.32c-.14-1.87-2.82-1.65-3.8-.61-.46.49-.4,1.09-.38,1.7.04,1.82.09,3.64.13,5.46.01.54.03,1.08.04,1.62,0,.14.38.1.44.1.88-.07,1.75-.15,2.63-.23.23-.02,1.13-.16,1.12-.52-.06-2.51-.12-5.02-.18-7.52,0-.24-1.58-.01-1.57.42.06,2.51.12,5.02.18,7.52l1.12-.52c-.88.08-1.75.16-2.63.23l.44.1c-.06-2.51-.12-5.03-.19-7.54,0-.22-.01-.42.06-.63.07-.19.19-.28.3-.44s-.18.16-.19.09c0,.02.33.15.37.18.34.24.49.6.52,1,.02.27,1.6,0,1.57-.42Z"/>
      </g>
      <g>
        <path class="cls-7" d="M986.24,858.32l-.17-6.77c-.01-.5-.31-.94-.74-1.16-.18-.1-.39-.15-.62-.15-.72,0-1.3.58-1.28,1.3l.17,7.03c.86-.09,1.73-.17,2.63-.25Z"/>
        <path class="cls-11" d="M987.02,858.11c-.05-2.24-.07-4.49-.16-6.73-.1-2.34-4.19-1.74-4.2.39,0,1.11.05,2.22.08,3.33.03,1.23.06,2.45.09,3.68,0,.16.37.15.45.14.88-.09,1.75-.17,2.63-.25.32-.03.84-.11,1.04-.39s-.17-.33-.39-.31c-.88.08-1.75.16-2.63.25l.45.14c-.05-2.18-.11-4.36-.16-6.54,0-.38-.06-.79.18-1.12.06-.08.33-.26.07-.15-.21.09-.11.04.04.09.28.1.51.32.64.59.09.2.12.41.13.62.04,1.12.06,2.25.08,3.38s.05,2.2.08,3.3c0,.33,1.58.07,1.57-.42Z"/>
      </g>
      <g>
        <path class="cls-7" d="M993.7,851.57c-.01-.5-.31-.94-.73-1.16-.18-.09-.39-.15-.61-.15-.73,0-1.3.58-1.29,1.3l.16,6.34c.87-.07,1.74-.13,2.63-.18l-.15-6.16Z"/>
        <path class="cls-11" d="M994.49,851.36c-.11-1.7-2.31-1.86-3.43-1.06-.5.36-.78.86-.77,1.47,0,.12,0,.24,0,.36.04,1.51.07,3.01.11,4.52.01.49.02.98.04,1.47,0,.26.53.24.68.23.88-.07,1.75-.13,2.63-.18.34-.02.9-.25.89-.65-.05-2.05-.1-4.1-.15-6.16-.01-.51-1.58-.2-1.57.42.05,2.05.1,4.1.15,6.16l.89-.65c-.88.05-1.75.11-2.63.18l.68.23c-.02-.97-.05-1.94-.07-2.9-.03-1.12-.11-2.26-.08-3.39,0-.07,0-.1.02-.19.03-.14.06-.26.14-.37.04-.05.14-.12.17-.17-.12.21-.19-.05-.05.04.11.08.27.09.38.19.27.22.38.53.41.87.03.52,1.61.19,1.57-.42Z"/>
      </g>
      <g>
        <path class="cls-7" d="M1001.34,851.59c-.01-.5-.31-.94-.74-1.16-.18-.1-.39-.15-.62-.15-.73,0-1.3.58-1.28,1.3l.15,5.91c.87-.03,1.74-.06,2.63-.07l-.14-5.84Z"/>
        <path class="cls-11" d="M1002.12,851.38c-.1-1.62-2.12-1.76-3.24-1.13-.5.28-.91.76-.95,1.35-.01.15,0,.3,0,.45.04,1.42.07,2.85.11,4.27.01.46.02.92.03,1.39,0,.18.36.2.47.2.88-.03,1.75-.06,2.63-.07.33,0,1.11-.16,1.1-.62-.05-1.95-.09-3.89-.14-5.84-.01-.42-1.58-.14-1.57.42.05,1.95.09,3.89.14,5.84l1.1-.62c-.88.01-1.75.04-2.63.07l.47.2c-.02-.94-.05-1.88-.07-2.81-.03-1.02-.11-2.06-.08-3.08,0-.15.03-.29.09-.42.04-.1.11-.17.16-.26.28-.47-.16.41-.07-.02.02-.07.49.24.53.28.23.23.33.52.35.83.03.44,1.6.13,1.57-.42Z"/>
      </g>
    </g>
    <path class="cls-17" d="M896.93,639.95l37.34,131.21-69.23-4.37,57.96,1.82,2.46,9.37c6.02,22.91,7.21,46.69,3.5,69.91l-2.29,14.33s-233.17,19.15-271.56-13.36c-17.42-14.76-29.14-48.29-18.75-72.26,19.23-44.38,186.63-142.39,189.71-140.79l70.85,4.13Z"/>
    <path class="cls-1" d="M772.5,330.05c-12.14,8.59-23.57,16.98-28.96,21.75-18.27,16.18-22.18,67.59-29.13,106.43-4.07,22.76-15.7,80.98-15.7,80.98l65.87,16.67,35.07-75.97,11.13-103.74c-13.67-14.55-25.97-30.37-38.27-46.12Z"/>
    <g>
      <path class="cls-23" d="M639.56,907.59s-2.35-11.5,7.57-15.78c9.92-4.29,32.36-11.53,48.92-20.17,23-12,36.44-29.8,46.66-30.69,10.4-.91,8.52,16.07,31.23,16.39,22.52.31,39.36-11.71,40.41-12.09,5.14,2.98,14.66,37.81,8.65,46.61-6.01,8.8-60.9,13.31-60.9,13.31l-43.91,9.26-43.99,2.13-34.65-8.96Z"/>
      <path class="cls-11" d="M783.1,902.7c-.21-3.94-.02-8,1.18-11.78.6-1.9,1.49-3.74,2.82-5.23,1.76-1.97,4.15-2.71,6.56-3.61,4.75-1.77,9.62-3.33,14.19-5.54,3.59-1.74,7.07-3.98,9.31-7.36,3.15-4.76,3.2-10.55,2.28-16-.12-.7-2.3-.19-2.17.58.87,5.12.91,10.62-1.96,15.16-2.28,3.59-6,5.79-9.8,7.48-4.84,2.15-9.9,3.77-14.84,5.66-4.02,1.54-6.76,4.25-8.25,8.31-1.51,4.09-1.7,8.61-1.48,12.93.03.66,2.22.23,2.17-.58h0Z"/>
      <path class="cls-11" d="M815.79,847.34c-6.98,5.15-14.58,9.16-23.14,10.88-5.46,1.1-11.01,1.19-16.55.97-4.28-.17-8.58-.5-12.8-1.29-7.13-1.34-13.86-4.71-21.22-4.77-4.67-.04-9.19,1.7-13.29,3.81-5.12,2.64-9.88,5.95-14.64,9.17-2.66,1.8-5.32,3.6-8.02,5.34-1.43.92-2.88,1.83-4.34,2.7-.75.45-1.5.89-2.25,1.32-.33.19-.75.35-1.04.59-.01.01-.64.46-.28.31-.37.16-1.21-.06-1.72-.37-1.62-.96-1.33-3.25-1.01-4.79.22-1.1-2-.84-2.21.15-.6,2.9,0,6,3.33,6.57.92.16,1.62.11,2.45-.32,2.73-1.42,5.35-3.11,7.94-4.76,5.14-3.29,10.12-6.83,15.24-10.15,4.58-2.97,9.44-5.97,14.78-7.33,8.1-2.07,15.9,2.01,23.67,3.76,3.93.88,7.95,1.31,11.96,1.55,5.67.34,11.39.46,17.04-.35,10.24-1.46,19.3-5.87,27.56-11.96,1.18-.87-.57-1.69-1.45-1.03h0Z"/>
      <path class="cls-11" d="M748.46,908.88c3.05-.64,6.1-1.29,9.15-1.93.69-.15,1.19-.88.62-1.44-4.32-4.23-9.61-7.33-15.39-9.09-6.68-2.02-13.52-1.95-20.42-2.06-7.34-.11-14.68-.2-22.01-.63-5.69-.34-11.61-.71-17.1-2.35-1.85-.55-3.92-1.26-5.31-2.66-2.32-2.34-.86-6.02.46-8.5.59-1.11-1.61-1.19-2.09-.29-1.33,2.51-2.63,5.87-1.19,8.61.75,1.43,2.15,2.38,3.56,3.09,4.52,2.28,10,2.82,14.96,3.3,7.12.69,14.29.86,21.44,1,3.86.07,7.72.12,11.59.19,3.69.06,7.34.17,10.98.88,7.13,1.38,13.67,4.73,18.87,9.82l.62-1.44c-3.05.64-6.1,1.29-9.15,1.93-1.37.29-.94,1.86.42,1.58h0Z"/>
      <g>
        <path class="cls-31" d="M753.99,906.68l-.2.24.37-.08c-.06-.05-.11-.11-.17-.16Z"/>
        <path class="cls-11" d="M753.32,906.48c-.07.08-.13.16-.2.24l-.1.14-.05.14v.14c.03.07.07.13.13.17.04.04.08.07.13.08.05.03.11.05.17.05.07.02.13.02.2.02.11,0,.22,0,.33-.04.11-.02.22-.05.33-.07h.05c.14-.05.27-.11.4-.19.08-.05.15-.11.2-.19.05-.06.09-.13.1-.21.02-.1,0-.19-.07-.26-.06-.05-.11-.11-.17-.16-.05-.06-.12-.11-.19-.13-.08-.04-.17-.06-.26-.07-.11-.01-.22,0-.32.02-.11.01-.22.05-.32.1l-.18.1c-.1.07-.18.15-.25.26l-.05.14c-.02.1,0,.19.07.26.06.05.11.11.17.16l.62-.84c-.11.02-.22.05-.33.07h-.05c.27.24.54.47.81.7.07-.08.13-.16.2-.24.06-.06.11-.13.13-.21.03-.07.04-.14.02-.21-.02-.07-.06-.13-.12-.17-.06-.06-.13-.1-.21-.11l-.19-.03c-.15-.01-.29,0-.43.04l-.21.08c-.12.05-.23.13-.33.22Z"/>
      </g>
      <g>
        <path class="cls-31" d="M769.32,901.33h-1.81c.01,1.49-.11,2.66-.2,3.35.58-.06,1.2-.12,1.85-.19.09-.77.17-1.86.16-3.16Z"/>
        <path class="cls-11" d="M769.86,901.02c-.6,0-1.21,0-1.81.01-.31,0-.62.08-.91.2-.13.05-.45.16-.45.33,0,1.12-.05,2.23-.2,3.34-.02.13.42.08.46.08.62-.06,1.24-.12,1.85-.19.28-.03.57-.11.83-.22.12-.06.34-.14.36-.3.12-1.05.17-2.11.16-3.16,0-.09-.26-.09-.28-.09-.19,0-.41.04-.6.09s-.39.11-.56.22c-.08.05-.2.11-.2.22,0,1.06-.04,2.11-.16,3.16l1.18-.52c-.62.07-1.24.13-1.85.19l.46.08c.15-1.11.21-2.22.2-3.34l-1.36.53c.6,0,1.21,0,1.81-.01.38,0,.83-.11,1.16-.31.06-.04.22-.12.2-.22s-.22-.09-.28-.09Z"/>
      </g>
      <g>
        <path class="cls-31" d="M777.42,899.21c-.04,1.41-.01,2.86.07,4.33h.27c.51-.08,1.02-.14,1.54-.21-.08-1.37-.1-2.75-.07-4.07l-1.82-.05Z"/>
        <path class="cls-11" d="M776.59,899.28c-.04,1.44-.01,2.89.07,4.33.02.41.38.54.75.52.61-.03,1.21-.13,1.81-.21.21-.03.45-.09.62-.22.12-.1.3-.26.29-.43-.08-1.35-.1-2.71-.07-4.07,0-.3-.25-.51-.54-.51-.61-.02-1.21-.04-1.82-.05-.39-.01-.88.11-1.07.5-.17.35.15.66.49.67.61.02,1.21.04,1.82.05l-.54-.51c-.03,1.36,0,2.71.07,4.07l.91-.65c-.6.08-1.21.17-1.81.21l.75.52c-.08-1.44-.11-2.88-.07-4.33.01-.4-.41-.55-.75-.52-.32.03-.9.25-.91.65Z"/>
      </g>
      <g>
        <path class="cls-7" d="M824.3,898.2s.63-5.82-.43-5.68l-.38-1.61c-6.66.86-29.61,3.89-43.62,6.51-4.27.8-9.65,2.13-15.87,3.67-14.44,3.57-34.22,8.46-55.22,10.3-3.76.33-7.49.56-11.07.67-30.01.95-54.86-4.13-60.21-5.32l-.19,1.64c-.82-.18-1.25-.29-1.25-.29,0,0-.44,2.25-.83,4.29,0,0,0,0,0,0-.04.19-.07.35-.1.54-.14.73-.27,1.4-.36,1.9,14.89,8.34,78.73,7.7,93.06,3.41.91-.27,1.88-.55,2.9-.84.42-.12.88-.24,1.32-.36.68-.18,1.34-.37,2.05-.55,15.38-4.05,38.26-8.77,38.26-8.77,0,0-.06,2.29.01,4.97h0s0,.06,0,.08c.03,1.14.09,2.34.18,3.47,26.96-.43,51.96-5.45,51.96-5.45l-.23-12.58Z"/>
        <path class="cls-11" d="M825.13,898.15c.15-1.4,1.04-6.18-1.19-6.24l.75.4-.38-1.61c-.07-.3-.48-.43-.75-.4-10.11,1.31-20.2,2.7-30.27,4.26-5.7.89-11.42,1.77-17.06,3-6.62,1.44-13.18,3.18-19.77,4.77-14.5,3.51-29.13,6.55-43.98,8.1-15.3,1.6-30.75,1.43-46.05,0-9.14-.85-18.28-2.11-27.27-4-.46-.1-.91-.19-1.36-.29-.41-.09-1.05.21-1.1.66l-.19,1.64,1.1-.66c-.42-.09-.84-.19-1.25-.29s-1.02.22-1.1.66c-.28,1.43-.55,2.86-.83,4.29l1.29-.62h0c-.47-.21-1.19.1-1.29.62-.15.81-.31,1.62-.46,2.43-.03.14.07.35.2.42,2.68,1.49,5.69,2.31,8.66,2.99,4.16.96,8.41,1.57,12.65,2.05,10.33,1.17,20.75,1.55,31.14,1.59,9.7.04,19.44-.22,29.11-1.15,3.36-.32,6.73-.71,10.04-1.41,2.11-.45,4.16-1.13,6.24-1.69,3.17-.86,6.35-1.67,9.55-2.45,10.08-2.46,20.22-4.69,30.39-6.81.2-.04.4-.08.6-.13l-.98-.52c-.04,1.66-.03,3.32.01,4.97l.89-.67h0c-.31.02-.92.27-.89.67.07,1.24.1,2.47.2,3.71.03.32.51.4.75.4,16.33-.28,32.68-2.02,48.77-4.86,1.14-.2,2.28-.41,3.42-.63.26-.05.68-.32.67-.63-.08-4.19-.15-8.39-.23-12.58-.02-.87-1.67-.64-1.65.11.08,4.19.15,8.39.23,12.58l.67-.63c-11.39,2.28-23.04,3.66-34.61,4.58-5.7.45-11.41.74-17.13.84l.75.4c-.09-1.13-.12-2.26-.18-3.39l-.89.67h0c.32-.02.9-.27.89-.67-.04-1.66-.06-3.32-.01-4.97.01-.53-.59-.6-.98-.52-8.71,1.8-17.41,3.72-26.07,5.76-6.33,1.49-12.6,3.14-18.87,4.88-2.84.79-5.8,1.16-8.72,1.5-9.3,1.07-18.7,1.37-28.06,1.43-10.56.07-21.14-.25-31.66-1.28-4.41-.43-8.82-.99-13.16-1.85-3.21-.64-6.48-1.4-9.45-2.81-.13-.06-.65-.22-.71-.36.1.24.31-.84.32-.9.07-.39.15-.78.22-1.17l-1.29.62h0c.47.21,1.19-.1,1.29-.62.27-1.43.55-2.86.83-4.29l-1.1.66c.42.1.83.19,1.25.29s1.05-.21,1.1-.66l.19-1.64-1.1.66c7.93,1.76,16.01,2.95,24.08,3.84,14.74,1.62,29.68,2.15,44.48,1.06,15.2-1.12,30.22-3.92,45.05-7.35,12.53-2.9,24.91-6.28,37.62-8.35,10.91-1.78,21.85-3.3,32.81-4.73.72-.09,1.45-.19,2.17-.28l-.75-.4.38,1.61c.08.33.47.39.75.4-.67-.02-.25-.18-.27.27,0,.25.08.55.1.8.04.58.02,1.17,0,1.76-.03.77-.08,1.53-.16,2.3-.09.85,1.57.64,1.65-.11Z"/>
      </g>
      <g>
        <path class="cls-7" d="M736.22,851.25c.28.45.78.68,1.27.63.21-.02.42-.09.62-.21.63-.41.81-1.27.41-1.91l-4.57-7.24c-.74.47-1.5.97-2.28,1.52l4.56,7.22Z"/>
        <path class="cls-11" d="M735.4,851.47c.55.77,1.44.89,2.32.67.81-.2,1.67-.7,1.81-1.59.1-.68-.3-1.17-.64-1.71l-3.18-5.04c-.32-.5-.63-1-.95-1.51-.25-.39-1.17,0-1.45.17-.77.49-1.53.99-2.28,1.52-.04.02-.24.18-.19.26,1.33,2.1,2.65,4.2,3.98,6.3.19.3.38.61.58.91.27.43,1.8-.19,1.64-.44-1.33-2.1-2.65-4.2-3.98-6.3-.19-.3-.38-.61-.58-.91l-.19.26c.75-.52,1.51-1.03,2.28-1.52l-1.45.17c1.48,2.34,2.96,4.69,4.44,7.03.11.17.22.34.29.54.11.35.07.75-.14,1.06-.02.02-.15.2-.16.19l.21-.04-.13-.03c-.24-.15-.42-.21-.59-.46-.3-.42-1.8.22-1.64.44Z"/>
      </g>
      <g>
        <path class="cls-7" d="M729.58,855.57c.28.45.78.68,1.27.63.21-.02.42-.09.61-.21.63-.41.82-1.27.41-1.91l-4.38-6.94c-.71.55-1.42,1.12-2.16,1.7l4.25,6.73Z"/>
        <path class="cls-11" d="M728.82,855.88c.95,1.36,3.63.75,4.04-.81.19-.73-.2-1.25-.56-1.82-1.03-1.63-2.05-3.25-3.08-4.88-.3-.48-.61-.97-.91-1.45-.27-.43-1.16-.11-1.47.13-.72.56-1.44,1.13-2.16,1.7-.05.04-.24.21-.17.31,1.24,1.96,2.47,3.91,3.71,5.87.18.29.36.57.54.86.3.48,1.85-.11,1.64-.44-1.24-1.96-2.47-3.91-3.71-5.87-.18-.29-.36-.57-.54-.86l-.17.31c.72-.57,1.43-1.14,2.16-1.7-.49.04-.98.09-1.47.13,1.43,2.27,2.87,4.53,4.29,6.8.16.26.3.52.3.83,0,.38-.19.55-.35.85.04-.07.16.02.11-.05-.02-.03-.18-.06-.23-.09-.19-.1-.33-.27-.45-.44-.27-.39-1.86.14-1.53.61Z"/>
      </g>
      <g>
        <path class="cls-7" d="M719.12,853.84l3.82,6.06c.28.45.78.68,1.27.63.21-.02.42-.09.62-.21.63-.41.81-1.27.41-1.91l-3.97-6.29c-.7.57-1.41,1.14-2.15,1.72Z"/>
        <path class="cls-11" d="M718.36,854.19c1.26,2,2.5,4.02,3.79,6,.65,1,2,1.14,3,.59s1.43-1.73.82-2.75-1.27-2.01-1.9-3.01c-.68-1.08-1.37-2.17-2.05-3.25-.24-.38-1.02-.21-1.29,0-.71.58-1.43,1.15-2.15,1.72-.26.21-.44.56-.1.8.32.22.89.11,1.17-.11.72-.57,1.43-1.14,2.15-1.72h-1.29c1.23,1.95,2.45,3.9,3.68,5.84.21.33.46.64.43,1.06-.02.2-.09.38-.22.53-.03.03-.16.1-.09.08.04-.01,0,0-.01,0-.09,0-.19-.04-.26-.08-.18-.1-.29-.27-.4-.44-.65-1-1.28-2.02-1.91-3.03s-1.23-1.95-1.85-2.92c-.37-.58-1.94.01-1.51.7Z"/>
      </g>
      <g>
        <path class="cls-7" d="M716.3,864.22c.28.45.78.68,1.27.63.21-.02.42-.09.61-.21.63-.41.82-1.27.41-1.91l-3.58-5.67c-.72.55-1.44,1.1-2.18,1.66l3.48,5.51Z"/>
        <path class="cls-11" d="M715.54,864.51c.89,1.29,3.3.76,3.94-.54.33-.67.07-1.27-.29-1.83-.85-1.34-1.7-2.69-2.55-4.03-.27-.43-.54-.85-.81-1.28-.25-.4-1.17-.07-1.46.15-.72.56-1.45,1.11-2.18,1.66-.04.03-.24.2-.18.29,1.16,1.84,2.32,3.67,3.48,5.51.29.46,1.83-.14,1.64-.44-1.16-1.84-2.32-3.67-3.48-5.51l-.18.29c.73-.55,1.46-1.1,2.18-1.66l-1.46.15c1.18,1.87,2.39,3.73,3.55,5.62.19.32.3.68.21,1.05-.03.14-.09.28-.18.4-.04.05-.09.09-.12.14-.01.01-.03.03-.05.04-.11.07-.02.05.26-.05-.03-.04-.31-.08-.38-.13-.17-.1-.3-.26-.41-.42-.25-.36-1.84.16-1.54.59Z"/>
      </g>
      <g>
        <path class="cls-7" d="M709.66,868.54c.28.45.78.67,1.27.63.21-.02.42-.09.62-.22.63-.41.81-1.27.41-1.91l-3.34-5.29c-.74.52-1.48,1.04-2.25,1.56l3.3,5.22Z"/>
        <path class="cls-11" d="M708.84,868.76c.4.59,1.03.79,1.73.73.77-.07,1.68-.37,2.14-1.02s.27-1.31-.1-1.9c-.8-1.26-1.59-2.52-2.39-3.79-.26-.41-.52-.83-.79-1.24-.21-.33-1.21.04-1.45.21-.75.52-1.49,1.05-2.25,1.56-.02.02-.25.15-.2.23,1.1,1.74,2.2,3.48,3.3,5.22.25.39,1.76-.25,1.64-.44-1.1-1.74-2.2-3.48-3.3-5.22l-.2.23c.76-.51,1.5-1.03,2.25-1.56l-1.45.21c1.11,1.75,2.26,3.49,3.32,5.26.22.37.31.81.14,1.23-.05.12-.11.23-.19.33-.04.04-.1.08-.12.12-.08.15.24-.17.35-.07-.07-.07-.29-.08-.39-.14-.17-.1-.31-.23-.42-.4-.27-.39-1.76.27-1.64.44Z"/>
      </g>
    </g>
    <path class="cls-1" d="M756.3,526.43c-24.64,14.67-34.91,13.36-34.91,13.36l-134.26-54.19-13.34-5.63c-1.19,16.75-9.16,13.3-19.74,26.13l46.45,32.92s62.74,41.78,102.95,59.36c8.4,3.67,35.37,9.08,61.85-6.87,8.44-3.73,5.46-16.82,7.3-23.99"/>
    <path class="cls-27" d="M1011.33,605.56c-17.22,6.08-35.43,8.35-53.52,10.08-17.67,1.69-35.12,2.26-52.81.4-21.21-2.23-41.94-7.09-62.45-12.79-6.95-35.04-14.02-72.1-18.08-94.01-2.42-13-4.69-41.5-4.59-40.68l-6.88-78.62,4.27-28.6.12-5.35c22.49,15.15,46.59-1.29,64.7-15.68,2.73-2.16,28.03-24.12,24.28-28.28,0,0,1.36,1.51,1.36,1.51,0,0,59.44,24.49,64.18,26.55,23.6,10.19,15.69,117.89,23.25,158.54,3.02,16.22,7.01,33.87,15.32,47.39,8.59,13.99,11.24,22.53,17.69,37.59.61,1.42,1.22,2.85,1.81,4.29.9,2.2,1.72,4.43,2.41,6.69-9.32,3.25-11.72,7.67-21.07,10.97Z"/>
    <path class="cls-27" d="M1029.9,591.69c5.99,5.17,7.78,16.06,7.3,22.55-.15,1.98-1.86,6.03-2.85,7.76-1.41,2.48-9.11,13.05-11.72,14.2-14.83,6.53-22.13,18.46-37.81,22.54-30.52,7.95-72.28-2.5-103.75-4.63-31.47-2.13-55.19-12.06-85.34-21.31-5.26-1.61-11.43-4.69-11.52-10.19-.1-5.99,6.95-9.11,12.74-10.66,15.46-4.14,30.92-8.27,46.38-12.41"/>
    <path class="cls-17" d="M910.26,630.41c1.83.81,3.69,1.51,5.57,2.14,1.39-1.67,3.95-2.39,5.91-.38.98,1,2.03,1.89,3.12,2.68,18.43,3.41-4.89-5.42,13.07-8.78,14.11-2.64-31.36-12.69-18.06-19.06-52.01-10.27-164.81-56.75-173.08-59.82-2.42-.77-22.89-6.92-25.39-7.4-19.61-4.2-40.09.16-56.28,12-13.44,10.06-24.55,26.24-21.02,51.67,8.07,56.49,75,244.91,75,244.91l14.98,5.81c21.56,8.84,47.68,2.8,70.74-.59,12.49-1.84,15.63-4.24,17.33-5.02-.98-11.89-27.48-143.3-26.22-141.42,1.26,1.87,80.05,52,121.41,66.76,37.99,13.8,89.63,6.27,113.81-26.11,9.47-13.1,36.2-65.34,3.61-123.12-19.29,12.06-16.26,16.39-59.9,16.39-16.06,0-17.94-5.24-32.14-14.55"/>
    <path d="M789.59,684.97c-.61-6.8-3.13-13.54-5.6-19.84-2.98-7.6-6.47-15.11-10.81-22.05-1.79-2.86-3.74-5.73-6.2-8.07-.44-.42-2.43.39-2.04.76,4.9,4.68,8.23,11.2,11.22,17.19,3.61,7.24,6.74,14.79,9.07,22.54.98,3.27,1.88,6.63,2.18,10.05.04.47,2.23.06,2.17-.58h0Z"/>
    <path d="M787.42,685.55c7.84,20.04,13.11,41.02,17.39,62.08,4.45,21.86,7.77,43.94,10.99,66.01,1.72,11.75,3.4,23.51,5.24,35.24l.6-.96c-3.05,1.16-6.11,2.31-9.16,3.47-.44.17-.78.72-.51,1.15.31.49,1.05.34,1.48.18,3.05-1.16,6.11-2.31,9.16-3.47.38-.15.66-.55.6-.96-3.36-21.37-6.22-42.82-9.62-64.19-3.5-21.96-7.49-43.9-13.18-65.41-3.02-11.42-6.53-22.72-10.83-33.72-.39-1-2.56-.39-2.17.58h0Z"/>
    <path d="M678.95,732.77c2.47,6.02,4.51,12.24,6.61,18.39,3.31,9.69,6.54,19.4,9.76,29.12,3.5,10.54,6.98,21.09,10.49,31.62,2.93,8.8,5.87,17.6,8.95,26.35,1.01,2.87,2.03,5.74,3.12,8.59.35.91.55,1.8,1.33,2.4,1.98,1.54,4.24,2.78,6.59,3.64,1.67.61,3.4,1.01,5.16,1.21.47.05,1.19-.06,1.54-.41.28-.28.33-.57-.17-.63-3.35-.38-6.56-1.61-9.4-3.42-1.12-.71-2.03-1.22-2.49-2.38-1.03-2.6-1.97-5.24-2.91-7.87-2.98-8.38-5.8-16.82-8.62-25.26-3.47-10.39-6.91-20.78-10.35-31.18-3.27-9.85-6.53-19.7-9.87-29.52-2.25-6.63-4.47-13.28-7.01-19.81-.18-.47-.37-.95-.56-1.42-.26-.64-2.4.03-2.17.58h0Z"/>
    <path d="M810.12,777.58c12.02-1.28,24.22-1.13,36.29-1.24,14.7-.14,29.41-.17,44.09-.85,6.87-.32,13.76-.76,20.57-1.73.37-.05,1.2-.28,1.23-.76s-.58-.57-.95-.51c-13.09,1.87-26.44,2.06-39.64,2.29-14.39.25-28.79.18-43.18.55-6.05.15-12.11.34-18.13.98-1.09.12-1.78,1.44-.28,1.28h0Z"/>
    <path d="M787.49,685.67c2.77,2.62,5.58,5.19,8.4,7.76,6.96,6.36,13.99,12.63,21.11,18.81,9.08,7.89,18.28,15.63,27.69,23.12,9.11,7.25,18.39,14.32,28.13,20.7,11.09,7.27,22.95,12.88,35.62,16.92,2.19.7,4.4,1.35,6.63,1.95.49.13,1.1.06,1.53-.23.2-.13.74-.62.21-.76-13.77-3.75-27.05-9.23-39.12-16.86-9.61-6.08-18.74-12.92-27.69-19.94-9.5-7.46-18.79-15.2-27.93-23.09-7.46-6.43-14.84-12.97-22.13-19.6-2.35-2.13-4.69-4.28-7.02-6.43-1.06-.99-2.09-2.15-3.25-3.03-.05-.04-.1-.09-.15-.14-.51-.48-2.54.33-2.03.82h0Z"/>
    <path class="cls-24" d="M494.86,429.63c-.06.01-.12.01-.18,0,.04-.14.07-.29.11-.43.02.14.05.29.07.43Z"/>
    <path class="cls-24" d="M531.76,379.65c.03.06.06.12.11.17.11-.12.22-.25.33-.37-.15.07-.3.13-.44.2Z"/>
    <path class="cls-27" d="M881.73,291.03l10.5,4.65s32.39,9.81,57.98,21.63c37.28,17.22,20.79,71.72,22.06,88.97.57,8.37-23.65,87.67-6.44,133.12,11.39,30.24,20.94,61.13,28.6,92.5l-24.57,8.78c-47.46,5.52-139.11-67.55-164.59-66.06l-25.87-6.61-12.34-13.77-31.02-128.17,20.5-64.19s17.52-22,18.34-25.41l20.61-22.91s-10.65,32.11,15.27,30.36c26.77-1.81,45.78-10.46,62.16-29.68,0,0,8.67-13.75,8.79-23.21Z"/>
    <path class="cls-1" d="M943.76,557.62c-5.34-12.64-6.85-17.91-18.08-25.6l-185.19,13.76,7.49,28.98s156.21,33.84,194.92,20.38c3.16-1.1,6.7-2.95,10.53-5.46-.89-10.97-5.41-21.97-9.67-32.06Z"/>
    <path class="cls-1" d="M760.89,554.63l33.41-4.04,130.06-18.33s-16.8-178.35-10.08-187.6c0,0,4.58-21.59,18.75-25.44,0,0,49.04,6.13,60.62,56.9,9.77,42.86,9.26,82.31,8.96,121.31-.27,33.94,5.16,82.69-24.01,100.46-33.37,20.32-126.38-4.81-126.38-4.81"/>
    <path class="cls-1" d="M746.11,541.75l.89,17.71,9.75,12.93s-37,12.89-44.78,12.38c-7.79-.51-26.17.54-26.17.54,1.05,2.17,1.31,4.64.73,6.99-.85,2.65-2.75,4.83-5.25,6.04l-8.58-11.8c-1.98,5.73-7.22,1.73-7.22,1.73l-6.31-10.44c-2.13,7.2-9.05,2.17-9.05,2.17l-4.02-14.83c-1.76,2.53-4.01,4.7-6.61,6.37-3.39,1.78-4.8-4.11-4.8-4.11l12.05-23.93,34.75-12.09,57.15,11.16,7.47-.79Z"/>
    <path class="cls-32" d="M674.77,586.82c-.48-2.68-2.37-4.72-3.33-7.2-.34-.88-.85-2.18-.16-2.96.57-.64,1.22-1.23,1.83-1.82.21-.2.41-.42.64-.59.1-.08.07-.06-.1.05.19-.07.38-.14.57-.2.36-.12.72-.24,1.09-.35,1.22-.37,2.46-.67,3.72-.84,2.76-.36,5.57-.26,8.34-.27,1.24,0,1.67-1.59.19-1.59-2.43,0-4.87-.06-7.29.15-2.3.21-4.55.74-6.72,1.51-1.51.53-2.48,1.7-3.59,2.81-.44.44-.93.84-1.12,1.45-.32,1.01.06,2.28.43,3.23.97,2.48,2.85,4.54,3.33,7.2.18,1,2.36.45,2.17-.58h0Z"/>
    <path class="cls-32" d="M660.23,576.84c-.2-1.64-.91-3.3-1.38-4.88s-1.36-3.55-1.32-5.24c.02-.75.33-1.61.49-2.34.22-1.01.46-2.02.72-3.02.36-1.37.88-1.65,2.01-2.33,2.4-1.44,4.96-2.11,7.71-2.85,3.68-.99,7.37-1.91,10.98-3.13.31-.1.85-.44.6-.81s-1.14-.08-1.43.02c-3.49,1.17-7.05,2.03-10.6,2.99-2.86.77-5.69,1.5-8.24,3.02-.75.45-1.67.88-2.3,1.5-.47.46-.67,1.05-.84,1.67-.32,1.15-.58,2.32-.83,3.48-.24,1.07-.55,2.07-.35,3.15.2,1.03.5,2.05.79,3.05.59,2.04,1.53,4.19,1.8,6.31.08.65,2.27.17,2.17-.58h0Z"/>
    <path class="cls-32" d="M647.39,565.18c-.2-3.18-.69-6.49-.55-9.67.08-1.88.98-2.92,2.51-3.89,1.39-.88,2.81-1.7,4.25-2.48,5.64-3.04,11.66-5.28,17.89-6.73.23-.05,1.1-.35.97-.72s-.95-.19-1.2-.14c-6.89,1.61-13.55,4.15-19.74,7.57-1.49.82-2.98,1.68-4.4,2.64-1.25.85-2.16,1.86-2.39,3.41s0,3.14.1,4.67l.37,5.92c.03.53,2.22.12,2.17-.58h0Z"/>
    <path class="cls-1" d="M297.77,867.19s39.93,12.1,51.2,12.07c11.27-.03,14.66,2.6,14.66,2.6,0,0-13.52-17.52-27.91-24.25-3.03-1.42,1.92-98.89,6.75-144.47,3.35-31.67.14-56.76.14-56.76l-51.78,5.47,2.4,48.12-2.15,8.84c-1.12,4.62-7.43,12.59-7.72,17.35-.79,12.86.74,30.9,1.32,37.46.98,11.11,2.99,18.08,5.44,30.06l12.11,47.84-4.45,15.67Z"/>
    <path class="cls-1" d="M261.09,869.53s50.02,23.97,61.28,23.6c11.26-.37,7.19-6.16,7.19-6.16,0,0-30.86-27.91-33.93-33.13-1.69-2.86,5.21-91.88,8.62-137.58,2.37-31.75-.26-56.87-.26-56.87l-51.59,7.05-3.64,46.37-1.87,8.9c-.98,4.65-5.15,14.12-5.29,18.89-.39,12.88,2.36,33.29,3.15,39.83,1.33,11.08,9.48,38.13,10.06,42.02l8.69,34.42-2.4,12.67Z"/>
    <path class="cls-32" d="M391.39,879.78s2.15,2.37.97,6.52c-1.18,4.15-25.8.07-34.31,1.15-8.51,1.08-42.53,5.38-50.89,3.41-8.36-1.97-.66-12.33-.66-12.33l84.88,1.26Z"/>
    <path class="cls-32" d="M258.32,887.63s-1.76.07-1.97,5.8c-.27,7.67,24.67,6.85,31.31,7.47s27.73,7.01,42.69,7.68c14.96.67,30.31-7.81,31.87-12.31,1.56-4.49-.23-6.56-3.41-7.78-3.19-1.21-95.83-5.42-95.83-5.42l-4.67,4.55Z"/>
    <path class="cls-1" d="M263.86,854.33c.36,4.8-.76,5.44-4.75,21.74-1.07,4.36-4.42,10.75.44,14.03,8.59,5.79,18.92,3.58,22.82,4.5,8.22,1.93,14.81,1.97,22.69,4.52,7.99,2.58,9.63,3.21,18.44,3.82,1.22.08,2.51.06,3.57-.45.71-.34,1.28-.89,1.99-1.23,2.53-1.21,5.66.46,8.53.13,1.27-.15,2.42-.68,3.6-1.09,3.12-1.1,6.52-1.44,9.81-2.07,3.29-.63,6.65-1.63,8.96-3.74,2.31-2.11,3.22-5.57,1.29-7.94-2.92-3.58-6.79-1.53-10.82-1.91-4.02-.37-5.52-1-9.05-2.58-9.02-4.03-10.41-4.85-18.02-8.01-5.9-2.45-23.25-10.3-31.55-15.84l.31-19.03"/>
    <g>
      <path class="cls-32" d="M329.05,902.05c1.13-.29,2.04-1.02,2.42-2.14.28-.83.22-1.78-.18-2.56-.86-1.7-2.73-2.66-4.4-3.41-.98-.44-1.98-.82-2.97-1.23-.47-.2-1.11-.04-1.54.22-.27.16-.68.6-.2.8,1.96.81,4.13,1.49,5.78,2.87.72.6,1.32,1.35,1.47,2.3.07.47,0,.96-.17,1.41-.08.23-.2.45-.37.62.04-.04-.21.23-.1.1-.11.06-.11.07-.02.02.13-.04.12-.04,0,0-.31.08-1.05.36-.95.8s.96.29,1.22.22h0Z"/>
      <path class="cls-32" d="M337.3,902.2c1.3,0,2.65-.56,3.26-1.76.47-.92.49-2.09.36-3.09-.15-1.16-.56-2.09-1.4-2.92-1.15-1.13-2.71-1.77-4.21-2.28-1.87-.63-3.61-1.74-5.65-1.72-.44,0-1.18.16-1.44.56s.24.5.55.5c1.39-.02,2.78.84,4.04,1.34,1.31.52,2.67.88,3.84,1.71.86.6,1.6,1.37,1.89,2.39.24.83.33,1.75.21,2.62-.06.46-.17.96-.42,1.35-.09.14-.23.25-.29.33-.1.15-.08.01-.02.01.05,0,.15-.06.2-.07.12-.05.06-.01-.03-.01-.44,0-1.18.16-1.44.56s.24.5.55.5h0Z"/>
      <path class="cls-32" d="M344.28,900.51c2.62-.88,3.83-3.95,2.61-6.43-1.15-2.33-3.7-3.68-6-4.62-1.42-.58-2.94-1.11-4.45-1.41-.48-.1-1.2.2-1.42.65-.24.51.22.78.65.86.73.15,1.46.43,2.17.66.65.21,1.29.45,1.92.71,1.28.54,2.55,1.21,3.61,2.12.91.78,1.67,1.83,1.8,3.06.1.94-.28,2.66-1.27,2.99-.41.14-1.03.47-.9,1,.12.5.89.55,1.28.42h0Z"/>
      <path class="cls-32" d="M350.91,899.39c2.82-1.16,5.19-4.91,3.47-7.85-.66-1.13-1.85-1.95-2.97-2.58-1.32-.74-2.71-1.31-4.14-1.81-.7-.25-1.4-.46-2.1-.7-.96-.34-1.91-.75-2.95-.71-.48.02-1.14.36-1.19.9s.57.76,1.01.74c.77-.03,1.67.5,2.39.74s1.39.46,2.08.71c1.48.54,2.96,1.15,4.25,2.05,1.12.78,2.01,1.74,1.95,3.18-.07,1.76-1.15,3.33-2.78,4-.43.18-.8.71-.51,1.15.32.47,1.05.36,1.48.18h0Z"/>
    </g>
    <path class="cls-1" d="M300.83,860.66c-.96,4.64-3.27,7.32-4.28,11.76-1.16,5.12,1.2,8.95,7,11.03,4.89,1.76,11.42,2.56,16.7,2.24,6.89-.43,14.24-1.73,21.14-2.16,5.91-.37,24.48-2.1,30.29-1.17,9.05,1.45,14.6.11,18.58-1.31,1.1-.39,1.8-.34,2.3-1.16,1.31-2.13,1.12-4.46-1.87-6.21-3.77-2.2-8.23.95-11.75-1.66-.63-.46-1.21-.99-1.93-1.32-1.41-.65-3.1-.47-4.7-.44-7.96.17-7.39-3.16-17.84-5.63-3.07-.72-21.5-16.92-24.35-18.15"/>
    <path class="cls-32" d="M369.79,871.2c2.6.15,5.16.94,7.49,2.09.34.22.67.33,1.01.79l-.52-.11c1.74-1.16,3.93-1.35,5.82-.82-.98-.04-1.95.05-2.87.28-1.05.25-2,.7-2.82,1.34-.22-.38-.49-.59-.97-.84-2.29-1.12-4.69-2-7.13-2.75h0Z"/>
    <path class="cls-32" d="M327.6,874.67c2.21.03,4.31.91,5.83,2.42l9.33,9.47-2.59-.5-14.49-11.42,1.92.03Z"/>
    <path class="cls-32" d="M342.13,886.56s-.84-1.98-4.49-2.49c-11.46-1.6-37.14-1.54-40.51,14.48l4.17,1.6s5.42-12.12,16.12-13.05c10.7-.93,24.72-.54,24.72-.54Z"/>
    <path class="cls-32" d="M374.51,872.51s-10.72-3.1-10.13,10.38l-6.33.33s1.88-12.63,7.81-13.3c5.93-.67,8.65,2.59,8.65,2.59Z"/>
    <path class="cls-11" d="M227.81,308.94c4.14,7.24,9.19,14.49,16.24,19.17,7.2,4.79,16.12,5.25,24.54,5.31,16.4.12,33.02-3.71,46.93-12.6,14.35-9.17,24.59-23.31,29.03-39.74,3.28-12.12,4.02-24.32,2.54-36.28-.3-.77-.58-1.56-.89-2.3-9.33-21.66-16.72-31.79-38.92-35.02-13.64-2.13-25.3-5.49-46.14,3.09-4.49,1.85-9.24,7.05-14.97,10.04-8.64,4.5-17.98,12.12-21.46,19.54-6.62,14.13-4.28,34.4-4.88,51.08,1.84,6.17,4.73,12.01,8,17.72Z"/>
    <path class="cls-1" d="M349.59,309.93c.3-6.67-.17-19.25-1.31-23.19-.11-3.07-.26-6.64-.46-10.94-.06-1.25-.15-2.44-.25-3.63-.11-.6-.16-1.21-.17-1.83-2.09-20.89-9.74-31.38-9.74-31.38-9.76-13.28-25.82-20.34-42.18-18.56-19.28,1.7-35.92,14.61-44.2,27.04-4.12,6.15-5.83,13.61-4.79,20.94.87,6.27,2.81,13.24,4.97,19.97-6.77.14-13.22,3.01-9.92,15.28,4.54,16.92,15.2,21.53,20.95,16.18,3.07,1.56,4.05,6.09,4.57,9.65,1,6.82,1.34,18.34-1.63,24.56l.31,1.94c16.14,22.49,25.63,35.48,74.47,18.25l-17.45-21.73-.64-7.69q3.76-.52,8.33-1.77c15.27-5.07,18.79-25.23,19.14-33.09Z"/>
    <path class="cls-1" d="M359.49,592.37c.04.28,0,.55-.11.81-.96,2.17-5.86,11.24-5.98,19.87-.11,7.77-.28,19.05-.34,22.96-.01.92.82,1.67,1.76,1.53,1.31-.18,3.03-1.07,4.04-4.16.94-3.39,1.57-6.85,1.89-10.34.11-1.23,1.57-1.83,2.55-1.05h0c.39.31.6.79.57,1.28l-.7,10.87c-.04.59-.42,1.1-.98,1.32-2.07.8-7.06,3.04-8.48,6.42-.43,1.01.42,2.11,1.54,2.06l7.16-.3c.1,0,.19-.02.29-.04l7.06-1.59c.28-.06.53-.2.74-.39l6.37-6.04c.2-.19.34-.43.42-.69l5.37-19.12c.49-1.74.53-3.57.09-5.32-1.27-5.01-2.27-10.09-2.99-15.21-1.16-10.02-1.8-16.48-2.08-19.47-.09-.99-1.11-1.62-2.07-1.3l-16.84-6.76c-.71.24-.87,13.24-.77,13.96l1.51,10.71Z"/>
    <path class="cls-1" d="M343.86,381.88c2.28.76,21.93,9.94,26.57,24.61,4.64,14.67,1.76,59.41,3.91,72.29,2.45,13.3.84,28.15,2.38,44.79.4,4.34.48,8.71.24,13.07l.5,41.49-13.73-8.53s-11.03-91.19-19.31-111.72c-8.28-20.54-.56-75.99-.56-75.99Z"/>
    <path class="cls-18" d="M215.97,470.87c12.15,1.44,23.98,5.13,35.97,7.62,16.34,3.4,32.86,4.67,49.52,4.91,20.42.3,41.29.21,61.65-2.68-.34-1.7-.68-3.03-1.02-3.92-.49-16.43.5-24.85.5-24.85,0,0,17.03.28,22.47-11.53-6.55-18.68-5.42-59.38-36.24-77.06-4.36-2.5-19.52-11.12-26.35-11.4,1.66,2.82,2.41,9.39,1.93,11.4-1.39,5.8-2.29,7.02-6.96,9.77-4.12,2.43-16.04,3.02-20.79,1.97-14.87-3.27-26.13-18.37-31.36-27.79-13.04,3.77-22.68,8.2-32.47,13.18-43.08,21.95-22.94,75.53-22.94,75.53,6.59,4.11,5.42,9.27,5.42,9.27-2.45,12.49,4.88,19.78.69,25.55Z"/>
    <path class="cls-10" d="M371.28,551.13c.2-.1-1.13-10.07-.93-10.17-2.14-19.27-5.27-47.86-7.25-60.88-20.2,2.62-40.77.85-61.02.64-16.74-.18-55.25-4.33-71.7-7.32-13.69-2.49-.58,4.82-14.51,3.81-.02.16,1.85.34,1.83.54.14.43-1.66.89-1.66,1.42.02,12.47-.35,25.05-1.19,37.5-.81,11.91-6.53,22.93-9.45,34.44-1.62,6.39-3.03,12.81-4.31,19.27-5.93,64.06-10.3,150.32-12.48,170.24,11.59,8.49,13.02-3.3,29.69,1.89,16.67,5.19,21.75,5.66,33.18,0,11.43-5.66,20.95-3.77,35.72,1.89,14.76,5.66,26.67-.47,35.24-.94,8.57-.47,20,4.72,35.24,5.19,15.24.47,9.49-6.29,18.54-5.82-.33-7.78,2.07-121.65-4.93-191.7Z"/>
    <path class="cls-19" d="M322.03,344.83s-18.29,2.72-35.57-7.07c0,0,2.37,5.4,14.43,8.77,12.06,3.37,21.34,1.28,21.34,1.28l-.21-2.98Z"/>
    <path class="cls-11" d="M257.67,298.94c-.04-.1-.04-.2-.08-.31-1.09-2.33-2.32-4.49-4.42-6.07-.96-.73-2.1-1.52-3.28-1.96-1.18-.43-2.45-.93-3.72-1-1.8-.31-3.55-.14-5.26.49-.29.15-.57.3-.86.45-5.65-14.31-8.85-29.82.5-48.61,2.7-5.41,10.4-11.75,12.74-13.77,14.24-12.14,27.67-13.96,44.4-13.59,19.38.43,38.3,11.41,44.21,30.5,1.42,4.6,1.38.7,1.29,5.51,0,0-3.87-10.41-13.57-15.24-9.7-4.83-10.75,3.45-23.86,4.74-15.19,1.44-20.82-6.44-32.54.85-10.7,6.68-9.36,11.01-9.36,11.01-.5,2.86-2,5.39-2.94,8.1-.93,2.67-1.16,5.43-1.13,8.24.06,5.75-.11,11.52.75,17.23.54,3.54,1.6,8.21-1.63,10.84-1.44,1.17.44,3.01-1.23,2.58Z"/>
    <path class="cls-11" d="M246.24,304.05c-.82-1.98-1.47-4.76-.32-6.77l-1.25.68c.12-.02-.35.02-.23.02.11,0,.21.05-.11-.01.06.01.12,0,.18.02.24.07-.09-.04.08.02.58.18,1.09.45,1.58.79,2.69,1.86,4.71,4.71,6.52,7.38l2.03-.81c-.93-.59-2.04-.88-3.13-.61-1.32.33-1.98,1.23-1.99,2.56,0,1.01.41,2,1.13,2.71,1.1,1.08,2.69,1.36,4.16,1.42.44.02,1.18-.17,1.44-.56.28-.42-.24-.51-.56-.52-1.82-.07-3.58-.99-3.94-2.89-.06-.31-.08-.63-.05-.94s.25-.64.27-.91c.01-.21-.04.51-.54.12.02.02.11,0,.13.02.16.07.35.1.51.16.19.08.48.22.53.26.44.28,2.52-.09,2.03-.81-1.35-2-2.81-3.97-4.52-5.68-.89-.89-1.87-1.73-3-2.31-1.2-.62-3.08-.88-3.66.69-.78,2.12-.32,4.53.52,6.56.27.66,2.41-.01,2.17-.58h0Z"/>
    <ellipse class="cls-25" cx="297.22" cy="285.19" rx="4.13" ry="4.11" transform="translate(-34.59 529.26) rotate(-80.15)"/>
    <path class="cls-22" d="M363.67,445.55c.25-12.18.45-24.37.31-36.55-.04-3.14-.06-6.3-.31-9.43-.07-.85-2.25-.36-2.17.58.53,6.45.35,13,.33,19.47-.03,7.2-.12,14.39-.25,21.59-.03,1.52-.05,3.05-.09,4.57-.02,1.02,2.17.63,2.19-.22h0Z"/>
    <path class="cls-11" d="M254.93,256.65s30.89,5.57,55.07-1.95l3.47-14.21s1.49,12.56.86,14.88l5.32-.31s.28-10.83-.86-14.88c0,0,5.5,11.77,5.35,14.62,0,0,18.75-.48,20.62-2.11,1.88-1.63-15.93-25.86-26.82-27.17-10.89-1.31-56-2.14-63.01,31.14Z"/>
    <path class="cls-11" d="M224.91,243.15c.47-7.38-3.95-16.2-11.35-16.16-1.8.01-3.55.56-5.27,1.1-2.54.8-5.08,1.61-7.62,2.41-2.31.73-4.66,1.48-6.65,2.88-3.6,2.54-5.53,6.95-6.05,11.33-.52,4.38.19,8.8.89,13.15.65,3.99,1.78,8.63,5.51,10.2,2.2.92,4.72.46,7.07.88,2.1.37,4.01,1.43,6.03,2.11,6.9,2.31,15.16-.39,19.35-6.34"/>
    <path class="cls-4" d="M319.76,307.34c1.45.52,3.03.64,4.56.58.84-.04,1.67-.13,2.49-.29.68-.13,1.37-.27,2.01-.52,1.04-.39,1.97-1.09,2.52-2.07.29-.51.5-1.11.49-1.69,0-.44-.16-.85-.36-1.24-.28-.55-.63-1.06-.94-1.59-.44-.75-.82-1.53-1.12-2.35-.07-.2-.79.02-.72.19.45,1.23,1.11,2.31,1.78,3.43.47.78.8,1.55.54,2.46-.31,1.1-1.07,1.99-2.09,2.49-.44.22-.87.32-1.36.44-.77.18-1.56.3-2.35.37-1.63.13-3.31.04-4.86-.51-.15-.05-.37.01-.51.08-.08.04-.24.16-.08.22h0Z"/>
    <path class="cls-4" d="M312.61,302.66c-.74,0-1.32.44-1.56,1.13-.22.63-.23,1.34-.15,2,.03.27.08.54.17.8.13.35.37.67.66.9.74.6,1.77.74,2.69.78.68.03,1.31-.11,1.94-.36.57-.23,1.11-.54,1.7-.7.09-.02.35-.11.32-.24s-.33-.07-.4-.05c-.51.14-.99.36-1.47.58-.41.19-.85.39-1.31.43-.43.04-.89-.02-1.32-.09-.4-.07-.81-.18-1.17-.39s-.67-.5-.86-.87c-.1-.19-.15-.4-.19-.61-.11-.58-.13-1.2-.03-1.79.05-.3.13-.62.31-.88.08-.12.15-.19.25-.26-.04.03.04-.02.01,0-.04.02,0,0,.02,0,.05-.02-.07.02-.02,0,.08-.01-.05-.02.03,0,.04,0-.02,0-.02,0,.03,0,.06,0,.09,0,.15,0,.39-.06.48-.18s-.09-.16-.18-.16h0Z"/>
    <g>
      <path class="cls-18" d="M216,465.15s55.58,10.6,87.51,9.81,58.44-5.32,58.44-5.32l1.86,15.59s-36.33,5.17-74.97,3.59c-38.65-1.58-71.28-2.14-71.28-2.14l-1.56-21.53Z"/>
      <path class="cls-22" d="M215.48,466.3c4.47.85,8.96,1.62,13.45,2.37,10.35,1.72,20.74,3.26,31.15,4.54,11.71,1.44,23.49,2.6,35.29,2.9,14.11.35,28.32-.77,42.34-2.2,7.96-.81,15.92-1.76,23.81-3.06.24-.04.48-.08.72-.12l-1.83-.67c.62,5.2,1.24,10.39,1.86,15.59.55-.52,1.11-1.04,1.66-1.57-16.58,2.36-33.43,3.4-50.16,3.78-14.65.33-29.26-.41-43.89-.91-11.84-.41-23.68-.76-35.53-1.05-5.56-.14-11.12-.27-16.68-.36.48.35.95.7,1.43,1.05-.45-6.26-.91-12.53-1.36-18.79-.07-.91-.13-1.82-.2-2.74-.12-1.64-3.22-1.19-3.12.22.45,6.26.91,12.53,1.36,18.79.07.91.13,1.82.2,2.74.06.81.69,1.04,1.43,1.05,15.78.27,31.55.72,47.32,1.25,14.54.49,29.08,1.32,43.64,1.16,12.43-.13,24.86-.79,37.24-1.89,6.03-.53,12.06-1.12,18.05-1.97.83-.12,1.78-.59,1.66-1.57-.62-5.2-1.24-10.39-1.86-15.59-.1-.8-1.3-.76-1.83-.67.3-.05.41-.07.01,0-.36.06-.72.12-1.08.17-1.34.21-2.68.41-4.02.61-4.8.69-9.62,1.29-14.45,1.83-14.14,1.56-28.46,2.75-42.7,2.69-11.49-.05-22.98-1.14-34.39-2.46-10.7-1.24-21.37-2.78-32-4.51-5.43-.88-10.84-2.03-16.28-2.82-.08-.01-.16-.03-.24-.05-1.55-.3-3.09,1.9-1.05,2.29Z"/>
    </g>
    <path class="cls-27" d="M964.86,473.37c10.6-.08,34.69-2.41,45.07-4.79.65-30.13-6.19-77.89-11.28-107.02-8.96-38.51-77.83-59.19-97.19-62.94l5.73,34.36c-3.34,5.49-1.71,87.9.82,141.13,18.9.59,37.89-.6,56.85-.74Z"/>
    <path class="cls-12" d="M918.65,472.95c-1.08.28-2.19.45-3.31.5-.72.03-1.57.05-2.25-.26-.73-.34-.79-.89-.86-1.62-.33-3.35-.65-6.7-.99-10.04-.94-9.38-1.91-18.76-2.86-28.14-.79-7.84-1.61-15.67-2.28-23.52-1.08-12.71-3.2-25.65-.78-38.33,2.66-13.93,10.6-26.79,22.12-35.1,1.19-.86-.57-1.62-1.44-.99-10.36,7.48-17.92,18.48-21.53,30.71-3.91,13.27-2.12,26.9-.88,40.41,1.68,18.26,3.56,36.51,5.4,54.76.22,2.22.45,4.43.66,6.65.16,1.58.13,3.32.47,4.87.76,3.39,6.6,2.22,8.92,1.62,1.34-.35.95-1.84-.4-1.49h0Z"/>
    <path class="cls-32" d="M921.69,532.89c6.46-.62,12.63,2.72,17.17,7.08,4.3,4.13,6.81,9.05,7.41,14.98.08.77,2.26.29,2.17-.58-.65-6.47-3.64-11.81-8.49-16.12-4.94-4.39-11.28-7.28-17.99-6.64-1.09.11-1.78,1.42-.28,1.28h0Z"/>
    <path class="cls-27" d="M766.28,504.65s-41.52-10.69-67.57-26.34c0,0,18.45-83.67,26.92-108.52,8.47-24.85,42.44-42.28,52.93-47.79,15.04-7.9,16.94-8.43,16.94-8.43h0s-4,9.5-2.72,18.49c1.28,8.99-26.5,172.59-26.5,172.59Z"/>
    <path class="cls-12" d="M753.94,500.48c-.07-3.31-.8-6.66-1.38-9.9-.82-4.61-1.74-9.21-2.72-13.79-2.29-10.71-5.62-21.16-8-31.85-1.84-8.25-3.4-16.56-4.65-24.92-.07-.49-2.26-.02-2.17.58,2.22,14.88,5.41,29.62,9.47,44.1,2.29,8.17,4.07,16.43,5.6,24.78.7,3.79,1.61,7.72,1.69,11.59,0,.42,2.19.08,2.17-.58h0Z"/>
    <path class="cls-32" d="M761.42,543.78c-7.62-.64-15.43-.91-22.96-2.38-9.47-1.85-18.94-3.7-28.4-5.55-9.26-1.81-18.5-3.81-27.79-5.43-.71-.12-1.28.07-1.94.34-1.7.68-3.4,1.36-5.09,2.05l-17.03,6.85c-2.53,1.02-5.06,2.03-7.59,3.05-1.34.54-2.75,1-4.05,1.63-1.13.55-1.79,2.31-2.41,3.34-1.55,2.56-3.1,5.12-4.65,7.68-.31.52-.63,1.04-.94,1.56-.63,1.05,1.58,1.11,2.08.27,2.42-3.99,4.83-7.98,7.25-11.97l-.56.53c10.13-4.07,20.26-8.14,30.39-12.21,1.42-.57,2.83-1.14,4.25-1.71l-.86.15c10.75,2.1,21.49,4.2,32.24,6.3,10.03,1.96,20.03,4.2,30.15,5.58,5.69.77,11.45,1.09,17.18,1.57,1.09.09,2.21-1.49.74-1.62h0Z"/>
    <path class="cls-32" d="M302.38,745.54c-1.49,14.95-2.73,29.96-3.64,44.96-.7,11.58-1.4,23.15-2.11,34.73-.38,6.26-.76,12.51-1.14,18.77-.13,2.17-.26,4.34-.4,6.52-.06,1.03-.29,2.19-.2,3.22.08.89,1.47,1.68,2.1,2.25,2.43,2.19,4.87,4.38,7.3,6.57,1.78,1.6,3.5,3.3,5.35,4.81.69.56,1.54.94,2.32,1.36,5.61,3.08,11.28,6.05,17.04,8.83,3.33,1.61,6.69,3.15,10.11,4.54,2.7,1.1,5.48,2.18,8.35,2.75.95.19,1.92.32,2.89.26.77-.05,1.16-1,.16-.93-2.27.15-4.71-.8-6.81-1.54-3.36-1.18-6.62-2.61-9.85-4.1-6.24-2.88-12.36-6.03-18.4-9.3-1.43-.77-2.89-1.51-4.28-2.35-.11-.07-.21-.12-.07-.02-.17-.12-.32-.29-.47-.43-.8-.72-1.61-1.45-2.41-2.17l-7.42-6.68c-1.45-1.31-3.23-2.56-4.5-4.05-.1-.11.06.36.04.12-.01-.11,0-.25.02-.36.05-.48.06-.96.09-1.44.11-1.81.22-3.61.33-5.42.35-5.82.71-11.64,1.06-17.46.74-12.18,1.48-24.35,2.21-36.53.83-13.66,1.96-27.3,3.19-40.92.18-2.05.38-4.11.58-6.16.07-.66-1.4-.43-1.46.15h0Z"/>
    <path class="cls-4" d="M304.91,271.09c-.01-.14-.58-.07-.59-.21-9.17-.41-15.95.54-18.35,1.35-1.83.61-3.54,1.56-5.12,2.72,0,0-4.38,3.14-4.81,4.17-.43,1.04,2.82-.95,2.82-.95.71-.32,1.18-.65,1.93-.88,4.1-1.28,7.94-3.03,12.24-3.23,3.68-.19,8.87.89,12.54,1.52-.14-1.56-.66-2.93-.66-4.49Z"/>
    <path class="cls-4" d="M327.34,271.13c-.03-.14.46-.22.43-.36,7.48-2.87,13.35-3.79,15.56-3.67,1.27.07,2.53.39,3.78.82.44.63.89,1.24,1.23,1.92.03.09.05.19.07.28,0,.08,0,.15,0,.23-.02.06-.03.12-.05.18-3.52-.16-6.97-.68-10.38.24-3.1.81-7.11,3.25-9.97,4.85-.3-1.53-.25-2.99-.66-4.49Z"/>
    <path class="cls-20" d="M281.7,287.73s8.9,3.23,15.7,2.72c6.79-.51,11.35-3.01,11.35-3.01,0,0-6.43-6.73-13.36-5.84s-13.69,6.13-13.69,6.13Z"/>
    <path d="M302.21,283.04c-.72-.46-1.52-.09-2.35-.29-.86-.21-1.76-.24-2.64-.24-.03,0-.05-.01-.07-.01-.97.81-1.56,2.04-1.48,3.4.14,2.25,2.07,3.96,4.32,3.82,2.24-.14,3.95-2.09,3.81-4.34-.01-.19-.13-1.2-.17-1.38-.51-.34-.9-.63-1.42-.96Z"/>
    <path d="M308.76,287.45s-6.84-7.52-13.72-6.37c-9.68,1.62-9.86,3.41-13.33,6.65,0,0,6.16-3.95,13.67-5.02,6.81-.97,13.38,4.73,13.38,4.73Z"/>
    <path class="cls-20" d="M328.77,286.48s10.09.23,15.44-1.32c1.98-.57,3.52-2.27,3.58-4.32.01-.45-.06-.88-.28-1.22-1.48-2.3-7.49-2.76-9.71-1.89-2.22.87-7.89,4.56-9.03,8.76Z"/>
    <path d="M346.42,278.81c-.06-.02-.13-.13-.2-.17-1.9-1.18-4.13-1-6.37-.71-.15.02-.3,0-.43-.05-.06,0-.12.01-.18.02-.11.02-.22.03-.33.04-.49.77-.74,1.7-.63,2.67.27,2.24,2.29,3.84,4.53,3.57,2.23-.27,3.91-2.59,3.64-4.83,0-.05-.02-.5-.03-.55Z"/>
    <path d="M344.52,277.31c-2.05-.84-4.1-1.52-7.75-.42-5.86,1.75-8,9.59-8,9.59,0,0,2.93-6.1,8.67-7.97,2.77-.9,7.86.73,10.23,1.44-.16-.58-1.91-2.06-3.15-2.63Z"/>
    <path class="cls-20" d="M809.7,204.94s-11.03,9.44-17.84,11.93c-6.82,2.49-13.43,2.78-13.43,2.78,0,0,7.71-11.86,11.26-13.31,3.56-1.45,15.58-4.49,20.02-1.41Z"/>
    <path class="cls-20" d="M753.1,225.21s-6.83,5.07-13.58,6.54c-6.75,1.47-9.66-2.13-9.66-2.13,0,0,3.89-5.75,7.43-6.67s10.77.14,15.8,2.26Z"/>
    <path d="M778.38,219.53s6.6-10.87,11.26-13.31c6.8-3.57,17.03-3.49,20.88-1.24,0,0-15.5.83-20.22,3.47-4.51,2.53-11.92,11.08-11.92,11.08Z"/>
    <path d="M785.49,209.87c1.19-1.62,3.41-1.81,4.91-1.39.35.1,1.32.4,2.15,1.31,1.06,1.16,1.28,2.96.9,4.31-.51,1.8-2.28,2.94-4.05,2.96-2.4.04-4.2-2.02-4.57-3.99-.06-.36-.3-1.9.65-3.21"/>
    <path d="M753.14,225.06s-8.62-4.7-13.5-3.56c-7.12,1.66-8.38,3.92-9.78,8.12,0,0,3.43-5.06,8.48-6.08,4.83-.98,14.8,1.52,14.8,1.52Z"/>
    <path d="M737.27,222.84c-1.88-.34-3.53,1.06-4.27,2.41-.18.32-.63,1.21-.59,2.44.05,1.57,1.1,3.02,2.25,3.73,1.54.94,3.5.53,4.73-.68,1.66-1.64,1.52-4.37.46-6.04-.2-.3-1.06-1.57-2.58-1.85"/>
    <path class="cls-32" d="M791.7,311.68c12.34-2.72,24.32-5.67,28.14-7.88,19.45-11.24,28.11-45.48,28.11-45.48,0,0-1.03,13.64-9.5,29.54-8.47,15.89-14.57,19.22-27.03,22.26-5.91,1.44-10.53,3.33-18.35,5.36l-1.37-3.8Z"/>
    <path class="cls-1" d="M516.08,507.2c-.64-.22-5.13-1.3-5.65-1.73-1.91-1.56-2.69-3.07-2.66-5.13.05-.85.23-4.38.55-5.15.62-1.5.1-.53-1.13-1.6l-1.57-1.37c-.61-.53-1.07-1.22-1.25-2.01-.37-1.62-.49-3.3-.36-4.96.36-2.82,5.18-6.11,5.18-6.11l-1.88-1.2c-1.91-1.76-2.27-2.92-1.71-5.46l.31-1.19c.49-1.13,1.14-2.17,1.93-3.09,1.27-1.46,1.27-3.61.05-5.11-1.02-1.26-1.92-2.73-1.77-3.92,1.01-4.55,4.57-8.09,9.09-9.1.29-.07.6-.09.9-.1,8.11-.13,16.21.28,24.27,1.23.56.07,9.77-1.08,10.29-1.18,3.28,3.06-1.42,6.13,3.04,7.32,4.13,1.1,8.38,1.6,12.56,2.46,1.35.28,2.44,1.28,2.89,2.58,0,0,0,.02,0,.02.13.37.31.72.54,1.03l15.39,21.1c.91,1.25,7.78,2.16,7.41,3.66-4.09,16.35-12.85,34.13-12.38,34.29.53.18-11.39-6.58-16.01-5.41,0,0-27.55-2.93-48.03-9.87Z"/>
    <path class="cls-1" d="M543.08,454.54c.67-.65,5.21-4.23,5.46-5.2.07-.27.11-.55.14-.82.56-7.8,2.29-15.46,5.14-22.74,3.51-7.71,8.61-8.55,11.76-8.24,1.33.14,2.3,1.34,2.16,2.67-.01.14-.04.28-.08.41-1.6,5.21-2.87,10.52-3.8,15.88-.25,2.74,2.47,16.66,4.21,25.19-7.48-2.5-19.63-1.38-24.98-7.14Z"/>
    <path class="cls-32" d="M553.55,475.99c-5.85,1.41-10.85,5.36-13.29,10.9-.18.41.73.35.9.32.4-.06,1.07-.24,1.26-.66,2.1-4.78,6.26-8.48,11.37-9.71.25-.06,1.08-.33.97-.72s-.98-.19-1.2-.14h0Z"/>
    <path class="cls-32" d="M509.96,465.25c1.55.65,3.41.9,5.05,1.29,1.79.43,3.57.86,5.36,1.27,3.74.87,7.49,1.71,11.24,2.56,3.61.82,7.48,2.14,11.2,1.3,3.85-.87,7.3-3.72,6.37-8.02-.94-4.32-5.18-6.22-8.98-7.41-2.4-.75-4.87-1.33-7.29-1.98-1.88-.51-3.77-1-5.65-1.5-.86-.23-1.72-.46-2.59-.68-.96-.25-2.25-.78-3.25-.69-.22.02-2.21.63-1.33.99l.69.28c.55.22,2.53-.62,1.76-.94l-.69-.28-1.33.99c.7-.06,1.71.42,2.39.59.64.16,1.28.34,1.92.51,1.87.49,3.73.98,5.6,1.48,1.59.42,3.18.86,4.77,1.28,3.3.88,7.08,1.65,9.59,4.11,1.43,1.4,2.37,3.21,2.39,5.23.03,2.47-1.76,4.4-4.07,5.05-2.1.59-4.54-.05-6.61-.52-1.12-.26-2.23-.53-3.35-.78-3.64-.83-7.29-1.65-10.92-2.49-1.7-.39-3.4-.81-5.1-1.21s-3.74-.68-5.39-1.38c-.54-.23-2.53.61-1.76.94h0Z"/>
    <path class="cls-32" d="M509.74,479.57c1.72.67,3.75.85,5.57,1.2,2.71.52,5.45.91,8.19,1.28,1.96.26,3.93.5,5.9.71,2.09.22,4.21.54,6.32.46,3.24-.11,6.57-1.67,7.92-4.77.65-1.5.75-3.22.05-4.72-.59-1.26-2.05-3.01-3.59-2.99-.45,0-1.24.13-1.43.62-.17.44.15.76.62.75.74,0,1.7,1.28,2.05,1.88.49.83.71,1.83.62,2.79-.17,1.9-1.41,3.72-3.17,4.5-1.94.85-4.16.59-6.2.37-2.19-.23-4.37-.47-6.55-.74-3.09-.39-6.18-.81-9.24-1.39-1.87-.35-3.99-.55-5.77-1.24-.78-.3-2.54.82-1.3,1.3h0Z"/>
    <path class="cls-32" d="M510.82,493.12c2.03.49,4.23.58,6.31.76,2.2.19,4.39.35,6.59.53l7.4.6c3.5.28,7.41.83,10.4-1.47,2.03-1.56,2.53-4.27,1.32-6.52s-3.56-3.64-5.99-3.9c-.48-.05-1.18.05-1.54.41-.28.28-.32.62.18.67,2.21.24,4.45,1.73,5.36,3.79,1.01,2.28.27,4.99-2.19,5.89-2.29.83-5.19.13-7.62-.07-4.21-.34-8.42-.64-12.62-1.01-2.06-.18-4.24-.27-6.25-.75-.61-.15-2.54.8-1.36,1.08h0Z"/>
    <path class="cls-32" d="M514.21,506.1c3.87-.19,7.73-1.13,11.53-1.85,2.5-.47,4.98-.98,7.48-1.44,2.58-.47,6.91-1.54,6.75-4.98-.12-2.62-4.03-4.66-6.21-3.05-.38.28-.22.53.17.63.47.12,1.16-.13,1.54-.41-.85.63-.68.28,0,.52.31.11.61.26.87.45.48.35.94.82,1.19,1.37.7,1.53-.21,3.19-1.65,3.85s-3.43.83-5.05,1.14c-2.4.46-4.8.92-7.2,1.36-2.82.52-5.67,1.2-8.54,1.34-.38.02-1.27.15-1.44.56s.14.52.55.5h0Z"/>
    <path class="cls-32" d="M567.32,515.23c3.45-1.33,6.66-3.51,8.67-6.67s2.52-6.66,2.1-10.22c-.09-.72-2.27-.23-2.17.58.39,3.25-.1,6.6-1.84,9.42s-4.51,4.81-7.61,6c-.31.12-.87.49-.58.87s1.1.15,1.44.02h0Z"/>
    <path class="cls-29" d="M321.91,315.07c-5.95.62-15.65,1.1-15.65,1.1,0,0,.19,13.51,16.67,11.6,13.77-1.6,12.24-13.98,12.24-13.98,0,0-7.32.66-13.27,1.28Z"/>
    <path class="cls-16" d="M321.97,315.07c-2.83.29-13.37,1.3-13.37,1.3,0,0,3.6,7.83,13.83,6.77,11.09-1.15,11.05-8.74,11.05-8.74l-11.5.67Z"/>
    <path class="cls-15" d="M322.17,315.86c-2.83.29-11.47.83-11.47.83,0,0,3.34,1.97,11.82,1.09,8.49-.88,10.95-3.38,10.95-3.38l-11.3,1.46Z"/>
    <path class="cls-29" d="M336,313.25c-.02-.23-.65-.27-2.06-.22-2.36.09-3.19-.47-4.89-.39-2.91.14-4.66,1.17-5.92,1.3-1.26.13-3.19-.52-6.07-.06-1.69.27-5.84,1.16-8.16,1.56-1.4.23-3.08,0-3.38.09-.41.12.87,2.97,16.7,1.32,15.83-1.64,13.82-3.29,13.79-3.61Z"/>
    <path class="cls-1" d="M254.98,650.29c-4.74-3.46-9.82-6.62-15.2-9.45l-6.73-12.97,1.65-7.16,4.48-.66s3.17,17.68,7.23,20.23c4.05,2.54,5.96,2.29,5.96,2.29l2.64-4.48-7.88-25.68s-5.55-10.65-7.28-13.03c-2.04-2.25-4.32-4.36-6.8-6.3l-2.5-13.02-25.38,5c1.39,3.48,3,9.45,4.89,13.38l1.1,28.3,9.17,11.04,11.15,9.44,25.28,8.86s3.24-1.73-1.78-5.79Z"/>
    <path class="cls-1" d="M238.05,441.94l.54-14.02c3.02-15.92,11.77-58.16,4.24-65.06,0,0-26.03,10.57-37.34,19.61-11.27,9.01-10.44,20.7-14.56,54.73l-3.81,29.29c-3.48,26-3.64,45.98-3.66,51.42-.11,23.99,32.89,95.17,32.89,95.17l18.18-5.37s-6.05-66.31-10.09-90.69l13.6-75.08Z"/>
    <path class="cls-18" d="M260.12,351.42s-51.03,7.13-65.97,49.76c-14.93,42.63-9.87,41.87-9.87,41.87,0,0,40.53,16.17,61.52,14.72,21-1.45,14.31-103.58,14.31-103.58"/>
    <path class="cls-22" d="M236.96,458.47c2.6-.04,5.2-.08,7.8-.11.54,0,1.34-.19,1.49-.81,2.46-9.91,4.33-20.02,5.7-30.14,1.04-7.69,1.81-15.5,1.52-23.27-.15-4.09-.73-8.14-1.53-12.15-.62-3.12-1.33-6.34-2.72-9.22-.81-1.69-2.5-4.37-4.79-3.27-1.35.65-.13,1.59.91,1.09-.21.1-.32.09-.43.1-.04,0-.04,0-.05,0,.27.14-.07-.08.24.1.89.51,1.61,1.82,2.08,2.87,1.3,2.87,2.01,6.02,2.61,9.1.77,3.93,1.35,7.89,1.49,11.89.25,7.4-.46,14.83-1.42,22.16-.9,6.84-2.09,13.65-3.47,20.41-.72,3.53-1.47,7.05-2.34,10.55l1.49-.81c-2.6.04-5.2.08-7.8.11-.45,0-1.23.13-1.42.63-.17.44.15.78.63.78h0Z"/>
    <g>
      <circle class="cls-20" cx="1197.77" cy="841.03" r="73.76"/>
      <path class="cls-7" d="M1269.21,843.95c1.15-.38,2.41-.29,3.54.2.65-1.83,1.27-3.67,1.79-5.54-.11-1.34-.26-2.69-.45-4.04-1.2-9.56-4.78-18.73-9.56-27.49-2.45-4.25-5.34-8.13-8.52-11.74-.25,4.75-.54,9.5-.58,14.26,0,1.22-.42,2.18-1.04,2.9-.21,1.25-.42,2.49-.62,3.74-.4.8-.8,1.59-1.99,1.59-8.37.4-16.34.4-24.7-1.2-.8,0-1.59-.4-1.99-.8-5.18-4.78-10.36-9.96-15.54-14.74-1.2-1.2-2.39-2.39-3.19-3.59-1.99-2.79-1.99-5.98-1.59-9.16.4-3.98,1.2-8.37,1.59-12.35,0-1.2.8-1.99,1.99-2.39,1.2,0,2.79-.4,3.98-.4.17-.01.34,0,.51-.01.16-.17.31-.34.51-.5,1.12-.89,2.21-1.82,3.3-2.75-8.5-2.41-17-3.43-25.49-2.74,2.25,1.23,4.56,2.34,6.96,3.19,1,.35,1.74.93,2.25,1.63.4.24.8.49,1.21.78.8.4,1.2,1.2,1.2,1.99,1.2,6.37,0,12.75-1.59,18.73-.4.8-1.59,1.59-2.39,1.99-6.77,3.98-13.15,7.57-19.92,11.55-.8,0-1.59.4-1.99,0-5.18-1.99-10.76-3.98-16.34-5.98-3.58-1.28-5.35-3.22-5.84-5.82-.26-.59-.4-1.27-.38-2.06.11-5.03,1.05-9.92,2.07-14.8-1.48.92-2.8,1.84-3.41,2.75-12.35,8.37-21.12,19.12-26.3,32.67-.62,1.69-1.18,3.41-1.7,5.16.48,0,.96-.02,1.44-.02,1.49,0,2.62.56,3.39,1.41.63-.03,1.32.04,2.05.22,1.59.4,3.19,1.59,3.98,3.19.4.4.4.8.4,1.2-.4,10.36,1.2,20.72,3.59,30.68.8,1.99,0,4.38-.4,6.38-.8,3.19-1.59,6.77-2.39,10.36-.4.8-.4,1.59-.4,2.39,0,1.2-.4,2.39-1.59,2.79-.03,0-.06.01-.09.02.07.2.15.39.2.61,1.43,6.6,7.6,12.75,12.71,16.86,3.97,3.2,8.54,5.45,13.26,7.39.54-.21,1.09-.41,1.66-.55.43-.56,1.08-.96,1.74-1.62,1.59-1.99,2.79-3.59,4.78-5.18,1.59-1.2,3.59-1.99,5.18-2.79h1.59c6.37,1.2,12.35,2.39,18.33,3.59,1.59,0,3.19.4,4.78.4,2.39,0,4.38.8,6.37,1.99,2.79,1.59,5.18,3.59,6.77,6.37.8,1.2,1.2,1.99,1.59,3.19.29.59.42,1.18.39,1.75,2.2.11,4.4.26,6.59.42,6.47-4.81,12.55-8.8,20.68-10.98.82-2.13,3.01-3.33,4.11-5.28-.17-.22-.29-.43-.29-.65.8-6.37,1.59-13.15,4.38-19.12,0-.4.4-.4.4-.8,4.78-9.16,9.56-17.93,14.34-26.7.8-.8,1.59-1.59,2.79-2.39.68-.45,1.36-.51,1.89-.18ZM1162.13,860.47c-5.18-.8-9.56-2.39-13.95-4.38-1.99-1.2-4.38-2.39-5.98-4.38,0,0-.4-.4-.4-.8-.8-7.17-2.39-14.34-2.39-21.52,0-6.77,1.59-12.75,5.98-18.33,1.99-2.39,3.98-4.38,5.98-6.77.4-.4.8-.8,1.2-.8,1.99-1.2,3.59-1.2,5.58-.8,3.98,1.59,7.97,3.19,11.55,4.78,3.19,1.59,5.98,3.19,7.97,6.37.4.8.8,1.99.8,2.79,1.2,6.77,1.99,13.95,3.19,20.72,0,.4,0,1.2-.4,1.59-3.59,5.18-7.17,10.76-10.76,15.94-.4.4-.8.8-1.2,1.59-1.59,3.19-3.98,4.38-7.17,3.98ZM1217.52,879.19c-2.39,4.38-5.98,7.97-9.96,11.55-2.79,2.39-6.38,3.19-9.56,2.79-5.58-.8-11.16-1.59-16.73-2.79-4.38-1.2-7.17-4.38-9.56-8.77-1.2-4.38-3.98-9.16-3.98-13.95,0-3.59,1.2-6.37,3.19-9.16,2.39-3.19,4.38-5.98,6.77-9.16,1.99-2.79,3.98-5.58,7.17-7.17.8-.4,1.2-.8,1.99-.8,7.17-.8,13.55,1.2,20.32,2.79,2.79.8,4.38,1.99,5.18,4.78,1.99,7.17,4.38,14.34,6.77,21.52.8,3.19,0,5.98-1.59,8.37ZM1260.55,845.33c-.8,3.19-1.99,5.98-3.19,8.77-2.39,4.78-5.18,9.96-7.97,14.74-1.59,2.79-3.59,3.98-6.77,4.38-6.37.8-13.15.4-19.52-.8-.4,0-.8-.4-.8-.8-2.39-7.17-4.78-14.74-7.17-21.91-.8-1.59-1.2-2.79-1.59-4.38-.4-1.2-.4-2.79.4-3.98,2.39-4.38,4.38-9.16,6.77-13.55,1.2-2.39,3.19-3.98,4.78-5.98.4-.4,1.2-.8,1.99-.8,8.77-.4,17.13-.4,25.5,1.59.8,0,1.2.4,1.59.8,1.99,5.98,4.38,11.55,5.98,17.53.4,1.2.4,2.79,0,4.38Z"/>
      <path class="cls-7" d="M1167.71,896.56s-5,6.05-6.36,8.62c0,0-16.01-9.04-21.93-18.48l-5.57-8.83,5.57-.34,21.73,17.59,6.56,1.44Z"/>
      <polygon class="cls-7" points="1204.07 793 1227.12 818.01 1205.61 818.01 1204.07 793"/>
      <path class="cls-7" d="M1213.45,906.64l1.66,6.09s7.84-1.51,18.26-7.1c10.43-5.59,12.95-8.91,12.95-8.91l-1.41-3.64-31.46,13.56Z"/>
      <path class="cls-7" d="M1204.07,776.29l-15.5-8.45s5.42-2.35,17.4-.06c11.98,2.29,17.77,4.2,17.77,4.2l-19.66,4.31Z"/>
    </g>
  </g>
</svg>