<?xml version="1.0" encoding="UTF-8"?>
<svg xmlns="http://www.w3.org/2000/svg" viewBox="0 0 1334 1000">
  <defs>
    <style>
      .cls-1 {
        fill: #dbb28e;
      }

      .cls-2 {
        fill: #050606;
      }

      .cls-3 {
        fill: #13110f;
      }

      .cls-4 {
        fill: #5f6161;
      }

      .cls-5 {
        fill: #aa3828;
      }

      .cls-6 {
        fill: #231f20;
      }

      .cls-7 {
        fill: #2951a4;
      }

      .cls-8 {
        fill: #715446;
      }

      .cls-9 {
        fill: #709199;
      }

      .cls-10 {
        fill: #6bcce2;
      }

      .cls-11 {
        fill: #ce8d2a;
      }

      .cls-12 {
        fill: #c95744;
      }

      .cls-13 {
        fill: #661d0d;
      }

      .cls-14 {
        fill: #d58780;
      }

      .cls-15 {
        fill: #fff;
      }

      .cls-16 {
        fill: #412b12;
      }

      .cls-17 {
        fill: #4d1513;
      }

      .cls-18 {
        fill: #513835;
      }

      .cls-19 {
        fill: #1e0f0d;
      }

      .cls-20 {
        fill: #151210;
      }

      .cls-21 {
        fill: #24180f;
      }

      .cls-22 {
        fill: #bb997a;
      }

      .cls-23 {
        fill: #94664a;
      }

      .cls-24 {
        fill: #192141;
      }

      .cls-25 {
        fill: #975449;
      }

      .cls-26 {
        fill: #343535;
      }

      .cls-27 {
        fill: #ededed;
      }

      .cls-28 {
        fill: #a38166;
      }

      .cls-29 {
        fill: #d3d3d3;
      }

      .cls-30 {
        fill: #87654d;
      }

      .cls-31 {
        fill: #4f2e25;
      }
    </style>
  </defs>
  <g id="Layer_1" data-name="Layer 1">
    <polyline class="cls-27" points="-47.17 -104.78 -47.17 973.47 1328.95 973.47 1328.95 -104.78"/>
    <rect class="cls-29" x="-61.38" y="296.81" width="1486.05" height="466.22"/>
    <polyline class="cls-28" points="1343.5 853.05 1343.5 -52.01 1030.61 -52.01 1030.61 853.05"/>
    <polyline class="cls-8" points="-3.54 975.83 1383.25 975.83 1383.25 607.99 -3.54 607.99"/>
    <rect class="cls-22" x="1015.1" y="-52.89" width="15.51" height="660.35"/>
    <g>
      <path class="cls-4" d="M991.58,278.22h36.95c2.44,0,4.42,2.31,4.42,5.16h0c0,2.85-1.98,5.16-4.42,5.16h-36.95c-2.44,0-4.42-2.31-4.42-5.16h0c0-2.85,1.98-5.16,4.42-5.16Z"/>
      <path class="cls-4" d="M991.49,289.54c-.27,0-.54-.02-.81-.04-1.61-.15-3.29-.81-4.24-2.27-.54-.82-.8-1.83-.92-2.83-.14-1.15-.11-2.35.27-3.43.69-1.95,2.55-2.85,4.27-3.26.41-.1,5.48-.63,5.48-.33v-18.53c0-5.37-3.88-9.72-8.67-9.72h-.02c-4.79,0-8.67,4.35-8.67,9.72v67c0,5.37,3.88,9.72,8.67,9.72h.02c4.79,0,8.67-4.35,8.67-9.72v-31.75c0-1.57,0-3.13-.01-4.7-1.34-.01-2.69.17-4.03.15ZM988.86,317.24v3.8c0,.82-.6,1.49-1.33,1.49-.73-.01-1.31-.68-1.31-1.49v-3.8c-1.06-.55-1.73-1.75-1.7-3.06.03-1.81,1.38-3.25,2.99-3.22s2.9,1.54,2.87,3.36c.01,1.21-.57,2.33-1.52,2.91Z"/>
    </g>
    <path class="cls-26" d="M988.86,317.24v3.8c0,.82-.6,1.49-1.33,1.49-.73-.01-1.31-.68-1.31-1.49v-3.8c-1.06-.55-1.73-1.75-1.7-3.06.03-1.81,1.38-3.25,2.99-3.22s2.9,1.54,2.87,3.36c.01,1.21-.57,2.33-1.52,2.91Z"/>
    <rect class="cls-9" x="-11.38" y="766.07" width="1349.61" height="261.26"/>
    <path class="cls-7" d="M524.52,598.66l-8.31-132.88c0-.87-.25-1.72-.72-2.49l-9.12-10.19c-1.03-1.66-3.01-2.69-5.15-2.69h-83.19c-2.15,0-4.12,1.03-5.15,2.69l-9.12,10.19c-.47.76-.72,1.62-.72,2.49l-8.31,132.61c-2.32.41-4.08,2.29-4.08,4.54v2.06c0,2.54,2.26,4.63,5.03,4.63h13.79c2.76,0,5.03-2.08,5.03-4.63v-2.06s0-.07,0-.1l4.16-56.14c0-2.86,2.63-5.18,5.87-5.18h71.06c3.24,0,5.87,2.32,5.87,5.18l4.16,54.98c-.17.46-.27.96-.27,1.48v2.06c0,2.54,2.26,4.63,5.03,4.63h12.96c2.76,0,5.03-2.08,5.03-4.63v-2.06c0-2.16-1.63-3.98-3.82-4.48ZM494.12,522.96h-67.25c-6.84,0-5.32-4.89-5.32-10.92l1.25-24.47c0-6.03,7.62-10.92,14.46-10.92h48.55c6.84,0,12.39,4.89,12.39,10.92l1.25,24.47c0,6.03,1.52,10.92-5.32,10.92Z"/>
    <path class="cls-7" d="M673.51,598.86l-8.31-132.88c0-.87-.25-1.72-.72-2.49l-9.12-10.19c-1.03-1.66-3.01-2.69-5.15-2.69h-83.19c-2.15,0-4.12,1.03-5.15,2.69l-9.12,10.19c-.47.76-.72,1.62-.72,2.49l-8.31,132.61c-2.32.41-4.08,2.29-4.08,4.54v2.06c0,2.54,2.26,4.63,5.03,4.63h13.79c2.76,0,5.03-2.08,5.03-4.63v-2.06s0-.07,0-.1l4.16-56.14c0-2.86,2.63-5.18,5.87-5.18h71.06c3.24,0,5.87,2.32,5.87,5.18l4.16,54.98c-.17.46-.27.96-.27,1.48v2.06c0,2.54,2.26,4.63,5.03,4.63h12.96c2.76,0,5.03-2.08,5.03-4.63v-2.06c0-2.16-1.63-3.98-3.82-4.48ZM643.11,523.16h-67.25c-6.84,0-5.32-4.89-5.32-10.92l1.25-24.47c0-6.03,7.62-10.92,14.46-10.92h48.55c6.84,0,12.39,4.89,12.39,10.92l1.25,24.47c0,6.03,1.52,10.92-5.32,10.92Z"/>
    <path class="cls-7" d="M223.96,597.34l-8.31-132.88c0-.87-.25-1.72-.72-2.49l-9.12-10.19c-1.03-1.66-3.01-2.69-5.15-2.69h-83.19c-2.15,0-4.12,1.03-5.15,2.69l-9.12,10.19c-.47.76-.72,1.62-.72,2.49l-8.31,132.61c-2.32.41-4.08,2.29-4.08,4.54v2.06c0,2.54,2.26,4.63,5.03,4.63h13.79c2.76,0,5.03-2.08,5.03-4.63v-2.06s0-.07,0-.1l4.16-56.14c0-2.86,2.63-5.18,5.87-5.18h71.06c3.24,0,5.87,2.32,5.87,5.18l4.16,54.98c-.17.46-.27.96-.27,1.48v2.06c0,2.54,2.26,4.63,5.03,4.63h12.96c2.76,0,5.03-2.08,5.03-4.63v-2.06c0-2.16-1.63-3.98-3.82-4.48ZM193.56,521.64h-67.25c-6.84,0-5.32-4.89-5.32-10.92l1.25-24.47c0-6.03,7.62-10.92,14.46-10.92h48.55c6.84,0,12.39,4.89,12.39,10.92l1.25,24.47c0,6.03,1.52,10.92-5.32,10.92Z"/>
    <path class="cls-7" d="M360.96,597.73l-8.31-132.88c0-.87-.25-1.72-.72-2.49l-9.12-10.19c-1.03-1.66-3.01-2.69-5.15-2.69h-83.19c-2.15,0-4.12,1.03-5.15,2.69l-9.12,10.19c-.47.76-.72,1.62-.72,2.49l-8.31,132.61c-2.32.41-4.08,2.29-4.08,4.54v2.06c0,2.54,2.26,4.63,5.03,4.63h13.79c2.76,0,5.03-2.08,5.03-4.63v-2.06s0-.07,0-.1l4.16-56.14c0-2.86,2.63-5.18,5.87-5.18h71.06c3.24,0,5.87,2.32,5.87,5.18l4.16,54.98c-.17.46-.27.96-.27,1.48v2.06c0,2.54,2.26,4.63,5.03,4.63h12.96c2.76,0,5.03-2.08,5.03-4.63v-2.06c0-2.16-1.63-3.98-3.82-4.48ZM330.56,522.03h-67.25c-6.84,0-5.32-4.89-5.32-10.92l1.25-24.47c0-6.03,7.62-10.92,14.46-10.92h48.55c6.84,0,12.39,4.89,12.39,10.92l1.25,24.47c0,6.03,1.52,10.92-5.32,10.92Z"/>
    <rect class="cls-30" x="213.4" y="390.37" width="507.06" height="47.24" transform="translate(933.87 827.98) rotate(180)"/>
    <polygon class="cls-30" points="225.48 381 196.3 381 196.3 608.85 211.6 608.85 225.48 381"/>
    <polygon class="cls-30" points="700.29 381.1 729.48 381.1 729.48 608.96 714.18 608.96 700.29 381.1"/>
    <rect class="cls-28" x="182.46" y="372.1" width="560.72" height="24.05"/>
    <path class="cls-2" d="M1043.14,202.47s21.89,50.73,5.66,81.63c-16.24,30.91-89.96,61.02-114.83,49.97-24.87-11.06-44.3-69.15-33.36-83.5,10.95-14.36,142.52-48.1,142.52-48.1Z"/>
    <path class="cls-2" d="M1049.42,244.17s21.28,6.59,27.97,26.42c6.69,19.83-3.1,39.49-27.38,52.12-24.28,12.63-61.89,16.67-66.99,2.54-5.1-14.13-14.18-36.36-3.33-47.16,10.85-10.8,69.73-33.91,69.73-33.91Z"/>
    <path class="cls-1" d="M1010.65,273.03s.12,35.19,16.88,56.83c2.34,3.02,24.3,6.4,24.3,6.4l-14.79,17.61c-11.99,14.28-32.9,37.15-51.24,40.57-10.39,1.94-26.46-3.41-35.33-3.87l-8.26-20.99,17.38-17.72c-.38-4.48-10.22-32.61-10.22-32.61"/>
    <path class="cls-1" d="M1142.31,848.14c2.65-6.4,10.29-13.18,15.72-16.32,5.43-3.14,12.02-.23,13.78.52,13.12,5.56,19.92,16.42,30.25,25.77,7.92,7.17,16.73,13.36,26.14,18.4,9.58,5.12,20,7.72,29.71,12.35.07.03.14.07.21.1,4.81,2.29,8.66,6.21,10.92,11.04.83,1.76,1.67,3.5,2.59,5.14,1.28,2.27,2.66,3.97,1.33,6.65-2.46,4.94-10.73-.71-13.15-1.74-.45-.19-.93-.26-1.42-.21-1.94.17-7.68.38-17.34-1.73-.94-.2-1.85-.34-2.75-.43-.02.06.02-.06,0,0-5.14-.82-28.28-1.88-32.44-2.29-8.19-.8-33.26-6.12-33.26-6.12-2.86-.4-37.95-13.91-51.93-5.32l-5.33-32.52s24.31-6.87,26.96-13.27Z"/>
    <path class="cls-1" d="M1100.13,800.01c2.65-6.4,10.29-13.18,15.72-16.32,5.43-3.14,12.02-.23,13.78.52,13.12,5.56,19.92,16.42,30.25,25.77,7.92,7.17,16.73,13.36,26.14,18.4,9.58,5.12,20,7.72,29.71,12.35.07.03.14.07.21.1,4.81,2.29,8.66,6.21,10.92,11.04.83,1.76,1.67,3.5,2.59,5.14,1.28,2.27,2.66,3.97,1.33,6.65-2.46,4.94-10.73-.71-13.15-1.74-.45-.19-.93-.26-1.42-.21-1.94.17-7.68.38-17.34-1.73-.94-.2-1.85-.34-2.75-.43-.02.06.02-.06,0,0-5.14-.82-28.28-1.88-32.44-2.29-8.19-.8-33.26-6.12-33.26-6.12-2.86-.4-38.34-9.63-52.32-1.04l-4.94-36.81s24.31-6.87,26.96-13.27Z"/>
    <path class="cls-1" d="M1168.32,713.31c-.81,29.4,7.3,92.87-83.66,97.29l41.48-9.08.09,71.52s-276.51-1.77-284.47-1.87c-15.32-.17-44.6-19.15-36.41-64.78,7.42-41.33,32.73-57.64,44.2-66.06,11.48-8.42,184.55-75.95,233.2-83.25l72.28,39.75,13.27,16.47Z"/>
    <path class="cls-1" d="M1185.11,750.23c-5.29,28.93,33.63,84.98-56.94,75.45l6.28,12.71c11.6,23.47,21.31,25.5,14.68,50.83l-4.35.87s-234.6,34.34-272.52,21.23c-15.11-2.51-47.97-27.42-46.53-73.75,1.44-46.34,41.15-51.96,53.77-58.53,12.63-6.57,144.75-27.17,193.93-26.96l55.63-36.09,56.03,34.24Z"/>
    <path class="cls-24" d="M1200.44,655.88l-22.09-30.07c-.25-.99-.48-2.05-.68-3.18-2.11-1.43-6.75-4.42-11.43-7.88-7.3,2.58-14.73,4.79-22.27,6.51-18.4,4.2-37.53,5-56.33,4.58-20.57-.46-41.06-2.56-61.53-4.54-17.72-1.71-35.47-3.35-53.28-3.75l-2.96,37.45-150.72,103.28s-1.33,25.55,41.91,63.73c32.46,28.66,91.25,44.78,91.25,44.78.87,1.59,34.71-4.22,35.82-2.95,9.46.27,124.36-16.47,133.7-18.31,27.17-5.36,54.2-17.72,75.63-36.66,16.21-22.87,27.82-46.84,29.44-80.07.64-13.09-5.33-34.39-10.93-46.28l-15.52-26.65Z"/>
    <path class="cls-12" d="M916.95,504.96c-1.79,36.78,2.19,28.87,9.1,43.71,4.42,9.49,21.44,15.26,27.33,23.81,11.64,16.9,11.08,61.46,7.72,88.98,0,0,58.73,5.26,106.84,1.59,48.11-3.68,113.01-41.31,113.01-41.31-24.55-39.88-38.29-54.12-38.29-54.12l-8-81.47,8.27-86.82c-8.09-33.51-22.83-48.51-54.62-56.04l-50.31-9.38s-10.04,48.82-50.69,49.49c-40.65.67-28.21-31.2-28.21-31.2,0,0-37.92,18.22-46.22,27.23-8.3,9-25.66,32.46-27.87,59.54-2.2,27.09-5.13,54.14-6.73,58.83-1.59,4.69,37.61,5.6,37.61,5.6"/>
    <path class="cls-19" d="M831.11,866.72c-4.01-11.59-6.85-24.1-5.33-36.41,1.01-8.21,4.2-15.95,9.24-22.51,2.35-3.06,5.03-5.83,7.84-8.47.42-.4-.37-.44-.6-.44-.54,0-1.27.23-1.67.61-5.3,4.98-10.09,10.56-13.23,17.18-4.11,8.65-5.08,18.37-4.12,27.82.79,7.83,2.81,15.48,5.38,22.9.21.61,2.69-.13,2.5-.67h0Z"/>
    <path class="cls-19" d="M1086.15,851.21c7.05.36,14.11.57,21.16.67,5.28.07,10.56.08,15.83-.17,3.5-.17,7.47-.17,10.78-1.49.75-.3,1.22-.75,1.81-1.28,1.22-1.1,2.42-2.21,3.62-3.33,1.82-1.71,3.56-3.49,5.29-5.28.42-.43-.36-.6-.64-.6-.58,0-1.25.23-1.66.65-1.38,1.42-2.75,2.86-4.19,4.23-1.12,1.07-2.25,2.11-3.39,3.15-.57.52-1.47,1.08-1.91,1.72.15-.22.46-.06.17-.12-.03,0-.4.14-.21.08.02,0-.53.15-.73.19-.47.11-1.32.25-2.01.34-1.92.26-3.86.38-5.8.47-9.85.48-19.76.18-29.61-.18-2.5-.09-5-.19-7.49-.32-.84-.04-2.69,1.16-1.02,1.25h0Z"/>
    <path class="cls-19" d="M1206.73,860.73c-1.64-1.05-3.4-2-4.96-3.16-1.22-.91-2.29-2.16-3.34-3.26-1.3-1.36-2.57-2.76-3.82-4.17-4.95-5.56-9.9-11.57-16.46-15.31-3.48-1.98-7.34-3.12-11.35-3.15-.56,0-1.33.1-1.77.47-.32.27-.4.58.16.58,7.48.06,13.67,4.37,18.85,9.4,2.69,2.61,5.16,5.44,7.65,8.24,2.37,2.67,4.72,5.51,7.45,7.82,1.56,1.32,3.51,2.3,5.23,3.4.61.39,2.73-.63,2.36-.87h0Z"/>
    <path class="cls-13" d="M1099.66,363.61c-8.63.74-16.73,5.92-22.71,11.93-2.82,2.84-5.4,6.1-7.06,9.77-2.03,4.5-3.75,9.18-5.21,13.9-2.53,8.15-4.04,16.57-4.37,25.1-.31,8.01.37,16.02,1.3,23.97,1.25,10.7,2.83,21.35,3.87,32.08.04.43.7.57,1.02.6,2.72.17,5.44.35,8.17.52.71.05,1.77-.24,2.13-.93s-.31-1.09-.93-1.13c-2.72-.17-5.44-.35-8.17-.52l1.02.6c-.91-9.33-2.2-18.61-3.37-27.91-.98-7.82-1.86-15.69-1.86-23.58,0-7.92.94-15.81,2.87-23.5,1.1-4.38,2.49-8.69,4.1-12.92s3.17-8.1,5.85-11.6c2.89-3.77,6.54-7.02,10.52-9.59,3.74-2.42,7.96-4.35,12.45-4.74.61-.05,1.74-.45,1.82-1.19s-.89-.9-1.44-.85h0Z"/>
    <path class="cls-12" d="M933.97,366.51s-33.1,12.2-33.9,63.81c-.81,51.61-3.79,63.62-3.79,63.62l48.66,5.43-10.97-132.86Z"/>
    <path class="cls-2" d="M865.98,232.77s-15.57-60.57,33-72.78c0,0,25.77-24.47,65.85-22.47,40.08,1.99,68.9,22.58,85.81,89.92,16.91,67.35-184.66,5.33-184.66,5.33Z"/>
    <path class="cls-2" d="M1024.62,224.4c-4.18,17.87-17.98,32.88-34.09,42.88-16.11,10-34.53,15.9-52.66,21.7l-22.51,5.14c-12.96-9.13-25.98-13.86-35.03-26.62-6.59-10.1-12-24.51-14.71-36.22-2.85-12.3,1.76-28.46,5.5-40.68,3.37-10.16,10.33-18.96,19.65-24.86,9.22-6.21,14.05-11.04,28.22-15.79,24.39-8.25,51.04-5.53,72.45,7.4,22.34,12.76,38.94,42.18,33.17,67.07Z"/>
    <path class="cls-31" d="M957.49,347.17s5.23-3.85,10.26-6.43,14.22-4.25,34.6-29.75c0,0-2.09,26.36-32.33,38.47,0,0-5.35,2.8-10.92,2.74l-1.61-5.02Z"/>
    <path class="cls-1" d="M878.13,233.02c-.91,6.13.82,14.15,2.59,19.36,3.49,10.29,8.38,21.58,10.05,25.97,1.45,3.81,3,10.04,3.79,14.22,1.77,9.36,2.46,11.76,7.41,20.18,4.78,8.15,8.32,12.21,15.45,18.31,7.42,6.36,16.67,11.03,25.5,15.69,5.81,3.07,6.9,3.32,19.3-.23,18.26-5.24,32.95-19.72,40.79-35.45l8.36-23.57-.42-9.22c12.31,6.82,13.99-9.62,12.77-12.26,1.53-6.87,6.65-30.44-3.39-35.99l-.82-.76c-4.08-1.82-8.53-1.2-9.78,4.1-.28,2.23-.75,4.35-1.03,6.58-.19,2.51-2.11,7.71-2.98,10.12,0,0-5-11.05-6.35-16.47-1.35-5.42-9.61-19.77-21.01-24.56,0,0-5.49-18.88-11.31-23.24l-1.64-.11c-.88.27-1.38.73-2.26,1-.09-.28.12-.65-.05-1.21-1.29,1.01-2.55,1.09-3.72,1.45.21-.37.71-.83.62-1.11-1.08.64-2.34.72-3.52,1.08.21-.37.62-1.11.54-1.39-1.29,1.01-2.34.72-3.51,1.08.21-.37.33-1.02.24-1.3-1,.92-2.26,1-3.43,1.36.21-.37.33-1.02.53-1.39-1.29,1.01-2.34.72-3.51,1.08-.29.09.41-.74.33-1.02-.79.55-1.96.91-2.84,1.18-.09-.28.41-.74.33-1.02-1.59,1.1-2.64.81-3.81,1.17l.53-1.39c-.91,1.2-2.08,1.56-3.34,1.64.2-.37.62-1.11.53-1.39-1.2,1.29-2.88,2.11-4.51,2,.29-.09.62-1.11.53-1.39-1.12,1.57-2.37,1.65-3.84,2.1.21-.37.33-1.02.74-1.76-1.41,1.66-3.29,2.85-5.31,2.55.26-.08.31-.83.26-1.18.08-.29.03-.62-.63-.55,0,0-3.02,2.16-3.11,1.87-.91,1.2,1.63-5.7.16-5.26.12-.65-8.24,3.1-7.83,2.36-1.12,1.57-1,.9-2.84,1.16,0,0-5.05,5.22-4.84,4.85-.42.76-.85,1.03-1.33,1.12,0,0-18.74,24.46-28.38,39.66Z"/>
    <path class="cls-11" d="M1017.04,275.01c2.94-.55,5.83,1.27,6.6,4.16.39,1.46.17,3.01-.55,4.33-.34.62-.84,1.04-1.41,1.45-1.32.94-2.85,1.17-4.41.69-.36-.11-.79-.02-1.11.17-.16.1-.52.43-.16.55,2.86.88,6.38-.04,8.28-2.45,2.03-2.57,1.23-6.54-1.27-8.45-1.63-1.25-3.74-1.59-5.73-1.22-.25.05-.86.18-.91.5s.47.31.67.28h0Z"/>
    <path d="M974.29,207.04l7.12,8.77c8.25,10.17,15,21.51,20.03,33.65l1.44,3.46c.41,1,1.81.93,2.09-.1l3.51-12.79s-10.29-39.07-34.19-32.99Z"/>
    <path class="cls-6" d="M1013.6,248.18c2.46.32,3.9,3.24,4.73,5.28.93,2.27,1.17,4.55.69,7-.17.9-.8,3.66-1.97,3.92-.82.18-1.44-1.23-1.58-1.84-.44-1.91.25-3.87.1-5.79-.19-2.45-2.41-2.48-4.35-1.91l.94.48c.4-3.52.98-7.04,1.82-10.48.46-1.9.94-4.29,2.21-5.85,2.61-3.23,5.17,1.3,5.92,3.61,1.02,3.18,1.03,6.88.11,10.1-.21.74,1.4.56,1.6-.12.91-3.16.92-6.83,0-9.98-.78-2.67-2.72-6.55-6.14-5.83-2.47.52-3.62,2.77-4.36,4.94-.9,2.65-1.46,5.42-1.93,8.18-.32,1.85-.6,3.7-.82,5.57-.06.49.61.57.94.48.93-.27,2.04-.59,2.38.56.28.96.04,2.1-.05,3.07-.18,2-.35,4.58,1.7,5.71,2.65,1.46,4.4-2.22,4.92-4.2.71-2.72.5-5.45-.55-8.02-1.05-2.56-2.73-5.61-5.76-6-.77-.1-1.61,1-.55,1.14h0Z"/>
    <path class="cls-2" d="M999.66,184.9c-7.07-21.54-43.55-18.75-62.19-15.58-11.97,2.39-27.84,17.4-37.13,25.39-3.76-2.45,33.7,24.69,100.01,20.93l2.99,15.97s3.39-25.17-3.68-46.71Z"/>
    <path d="M951.19,252.42c1.42-1.31,4.16-1.81,5.51-1.15.32.15,1.18.61,1.8,1.62.79,1.28.67,3.01.06,4.21-.82,1.6-2.7,2.36-4.39,2.07-2.29-.39-3.62-2.65-3.6-4.56,0-.35-.5-.89.65-1.95"/>
    <path d="M895.43,271.6c1.42-1.31,4.16-1.81,5.51-1.15.32.15,1.18.61,1.8,1.62.79,1.28.67,3.01.06,4.21-.82,1.6-2.7,2.36-4.39,2.07-2.29-.39-3.62-2.65-3.6-4.56,0-.35-.5-.89.65-1.95"/>
    <path d="M930.38,238.03c-.03-.18.75-.25.73-.43,12.13-3.21,21.47-4.08,24.93-3.83,2.63.19,5.21.81,7.67,1.73,0,0,6.81,2.45,7.69,3.55.89,1.11-4.06-.29-4.06-.29-1.05-.17-1.78-.42-2.85-.48-5.87-.31-11.53-1.27-17.34-.23-4.97.86-11.58,3.69-16.29,5.53-.29-1.9-.01-3.69-.49-5.55Z"/>
    <path d="M883.16,269.2c-.06-.19-.14-.37-.19-.56,0,0,0-.01,0-.02.55-1.29,1.33-2.83,2.42-4.45,1.9-2.84,8.1-9.47,17.64-16.93,1.56,1.45,2.01,1.86,3.58,3.3-4.36,2.63-7.05,4.81-10.81,8.25-3.54,3.24-8.29,8.05-11.15,11.98-.42-.21.03-.04-.36-.29-.24-.19-.47-.4-.68-.62-.15-.22-.3-.44-.42-.67Z"/>
    <path class="cls-3" d="M919.16,291.38c-.03,1.61-.07,3.22-.06,4.83,0,.99.01,1.98.08,2.97.03.54.02,1.2.29,1.7,1.1,2,3.87,2.2,5.87,2.03,2.26-.19,4.47-.66,6.64-1.33,2.55-.78,5.49-1.75,7.48-3.62.52-.49-.31-.92-.72-.53-1.62,1.53-3.95,2.37-6.02,3.06s-4.37,1.27-6.64,1.51c-1.86.2-4.19.32-5.45-1.34-.29-.38-.33-.96-.37-1.55-.06-.9-.07-1.79-.08-2.69-.01-1.7.03-3.41.06-5.11.01-.58-1.07-.45-1.08.07h0Z"/>
    <path class="cls-3" d="M943.86,289.34c1.03-.17,2.18.35,2.82,1.15.67.84,1.19,2.26.8,3.31-.43,1.15-1.52,1.78-2.58,2.28-1.13.53-2.29,1.03-3.53,1.17-.21.02-.66.08-.79.27s.11.19.27.17c1.56-.17,3.03-.71,4.45-1.36,1.26-.57,2.71-1.27,3.29-2.62.52-1.23-.08-2.88-.96-3.79s-2.28-1.19-3.53-.97c-.14.02-.66.13-.69.31s.38.11.47.09h0Z"/>
    <path class="cls-15" d="M969.51,247.26s-5.42,8.93-12.69,12.23c-7.28,3.3-14.54,3.12-14.54,3.12,0,0,7.36-9.41,11.93-11.54,4.57-2.13,11.96-4.9,15.31-3.81Z"/>
    <path class="cls-15" d="M890.19,276.43s5.42,4.48,12.09,2.33c6.67-2.15,13.49-7.07,13.49-7.07,0,0-9.28-3.47-13.5-2.16-4.22,1.31-10.63,3.94-12.08,6.9Z"/>
    <path d="M942.29,262.62s4.01-9.18,12.12-13.16c6.17-3.03,11.53-3.38,16.22-2.44,0,0-10.68,2.02-15,4.22-4.13,2.1-13.34,11.39-13.34,11.39Z"/>
    <path d="M970.08,247.49s2.99-.29,2.96-4.15c0,0-3.83,4.13-9.89,4.86l6.93-.71Z"/>
    <path d="M899.6,279.61c.92-.03,1.81-.21,2.68-.49.53-.17,1.05-.39,1.56-.62.69-1.46.5-3.24-.25-4.47-.18-.3-1-1.57-2.55-1.9-1.92-.41-3.89.89-4.72,2.16-.2.3-.5,1.13-.52,2.33-.02,1.11.51,2.18,1.24,2.96.85.02,1.7.07,2.56.04Z"/>
    <path d="M915.76,271.69s-5.81-3.78-10.15-3.41c-8.85.76-14.45,3.93-15.78,7.55,0,0,7.59-4.97,15.2-5.54,4.27-.32,10.73,1.4,10.73,1.4Z"/>
    <path d="M890.67,276.18s-2.27,1.97-5.04-.71c0,0,2.82,1.7,7.52-2.19l-2.48,2.9Z"/>
    <path d="M951.95,261.69c1.38-.05,2.74-.28,4.05-.72.58-.19,1.16-.45,1.71-.75.51-.51,1.03-.99,1.58-1.44.09-1.93-.95-4.17-3.1-4.9-1.74-.59-3.88-.1-5.01,1.46-.85,1.17-1.27,2.99-.65,4.49.41.97,1.04,1.55,1.43,1.86Z"/>
    <path class="cls-1" d="M1128.03,376.26c-13.4-22.58-41.55-16.89-57.83-2.35-8.24,7.36-3.8,26.44-3.8,26.44,4.26,36.31,34.28,109.41,41.52,126.66,3.96-.67,7.97-.93,11.92-.85,13.82.28,27.14,4.34,38.25,10.65,5.51,3.13,12.67,6.99,16.84,11.52,2.67-6.5,2.12-13.72.63-20.2-2.63-11.41-7.56-29.1-8.77-34.32,0,0-25.37-94.97-38.77-117.55Z"/>
    <path class="cls-12" d="M1044.24,342.68s54.54-8.44,77.49,13.45c22.95,21.88,46.6,86.22,46.6,86.22,0,0-54.66,29.6-87.23,33.17-32.57,3.57-36.86-132.84-36.86-132.84Z"/>
    <path class="cls-13" d="M1083.51,355.83c-8.06,2.77-14.49,9.36-18.88,16.49-2.08,3.38-3.8,7.1-4.63,10.99-1.04,4.88-1.49,9.98-1.77,14.95-.49,8.54.02,17.12,1.73,25.5,1.62,7.96,4.25,15.67,7.12,23.26,3.86,10.19,8.03,20.26,11.7,30.53.19.53.95.68,1.44.59,2.7-.5,5.39-.99,8.09-1.49.62-.11,1.74-.41,1.83-1.2.08-.74-.89-.96-1.45-.86-2.7.5-5.39.99-8.09,1.49l1.44.59c-3.21-8.98-6.78-17.81-10.23-26.69-2.89-7.45-5.67-14.97-7.6-22.73-1.95-7.83-2.94-15.85-2.88-23.91.04-4.68.39-9.36.98-14.01.54-4.26,1.18-8.36,2.98-12.29,1.97-4.33,4.71-8.33,7.97-11.77,2.99-3.16,6.59-6.12,10.75-7.55.54-.18,1.58-.63,1.38-1.38-.19-.7-1.37-.68-1.88-.51h0Z"/>
    <path class="cls-1" d="M985.36,325.49c.51,6.14,11.56,19.05,11.56,19.05,0,0,5.43,39.05,8.13,46.71.67,1.89,14.61,12.64,17.73,17.56,9.52,15.01,11.5,9.12,11.5,9.12l21.91-15.78-10.84-20.25-2.35-35.1-7.25-39.86-25.28-17.75c-.18.13-.35.28-.5.44-1.4,1.48-1.33,3.82.15,5.21l-9.89-6.77c-5.97,5.5,4.75,17.57,4.75,17.57l-12.15-9.8c-5,6.15,2.55,14.76,2.55,14.76l13.02,15.69s2.04,11.68,1.61,15.68c-.43,4-.53,8.19-.53,8.19l-4.25-12.7-17.8-20.91s-2.58,2.8-2.07,8.94Z"/>
    <path class="cls-31" d="M1040.97,335.26c-1.36-8.73-2.73-17.45-4.09-26.18-.1-.64-.06-1.56-.47-2.07-.27-.33-.77-.6-1.1-.86-.68-.53-1.37-1.07-2.05-1.6l-12.98-10.16c-3.16-2.47-6.32-4.94-9.47-7.41-.36-.29-.98-.09-1.31.17-1.94,1.57-2.2,4.25-.44,6.07l1.3-.66c-3.3-2.26-6.6-4.51-9.89-6.77-.3-.21-.98.02-1.21.24-3.15,3.03-1.88,7.51-.13,10.94,1.28,2.51,2.91,4.93,4.79,7.04l1.4-.59c-4.05-3.27-8.1-6.53-12.15-9.8-.38-.31-1.13-.07-1.41.28-5.2,6.67,1.79,14.16,6,19.22,2.73,3.28,5.45,6.57,8.18,9.85.38.45.74.91,1.13,1.36.22.26.21.27.24.37.55,1.64.59,3.66.83,5.36.4,2.91.83,5.87.82,8.82,0,3.15-.51,6.3-.58,9.45l1.51-.3c-.92-2.74-1.83-5.47-2.75-8.21-.54-1.63-.84-3.74-1.97-5.07-4.3-5.06-8.61-10.11-12.91-15.17-1.49-1.75-2.98-3.5-4.47-5.25-.33-.38-1.15,0-1.41.28-1.27,1.4-1.83,3.59-2.06,5.4-.39,3.08.16,5.73,1.53,8.47,2.42,4.87,5.81,9.3,9.25,13.49.19.23.69.77.75.88-.01-.03.08.51.1.64.28,1.54.56,3.08.83,4.61.98,5.53,1.9,11.07,2.74,16.62.85,5.64,1.89,11.43,1.89,17.15,0,.46,1.51.18,1.51-.41,0-4.87-.81-9.78-1.51-14.58-.83-5.74-1.77-11.45-2.77-17.16-.33-1.87-.66-3.74-1-5.61-.11-.59-.12-1.33-.42-1.86-.25-.46-.73-.88-1.06-1.28-.7-.86-1.39-1.74-2.07-2.62-1.8-2.35-3.53-4.77-5.08-7.3-1.6-2.62-3.19-5.47-3.3-8.6-.09-2.52.28-5.85,2.07-7.83l-1.41.28c3.69,4.33,7.37,8.66,11.06,13,1.96,2.3,3.91,4.6,5.87,6.89.22.26.46.52.68.79.11.14.19.26.15.18.49.99.74,2.2,1.08,3.24,1.05,3.14,2.1,6.27,3.15,9.41.16.48,1.5.16,1.51-.3.07-2.86.36-5.69.56-8.54.16-2.39-.16-4.84-.44-7.21-.28-2.33-.62-4.65-.99-6.96-.13-.82-.16-1.23-.67-1.84-4.21-5.08-8.45-10.14-12.64-15.23-3.19-3.88-6.06-9.88-2.52-14.42l-1.41.28c4.05,3.27,8.1,6.53,12.15,9.8.36.29,1.82-.12,1.4-.59-1.71-1.93-3.23-4.13-4.44-6.4-1.68-3.15-3.45-7.83-.41-10.75l-1.21.24c3.3,2.26,6.6,4.51,9.89,6.77.32.22,1.71-.24,1.3-.66-1.49-1.54-1.46-3.87.25-5.24l-1.31.17c7,5.47,14,10.95,21,16.42,1.38,1.08,2.76,2.16,4.14,3.24.7.55.55.4.7,1.34.74,4.76,1.49,9.53,2.23,14.29.67,4.27,1.33,8.53,2,12.8.08.5,1.6.15,1.51-.41h0Z"/>
    <path class="cls-31" d="M1024.26,336.02c-.51-4.09-1.09-8.16-1.71-12.24-.23-1.52-.47-3.04-.71-4.56-.06-.38-.07-.69-.28-1-.45-.68-1.41-1.26-2.03-1.81-2.96-2.64-5.94-5.25-8.99-7.78-1.53-1.27-2.9-2.68-4.21-4.17-.52-.59-.98-1.41-1.87-1.25-.96.17-.66,1.21.28,1.04h.03c-.24-.03-.48-.06-.72-.09.85.46,1.57,1.74,2.24,2.44,1.21,1.28,2.52,2.41,3.86,3.54,2.91,2.43,5.75,4.94,8.58,7.46.47.42,1.38,1.07,1.52,1.52.11.33.11.72.17,1.06.26,1.65.52,3.29.76,4.94.57,3.76,1.1,7.52,1.57,11.3.09.69,1.6.32,1.51-.41h0Z"/>
    <path class="cls-31" d="M1032.14,330.25c.63-.45.35-1.58.3-2.23-.15-1.97-.4-3.93-.65-5.89-.27-2.11-.55-4.22-.85-6.33-.16-1.13-.32-2.27-.49-3.4-.09-.63-.19-1.27-.28-1.9-.06-.4-.02-1.13-.21-1.5-.14-.27-.58-.51-.82-.7-.55-.44-1.1-.88-1.64-1.32-1.51-1.21-2.99-2.45-4.46-3.7-2.43-2.06-5-3.94-7.41-6.02-1.39-1.2-2.75-2.44-4.12-3.67-.5-.45-1.35-1.55-2.14-1.41-.74.13-1.23,1.08-.19.9-.34.06-.43-.22-.32.04.04.1.28.24.37.31.43.37.85.75,1.27,1.12,1.15,1.04,2.3,2.08,3.47,3.09,2.24,1.95,4.65,3.68,6.91,5.6,2.32,1.97,4.66,3.91,7.04,5.81.25.2.45.33.55.58.17.4.16,1.08.23,1.53.09.63.19,1.26.28,1.89.32,2.17.62,4.34.92,6.51.27,2,.53,4.01.75,6.02.11,1,.22,2,.29,3,.02.31,0,.63.05.93.05.35-.21.54.2.25-.83.6.45.87.95.51h0Z"/>
    <path class="cls-1" d="M1166.04,516.2l-123.1-136.68,1.02,1.43-1.8,5.36-18.31,11.7-5.76,3.15s45.39,85.22,63.61,111.6c27.53,39.84,41.54,52.08,58.58,55.28.51.1,8.01,1.18,8.51,1.25,26.19,3.73,36.39-27.85,20.34-48.88l-3.09-4.21Z"/>
    <path class="cls-1" d="M921.66,552.44c-1.5,13.03,1.05,15.23-5.03,27.02-5.33,10.32-14.55,22.79-26.61,24.42-5.85.79-8.87,1.76-14.46-.09-4.95-1.64-11.12-8.68-13.64-13.27-6.66-12.1-8.29-27.33-5.43-32.85l33.56-150.03-.19,1.74.4,2.1,21.69,1.26,6.57-.07s2.42,82.55,2.78,124.56c-.12,1.13.5,14.08.37,15.21Z"/>
    <path class="cls-31" d="M1119.07,463.34c5.73,5.31,11.74,10.28,17.29,15.79,8.52,8.45,16.26,17.71,22.62,27.9,4.24,6.8,7.82,14,10.61,21.51.2.53,1.69.09,1.51-.41-4.73-12.71-11.73-24.46-20.19-35.04-6.6-8.26-14.07-15.77-21.94-22.82-2.82-2.53-5.72-4.96-8.5-7.54-.39-.36-1.81.21-1.4.59h0Z"/>
    <path class="cls-1" d="M920.97,341.44c1.77,5.91-3.79,21.95-3.79,21.95,0,0,10.23,27.47,8.3,41.35-.28,1.99-5.22,14.11-6.33,19.84-3.37,17.45-2.17,19.4-2.17,19.4l-30.36.73.44-24.13-11.95-38.23-7.83-39.75,17.04-25.76c.22.06.43.13.63.23,1.84.87,2.63,3.07,1.76,4.91l6.73-9.92c7.57,2.94,2,18.09,2,18.09l7.72-13.57c6.91,3.9,3.03,14.67,3.03,14.67l-6.38,19.36s2.37,11.62,4.23,15.19c1.86,3.57,3.49,7.43,3.49,7.43l-.69-13.38,8.92-25.97s3.43,1.66,5.19,7.56Z"/>
    <path class="cls-31" d="M890.15,365.18c-.9-3.53-1.75-7.08-2.56-10.63-.39-1.71-.77-3.42-1.15-5.13-.08-.38-.27-.83-.27-1.22s.42-1.07.68-1.57c1.73-3.42,3.48-6.84,5.31-10.21.83-1.52,1.65-3.03,2.31-4.64.31-.75.58-1.5.86-2.26.07-.19.21-.46.24-.67.1-.58.49-.29-.31-.11.95-.21.66-1.24-.28-1.04-.85.19-1.06,1.53-1.3,2.2-.65,1.78-1.4,3.5-2.31,5.15-1.95,3.54-3.81,7.14-5.63,10.74-.33.64-1.11,1.62-1.16,2.35-.02.28.13.63.19.9.35,1.58.7,3.16,1.06,4.74.9,3.94,1.83,7.87,2.83,11.78.18.7,1.69.3,1.51-.41h0Z"/>
    <path class="cls-31" d="M879.98,362.14c.32.08-.03-.37-.14-.7-.24-.7-.44-1.42-.64-2.13-.5-1.78-.96-3.57-1.41-5.36-.5-2-.99-4.01-1.47-6.02-.25-1.06-.5-2.11-.74-3.17-.17-.73-.7-1.9-.55-2.61.07-.33.45-.78.62-1.07.34-.6.69-1.19,1.03-1.79.86-1.51,1.68-3.03,2.5-4.55,1.37-2.55,2.91-5,4.29-7.54.84-1.56,1.63-3.14,2.42-4.72.32-.63.63-1.27.95-1.9.1-.19.24-.38.31-.58.16-.47.47-.15-.34.01.93-.19.7-1.01-.22-.82-.72.15-1.01,1.03-1.3,1.6-.72,1.4-1.4,2.82-2.12,4.22-1.49,2.91-3.24,5.66-4.79,8.53-1.53,2.84-3.19,5.61-4.69,8.45-.24.45-.22.54-.09,1.05.32,1.32.61,2.65.92,3.97.52,2.21,1.05,4.42,1.6,6.62s1.08,4.3,1.69,6.44c.18.63.45,2.73,1.28,2.94.52.13,1.78-.65.91-.87h0Z"/>
    <path class="cls-31" d="M925.33,247.01c-2.52-.14-5.66.75-7.76-1.08-2.22-1.93-2.21-5.14-2.15-7.84.01-.61-1.5-.3-1.51.19-.07,2.87-.08,6.34,2.37,8.33,2.4,1.95,5.64,1.09,8.46,1.24.32.02.83-.12,1-.41s-.15-.42-.41-.44h0Z"/>
  </g>
  <g id="Layer_3" data-name="Layer 3">
    <path class="cls-1" d="M562.77,835.57c26.96-1.86,86.12-5,94.35-15.41,24.2-30.58,24.48-101.65,24.48-101.65l-17.45-7.44-30.72,75.29s-78.74,6.99-89.95,6.41c0,0-37.48-5.08-31.99,22.46"/>
    <path class="cls-14" d="M596.81,784.27l-9.93,1.64c-4.69,5.09-10.69,3.19-18,4.05q-5.32.33-9.57.03l-.47,5.81-6.35,16.11c-27.77,3.57-45.22,6.53-57.81-22.62l.1-2.26c.91-1.22,1.78-2.67,2.6-4.28-.64-2.26-.64-2.27-.64-2.27l-13.84-3.5s-29.39-9.85-57.3,16.83l-39.7,7.81v89.26s83.65,2.4,112.21,0c29.49-2.48,46.87-19.63,55.96-32.73,7.16-10.3,17.56-11.81,29.51-14.94,13.18-3.46,18.67-4.64,18.67-4.64h0c6.22-17.71,4.4-37.26-4.99-53.52l-.46-.79Z"/>
    <path class="cls-18" d="M593.7,738.23c-.06,0-.12-.02-.17-.04.07-.13.14-.26.21-.39-.01.14-.03.29-.04.43Z"/>
    <path d="M475.48,725.65c1.85,8.86,4.65,18.03,10.36,25.22,5.84,7.35,14.9,10.81,23.57,13.68,16.89,5.6,35.34,7.2,52.67,2.66,17.88-4.68,33.18-15.86,43.26-31.34,7.44-11.42,12.28-23.77,14.74-36.62-.05-.89-.07-1.81-.15-2.67-2.39-25.48-6.64-38.41-28.49-49.17-13.37-6.75-24.29-14.12-48.68-12.23-5.26.41-11.89,4.2-18.82,5.37-10.43,1.76-22.62,6.51-28.69,13.01-11.56,12.38-15.91,34.09-22.11,51.12-.16,6.98.88,13.98,2.34,20.97Z"/>
    <path class="cls-1" d="M600.92,767.36c2.54-6.79,6.25-19.93,6.4-24.39.91-3.21,1.95-6.94,3.18-11.45.36-1.31.66-2.57.96-3.83.09-.66.24-1.31.44-1.94,4.82-22.27.43-35.65.43-35.65-5.65-16.97-19.87-29.63-37.36-33.26-20.48-4.69-41.97,3.09-54.68,13.15-6.31,4.98-10.57,12.11-11.95,20.03-1.19,6.76-1.52,14.61-1.54,22.28-7.04-2.11-14.66-1.31-15.35,12.46-.96,18.99,8.5,27.31,16.23,23.7,2.65,2.63,2.15,7.64,1.5,11.49-1.25,7.38-6.16,18.76-11.31,24.19l-.32,2.11c9.15,28.62,26.6,34.69,55.38,26.52l4.69-13.8,1.9-5.42q4.06.72,9.19.96c17.47-.13,29.25-19.15,32.24-27.15Z"/>
    <path class="cls-31" d="M559.37,793.55s-18.38-2.68-32.95-18.55c0,0-.77,5.74,10.56,13.24,11.33,7.51,21.61,8.46,21.61,8.46l.78-3.15Z"/>
    <path d="M509.66,725.3c0-.12.02-.23.02-.34-.35-2.77-.89-5.41-2.53-7.75-.75-1.07-1.66-2.28-2.73-3.11-1.08-.84-2.22-1.78-3.51-2.28-1.75-.92-3.62-1.33-5.6-1.25-.35.06-.69.12-1.04.18-1.05-16.66.83-33.75,16.75-50.03,4.6-4.69,14.66-8.66,17.76-9.97,18.76-7.78,33.24-5.17,50.39.8,19.87,6.92,35.74,24.57,35.46,46.27-.07,5.23,1.19,1.18-.51,6.12,0,0-.52-12.05-8.92-20.27-8.4-8.23-12.25-.03-26.22-3.08-16.16-3.59-19.35-13.61-33.88-9.99-13.28,3.33-13.35,8.24-13.35,8.24-1.47,2.78-3.86,4.89-5.74,7.38-1.86,2.44-3.01,5.22-3.92,8.13-1.86,5.96-3.96,11.86-4.98,18.04-.63,3.83-1.1,9.01-5.31,10.65-1.88.73-.56,3.26-2.13,2.25Z"/>
    <path class="cls-6" d="M495.42,726.57c-.18-2.25.08-5.34,1.89-6.99l-.59.21c-.24-.04,0,0,.04.03-.02-.02.24.13.34.19.55.35,1,.87,1.4,1.38,2.17,2.8,3.3,6.44,4.27,9.79l.95-.34c-.57-.68-1.42-1.35-2.35-1.36-1.12,0-1.82.93-2.14,1.91-.92,2.8,1.28,4.9,3.71,5.79.37.13,1.15-.39.59-.6-1.94-.71-3.74-2.22-3.48-4.48.07-.59.32-1.69.95-1.91s1.43.6,1.81,1.06c.21.25,1.06.06.95-.34-.76-2.6-1.63-5.2-2.89-7.61-.62-1.18-1.33-2.37-2.32-3.28-.35-.33-.8-.72-1.29-.83-.67-.16-1.06.45-1.4.93-1.35,1.95-1.63,4.41-1.44,6.72.03.39,1.02.16.99-.26h0Z"/>
    <path class="cls-3" d="M569.03,706.85c0-.16-.54-.12-.54-.28-8.56-1.21-14.94-.74-17.23-.05-1.74.52-3.38,1.41-4.91,2.55,0,0-4.24,3.07-4.68,4.17-.45,1.1,2.68-.8,2.68-.8.68-.29,1.14-.61,1.85-.8,3.89-1.06,7.56-2.66,11.6-2.52,3.45.1,8.26,1.71,11.66,2.71-.06-1.72-.48-3.27-.41-4.97Z"/>
    <path class="cls-3" d="M594.28,713.08c.09-.13.47.14.56.01,7.04,2.89,11.54,6.2,12.87,7.81,1.01,1.23,1.76,2.73,2.28,4.39,0,0,1.5,4.52,1.23,5.64-.26,1.13-1.57-1.9-1.57-1.9-.35-.56-.52-1.03-.94-1.52-2.33-2.67-4.2-5.69-7.28-7.41-2.63-1.49-7.08-2.33-10.15-3.04.97-1.42,2.13-2.52,3-3.99Z"/>
    <path d="M520.96,680.72s30.04,16.07,57.52,16.39l8.33-13.52s-2.66,13.47-4.08,15.65l5.6,1.46s3.91-11.09,4.08-15.65c0,0,1.75,14,.64,16.88,0,0,19.52,5.77,22,4.71,2.48-1.06-7.81-32.03-18.62-37.02-10.81-4.99-57.11-20.92-75.48,11.1Z"/>
    <path d="M494.47,656.74c2.95-7.46,1.33-18.05-6.32-20.48-1.87-.59-3.86-.61-5.81-.62-2.89-.02-5.79-.04-8.68-.05-2.63-.02-5.31-.03-7.83.75-4.57,1.42-8.03,5.33-10.03,9.68-2,4.35-2.75,9.15-3.47,13.88-.67,4.34-1.05,9.51,2.28,12.37,1.96,1.69,4.72,2.05,7.01,3.27,2.04,1.08,3.66,2.82,5.52,4.19,6.35,4.69,15.78,4.66,22.1-.08"/>
    <path class="cls-3" d="M570.97,754.8c1.31,1,2.85,1.65,4.43,2.09.87.24,1.75.42,2.65.53.71.09,1.45.17,2.17.13,1.26-.08,2.53-.53,3.45-1.41.46-.44.88-.98,1.06-1.59.14-.46.12-.94.05-1.41-.1-.66-.3-1.31-.44-1.97-.21-.93-.34-1.87-.38-2.82,0-.21-.76-.07-.75.2.05,1.42.37,2.76.69,4.13.22.94.3,1.83-.25,2.67-.69,1.03-1.77,1.65-2.99,1.79-.59.06-1.19,0-1.77-.06-.81-.08-1.61-.22-2.4-.41-1.71-.41-3.41-1.08-4.81-2.15-.2-.15-.88.14-.7.28h0Z"/>
    <path class="cls-3" d="M565.25,747.49c-.73-.23-1.56.16-2.02.73s-.69,1.28-.84,1.98c-.06.29-.11.6-.11.9,0,.38.13.76.32,1.08.51.85,1.47,1.34,2.37,1.69.3.11.6.22.92.26.35.05.71.04,1.06.02.69-.04,1.38-.18,2.08-.15.17,0,.38-.05.53-.14.12-.07.11-.14-.04-.15-.58-.03-1.16.05-1.74.12s-1.12.1-1.66-.05c-.46-.13-.92-.33-1.34-.56-.4-.21-.78-.47-1.09-.8-.49-.52-.7-1.18-.62-1.88.07-.64.26-1.29.55-1.87.15-.3.34-.6.6-.82.06-.05.09-.07.16-.11,0,0,.04-.02.01,0-.04.02.03-.01.04-.02-.02,0-.07.03-.03.01,0,0-.09.03-.02,0-.06.02-.02,0-.01,0,0,0-.05,0,0,0,.02,0,.04,0,.05,0,.04,0,.15.03.22.05.15.05.38-.04.52-.1.07-.03.25-.13.1-.18h0Z"/>
    <path class="cls-1" d="M275.23,833.26c-11.09-3.01-20.52-16.45-20.93-16.89.81-13.53-13.92-82.31-13.92-82.31l-29.95-6.26s-19.91,142.09-8.02,155.15c17,31.01,41.09,14.76,78.67,15.08-1.49-20.26-2.93-44.71-5.86-64.78Z"/>
    <path class="cls-1" d="M305.48,791.19c-26.05,19.69-49.25,34.46-50.49,34.34-2.51-.24-113.48-98.07-113.48-98.07l-13.58,22.22s63.4,122.76,80.54,124.64c21.85,10.32,81.72-18.45,123.11-44.47-8.16-16.3-18.11-22.29-26.1-38.65Z"/>
    <path class="cls-1" d="M249.79,701.55c-7.18-5.55-17.78-5.33-21.54-6.53-24.77-2.03-48.58-11.51-73.64-10.41-1.09.05-2.05-.1-2.9-.4-.18.07-.37.14-.54.22-2.76,1.29-4.42,3.8-3.03,5.88,2.11,3.13,6.4,2.1,10.31,2.94,3.9.84,5.26,1.52,8.41,3.21,8.05,4.31,9.25,5.13,16.1,8.58,5.31,2.68,18.47,13.11,25.47,18.46l1.93,17.48,29.73-3.39c.71-3.71,3.52-17.78,7.03-25.29,1.54-3.31,6.75-7.6,2.66-10.76Z"/>
    <path class="cls-1" d="M143.62,729.65c.4-3.77.43-5.81.9-9.44.55-4.19-2.08-6.22-7.76-5.78-4.78.37-11,2-15.93,4.05-6.43,2.67-13.19,6.15-19.62,8.82-5.51,2.29-22.77,9.91-28.33,11.21-8.65,2.02-13.72,4.9-17.31,7.32-.99.67-1.65.87-2.04,1.65-1,2.03-.58,3.69,2.42,3.96,3.77.35,7.62-3.51,11.21-2.78.64.13,1.24.32,1.95.32,1.4,0,2.97-.71,4.46-1.28,7.45-2.84,7.28-.18,17.36-1.93,2.96-.51,34.19,3.97,37,3.92"/>
    <path class="cls-16" d="M200.47,864.18c-.48-4.72-.31-9.54-.21-14.27.14-7.14.44-14.28.78-21.42.66-13.75,1.5-27.49,2.43-41.22.2-2.98.4-5.96.62-8.93.08-1.03-1.92-.77-1.99.14-.61,8.38-1.15,16.76-1.67,25.15-.91,14.81-1.77,29.64-2.12,44.47-.13,5.51-.36,11.12.2,16.61.09.92,2.06.44,1.96-.53h0Z"/>
    <path class="cls-5" d="M404.95,797.95s-20.94-10.52-42.65-14.97c-36.13-7.42-109,22.39-109,22.39,0,0,2.74,39.44-1.98,66.36-2.25,12.82-2.08,12.75-7.03,27.69-2.89,8.72,4.22,2.58,4.22,2.58l96.19-1.41c7.25-.11,14.48-.74,21.63-1.91l38.61-6.28v-94.45Z"/>
    <path class="cls-1" d="M578.34,883.26l-78.34,1.32s-8.64-43.73-10.04-46.87c-13.79,3.41-34.29,5.86-46.99,8.44,3.39,37.06,24.41,70.99,31.03,73.5,29.45,11.16,107.05-14.64,107.05-14.64l-2.71-21.75Z"/>
    <path class="cls-14" d="M497.73,778.86s4.56,19.38,21.63,27.63c17.07,8.25,35.07,2.5,40.05-7.13l4.79,12.01s-24.2,17.34-41.65,16.74c-17.45-.6-38.84-38.87-40.34-43.19s-.75-7.62-.75-7.62l16.26,1.57Z"/>
    <g>
      <path class="cls-14" d="M411.4,797.17s-7.78,44.56-5.07,60.84c2.71,16.28,10.52,34.86,10.52,34.86l-22.1.53s-10.29-30.05-8.85-53.41c1.44-23.36,7.97-45.08,7.97-45.08l17.53,2.26Z"/>
      <path class="cls-17" d="M410.19,797.39c-1.7,9.76-3.07,19.6-4.15,29.45-.81,7.37-1.48,14.79-1.51,22.21-.01,2.85.06,5.73.46,8.56.7,4.98,1.99,9.91,3.38,14.74,2.03,7.06,4.41,14.08,7.25,20.86l2.03-.83c-6.44.15-12.88.31-19.32.46-.93.02-1.85.04-2.78.07l.43.17c-3.38-9.89-5.8-20.24-7.41-30.55-1.33-8.45-1.91-16.95-1.25-25.49.74-9.49,2.24-18.91,4.25-28.21,1.02-4.74,2.13-9.48,3.52-14.12l-2.22.69c5.84.75,11.69,1.5,17.53,2.26.56.07,1.22-.04,1.72-.31.16-.09.88-.56.3-.64-5.84-.75-11.69-1.5-17.53-2.26-.49-.06-2.03.07-2.22.69-3.71,12.34-6.07,25.27-7.4,38.07-.92,8.92-.84,17.68.34,26.57,1.02,7.61,2.61,15.15,4.56,22.57,1,3.82,2.07,7.65,3.35,11.39.05.14.32.17.43.17,6.44-.15,12.88-.31,19.32-.46.93-.02,1.85-.04,2.78-.07.27,0,2.25-.3,2.03-.83-2.35-5.61-4.36-11.39-6.16-17.19-2.46-7.94-4.72-16.12-4.91-24.47-.16-7.19.43-14.41,1.15-21.56.71-7.08,1.64-14.15,2.67-21.19.55-3.73,1.12-7.46,1.77-11.18.1-.56-2.32-.17-2.42.43Z"/>
    </g>
    <path class="cls-10" d="M541.53,720.59c3.48,0,1.06-2.48,4.68-1.13-5.57,7.07-10.27,23.41-11.65,33.27-1.38,9.87-2.03,18.24-1.82,28.26-4.05-3.97-4.08-3.81-7.61-8.53-.88-1.18-1.77-2.42-2.26-3.93-.43-1.32-.52-2.77-.57-4.2-.5-15.66,5.16-30.33,14.38-40.71"/>
    <path class="cls-10" d="M607.24,737.68c-.02-.09-.03-.15-.05-.22-.02-.03-.03-.06-.06-.11-.02-.03-.03-.06-.04-.09-.03-.02-.05-.04-.08-.07-.9-.86-1.78-1.7-2.72-2.51-.28-.22-.81-.65-.97-.77-.45-.33-.9-.65-1.35-.97.89,10.29-2.92,28.3-6.88,36.89-4.2,9.1-11.11,14.57-17.06,22.64,12.33-5.03,20.54-18.76,22.96-25.25,2.54-6.79,6.25-19.93,6.4-24.38.26-.92.54-1.91.82-2.93-.46-.68-.81-1.43-.98-2.24Z"/>
    <path class="cls-20" d="M566.53,731.22s-4.3-10.44-11.84-11.7c-10.61-1.78-11.53.21-16.28,2.33,0,0,7.89-1.16,16.06.42,7.41,1.43,12.07,8.95,12.07,8.95Z"/>
    <path class="cls-20" d="M607.3,736.31c-1.29-2.17-2.68-4.2-6.71-5.82-6.44-2.6-13.61,2.72-13.61,2.72,0,0,6.71-2.25,13.14.15,3.1,1.16,6.66,4.19,8.31,6.47.24-.62-.4-2.15-1.14-3.52Z"/>
    <path class="cls-16" d="M575.26,718.66c2.33-1.38,4.13-3.55,4.87-6.19.62-2.22.6-5.33-1.79-6.48-.38-.18-1.04.04-1.38.23-.25.14-.61.42-.21.61,2.1,1.01,1.96,4.09,1.43,5.95-.63,2.24-2.08,4.3-4.09,5.5-.24.14-.61.42-.21.61.36.17,1.06-.04,1.38-.23h0Z"/>
    <path class="cls-10" d="M530.42,724.03s-.05,0-.14.03c-1.15.24-8.77,1.94-8.62,4.98.17,3.29,3.01,2.19,4.38,1.18,1.37-1.01,1.17-4.05,4.38-6.2Z"/>
    <path class="cls-10" d="M523.47,735.89s-.06.02-.18.06c-1.47.52-11.18,4.11-10.43,8.08.81,4.29,4.35,2.34,5.96.77,1.62-1.57.81-5.53,4.65-8.92Z"/>
    <path class="cls-10" d="M609.57,740.21s.04.04.1.1c.83.82,6.31,6.4,4.53,8.87-1.93,2.67-3.72.2-4.32-1.39-.6-1.59,1.22-4.03-.31-7.58Z"/>
    <path class="cls-10" d="M608.96,753.95s.04.05.12.15c.95,1.23,7.14,9.53,4.36,12.45-3.01,3.16-4.92-.4-5.42-2.59-.5-2.19,2.32-5.08.94-10.01Z"/>
    <path class="cls-21" d="M571.4,763.07c-5.12-1.28-17.84-2.26-20.63-.76,0,0,4.21,14.37,16.08,17.35,11.87,2.98,16.08-8.03,16.08-8.03,0,0-5.01-6.93-11.53-8.57Z"/>
    <path class="cls-15" d="M556.77,762.64s6.22,1.01,11.08,2.23c4.86,1.22,10.82,3.26,10.82,3.26,0,0,1.73-3.6-7.08-5.81-8.81-2.21-14.82.32-14.82.32Z"/>
    <path class="cls-23" d="M567.28,778.98c-12.22-6.09-10.72-15.25-17.31-16.45,0,0,.1,16.69,14.06,20.19,13.96,3.5,18.9-11.08,18.9-11.08-6.38-2.05-7.45,8.61-15.65,7.34Z"/>
    <path class="cls-23" d="M578.2,761.7c-2.87-.96-5.03-.27-6.3-.59s-2.84-1.95-5.83-2.46c-2.8-.48-17.17,2.64-16.1,3.87,1.07,1.24,12.36-.67,21.19,1.54,8.83,2.21,10.7,8.16,12.22,7.58,1.53-.58-2.49-9.05-5.18-9.95Z"/>
    <path class="cls-1" d="M672.33,750.21l8.83-25.32s7.1-2.19,9.73-9.99c1.53-4.31,2.3-8.86,2.29-13.43,0,0,2.49-8.72.48-12.24s-4.59-1.44-4.59-1.44c0,0-1.62-7.41-7.92-4.93-.13-3.24-2.87-5.76-6.11-5.63-.18,0-.37.02-.55.05,0,0-4.7-7.53-9.55-2.93-2.66,2.51-7.03,12.89-7.03,12.89-.88,6.44-7.58,21.68.45,29.19-.24,7.79-4.72,27.53-6.91,36.44l20.89-2.66"/>
    <path class="cls-31" d="M687.83,688.25c-.95,2.15-2.28,4.07-3.42,6.12s-1.88,4.14-2.12,6.47c-.17,1.68.02,4.4,1.94,5.1,1.63.59,3.34-.87,4.32-1.98.73-.83,1.26-1.8,1.85-2.72.5-.77.82-1.83,1.51-2.45.34-.31.14-.74-.24-.88-.48-.17-1.04.05-1.39.37-.64.59-1,1.5-1.43,2.25-.22.39-.51.72-.74,1.09-.32.52-.56,1.06-.95,1.55-.32.4-.67.78-1.07,1.1-.32.26-.52.28-.68.39-.22.02-.21.03.03.05-.11-.08-.22-.16-.31-.26-.17-.17-.32-.38-.44-.59-.29-.51-.42-1.12-.47-1.7-.44-5.25,3.48-9.24,5.46-13.72.43-.99-1.54-.92-1.86-.17h0Z"/>
    <path class="cls-31" d="M680.18,683.01c-.86,2.44-1.38,4.88-1.98,7.39-.68,2.88-1.79,5.68-2.38,8.58-.36,1.8,0,5.03,2.13,5.59,2.35.62,3.97-1.58,5.39-3.02.34-.34-.29-.47-.5-.48-.46-.02-.98.19-1.3.51-.51.52-1.43,1.96-2.18,2-.81.04-1.11-1.17-1.33-1.74-.9-2.34.14-4.77.84-7.02,1.24-4.01,1.86-8.14,3.26-12.11.19-.55-1.74-.31-1.95.29h0Z"/>
    <path class="cls-31" d="M672.74,677.5c-1.26,2.56-2.13,5.3-2.81,8.07-.68,2.78-1.41,5.82-1.45,8.69-.04,2.55.94,5.49,3.51,6.47,2.17.83,4.78.18,5.76-2.03.4-.91-1.56-.72-1.84-.09-.47,1.05-1.09,1.47-2.26,1.14s-2-1.26-2.49-2.34c-1.01-2.25-.65-4.53-.3-6.88.66-4.41,1.74-8.94,3.71-12.96.43-.88-1.53-.71-1.84-.09h0Z"/>
    <path class="cls-31" d="M663.17,676.12c-.79.76-1.32,1.86-1.67,2.89-.78,2.3-.85,4.89-.51,7.27.29,2.06,1.01,4.14,3.25,4.67,2.06.49,4.41-.47,5.91-1.86.84-.78,1.75-1.84,1.99-2.99.26-1.29-.2-2.6.02-3.89.07-.43-1.86-.11-1.93.35-.2,1.19.11,2.33.03,3.51-.09,1.21-.93,2.28-1.78,3.1-.93.89-1.9,1.42-3.17.84-1.01-.46-1.62-1.34-1.94-2.38-.78-2.58-.83-5.58-.17-8.19.3-1.19.82-2.61,1.74-3.49.32-.3-.28-.32-.46-.3-.41.03-1,.17-1.31.46h0Z"/>
    <path class="cls-1" d="M658.92,714.91c.23-1.03-1.65-.15-1.68-1.2.09-2.32-2.45-5.73-2.32-9.16.07-1.82-.04-6.21.28-8.19.33-.93,2.92-3.43,3.7-4.05.85-.8,1.76-1.52,2.73-2.16,4.43-2.93,7.86-2.42,12.74-4.5l5.67-.77c.43,1.55.06,4.16-.93,5.42-.02.68-4.19-2.08-4.47-1.46-.37.65-.78,1.27-1.22,1.86-.9,1.2-1.86,2.4-2.79,3.56-1.01,1.15-1.88,2.41-2.62,3.75-.12.24-.2.49-.24.75,0,.3.09.6.23.86.19.36.42.7.67,1.03.45.58.93,1.09,1.41,1.61,1.78,1.84,3.41,3.81,4.88,5.89.64.92,1.12,1.93,1.44,3,.18.97.14,1.98-.12,2.93-.84,3.12-2.1,6.12-3.73,8.91-.7.99-1.25,2.08-1.63,3.23"/>
    <path class="cls-31" d="M658.56,693.37c1.72-1.58,3.68-3.01,5.67-4.24,1.74-1.08,3.47-1.63,5.45-2.09s3.76-.89,5.69-1.15c1.5-.2,3-.41,4.5-.61l-.81-.14c.39,1.63.15,3.37-.65,4.85s-3.24,1.82-4.72,2.35c-1.16.42-2.36.72-3.24,1.63-1.01,1.04-2.11,2.52-2.69,3.86-.65,1.49.6,2.71,1.49,3.81,1.08,1.33,2.22,2.62,3.2,4.03.88,1.28,1.82,2.76,2.17,4.29.41,1.79-.68,3.35-1.17,5-.14.47,1.78.22,1.94-.32.44-1.47,1.37-2.87,1.3-4.45-.06-1.54-1.02-3.11-1.83-4.38-.85-1.33-1.85-2.55-2.86-3.77-1.14-1.38-3.13-3.02-2.1-4.9.77-1.41,1.87-3.32,3.43-3.91s3.28-1.1,4.89-1.71c2.64-.99,3.41-4.38,2.81-6.91-.06-.26-.66-.16-.81-.14-1.72.23-3.44.47-5.16.7-2.14.29-4.23.86-6.34,1.36-4.54,1.07-8.53,3.82-11.94,6.95-.34.32.3.38.48.38.44,0,.98-.18,1.31-.49h0Z"/>
    <path class="cls-1" d="M559.81,910.2l18.57-4.86s13.2,4.35,21.25,2.59c4.48-.91,8.78-2.58,12.69-4.95,0,0,8.76-2.36,10.74-5.89,1.98-3.53-1.12-4.68-1.12-4.68,0,0,5.52-5.2.15-9.32,2.71-1.78,3.46-5.42,1.68-8.14-.1-.15-.21-.3-.32-.45,0,0,4.04-7.91-2.4-9.7-3.52-.98-14.67.61-14.67.61-5.98,2.56-22.49,4.66-24.8,15.41-6.8,3.8-25.82,2.62-34.59,5.33l12.82,24.05"/>
    <path class="cls-16" d="M500.26,883.98c-3.81-.02-6.93,2.76-9.2,5.53-2.46,3-4.44,6.48-5.96,10.05-.22.51,1.7.3,1.95-.28,1.35-3.18,3.07-6.24,5.17-8.99,1.06-1.39,2.23-2.72,3.61-3.79,1.05-.82,2.25-1.53,3.62-1.53.37,0,1.11-.14,1.3-.51s-.17-.48-.51-.48h0Z"/>
    <path class="cls-16" d="M632.07,786.75c3.86,2.51,6.96,6.03,8.95,10.18.23.47,2.12-.2,1.96-.53-2.01-4.19-5.17-7.79-9.07-10.32-.32-.21-.94,0-1.26.11-.11.04-.87.37-.59.55h0Z"/>
    <path class="cls-3" d="M690.55,751.37c-4.6,12.4-8.37,25.1-11.28,38-.13.58,1.2.4,1.32-.13,2.89-12.82,6.63-25.45,11.2-37.77.25-.67-1.06-.58-1.24-.1h0Z"/>
    <path class="cls-3" d="M693.45,766.01c-3,10.78-6.31,21.47-9.91,32.06-.18.53,1.15.37,1.32-.13,3.61-10.59,6.91-21.28,9.91-32.06.15-.55-1.18-.38-1.32.13h0Z"/>
    <path class="cls-3" d="M556.15,919.71c9.16-.48,18.28-1.63,27.28-3.43.54-.11,1.14-.73.23-.54-8.89,1.78-17.9,2.92-26.95,3.39-.38.02-1.42.62-.55.58h0Z"/>
    <path class="cls-3" d="M549.84,926.42c10.72-.33,21.44-.67,32.17-1,.42-.01,1.41-.67.54-.64-10.72.33-21.44.67-32.17,1-.42.01-1.41.67-.54.64h0Z"/>
    <path class="cls-3" d="M142.85,836.06c-6.78-8.09-13.21-16.46-19.27-25.1-.23-.33-1.42.19-1.31.35,6.08,8.67,12.54,17.08,19.34,25.2.21.25,1.44-.2,1.23-.45h0Z"/>
    <path class="cls-3" d="M135.49,836.84c-6.9-6.36-12.92-13.65-17.84-21.64-.25-.4-1.49.06-1.31.35,4.96,8.05,10.98,15.38,17.93,21.78.31.29,1.53-.2,1.22-.49h0Z"/>
    <path class="cls-3" d="M260.24,723.8c1.4,9.42,3.35,18.75,5.81,27.95.09.35,1.4,0,1.31-.35-2.47-9.2-4.41-18.53-5.81-27.95-.05-.33-1.37-.04-1.31.35h0Z"/>
    <path class="cls-3" d="M255.26,729.44c2.47,10.81,4.94,21.63,7.41,32.44.06.26,1.37-.07,1.31-.35-2.47-10.81-4.94-21.63-7.41-32.44-.06-.26-1.37.07-1.31.35h0Z"/>
    <path class="cls-17" d="M558.2,854.53c5.03-5.49,8.78-11.99,11.06-19.07.18-.55-.71-.71-1.06-.68-.56.04-1.12.35-1.3.9-2.18,6.77-5.83,13.02-10.63,18.26-.36.4-.21.86.28,1.04.52.19,1.28-.04,1.65-.44h0Z"/>
    <g>
      <path class="cls-14" d="M429.84,818.92c.84,5.81,7.29,32.82,7.29,32.82l16.69.63c9.96.37,19.89-1.42,29.09-5.26l15.08-6.29c-2.35-33.1-2.88-32.04-7.88-44.37-5.73-14.15-17.22-13.71-17.22-13.71"/>
      <path class="cls-17" d="M428.67,819.23c.67,4.56,1.81,9.08,2.82,13.58,1.19,5.27,2.41,10.53,3.65,15.79.27,1.15.54,2.3.82,3.45.06.27.49.26.69.27,6.1.23,12.2.58,18.3.67,7.87.11,15.75-1.12,23.23-3.58,3.6-1.18,7.07-2.71,10.56-4.17,3.23-1.35,6.46-2.69,9.69-4.04.28-.12.76-.33.73-.7-.53-7.39-1.02-14.79-1.83-22.15-.41-3.74-.89-7.5-1.88-11.13-.77-2.84-1.9-5.57-3.02-8.29-2.22-5.38-4.69-10.58-9.75-13.85-2.67-1.72-6.06-3.03-9.29-2.92-.41.01-1.36.16-1.55.6s.15.57.6.56c.57-.02,1.26.06,2.09.22,1.88.35,3.71,1.06,5.36,2.03,5.22,3.06,7.84,8.2,10.06,13.6,1.09,2.66,2.21,5.32,3.01,8.08.97,3.36,1.48,6.83,1.89,10.3.93,7.83,1.43,15.72,1.99,23.59l.73-.7c-5.45,2.27-10.87,4.65-16.36,6.81-7.39,2.91-15.29,4.46-23.23,4.59-3.43.06-6.87-.16-10.3-.29s-6.71-.25-10.07-.38l.69.27c-2.09-8.77-4.16-17.54-6.03-26.36-.46-2.14-.93-4.29-1.25-6.46-.1-.65-2.44-.13-2.33.62h0Z"/>
    </g>
    <path class="cls-21" d="M939.82,308.3c5.26-2.35,18.75-5.81,22.04-4.72,0,0-1.8,16.25-14,21.7-12.2,5.45-18.8-5.58-18.8-5.58,0,0,4.07-8.4,10.77-11.39Z"/>
    <path class="cls-15" d="M955.47,305.06s-6.5,2.27-11.49,4.5-11.01,5.55-11.01,5.55c0,0-2.54-3.54,6.51-7.58,9.05-4.04,16-2.47,16-2.47Z"/>
    <path class="cls-25" d="M949.3,321.95c8.87-6.86,6.61-15.74,13.46-18.28,0,0,4.76,19.02-9.58,25.43-14.34,6.41-24.13-9.39-24.13-9.39,6.47-3.41,11.67,5.16,20.24,2.25Z"/>
    <path class="cls-25" d="M932.25,308.11c2.91-1.58,5.35-1.24,6.66-1.82s2.69-2.63,5.8-3.75c2.92-1.04,18.96-.42,18.04,1.12-.92,1.53-13.41,1.62-22.48,5.67s-9.95,10.8-11.71,10.46c-1.75-.34.96-10.2,3.68-11.68Z"/>
  </g>
</svg>