<?xml version="1.0" encoding="UTF-8"?>
<svg xmlns="http://www.w3.org/2000/svg" xmlns:xlink="http://www.w3.org/1999/xlink" viewBox="0 0 1334 1000">
  <defs>
    <style>
      .cls-1, .cls-2 {
        fill: none;
      }

      .cls-3 {
        fill: #dbb28e;
      }

      .cls-4 {
        fill: #7d7476;
      }

      .cls-5 {
        fill: #13110f;
      }

      .cls-6 {
        fill: #273339;
      }

      .cls-7 {
        fill: #815aa5;
      }

      .cls-8 {
        fill: #231f20;
      }

      .cls-9 {
        fill: #412959;
      }

      .cls-10 {
        fill: #f1eef7;
      }

      .cls-11 {
        fill: #e5a97c;
      }

      .cls-12 {
        fill: #5f1f11;
      }

      .cls-13 {
        fill: #818080;
      }

      .cls-14 {
        fill: #a885bd;
      }

      .cls-15 {
        fill: #fcf1d4;
      }

      .cls-16 {
        isolation: isolate;
      }

      .cls-17 {
        fill: #31160e;
      }

      .cls-18 {
        fill: #ce8d2a;
      }

      .cls-19 {
        fill: #c79e81;
      }

      .cls-20, .cls-21 {
        fill: #87b448;
      }

      .cls-22 {
        fill: #c95744;
      }

      .cls-23 {
        fill: #3c2415;
      }

      .cls-24 {
        fill: #661d0d;
      }

      .cls-21 {
        mix-blend-mode: multiply;
        opacity: .5;
      }

      .cls-25, .cls-26 {
        fill: #fff;
      }

      .cls-27 {
        fill: #434660;
      }

      .cls-28 {
        fill: #cb7629;
      }

      .cls-2 {
        stroke: #000;
        stroke-width: .97px;
      }

      .cls-2, .cls-26 {
        stroke-miterlimit: 10;
      }

      .cls-29 {
        fill: #1d170f;
      }

      .cls-30 {
        fill: #e0e1e0;
      }

      .cls-31 {
        fill: #5d200f;
      }

      .cls-32 {
        fill: #ccb631;
      }

      .cls-33 {
        fill: #715293;
      }

      .cls-26 {
        stroke: #4f2e25;
        stroke-width: .32px;
      }

      .cls-34 {
        fill: url(#linear-gradient);
        mix-blend-mode: color-burn;
      }

      .cls-35 {
        fill: #a44f24;
      }

      .cls-36 {
        fill: #94664a;
      }

      .cls-37 {
        fill: #192141;
      }

      .cls-38 {
        fill: #21572b;
      }

      .cls-39 {
        fill: #975449;
      }

      .cls-40 {
        fill: #72451b;
      }

      .cls-41 {
        fill: #6e0e10;
      }

      .cls-42 {
        fill: #d3eef5;
      }

      .cls-43 {
        clip-path: url(#clippath);
      }

      .cls-44 {
        fill: #4f2e25;
      }

      .cls-45 {
        fill: #686868;
      }

      .cls-46 {
        fill: #af3f27;
      }
    </style>
    <linearGradient id="linear-gradient" x1="1544.02" y1="4618.62" x2="2912.73" y2="4618.62" gradientTransform="translate(5278.8 -1619.34) rotate(90)" gradientUnits="userSpaceOnUse">
      <stop offset="0" stop-color="#fff" stop-opacity="0"/>
      <stop offset="1" stop-color="#f7941d" stop-opacity=".73"/>
    </linearGradient>
    <clipPath id="clippath">
      <path class="cls-1" d="M530.64,488.91s-53.19-14.33-138.91.58l14.8,219.73,47.68-7.22c14.84-3.3,36.09-5.27,57.36-6.57l33.37-3.92-14.3-202.61Z"/>
    </clipPath>
  </defs>
  <g class="cls-16">
    <g id="Layer_2" data-name="Layer 2">
      <polyline class="cls-27" points="1459.69 1293.39 1459.69 -75.32 -139.33 -75.32 -139.33 1293.39"/>
      <polyline class="cls-34" points="-139.33 1293.39 1459.69 1293.39 1459.69 -75.32 -139.33 -75.32"/>
    </g>
    <g id="Layer_1" data-name="Layer 1">
      <polygon class="cls-45" points="1544.83 1009.11 1544.83 1055 -206.12 1044.11 -206.12 998.22 1544.83 1009.11"/>
      <path class="cls-19" d="M1064.77,528.31s-48.25,3.88-61.81,9.29c-17.34,6.92-41.98,59.18-49.72,73.14-11.69,21.1-33.14,56.8-33.14,56.8l33.23,33.39,52.77-52.93,59.72-122.98-1.05,3.27Z"/>
      <path class="cls-28" d="M1014.18,632.15l-33.97,28.98c4.52,6.41-49.15-48.19-49.15-48.19,0,0,43.75-62.82,68.2-77.87,29.64-12.62,54.46-9.35,54.46-9.35l-39.54,106.43Z"/>
      <path class="cls-44" d="M879.62,762.26c1.78-2.07,2.84-4.97,2.69-7.7-.12-2.1-.84-4.26-1.68-6.17-.36-.81-.75-1.63-1.26-2.36-.37-.53-1.98.06-1.54.69s.81,1.39,1.13,2.11c.79,1.78,1.43,3.74,1.64,5.68.28,2.55-.77,5.54-2.34,7.37-.66.77.94.86,1.36.37h0Z"/>
      <path class="cls-33" d="M1305.42,896.63c-107.29,2.49-191.23-2.8-193.49-42.35-1.49-26.02.36-56.67,49.26-75.11,1.3-.47,2.06-.75,2.06-.75,24.94-9.12,55.12-16.01,89.22-19.47,104.35-10.57,159.72,6.26,185.69,30.88l.12.07c.12.07.19.23.32.38,10.25,9.73.08,33.08,2.27,44.06,7.38,37.43.92,59.08-135.45,62.28Z"/>
      <path class="cls-7" d="M1305.42,896.63c-107.29,2.49-208.31-5.83-211.17-18.42-5.69-25.1,18.03-80.6,66.93-99.04-10.89,4.27-68.99,40.78-30.16,70.29,23.37,17.76,77.88,1,154.26-31.46,99.57-42.31,156.94-23.48,153.33-27.72,10.25,9.73,17.71,72.51,19.9,83.5,7.38,37.43-16.71,19.65-153.08,22.84Z"/>
      <path class="cls-28" d="M1180.11,789.99c-1.34-8.73-5.35-22.91-9.98-30.71l-11.04-17.39-8.91-21.22c-2.57-7.35-4.06-19.24-3.73-34.04-9.16-.51-12.24.41-21.26,1.73-10.59,1.54-21.05,3.69-31.59,5.48-10.82,1.84-21.68,2.85-32.67,3.53-12.09.75-24.21,1.11-36.34,1.19-8.22.05-16.44-.04-24.66-.23,4.29,17.5,7.61,31.49,15.48,41.66l.66,14.93-2.4,2.75c30.63,32.4,50.77,92.15,76.74,132.03,36.08-1.84,102.62-15.23,89.71-99.69Z"/>
      <polygon class="cls-14" points="1531.76 884.16 1531.76 1013.81 -198.6 1005.06 -197.36 862.84 1531.76 884.16"/>
      <g>
        <path class="cls-35" d="M1169.36,783.88s-27.73,19.75-34.33,33.14c-6.6,13.39,8.44,28.41,16.64,28.74,8.2.33,38.29-58.85,37.49-59.54-.8-.69-19.8-2.34-19.8-2.34Z"/>
        <path class="cls-35" d="M1190.65,888.48c.21-.25.53-.41.95-.36,5.3.62,10.61,1.17,15.93,1.48,18.98,1.09,39.77-.87,54-14.88.24-.23.49-.32.74-.31.23-.78.45-1.59.63-2.41,0-.02.02-.05.02-.05h0c16.22-58.25-17.06-80.37-17.06-80.37l-62.15-3.81s-9.91,18.91-11.18,24.66c-1.02,4.62-12.94,11.38-17.92,29.41-6.97-.04-14.61.31-19.34,1.71l-10.24,3.02s-7.01-16.36-19.79-11.75c-12.78,4.61-16.9,39.41-5.76,48.73,8.44,7.06,50.43.38,70.25-3.27,6.03,3.39,13.23,6.15,20.92,8.2Z"/>
        <path class="cls-35" d="M1240.14,795.84c10.98-1.82,22.18,1.97,29.71,10.17,11.95,13,27.62,33.43,26.23,49.87-2.23,26.31-28.52,21.43-36.32,12.53-7.81-8.9-27.9-71.21-27.9-71.21l8.28-1.37Z"/>
        <path class="cls-11" d="M1179.27,787.32s-31.02,34.72-22.59,56.32c8.44,21.6,41.94,22.69,57.93,19.92,15.98-2.77,29.47-25.35,17.25-66.35,0,0-34.67-3.4-52.59-9.89Z"/>
        <path class="cls-35" d="M1206.71,693.59s4.11-22.24-9.42-25.92c-13.53-3.68-31.95,9.88-28.09,24.01,3.86,14.13,22.17,17.8,22.17,17.8l15.34-15.89Z"/>
        <path class="cls-12" d="M1195.62,693.02s.73-10.75-4.43-12.88c-5.16-2.13-12.09,3.29-14.9,8.71-2.81,5.41,10.82,11.87,10.82,11.87l8.51-7.7Z"/>
        <path class="cls-35" d="M1187.03,694.94c-8.68,6.81-13.76,19.13-18.71,33.97,0,0-5.2,6.83-10.8,22.67-5.6,15.83,1.55,46.48,41.25,52.77,18.77,2.97,41.63,1.94,59.01-6.02,19.38-8.87,31.95-26.35,24.47-56.48-16.94-68.26-73.55-63.91-95.23-46.91Z"/>
        <path class="cls-11" d="M1178.94,747.13s7.55-2.5,14.45-.09c6.9,2.41,15.1,5.58,17.04,16.18,1.94,10.61-2.52,20.45-15.44,21.32-12.92.87-22.8-6.77-26.42-13.24-3.62-6.47-.86-20.91,10.37-24.17Z"/>
        <path d="M1178.05,749.32s-3.24,3.81-2.18,7.43c1.07,3.62,10.74.27,11.56-3.22.81-3.5-6.68-5.08-9.38-4.2Z"/>
        <ellipse cx="1175.66" cy="734.47" rx="5.6" ry="5" transform="translate(308.22 1815.75) rotate(-83.26)"/>
        <path d="M1222.52,743.14c-.36,3.07-2.88,5.3-5.63,4.98-2.74-.32-4.67-3.08-4.31-6.15s2.88-5.3,5.63-4.98c2.74.32,4.67,3.08,4.31,6.15Z"/>
        <path class="cls-35" d="M1246.81,708.66s6.73-29.93,25.58-27.31c18.85,2.63,34.57,29.36,22.22,44.93-12.35,15.57-37.14,10.37-37.14,10.37l-10.66-28Z"/>
        <path class="cls-12" d="M1252.28,711.31s4.82-13.8,12.4-13.7c7.57.1,13.32,10.55,13.94,18.81.62,8.25-19.82,9.03-19.82,9.03l-6.51-14.14Z"/>
        <path class="cls-2" d="M1177.63,758.19l-.93,7.87s8.05,12.15,20.17,4.4"/>
        <path class="cls-2" d="M1176.7,766.06s-1.2,3.22-7.03,1.41"/>
        <path class="cls-31" d="M1264.89,870.2c-5.96-5.8-11.72-11.92-14.54-19.91-2.76-7.82-2.82-16.3-1.99-24.46.48-4.68,1.24-9.33,2.05-13.97.16-.92-2.95-.39-3.1.49-2.8,16.17-5.3,33.97,4.89,48.18,2.84,3.95,6.28,7.42,9.76,10.8.65.64,3.56-.51,2.93-1.13h0Z"/>
        <path class="cls-31" d="M1150.32,841.49c-.75-2.3-1.58-4.62-2-7.01-.34-1.89-.25-3.76-.02-5.66.45-3.63,1.14-6.99,2.48-10.39,3.07-7.83,7.32-15.38,12.1-22.29,1.98-2.86,4.24-6.18,7.07-8.19.47-.33.87-.83.27-1.25-.55-.38-1.73-.06-2.22.29-2.67,1.9-4.77,4.57-6.7,7.19-2.62,3.56-4.96,7.34-7.13,11.2-3.89,6.91-7.59,14.13-8.75,22.04-.33,2.28-.64,4.59-.37,6.89.31,2.74,1.3,5.4,2.15,8.01.36,1.11,3.48.24,3.13-.84h0Z"/>
        <path class="cls-31" d="M1217.78,731.63c3.91.8,7.31,3.62,8.81,7.37.24.61,1.1.62,1.63.46.41-.12,1.43-.6,1.19-1.21-1.69-4.22-5.5-7.41-9.95-8.33-.68-.14-1.5.01-1.99.53-.4.42-.32,1.05.32,1.18h0Z"/>
        <path class="cls-31" d="M1179.81,722.87c-1.79-.4-3.74-.11-5.43.53-1.58.6-3.02,1.52-4,2.92-.28.4,1.02.25,1.12.23.53-.1,1.32-.27,1.66-.75.32-.45.69-.83,1.11-1.18.22-.18.3-.23.58-.4.07-.04.15-.08.22-.12-.09.06-.1.05,0,0,.06-.03.12-.06.18-.09.04-.02.3-.13.11-.05-.17.07.04-.01.07-.02.06-.02.13-.04.19-.07.19-.07-.28.07-.08.03.05-.01.19-.08.24-.06-.04-.02-.3.06-.08.02.07-.01.13-.02.2-.04.22-.04-.05.01-.05,0,0,0,.22-.02.25-.03.02,0,.23-.02.1,0s.08,0,.1,0c.15,0,.3,0,.45.01.03,0,.15.01.06,0,.07,0,.13.02.2.03.17.02.33.06.49.09.61.14,1.41-.11,1.97-.37.23-.11.98-.55.36-.69h0Z"/>
        <path class="cls-35" d="M1247.86,876.45c-18.1-1.42-4.29-7.13-18.82-17.53-3.85,1.41-36.27-5.31-37.38-4.69,0,0-4.24-8.46-13.19-9.65-8.95-1.19-27.83,21.27-16.6,41.98,11.23,20.71,44.77,17.21,66.5,9.31,14.01-5.09,20.07-11.47,29.65-18.42,1.11-.48,2.19-1.08,3.24-1.77-4.4.87-8.91,1.12-13.4.77Z"/>
      </g>
      <path class="cls-7" d="M1112.9,913.41c-46.11-40.63-68.58-156.68-126.34-177.67-34.1-12.4-172.4,24.41-208.42,20-257.83-31.56-298.99-11.13-503.08,2.02-68.87,4.44-204.05-19.14-312.66-16.38-47.06,1.19-97.08,5.03-152.41,9.12,0,.08,0,.17,0,.25.19,32.6.45,65.21.72,97.81.28,32.58.57,65.16.86,97.75.29,32.38.56,64.77.79,97.15.23,32.51.42,65.02.53,97.53.08,23.8.1,47.61.08,71.41,95.65,4.98,191.41,8.04,287.18,9.17,377.16,4.44,485.68-66.6,1044.97-9.06,2.6-96.91,40.5-235-32.23-299.1Z"/>
      <g>
        <path class="cls-13" d="M226.88,398.86c.11.03.22.05.33.08l5.2-20.71c69.55,19.1,134.86,46.07,157.32,55.7,5.11,2.19,8.72,6.64,9.52,11.73l4.62,29.17c.13.81.19,1.6.17,2.41-1.34,67.07-31.94,290.1-44.48,347.27-1.75,8-10.4,12.8-19.12,10.61l-11.73-2.95c-7.78-1.95-13.04-8.87-12.27-16.15,3.16-29.98-3.39-118.2-2.28-137.93,1.07-18.95,14.72-128.43,11.57-182.52-28.2-5.34-66.26-13.42-116.7-25.64l17.84-71.06Z"/>
        <path class="cls-8" d="M226.2,399.55l.33.08c.62.14,1.64-.09,1.82-.81,1.52-6.04,3.03-12.08,4.55-18.12.22-.86.43-1.72.65-2.59l-1.82.81c24.95,6.86,49.61,14.75,74.01,23.33,19.61,6.9,39.06,14.24,58.34,22,6.58,2.65,13.14,5.35,19.68,8.11,2.96,1.25,6.19,2.33,8.75,4.31,3.07,2.38,5.04,5.78,5.65,9.6,1.55,9.61,3.16,19.22,4.57,28.85.39,2.65.09,5.48-.01,8.16-.1,2.46-.21,4.91-.35,7.36-.31,5.67-.7,11.34-1.14,17-1.07,13.95-2.4,27.88-3.84,41.8-1.68,16.32-3.53,32.62-5.47,48.91-2.07,17.37-4.25,34.72-6.51,52.06-2.28,17.42-4.65,34.82-7.11,52.21-2.28,16.1-4.64,32.19-7.11,48.27-2.1,13.64-4.26,27.27-6.59,40.87-1.71,10-3.48,20-5.57,29.93-.66,3.14-1.32,6.16-3.54,8.64-3.31,3.71-8.45,5.2-13.29,4.33-2.54-.46-5.05-1.23-7.56-1.86-2.59-.65-5.39-1.12-7.84-2.19-4.51-1.96-8.1-5.99-9.05-10.87-.6-3.09.1-6.43.28-9.56.39-6.79.44-13.59.41-20.39-.07-17.12-.74-34.24-1.42-51.35-.62-15.49-1.39-30.98-1.75-46.47-.11-4.62-.23-9.27.02-13.89.2-3.75.59-7.49.94-11.22,1.3-13.65,2.74-27.28,4.05-40.93,1.75-18.22,3.36-36.46,4.65-54.72,1.27-18.01,2.27-36.07,2.4-54.13.05-7.28-.05-14.56-.47-21.82-.01-.19-.31-.36-.46-.39-12.61-2.39-25.19-4.94-37.75-7.6-15.86-3.36-31.69-6.91-47.49-10.57-10.5-2.44-20.98-4.93-31.46-7.46l.47.57c2.02-8.03,4.03-16.06,6.05-24.09,3.2-12.74,6.4-25.48,9.6-38.22.73-2.92,1.47-5.84,2.2-8.75.24-.96-2.07-.65-2.29.23-2.02,8.03-4.03,16.06-6.05,24.09-3.2,12.74-6.4,25.48-9.6,38.22-.73,2.92-1.47,5.84-2.2,8.75-.07.29.22.51.47.57,17.84,4.32,35.72,8.51,53.64,12.52,14.31,3.2,28.65,6.28,43.03,9.19,6.67,1.35,13.34,2.66,20.03,3.93l-.46-.39c.95,16.52.41,33.13-.39,49.64-.91,18.94-2.35,37.86-4,56.75-1.43,16.43-3.06,32.84-4.7,49.25-.94,9.34-2.22,18.74-2.54,28.13-.42,12.37.39,24.84.89,37.2.71,17.58,1.5,35.15,1.97,52.73.39,14.58.88,29.32-.27,43.88-.12,1.57-.36,3.14-.3,4.71.09,2.26.72,4.43,1.8,6.42,2.3,4.2,6.41,7.08,11,8.28,2.46.64,4.94,1.24,7.41,1.86,2.8.7,5.64,1.61,8.54,1.65,4.65.08,9.35-1.55,12.7-4.82,2.65-2.58,3.72-5.76,4.47-9.27.93-4.38,1.78-8.78,2.61-13.19,2.23-11.9,4.23-23.85,6.16-35.8,2.44-15.07,4.74-30.16,6.97-45.27,2.5-16.99,4.91-34,7.23-51.02,2.41-17.67,4.72-35.36,6.94-53.06,2.14-17.12,4.19-34.24,6.11-51.38,1.72-15.36,3.33-30.73,4.74-46.12,1.12-12.27,2.14-24.56,2.8-36.86.13-2.45.24-4.9.33-7.36s.34-5.21-.04-7.74c-.72-4.77-1.51-9.54-2.27-14.3s-1.51-9.83-2.33-14.73c-.7-4.19-3.11-7.83-6.55-10.3-2.58-1.85-5.78-2.91-8.69-4.14-15.44-6.51-31-12.71-46.67-18.65-22.56-8.55-45.33-16.55-68.33-23.83-12.29-3.89-24.65-7.57-37.08-10.98-.62-.17-1.65.11-1.82.81-1.52,6.04-3.03,12.08-4.55,18.12-.22.86-.43,1.72-.65,2.59l1.82-.81-.33-.08c-.52-.12-1.25,0-1.61.43-.3.36-.28.83.25.95Z"/>
      </g>
      <path d="M375.89,140.55s-32.84,61.98-15.42,102.73c17.42,40.75,107.67,86.32,140.25,74.85,32.59-11.47,63.06-83.02,50.66-102.29-12.4-19.28-175.49-75.28-175.49-75.28Z"/>
      <path d="M363.73,192.68s-27.59,6.18-38.07,30.6c-10.47,24.42-.07,50.28,29.38,68.72,29.45,18.44,76.63,27.36,84.52,9.99,7.88-17.37,21.62-44.57,8.98-59.34-12.63-14.77-84.81-49.97-84.81-49.97Z"/>
      <path class="cls-3" d="M409.86,233.13s-3.72,44.52-27.11,70.21c-3.26,3.58-31.4,5.64-31.4,5.64l16.93,23.78c13.73,19.29,37.88,50.34,60.73,56.52,12.96,3.5,33.83-1.64,45.11-1.32l12.57-25.73-20.37-22.09c.93-5.63,16.4-42.32,16.4-42.32"/>
      <path class="cls-3" d="M401,396.3c4.37-17.5,14.58-31.72,28.31-42.71l14.65,10.68,21.91,13.39,46.63,25.08c5.84,5.79,13.09,19.22,18.38,31.22,10.97,27.99-.77,59.07-1.65,88.68-.29,9.73,1.66,110.9-3.22,111.32-33.67,2.88-50.32-24.99-76.79-3.61-1.13-14.52-4.48-28.88-8.35-42.9-12.08-43.79-30.81-85.78-39.24-130.56-3.74-19.87-5.59-40.76-.63-60.6Z"/>
      <path d="M597.01,196.81s25.83-75.08-34.4-95.44c0,0-30.13-33.57-81.05-35.1-50.92-1.53-89.47,21.6-117.68,105.11-28.21,83.51,233.13,25.43,233.13,25.43Z"/>
      <path d="M397.1,170.18c3.48,23.03,19.42,43.43,38.8,57.71,19.38,14.28,42.09,23.61,64.44,32.79l27.96,8.78c17.32-10.25,34.28-14.91,47.02-30.15,9.36-12.11,17.66-29.8,22.28-44.35,4.85-15.28.65-36.2-2.85-52.04-3.24-13.2-11.15-25.04-22.35-33.45-11.04-8.79-16.66-15.4-34.11-22.84-30.03-12.9-64.03-12.16-92.43,2.03-29.56,13.88-53.54,49.43-48.75,81.52Z"/>
      <path class="cls-44" d="M469.64,332.32s-6.22-5.41-12.33-9.17c-6.11-3.77-17.56-6.82-40.78-41.14,0,0-.02,33.56,37.02,51.95,0,0,6.48,4.09,13.54,4.57l2.55-6.19Z"/>
      <path class="cls-3" d="M581.6,195.9c.54,7.85-2.47,17.82-5.23,24.24-5.45,12.67-12.79,26.46-15.35,31.85-2.22,4.67-4.81,12.4-6.23,17.61-3.18,11.66-4.31,14.63-11.41,24.79-6.87,9.82-11.77,14.6-21.4,21.6-10.04,7.3-22.21,12.28-33.85,17.28-7.67,3.29-9.07,3.51-24.4-2.24-22.58-8.48-39.7-28.29-48.03-48.99l-8.2-30.67,1.47-11.62c-16.27,7.39-16.74-13.59-14.92-16.8-1.24-8.85-5.34-39.19,7.94-45.2l1.12-.88c5.35-1.89,10.91-.66,11.97,6.17.12,2.85.51,5.58.64,8.44-.02,3.2,1.9,9.97,2.74,13.11,0,0,7.45-13.48,9.7-20.2,2.25-6.72,14.15-24.04,29.07-28.95,0,0,8.85-23.34,16.66-28.26l2.08.03c1.08.43,1.67,1.06,2.75,1.49.14-.34-.09-.83.19-1.53,1.53,1.41,3.12,1.63,4.56,2.21-.22-.49-.81-1.12-.67-1.47,1.31.92,2.89,1.15,4.34,1.72-.23-.49-.67-1.47-.54-1.81,1.53,1.41,2.89,1.15,4.34,1.72-.22-.49-.31-1.33-.17-1.67,1.17,1.27,2.75,1.49,4.2,2.06-.23-.49-.31-1.33-.53-1.81,1.53,1.41,2.89,1.14,4.33,1.72.36.14-.45-.98-.31-1.32.95.78,2.39,1.35,3.48,1.78.14-.35-.45-.98-.31-1.33,1.89,1.55,3.25,1.29,4.7,1.86l-.53-1.81c1.03,1.61,2.48,2.18,4.06,2.41-.22-.49-.67-1.47-.53-1.81,1.39,1.75,3.43,2.96,5.51,2.98-.36-.14-.67-1.47-.53-1.81,1.26,2.1,2.84,2.33,4.65,3.04-.22-.49-.31-1.33-.76-2.3,1.62,2.25,3.87,3.94,6.46,3.76-.33-.13-.31-1.08-.21-1.52-.08-.38.02-.79.85-.63,0,0,3.61,3.03,3.75,2.69,1.03,1.61-1.48-7.38.33-6.67-.09-.84,10.12,4.75,9.67,3.77,1.26,2.1,1.17,1.24,3.48,1.76,0,0,5.86,7.12,5.64,6.63.46,1,.97,1.39,1.56,1.56,0,0,21.25,32.85,31.9,53.06Z"/>
      <path class="cls-18" d="M401.94,234.21c-4.3-1.17-9.26.8-10.75,5.21-.67,1.99-.52,4.5.62,6.3.58.91,1.48,1.68,2.37,2.28,2.06,1.38,4.46,1.72,6.87,1.18.72-.16.57-.68-.14-.52-2.94.66-6.15-.76-7.86-3.22-.87-1.25-1.17-3.07-1.02-4.55.18-1.84,1.08-3.6,2.49-4.81,1.82-1.56,4.19-1.95,6.47-1.33.27.07.6.03.84-.13.11-.07.41-.34.12-.41h0Z"/>
      <path class="cls-5" d="M462.55,153.3l-9.89,10.38c-11.47,12.03-21.16,25.7-28.76,40.56l-2.17,4.24c-.62,1.22-2.38.99-2.64-.34l-3.15-16.55s16.97-48.4,46.61-38.29Z"/>
      <path class="cls-8" d="M408.4,200.2c-3.47.14-5.83,3.31-7.37,6.09-1.64,2.96-2.42,5.89-2.17,9.34.17,2.33,1.42,8.44,5.07,6.9,2.59-1.09,2.85-4,2.85-6.46,0-1.39-.18-2.9.17-4.26.47-1.78,2.09-1.22,3.44-.7.28.11.96-.05.95-.45-.18-5.43-.61-10.97-1.75-16.29-.59-2.75-1.38-6.09-4.21-7.37-3.77-1.71-6.84,2.4-8.19,5.35-1.93,4.2-2.44,9.33-1.51,13.86.11.55,1.31.24,1.19-.32-.68-3.34-.51-7.05.35-10.33.79-3,4.08-10.63,8.28-7.23,2.08,1.68,2.59,4.77,3.07,7.25.6,3.12.95,6.29,1.21,9.46.16,1.9.28,3.81.35,5.72l.95-.45c-1.87-.72-4.47-1.13-5.24,1.25-.72,2.22-.07,4.73-.4,7.02-.17,1.18-.58,2.46-1.69,3.08-1.49.83-2.52-1.41-2.93-2.51-1.24-3.36-1.13-7.43.33-10.7,1.28-2.87,3.54-7.24,7.13-7.39.67-.03.92-.9.11-.87h0Z"/>
      <path d="M432.69,122.72c11.13-26.54,57-19.32,80.27-13.43,14.9,4.23,33.47,24.84,44.42,35.89,5.01-2.72-45.14,27.83-128.67,16.36l-5.4,19.91s-1.75-32.19,9.38-58.73Z"/>
      <path class="cls-5" d="M530.02,241.72s10.47-5.1,16.4-3.99c12.1,2.26,15.79,7.72,19.41,12.24,0,0-9.43-6.96-19.84-8.79-5.84-1.03-15.97.55-15.97.55Z"/>
      <path class="cls-5" d="M487.18,213.07c-1.67-1.81-5.08-2.71-6.85-2.01-.42.16-1.56.65-2.44,1.86-1.13,1.54-1.15,3.75-.5,5.33.87,2.11,3.18,3.26,5.34,3.07,2.93-.26,4.84-2.98,5.02-5.41.03-.44.72-1.07-.63-2.53"/>
      <path class="cls-5" d="M555.82,242.98c-1.67-1.81-5.08-2.71-6.85-2.01-.42.16-1.56.65-2.44,1.86-1.13,1.54-1.15,3.75-.5,5.33.87,2.11,3.18,3.26,5.34,3.07,2.93-.26,4.84-2.98,5.02-5.41.03-.44.72-1.07-.63-2.53"/>
      <path class="cls-5" d="M498.33,226.87s-4.87-14.4-14.49-18.35c-7.33-3.01-20.08-5.8-23.99-6.24,0,0,17.47,7.25,22.6,9.45,4.9,2.1,15.89,15.13,15.89,15.13Z"/>
      <path class="cls-5" d="M514.02,200.36c.07-.21-.89-.48-.82-.69-14.52-6.54-26.04-9.58-30.42-9.99-3.33-.31-6.69-.07-9.97.57,0,0-9.03,1.65-10.37,2.85-1.34,1.2,5.15.48,5.15.48,1.35,0,2.31-.16,3.67,0,7.42.83,14.7.81,21.76,3.33,6.05,2.12,13.74,7.03,19.24,10.31.76-2.32.79-4.62,1.76-6.85Z"/>
      <path class="cls-5" d="M571.69,240.32c.07-.24.15-.48.2-.73,0,0,0-.01.01-.02-.81-1.58-1.94-3.46-3.45-5.42-2.65-3.43-11.08-11.29-23.81-19.9-1.85,1.97-2.39,2.54-4.25,4.49,5.75,2.95,9.35,5.47,14.41,9.51,4.76,3.79,11.2,9.47,15.17,14.21.51-.3-.04-.05.44-.39.29-.27.56-.55.81-.85.17-.29.34-.58.47-.89Z"/>
      <path class="cls-39" d="M491.93,286.95c-9.67-4.17-26.79-11.27-26.79-11.27,0,0-10.35,27.42,15,37.46,22.7,8.99,34.36-14.44,34.36-14.44,0,0-12.9-7.58-22.57-11.75Z"/>
      <path class="cls-17" d="M492.02,286.99c-4.6-1.98-24.07-10.51-24.07-10.51,0,0,.45,20.6,17.08,27.77,18.03,7.77,28.05-8.66,28.05-8.66l-21.06-8.6Z"/>
      <path class="cls-10" d="M491.92,287.78c-4.6-1.98-18.25-8.8-18.25-8.8,0,0,2.83,7.29,16.62,13.24,13.8,5.95,20.32,2.86,20.32,2.86l-18.69-7.3Z"/>
      <path class="cls-39" d="M516.13,298.54c-.44-.33-3.95-3.66-5.22-5.1-2.86-3.24-2.81-3.51-5.47-4.91-4.55-2.4-8.35-1.8-10.4-2.68-2.05-.88-4.22-4.06-9.09-5.72-2.85-.97-10.03-1.72-13.98-3.03-2.37-.78-8.92-4.72-9.72-3.01-.32.69,2.81,4.42,28.54,15.51,25.73,11.09,25.95,9.4,25.34,8.94Z"/>
      <path class="cls-5" d="M522.7,265.53c-.11,1.86-.22,3.71-.36,5.57-.1,1.21-.2,2.43-.35,3.63-.09.74-.16,1.62-.42,2.26-.01.03-.07.14-.04.1.04-.06-.03.03-.03.04-.07.09-.14.18-.21.26-.24.27-.52.52-.83.72-.57.37-1.22.59-1.88.71-1.24.22-2.52.09-3.75-.12-2.73-.47-5.37-1.27-7.95-2.29-1.54-.61-3.06-1.3-4.52-2.1-1.22-.66-2.42-1.41-3.46-2.33-.21-.18-.4-.38-.58-.58-.26-.29-1.02.05-.73.37.9,1.01,2.03,1.78,3.18,2.47,1.44.87,2.97,1.61,4.51,2.27,2.79,1.2,5.68,2.12,8.66,2.7,2.59.5,5.72.75,7.77-1.26.31-.31.59-.62.72-1.04.11-.38.18-.76.24-1.15.19-1.15.3-2.31.4-3.46.19-2.17.33-4.34.45-6.51,0-.1.01-.2.02-.3.03-.44-.8-.34-.82.05h0Z"/>
      <path class="cls-5" d="M492.98,260.09c-1.24-.32-2.6-.12-3.74.44-1.2.59-1.96,1.61-2.44,2.83-.25.64-.44,1.31-.33,2,.1.63.4,1.22.79,1.72.85,1.1,2.12,1.78,3.32,2.43,1.41.77,2.88,1.44,4.47,1.74.2.04.44-.03.62-.12.07-.03.31-.18.11-.21-1.29-.24-2.51-.74-3.67-1.34s-2.28-1.17-3.23-1.99c-.89-.76-1.62-1.86-1.54-3.08.04-.65.3-1.29.58-1.87.26-.55.6-1.07,1.05-1.48.92-.83,2.11-1.06,3.29-.75.19.05.45-.04.62-.12.08-.04.3-.16.11-.21h0Z"/>
      <path class="cls-44" d="M535.62,610.79c-14.73-4.7-31.19-2.89-44.61,4.79-.38.22-.59.5-.22.8s1.28-.05,1.61-.24c12.47-7.14,27.71-8.68,41.39-4.32.5.16,1.16.05,1.61-.24.23-.15.76-.63.22-.8h0Z"/>
      <path class="cls-22" d="M493.89,543.89c-5.37,46.44-8.71,35.71-20.44,52.87-7.5,10.98-30.01,14.68-39.15,24.17-18.08,18.76-11.69,65.76-13.17,100.91,0,0-89.83,14.91-184.4-7.14-99.4-23.18-103.79-50.39-103.79-50.39,42.73-72.39,65.29-88.62,65.29-88.62l26.87-100.39,7.6-110.45c17.06-40.3,29.5-48.72,70.87-51.57l74.08-8.66s2.48,63.22,53.25,72.47c50.78,9.25,37.89-34.18,37.89-34.18,0,0,47.62,39.6,56.16,52.59,8.54,12.99,22.43,37.96,19.59,72.34-2.84,34.38-1.77,68.87-.74,75.07,1.02,6.21-48.26-.76-48.26-.76"/>
      <path class="cls-37" d="M232.6,885.45c-24.22-2.23-48.52-3.4-71.91-12.35-69.62-26.63-67.58-73.3-58.4-138.05,3.77-26.61,15.45-47.53,32.84-69.41,19.72,27.42,71.17,37.06,101.94,42.79,43.29,8.06,115.21,21.14,158.24,11.71l11.4-25.64c43.84,19.02,155.59,68.89,161.21,82.76l-6.29-2.39s-39.6,2.32-68.63,54.37c-23.92,42.88-73.93,87.76-73.93,87.76,0,0-149.84-24.97-151.54-25.38-12.4-2.96-22.34-5.01-34.91-6.17Z"/>
      <path class="cls-37" d="M331.89,866.56v29.3s-9.16,78.24-9.93,95.87c-.76,17.63,222.45,30.43,243.37,16.92,0,0,14.08-86.54,16.08-132.25,3.32-75.89,5.14-106.1-69.04-132.28-74.17-26.18-91.25-22.28-91.25-22.28l-89.24,144.73Z"/>
      <path class="cls-24" d="M505.98,494.37c-5.05,3.72-8.01,9.4-9.5,15.39-1.06,4.27-1.3,8.74-1.68,13.11-.76,8.59-1.49,17.18-2.81,25.7-2.85,18.34-8.6,37.27-22.23,50.57-4.06,3.96-8.7,7.29-13.72,9.92-2.6,1.36-5.37,2.78-8.2,3.58-2.02.57-4.11.94-6.18,1.29-.52.09-1.14.65-.99,1.22.17.64.95.65,1.46.56,1.82-.31,3.64-.65,5.43-1.09,2.5-.62,4.91-1.73,7.22-2.83,4.75-2.25,9.25-5.08,13.29-8.45,7.37-6.14,13.08-14,17.19-22.65,7.89-16.63,10-35.26,11.61-53.38.98-11.07.86-24.46,10.75-31.73,1.34-.98-.62-1.96-1.65-1.21h0Z"/>
      <path d="M1167.4,493.23c-6.73,7.95-14.59,15.71-24.31,19.86-9.94,4.24-21.01,2.78-31.36.94-20.17-3.58-39.72-12.07-54.79-26.16-15.55-14.53-24.91-34.23-26.64-55.43-1.27-15.64.59-30.8,5.13-45.16.54-.88,1.06-1.79,1.62-2.62,16.38-24.49,27.77-35.26,55.78-34.18,17.24.49,32.33-.99,55.99,14.29,5.1,3.29,9.75,10.76,16.11,15.74,9.59,7.5,19.33,18.98,21.93,28.88,4.92,18.86-2.56,43.24-5.62,63.87-3.66,7.16-8.55,13.68-13.86,19.96Z"/>
      <path class="cls-3" d="M1017.54,466.75c1.15-8.26,4.59-23.61,6.88-28.2.84-3.75,1.83-8.1,3.06-13.34.36-1.52.74-2.97,1.13-4.4.27-.72.48-1.45.62-2.21,7.32-25.19,19.1-36.33,19.1-36.33,15.01-14.09,36.35-19.12,56.05-13.21,23.31,6.47,40.8,26.12,48.16,43.27,3.66,8.49,4.06,18.05,1.13,26.82-2.5,7.5-6.47,15.63-10.65,23.4,8.28,1.72,15.56,6.71,8.72,21.03-9.43,19.76-23.57,23-29.42,15.11-4.12,1.22-6.36,6.56-7.81,10.82-2.78,8.15-5.82,22.23-3.58,30.55l-.83,2.31c-24.94,23.96-39.55,37.77-95.65,5.48l26.63-22.52,2.29-9.52q-4.5-1.49-9.83-4.07c-17.61-9.7-17.34-35.27-15.99-45.01Z"/>
      <path class="cls-44" d="M1043.47,515.89s21.85,7.5,45.31-.59c0,0-4.14,6.09-19.72,7.49-15.58,1.4-26.52-3.28-26.52-3.28l.93-3.62Z"/>
      <path d="M1132.98,474.15c.07-.11.1-.24.17-.36,1.87-2.62,3.87-4.98,6.81-6.46,1.34-.67,2.93-1.4,4.47-1.66,1.55-.26,3.22-.59,4.8-.38,2.28.03,4.39.63,6.35,1.8.32.25.63.5.95.75,10.19-16.29,17.65-34.63,10.44-59.83-2.09-7.26-10.1-16.8-12.52-19.82-14.74-18.15-30.83-23.44-51.46-26.79-23.91-3.88-49.65,5.3-61.25,27.42-2.8,5.33-1.85.55-2.84,6.48,0,0,7.12-11.91,20.14-15.64,13.01-3.73,12.42,6.68,28.24,11.25,18.33,5.22,27.04-3.18,39.78,8.45,11.62,10.64,9,15.65,9,15.65-.03,3.62,1.23,7.07,1.78,10.62.54,3.49.19,6.94-.48,10.38-1.38,7.06-2.48,14.18-4.84,21-1.46,4.23-3.83,9.73-.46,13.69,1.5,1.77-1.22,3.6.92,3.45Z"/>
      <ellipse cx="1035.82" cy="434.53" rx="5.16" ry="5.14" transform="translate(589.74 1465.43) rotate(-89.36)"/>
      <path class="cls-8" d="M1147.51,483.78c1.43-2.17,2.46-4.72,2.26-7.36-.03-.4-.05-.91-.22-1.29-.09-.2-.25-.23-.44-.26-.61-.1-1.27.03-1.86.19-1.42.4-2.74,1.14-3.96,1.95-2.7,1.77-5.1,4.01-7.36,6.31-.12.12-.09.3.03.4.15.12.38.07.55,0,.11-.05-.12.04.03-.01.13-.04.26-.09.4-.12.33-.09.67-.15,1.01-.16.85-.01,1.32.48,1.38,1.32.12,1.54-.73,3.12-2.09,3.85-1.21.65-2.62.66-3.95.45-.45-.07-.91.57-.31.66,2.49.38,5.28-.13,6.63-2.47.83-1.44,1.16-4.19-1.06-4.46-.82-.1-1.69.1-2.45.4l.58.41c2.47-2.51,5.13-5.03,8.21-6.79.74-.42,1.56-.82,2.29-1.05.27-.09.55-.16.83-.21-.13.02.16-.02.23-.03.09,0,.18-.01.27-.02.04,0,.21,0,.03,0,.03,0,.06,0,.09,0,.06,0,.11.02.17.02.15.01-.08-.03.03,0l-.19-.19c.25.71.27,1.52.23,2.26-.11,2.12-.96,4.14-2.11,5.89-.31.48.52.62.75.27h0Z"/>
      <ellipse class="cls-29" cx="1087.52" cy="448.26" rx="5.16" ry="5.14" transform="translate(627.13 1530.7) rotate(-89.36)"/>
      <path class="cls-36" d="M1050.26,480.22c7.2,1.81,21.27,3.85,21.27,3.85,0,0-6.01,21.79-25.89,16.45-16.62-4.47-11.03-25.07-11.03-25.07,0,0,8.45,2.96,15.65,4.78Z"/>
      <path class="cls-17" d="M1050.19,480.2c3.42.86,18.32,3.68,18.32,3.68,0,0-8.62,12.46-20.99,9.34-13.42-3.38-10.76-15.97-10.76-15.97l13.43,2.95Z"/>
      <path class="cls-10" d="M1049.74,481.96c3.42.89,13.95,3.03,13.95,3.03,0,0-4.68,2.63-14.92-.03-10.25-2.66-12.59-7-12.59-7l13.56,4Z"/>
      <path class="cls-36" d="M1033.31,475.36c.09-.37.88-.34,2.61-.06,2.89.48,4.07-.3,6.16.07,3.57.62,5.46,2.51,6.98,2.9,1.52.38,4.08-.38,7.52.76,2.01.67,7.03,2.08,9.8,3.03,1.66.57,7.87,1.02,8.21,1.2.48.25-6.04,4.59-25.18-.24-19.14-4.83-16.22-7.16-16.09-7.66Z"/>
      <path d="M1145.96,422.82s-39.22-.18-67.22-14.92l-1.03-18.25s-4.68,15.1-4.44,18.09l-6.47-1.59s2.11-13.38,4.44-18.09c0,0-9.44,13.21-9.89,16.75,0,0-22.93-4.86-24.86-7.28-1.93-2.43,25.45-28.15,39.13-27.29,13.68.87,69.29,10.11,70.34,52.58Z"/>
      <path d="M1185.92,413.06c1.1-9.17,8.54-19.01,17.62-17.27,2.21.42,4.24,1.5,6.23,2.56,2.94,1.57,5.88,3.13,8.82,4.7,2.67,1.42,5.39,2.88,7.51,5.05,3.85,3.94,5.21,9.79,4.86,15.29-.35,5.5-2.23,10.77-4.09,15.96-1.7,4.76-4.15,10.2-9.09,11.28-2.91.63-5.9-.51-8.88-.53-2.66-.02-5.25.85-7.89,1.22-9,1.27-18.53-3.93-22.33-12.19"/>
      <path class="cls-5" d="M1054.49,469.84c-1.74.28-3.52.12-5.24-.26-.93-.2-1.84-.48-2.73-.81-.78-.29-1.57-.6-2.29-1.02-1.13-.66-2.06-1.7-2.45-2.97-.2-.64-.31-1.37-.13-2.03.13-.51.43-.95.76-1.35.48-.59,1.02-1.14,1.52-1.72.69-.8,1.3-1.65,1.84-2.56.09-.15-.08-.27-.21-.29-.17-.03-.35.06-.44.21-.5.85-1.08,1.65-1.73,2.4-.47.55-.98,1.07-1.44,1.63-.36.43-.71.91-.9,1.44-.23.65-.2,1.34-.05,2.01.3,1.41,1.22,2.62,2.4,3.42.61.41,1.31.71,1.99.99.92.38,1.87.7,2.83.95,2.01.52,4.15.78,6.21.45.15-.02.36-.1.37-.28.01-.16-.18-.25-.32-.23h0Z"/>
      <path class="cls-5" d="M1064.5,466.62c.71.14.98.82,1.04,1.47.07.77-.07,1.57-.31,2.31s-.58,1.36-1.3,1.71c-.45.22-.96.28-1.45.29-.55,0-1.13-.04-1.67-.16-1.34-.28-2.31-1.38-3.51-1.96-.13-.06-.31-.02-.44.03-.03.01-.31.15-.2.21,1.16.56,2.09,1.57,3.35,1.94.58.17,1.23.22,1.84.23s1.25-.04,1.85-.22c.93-.29,1.69-.86,2.06-1.77.31-.76.49-1.61.48-2.43s-.27-1.74-1.18-1.92c-.16-.03-.34.01-.48.08-.05.03-.24.16-.08.19h0Z"/>
      <line class="cls-32" x1="1019.35" y1="543.98" x2="1009.83" y2="542.52"/>
      <path class="cls-28" d="M994.19,547.21c10.78-9.56,46.87-21.05,46.87-21.05-10.08,18.4,7.29,25.24,7.29,25.24,7.76,2.37,48.51,4.7,63.88-20.98,0,0,8.96,5.21,22.3,15.78,28.9,22.9,37.06,45.93,35.65,61.35-.91,9.9-20.63,74.18-26.11,100.84-15.69,16.73-15.07,6.34-24.17,6.83-11.64.63-22.64,9.89-34.25,10.84-5.59.46-10.96-6.28-16.57-6.26-5.68.01-11.53-31.08-17.15-31.77-12.2-1.48-19.57,84.21-28.18,75.43-8.36-8.52-40.32-27.84-46.53-29.72-.33-9.03,7.13-48.2,6.55-59.21l1.07-34.11c-23.03-10.42-23.88-19.27-23.88-19.27,0,0,22.46-64.38,33.24-73.94Z"/>
      <g>
        <path class="cls-38" d="M364.26,495.21l15.73,223.48c.45,6.45,5.95,11.31,12.28,10.87.25-.02.5-.04.75-.08l163.97-19.87-17.49-227.1-162.57-1.07c-6.99-.05-12.67,5.68-12.7,12.78,0,.33,0,.65.03.98Z"/>
        <polygon class="cls-30" points="386.84 480.1 371.71 486.62 387.86 715.95 388.19 720.69 404.94 719.49 386.84 480.1"/>
        <path class="cls-25" d="M540.11,481.99s-61.57-18.79-161.19-2.24l18.15,240.59,84.86-10.78,76.3-9.69-18.12-217.88Z"/>
        <path class="cls-38" d="M698.61,471.54c-1.01-7.03-7.27-11.92-13.98-10.91l-144.17,22.09,14.54,227.31,149.02-7.28c.24,0,6.35-1.42,6.59-1.44,6.15-.44,4.9-4.61,4.44-11.05l-16.34-217.76c-.02-.33-.06-.65-.1-.97Z"/>
        <polygon class="cls-30" points="688.26 694.26 705.3 692.65 704.77 689.67 688.47 461.77 672.58 457.43 688.26 694.26"/>
        <path class="cls-26" d="M554.58,699.47l137.84-3.32-17.49-238.05c-100.96-2.42-135.11,24.19-135.11,24.19l14.75,217.18Z"/>
        <path class="cls-6" d="M375.32,485.61c.04.54.07,1.09.11,1.63.1,1.54.21,3.09.31,4.63.17,2.45.33,4.91.5,7.36.22,3.22.43,6.45.65,9.67.26,3.93.53,7.86.79,11.79.3,4.47.6,8.94.9,13.41.33,4.97.67,9.93,1,14.9.36,5.28.71,10.56,1.07,15.84.37,5.56.75,11.13,1.12,16.69.38,5.66.76,11.32,1.14,16.98.39,5.73.77,11.45,1.16,17.18s.76,11.25,1.14,16.87c.37,5.43.73,10.86,1.1,16.3.35,5.13.69,10.26,1.04,15.39.32,4.72.64,9.44.95,14.16.28,4.2.57,8.41.85,12.61.24,3.58.48,7.15.72,10.73l.57,8.52.4,5.98c.07,1.04.14,2.08.21,3.12,0,.13.02.26.03.39.02.27.77.11.75-.2-.04-.54-.07-1.09-.11-1.63l-.31-4.63c-.17-2.45-.33-4.91-.5-7.36-.22-3.22-.43-6.45-.65-9.67-.26-3.93-.53-7.86-.79-11.79-.3-4.47-.6-8.94-.9-13.41-.33-4.97-.67-9.93-1-14.9-.36-5.28-.71-10.56-1.07-15.84-.37-5.56-.75-11.13-1.12-16.69l-1.14-16.98c-.39-5.73-.77-11.45-1.16-17.18-.38-5.62-.76-11.25-1.14-16.87s-.73-10.86-1.1-16.3l-1.04-15.39c-.32-4.72-.64-9.44-.95-14.16-.28-4.2-.57-8.41-.85-12.61-.24-3.58-.48-7.15-.72-10.73l-.57-8.52-.4-5.98c-.07-1.04-.14-2.08-.21-3.12,0-.13-.02-.26-.03-.39-.02-.27-.77-.11-.75.2h0Z"/>
        <path class="cls-6" d="M378.92,480.49c.04.55.07,1.11.11,1.66.11,1.59.21,3.18.32,4.77.17,2.5.33,5,.5,7.5.22,3.3.44,6.61.66,9.91.27,4.01.54,8.03.8,12.04.31,4.6.61,9.2.92,13.8.34,5.07.68,10.15,1.02,15.22.36,5.42.72,10.83,1.09,16.25.38,5.67.76,11.33,1.14,17,.39,5.83.78,11.65,1.17,17.48l1.17,17.56,1.15,17.24c.37,5.57.74,11.14,1.12,16.71.35,5.24.7,10.49,1.05,15.73.32,4.84.65,9.69.97,14.53.29,4.31.58,8.62.86,12.93.24,3.65.49,7.31.73,10.96l.58,8.71c.14,2.05.27,4.09.41,6.14.07,1.07.14,2.13.21,3.2l.03.39c.01.22.77.07.75-.2-.04-.55-.07-1.11-.11-1.66-.11-1.59-.21-3.18-.32-4.77l-.5-7.5c-.22-3.3-.44-6.61-.66-9.91-.27-4.01-.54-8.03-.8-12.04-.31-4.6-.61-9.2-.92-13.8l-1.02-15.22-1.09-16.25c-.38-5.67-.76-11.33-1.14-17-.39-5.83-.78-11.65-1.17-17.48-.39-5.85-.78-11.7-1.17-17.56-.38-5.75-.77-11.49-1.15-17.24-.37-5.57-.74-11.14-1.12-16.71-.35-5.24-.7-10.49-1.05-15.73-.32-4.84-.65-9.69-.97-14.53-.29-4.31-.58-8.62-.86-12.93-.24-3.65-.49-7.31-.73-10.96-.19-2.9-.39-5.81-.58-8.71l-.41-6.14c-.07-1.07-.14-2.13-.21-3.2,0-.13-.02-.26-.03-.39-.01-.22-.77-.07-.75.2h0Z"/>
        <path class="cls-6" d="M684.22,462.23c.04.54.07,1.08.11,1.62l.32,4.59c.17,2.43.33,4.85.5,7.28.22,3.21.44,6.42.66,9.63.27,3.89.53,7.77.8,11.66.31,4.45.61,8.9.92,13.36.34,4.91.67,9.82,1.01,14.73.36,5.26.72,10.52,1.08,15.78.38,5.5.76,11.01,1.13,16.51.39,5.64.77,11.28,1.16,16.91.39,5.66.78,11.33,1.17,16.99.38,5.58.77,11.16,1.15,16.75s.74,10.78,1.11,16.18c.35,5.09.7,10.19,1.05,15.28.32,4.69.64,9.37.97,14.06.29,4.17.57,8.35.86,12.52.24,3.55.49,7.1.73,10.65.19,2.82.39,5.64.58,8.46.14,1.98.27,3.96.41,5.94l.21,3.1c0,.13.02.25.03.38.02.29.77.12.75-.2-.04-.54-.07-1.08-.11-1.62-.11-1.53-.21-3.06-.32-4.59-.17-2.43-.33-4.85-.5-7.28l-.66-9.63c-.27-3.89-.53-7.77-.8-11.66-.31-4.45-.61-8.9-.92-13.36-.34-4.91-.67-9.82-1.01-14.73l-1.08-15.78-1.13-16.51c-.39-5.64-.77-11.28-1.16-16.91-.39-5.66-.78-11.33-1.17-16.99-.38-5.58-.77-11.16-1.15-16.75-.37-5.39-.74-10.78-1.11-16.18-.35-5.09-.7-10.19-1.05-15.28-.32-4.69-.64-9.37-.97-14.06-.29-4.17-.57-8.35-.86-12.52-.24-3.55-.49-7.1-.73-10.65l-.58-8.46-.41-5.94-.21-3.1c0-.13-.02-.25-.03-.38-.02-.29-.77-.12-.75.2h0Z"/>
        <path class="cls-6" d="M680.3,459.72c.04.54.07,1.08.11,1.62l.31,4.67c.16,2.45.33,4.91.49,7.36.22,3.26.44,6.52.65,9.78.26,3.93.53,7.86.79,11.79.3,4.5.6,9,.9,13.51.33,4.97.66,9.93,1,14.9l1.07,16.02c.37,5.57.74,11.13,1.12,16.7.38,5.72.76,11.44,1.15,17.17.38,5.73.77,11.46,1.15,17.18.38,5.64.75,11.29,1.13,16.93s.73,10.91,1.09,16.36c.34,5.15.69,10.3,1.03,15.45.32,4.76.64,9.51.95,14.27.28,4.22.56,8.44.85,12.66.24,3.6.48,7.2.72,10.81.19,2.85.38,5.7.57,8.55.13,2,.27,4,.4,6.01.07,1.05.14,2.09.21,3.14,0,.13.02.26.03.39.01.16.77.03.75-.2-.04-.54-.07-1.08-.11-1.62l-.31-4.67c-.16-2.45-.33-4.91-.49-7.36l-.65-9.78c-.26-3.93-.53-7.86-.79-11.79-.3-4.5-.6-9-.9-13.51-.33-4.97-.66-9.93-1-14.9-.36-5.34-.71-10.68-1.07-16.02-.37-5.57-.74-11.13-1.12-16.7-.38-5.72-.76-11.44-1.15-17.17-.38-5.73-.77-11.46-1.15-17.18-.38-5.64-.75-11.29-1.13-16.93l-1.09-16.36c-.34-5.15-.69-10.3-1.03-15.45-.32-4.76-.64-9.51-.95-14.27l-.85-12.66c-.24-3.6-.48-7.2-.72-10.81-.19-2.85-.38-5.7-.57-8.55-.13-2-.27-4-.4-6.01-.07-1.05-.14-2.09-.21-3.14,0-.13-.02-.26-.03-.39-.01-.16-.77-.03-.75.2h0Z"/>
        <path class="cls-4" d="M568.21,540.62c-.24,2.45,2.25,3.87,4.43,3.87,2.91,0,5.09-2.2,7.2-3.9,1.51-1.23,3.38-2.42,5.35-1.53,1.19.54,2.15,1.48,3.25,2.16,2.01,1.24,4.26,1.06,6.08-.45.84-.7,1.51-1.58,2.29-2.35,1.31-1.29,2.53-1.41,4.18-.61,2.33,1.12,4.32,2.81,7.06,2.66s5.07-1.77,7.49-2.93c1.48-.71,2.92-1.14,4.58-.94s3.3.76,4.99.95c1.56.18,3.11-.02,4.53-.71s2.66-1.89,4.14-2.59c1.69-.79,3.07.09,4.47,1.02,1.27.84,2.47,1.58,4.01,1.72.77.07,1.94-1.03.69-1.14-2.61-.24-4.27-2.93-6.97-3.09s-4.54,1.76-6.7,2.99c-3.06,1.75-6.48-.41-9.72-.36-2.68.04-4.99,1.4-7.31,2.59-1.14.59-2.35,1.21-3.65,1.33-1.58.14-2.97-.64-4.29-1.41-2.09-1.21-4.3-2.44-6.75-1.44-2.1.86-3,2.98-4.83,4.13-2.11,1.33-4.68-1.98-6.55-2.68-3.14-1.18-6.14.85-8.44,2.79-1.28,1.08-2.92,2.72-4.73,2.64-1.54-.07-3.11-1.29-2.95-2.93.08-.81-1.79-.49-1.86.2h0Z"/>
        <path class="cls-4" d="M564.9,509.42c-.24,2.45,2.19,3.99,4.4,4.05,3.03.08,5.23-2.31,7.43-4.04,1.43-1.12,3.22-2.2,5.07-1.49,1.25.48,2.23,1.5,3.36,2.19,2.06,1.27,4.3,1.18,6.14-.45.82-.73,1.49-1.61,2.28-2.37,1.22-1.16,2.44-1.33,3.99-.64,2.42,1.08,4.4,2.9,7.21,2.78s5.09-1.78,7.49-2.93c1.48-.7,2.93-1.13,4.58-.96s3.3.76,4.99.95c1.57.18,3.1,0,4.53-.69s2.66-1.91,4.14-2.59c3.08-1.41,5.48,2.45,8.47,2.72.95.09,1.87-1.29.62-1.41-2.62-.24-4.29-2.87-6.97-3.09s-4.59,1.84-6.8,3.04c-3,1.63-6.3-.37-9.44-.41-2.76-.04-5.12,1.36-7.49,2.59-1.15.59-2.35,1.2-3.65,1.33-1.57.16-2.95-.57-4.27-1.34-2.08-1.21-4.32-2.52-6.77-1.51-2.09.87-2.98,3.07-4.86,4.16-2.19,1.27-4.61-1.92-6.51-2.67-3.22-1.28-6.23.9-8.58,2.89-1.25,1.05-2.78,2.5-4.52,2.51-1.51.01-3.14-1.12-2.98-2.75.1-.99-1.79-.76-1.88.12h0Z"/>
        <path class="cls-4" d="M572.39,566.59c1.43,2.62,4.17,4.17,7.11,4.4,3.1.25,5.81-.92,8.05-3,.66-.61,1.28-1.27,2.02-1.79,1.18-.83,2.34-.64,3.63-.2,1.68.58,3.27,1.37,5.09,1.22,1.41-.12,2.72-.73,3.89-1.5s2.57-2.35,4.06-2.56c1.18-.17,2.29.76,3.3,1.23s2.04.68,3.14.69c2.28.02,4.5-.75,6.61-1.54,1.23-.46.08-.79-.66-.51-2.2.82-4.64,1.73-6.96.86-1.53-.57-2.73-1.64-4.45-1.57-2.81.12-4.63,2.23-6.9,3.55-1.78,1.04-3.49.14-5.24-.51-1.46-.54-2.93-.83-4.47-.45-3.14.78-4.58,4.08-7.55,5.02-3.31,1.04-7.21-.9-8.81-3.85-.27-.5-2.04.15-1.85.5h0Z"/>
        <g class="cls-43">
          <path class="cls-42" d="M531.38,488.91s-53.19-14.33-138.91.58l-.74,206.07,64.75-10.36c14.84-3.3,42.14-4.91,57.36-5.04l33.37-2.39-15.82-188.86Z"/>
          <path class="cls-20" d="M375.7,719.65l-4.07-65.82c18.38-6.39,62.97-18.12,98.23-20.33,40.46-2.54,75.54.82,102.76,8.27l4.43,52.75-201.35,25.13Z"/>
          <path class="cls-21" d="M441.47,659.68c.31,4.5,16.6,7.04,36.38,5.66,19.78-1.38,35.56-6.15,35.24-10.65-.31-4.5-16.6-7.04-36.38-5.66-19.78,1.38-35.56,6.15-35.24,10.65Z"/>
          <path class="cls-40" d="M503.89,639.66c-1.53,4.64-.28,10.89-4.58,14.22-2.24,1.74-4.86,2.95-7.57,3.53-1.86.4-5.52.11-7.3-.88-3.34-1.86-3.42-10.38-3.65-13.76-.33-4.96.81-12.36,5.4-15.22,3.49-2.18,7.37-1.44,11.23-2.06,2.65-.43,8.33-6.5,8.75-2.69.57,5.13-1.12,13.36-2.28,16.86Z"/>
          <path class="cls-40" d="M446.83,643.65c2.16,4.39,1.79,10.75,6.51,13.45,2.46,1.41,5.23,2.24,7.98,2.44,1.9.14,5.49-.66,7.11-1.88,3.05-2.3,1.95-10.75,1.7-14.14-.36-4.96-2.52-12.12-7.46-14.32-3.76-1.67-7.5-.41-11.41-.49-2.68-.05-9.15-5.29-9.04-1.45.15,5.16,2.97,13.07,4.6,16.38Z"/>
          <path class="cls-40" d="M491.97,588.3c-8.52-6.16-29.9-4.89-38.59,2.04-9.55,7.62-15.24,38.43-8.06,47.41,7.4,9.26,55.05,6.67,59.42-4.16,4.8-11.93-3.01-38.23-12.77-45.29Z"/>
          <path class="cls-40" d="M494.41,606.99c16.67-1.14,31.05-14.24,35.06-30.19,1.7-6.74-10.6-10.48-13.4-2.47-4.12,11.82-10.71,14.4-22.35,15.19-6.93.47-6.24,17.94.68,17.47h0Z"/>
          <path class="cls-40" d="M456.95,605.23c-15.24,6.85-34.09,2.07-45.14-10.11-4.67-5.15,3.97-14.55,10.21-8.8,9.21,8.48,16.67,7.97,27.31,3.18,6.34-2.85,13.95,12.88,7.63,15.73h0Z"/>
          <path class="cls-15" d="M484.97,587.09c-5.69-4.96-19.8-4.15-25.48,1.26-6.24,5.95-9.71,30.3-4.89,37.47,4.98,7.4,36.44,5.79,39.22-2.75,3.06-9.4-2.34-30.31-8.86-35.99Z"/>
          <g>
            <path class="cls-40" d="M487.04,530.53c.34,4.84,7.97,10.97,12.81,10.63,4.84-.34,9.81-7.92,9.47-12.76s-4.55-9-9.39-8.67c-4.84.34-13.23,5.96-12.9,10.79Z"/>
            <path class="cls-15" d="M487.64,533.74c.24,3.49,5.75,7.91,9.24,7.67s6.24-7.09,6-10.57c-.24-3.49-.88-4.45-4.37-4.2-3.49.24-11.11,3.62-10.87,7.11Z"/>
          </g>
          <g>
            <path class="cls-40" d="M450.66,533.06c.34,4.84-6.37,11.97-11.21,12.31-4.84.34-10.85-6.34-11.19-11.18-.34-4.84,3.29-10.13,8.12-10.47,4.84-.34,13.94,4.51,14.27,9.35Z"/>
            <path class="cls-15" d="M450.52,536.31c.24,3.49-4.6,8.63-8.08,8.87s-7.17-6.15-7.41-9.64c-.24-3.49.26-4.53,3.75-4.77,3.49-.24,11.51,2.04,11.75,5.53Z"/>
          </g>
          <path class="cls-40" d="M492.86,528.33c-10.32-6.96-36.29-5.39-46.88,2.53-11.64,8.72-18.72,43.8-10.04,53.98,8.94,10.49,66.83,7.29,72.19-5.06,5.89-13.59-3.45-43.47-15.27-51.45Z"/>
          <g>
            <path class="cls-15" d="M456.9,575.51c.52,7.47,7.19,8.43,15.29,7.86,8.1-.57,14.57-2.44,14.05-9.91-.52-7.47-7.74-16.29-15.84-15.73-8.1.57-14.03,10.31-13.5,17.78Z"/>
            <path class="cls-40" d="M470.22,554.98c-2.55.18-5.48,8.91-4.87,9.48.65.62,9.69-.06,11.88-.67,0,0-4.49-8.99-7.02-8.81Z"/>
            <path class="cls-25" d="M482.05,555.98c.23,3.24,2.41,5.73,4.87,5.56,2.46-.17,4.28-2.94,4.05-6.18-.23-3.24-2.41-5.73-4.87-5.56-2.46.17-4.28,2.94-4.05,6.18Z"/>
            <path d="M486.42,554.39c1.97-.14,3.69.55,4.44,2.84-.43,2.37-1.98,4.16-3.95,4.3s-3.75-1.43-4.51-3.71c.43-2.37,2.04-3.29,4.01-3.43Z"/>
            <path d="M476.78,565.03c1.13-1.42.22-2.45-2.02-2.29l-7.31.51c-2.24.16-3,1.3-1.68,2.55,0,0,4.82,4.23,5.7,4.17.92-.07,5.31-4.94,5.31-4.94Z"/>
            <path class="cls-23" d="M485.64,547.73s.06-.02.09-.04c.13-.05-.23.07-.07.03.05-.02.1-.03.15-.05.12-.04.25-.07.38-.09.15-.03-.09.02-.06.01.04,0,.08-.01.11-.02.09-.01.18-.03.28-.04.04,0,.08,0,.13-.01.02,0,.04,0,.06,0,.12-.01-.07,0-.07,0,.04-.03.24,0,.29,0,.09,0,.19.02.28.02.08,0-.12-.02-.04,0,.02,0,.04,0,.06,0,.06.01.11.02.16.03.1.02.19.05.29.08s0,0-.01,0c.03.01.06.02.08.03.06.02.11.05.16.07.1.05.19.1.28.16.13.08.14.09.23.17.51.43.83,1,1.05,1.62.11.31.59.27.84.2.2-.06.74-.28.63-.59-.43-1.2-1.23-2.16-2.48-2.52-.88-.26-1.86-.18-2.74.05-.23.06-.45.13-.67.22s-.6.37-.38.62.72.14.97.04h0Z"/>
          </g>
          <path class="cls-25" d="M449.18,558.27c.23,3.24,2.41,5.73,4.87,5.56s4.28-2.94,4.05-6.18c-.23-3.24-2.41-5.73-4.87-5.56s-4.28,2.94-4.05,6.18Z"/>
          <path d="M453.55,556.69c1.97-.14,3.69.55,4.44,2.84-.43,2.37-1.98,4.16-3.95,4.3-1.97.14-3.75-1.43-4.51-3.71.43-2.37,2.04-3.29,4.01-3.43Z"/>
          <path class="cls-23" d="M454.5,549.75c-.53-.14-1.1-.15-1.65-.12-1.15.07-2.44.47-3.24,1.33-.51.55-.8,1.23-.95,1.96-.05.23.46.13.58.11.19-.04.38-.09.56-.17.08-.04.28-.11.3-.21.12-.59.33-1.16.69-1.65.14-.18.29-.34.47-.48.04-.03.09-.07.13-.1.06-.04-.06.04,0,0,.02-.01.04-.03.07-.04.04-.02.08-.04.12-.07.09-.05-.02.01-.04.02.03-.02.07-.03.1-.05.02-.01.05-.02.07-.03.06-.03.06.01-.06.02.04,0,.1-.03.14-.05.12-.04-.2.05-.02,0,.02,0,.05-.01.07-.02.12-.04-.16.03-.07.02.04,0,.08-.02.12-.02.02,0,.05,0,.07-.01.11-.02-.07.01-.08.01.07.02.22-.02.3-.03.1,0-.15,0,0,0,.04,0,.08,0,.12,0,.08,0,.16,0,.24,0,.04,0,.07,0,.11,0,.07,0-.11-.01,0,0,.07,0,.14.01.21.02.14.02.29.04.43.08.31.08.74-.07,1.02-.2.13-.06.5-.26.19-.34h0Z"/>
          <path class="cls-15" d="M482.22,580.4c-1.48,1.97-2.97,3.95-4.45,5.92l-.45-1.85c-1.52,1.45-3.16,2.78-4.89,3.96.05-.89-.15-1.8-.56-2.59-.24.62-.55,1.21-.93,1.76-.12.17-.29.36-.5.35-.17-.01-.3-.15-.41-.28-.64-.75-1.28-1.51-1.92-2.26.18.66.15,1.65-.53,1.69-.41.03-.71-.35-.95-.68-.87-1.2-1.97-2.22-3.23-3.01-.31-.2-.67-.43-.7-.8-.06-.65.85-.85,1.5-.85,2.45.02,4.9-.42,7.18-1.3"/>
          <path class="cls-15" d="M493.89,622.98c-.82,2.88-2.59,5.49-4.95,7.33l.25-1.16c-1.43.97-2.86,1.94-4.3,2.91.12-.6.23-1.2.35-1.8-2.06,1.48-4.25,2.77-6.54,3.85.11-.74-.05-1.8-.79-1.77-.21,0-.4.12-.58.23-.45.28-.9.55-1.36.83-.37.23-.77.46-1.21.45-.39-.01-.74-.22-1.07-.43-1.06-.65-2.11-1.31-3.17-1.96.01.65.02,1.3.03,1.94-1.87-.44-3.69-1.08-5.43-1.9.02.56.03,1.12.05,1.68-1.68-.66-3.26-1.56-4.69-2.66.01.79.02,1.58.03,2.37-2.17-1.83-4.03-4.01-5.49-6.44-.63-1.04-1.17-2.43-.46-3.41.58-.8,1.7-.93,2.68-.95,2.35-.07,4.7.02,7.03.26"/>
          <path class="cls-40" d="M484.73,657.86c4.92,1.02,8.73-.17,13.48-1.78.46-.16.94-.34,1.3-.67,1.08-1,.64-2.93-.49-3.86-1.14-.94-2.69-1.15-4.15-1.32-2.4-.29-4.86-.57-7.2.04-2.34.61-4.55,2.34-4.99,4.71,0,0-1.18,2.22,2.05,2.89Z"/>
          <path class="cls-40" d="M454.93,660.42c4.92,1.02,8.73-.17,13.48-1.78.46-.16.94-.34,1.3-.67,1.08-1,.64-2.93-.49-3.86s-2.69-1.15-4.15-1.32c-2.4-.29-4.86-.57-7.2.04-2.34.61-4.55,2.34-4.99,4.71,0,0-1.18,2.22,2.05,2.89Z"/>
          <polygon class="cls-25" points="484.19 554.01 486 557.61 482.62 555.11 484.19 554.01"/>
          <polygon class="cls-25" points="451.45 556.73 453.27 560.34 449.89 557.84 451.45 556.73"/>
          <path class="cls-46" d="M477.53,574.78s-.65,5.14-5.54,5.64c-4.9.5-6.6-4.49-6.6-4.49,0,0,5.58-.35,6.05-2.23,0,0,1.99,1.85,6.09,1.08Z"/>
          <path d="M470.92,573.89c1.96,1.7,4.93,2.02,7.1.55,1.16-.79,1.96-1.98,2.58-3.21.1-.19-.38-.14-.45-.13-.2.03-.54.11-.64.31-.75,1.5-1.99,3.4-3.85,3.51-1.1.07-2.2-.39-3.11-.97-.21-.13-.41-.27-.6-.44-.23-.2-1.23.21-1.03.39h0Z"/>
          <path d="M461.49,572.81c1.14,1.43,2.6,2.79,4.43,3.22,1.25.29,2.54.12,3.7-.44.77-.37,1.48-.89,2.07-1.51.15-.16.29-.29.3-.52.01-.32-.05-.65-.07-.97-.07-1.07-.15-2.13-.22-3.2-.03-.47-1.13-.21-1.1.29.1,1.39.19,2.78.29,4.17l.09-.29c-.59.73-1.43,1.33-2.36,1.64-2.48.83-4.68-1.05-6.13-2.86-.29-.37-1.34.05-1.01.47h0Z"/>
          <path class="cls-1" d="M531.89,457.07s-58.06-16.88-151.43-.11l18.95,236.68,47.02-7.48c21.55-2.67,46.48-5.12,67.42-7.88l36.36-2.58-18.32-218.63Z"/>
        </g>
      </g>
      <path class="cls-3" d="M232.6,375.09c18.63-34.42,52.63-29.08,74.53-9.61,11.08,9.86,4.7,38.19,4.7,38.19-6.44,53.48-48.59,163.45-58.75,189.41-5.38-.55-10.83-.49-16.21.05-18.81,1.91-30.24,18.39-45.47,28.8-7.56,5.16-11.71,14.39-17.47,21.46-12.43-10.15-9.81-31.5-7.65-41.13,3.79-16.95,9.75-43.61,11.48-51.36,0,0,36.21-141.4,54.84-175.81Z"/>
      <path class="cls-22" d="M332.08,312.75s-65.33-4.83-91.94,25.09c-26.61,29.92-57.69,129.33-57.69,129.33,0,0,71.86,31.58,113.21,32.69,41.36,1.11,36.42-187.12,36.42-187.12Z"/>
      <path class="cls-24" d="M285.26,338.45c10.07,2.54,18.56,10.63,24.31,18.97,2.8,4.07,5.06,8.5,6.25,13.31,1.55,6.27,2.68,12.65,3.36,19.08,1.25,11.83.81,23.76-.93,35.52-1.71,11.57-4.61,22.92-7.8,34.16-3.94,13.83-8.27,27.55-11.98,41.45l1.69-.91c-3.45-.35-6.89-.69-10.34-1.04-1.05-.11-2.56,1.39-.91,1.56,3.45.35,6.89.69,10.34,1.04.59.06,1.51-.26,1.69-.91,6.45-24.15,15.21-47.86,19.31-72.59,1.94-11.71,2.65-23.61,1.72-35.46-.51-6.49-1.5-12.94-2.91-19.29-1.15-5.19-2.81-9.91-5.59-14.46-3.16-5.17-7.2-9.86-11.84-13.75-4.35-3.66-9.33-6.75-14.88-8.15-.54-.14-1.35.01-1.73.46-.33.39-.29.86.27,1h0Z"/>
      <path class="cls-3" d="M164.71,622.83c-.11-17.48,18.63-13.63,31.55-26.06,8.93-8.58,29.88-6,42.05-10.09.23,2.36,9.54,3.65,9.54,3.65l180.14,83.92s3.75,37.73,3.75,37.73c-1.32,1.54-18.19-1.54-20.79-1.78-7.17-.66-14.34-1.37-21.49-2.14-14.22-1.53-28.4-3.29-42.55-5.33-28.15-4.06-56.13-9.25-83.73-15.92-24-5.8-32.94-9.09-55.68-18.46-17.43-7.18-42.68-27.82-42.78-45.52Z"/>
      <rect class="cls-3" x="693.59" y="520.76" width="15.78" height="29.94" rx="7.89" ry="7.89" transform="translate(1047.81 -276.14) rotate(75.73)"/>
      <rect class="cls-3" x="692.66" y="505.45" width="15.78" height="31.38" rx="7.89" ry="7.89" transform="translate(1327.8 -86.25) rotate(99.28)"/>
      <rect class="cls-3" x="696.52" y="540.05" width="15.78" height="23.61" rx="7.54" ry="7.54" transform="translate(1124.41 -238.29) rotate(79.92)"/>
      <rect class="cls-3" x="693.62" y="492.23" width="15.78" height="26.84" rx="7.89" ry="7.89" transform="translate(1313.62 -105.18) rotate(99.28)"/>
      <path class="cls-44" d="M256.27,592.13c-4.62-.17-9.36.49-13.86,1.45-9.04,1.93-17.89,5.87-24.5,12.45-4.57,4.54-7.79,10.17-9.69,16.31-.27.88,2.05.58,2.31-.26,3.1-10.04,10.01-18.12,19.39-22.83,6.55-3.28,13.83-5.03,21.11-5.58,1.64-.12,2.74-.2,4.36-.14.46.02,1.32-.16,1.51-.65s-.17-.74-.64-.75h0Z"/>
      <path class="cls-9" d="M241.04,886.45c-30.68-.6-61.36-.89-92.04-.95-29.22-.05-58.45.1-87.67.34-28.63.23-57.25.55-85.88.8-29.04.25-58.07.44-87.11.44-30.38,0-60.76-.23-91.13-.75-3.81-.07-7.63-.14-11.44-.21-.57-.01-1.53.18-1.8.77s.22.88.76.89c30.68.6,61.36.89,92.04.95,29.22.05,58.45-.1,87.67-.34,28.63-.23,57.25-.55,85.88-.8,29.04-.25,58.07-.44,87.11-.44,30.38,0,60.76.23,91.13.75,3.81.07,7.63.14,11.44.21.57.01,1.53-.18,1.8-.77s-.22-.88-.76-.89h0Z"/>
      <path class="cls-9" d="M596.24,877.75h235.93c.61,0,1.45-.11,1.94-.52.34-.29.45-.62-.17-.62h-137.1c-14.88,0-29.75,0-44.63,0h-54.21c-.61,0-1.45.11-1.94.52-.34.29-.45.62.17.62h0Z"/>
      <path class="cls-3" d="M389.99,700.56l20.94,5.8s32.87,34.57,45.35,40.53c9.21,3.95,19.04,6.53,29.22,7.67l8.7,8.09c4.01,3.73,9.3,5.82,15,5.92l4.38.08s7.93,13.31,12.49,10.71c4.56-2.6,2.98-8.49,1.44-14.21-1.54-5.72-58.05-79.57-58.05-79.57,8.57.65,20.57,8.72,28.77,10.85,12.57,3.36,18.98-.09,16.33-6.66-1.64-4.05-9.95-10.44-17.69-10.51-7.7-.07-33.37-21.58-46.68-23.13-13.31-1.55-29.34,9.32-29.34,9.32-7.23.1-17.17-1.97-17.17-1.97-9.78,9.72-13.69,37.07-13.69,37.07Z"/>
      <path class="cls-44" d="M513.35,767.64c-3.41-4.65-7.53-8.83-11.45-13.04-4.87-5.24-9.81-10.43-14.53-15.82-1.86-2.13-3.74-4.29-5.33-6.64-.29-.42-2.05.15-1.7.67,3.22,4.76,7.36,8.98,11.25,13.19,4.85,5.27,9.8,10.45,14.58,15.78,1.89,2.11,3.8,4.24,5.48,6.53.31.42,2.06-.17,1.7-.67h0Z"/>
      <path class="cls-44" d="M484.81,752.85c-6.92-6.4-13.84-12.8-20.76-19.2-.97-.9-1.95-1.8-2.92-2.7-.4-.37-2.08.31-1.7.66,6.92,6.4,13.84,12.8,20.76,19.2.97.9,1.95,1.8,2.92,2.7.4.37,2.08-.31,1.7-.66h0Z"/>
      <path d="M1076.6,429.24c.02-.18,1.75,0,1.78-.18,11.05,0,19.13,1.57,21.95,2.71,2.15.87,4.14,2.14,5.95,3.68,0,0,5.03,4.16,5.47,5.48.44,1.32-3.32-1.34-3.32-1.34-.84-.44-1.38-.87-2.26-1.2-4.83-1.83-9.32-4.23-14.47-4.72-4.41-.44-11.78.56-16.23,1.14.28-1.93,1.01-3.62,1.12-5.56Z"/>
      <path d="M1050.96,423.18c-8.14-4.4-14.71-6.2-17.24-6.29-1.72-.06-3.48.24-5.22.78-.1.2-.23.4-.31.61,0,.01,0,.02-.01.03,0,.02-.01.04-.02.06-.03.11-.06.21-.09.32-.05.2-.09.4-.11.6-.01.1-.02.2-.03.3,0,.04,0,.08,0,.12,0,.22,0,.43,0,.65,0,.09.01.17.01.26,3.9.16,7.76-.04,11.4,1.43,3.42,1.36,7.67,4.83,10.72,7.13.55-1.87.68-3.69,1.35-5.5.05-.17-.5-.33-.45-.5Z"/>
      <path class="cls-25" d="M1106.54,450.77s-11.24,3.61-19.68,2.66c-8.44-.95-14-4.28-14-4.28,0,0,8.33-8.09,16.91-6.65,8.58,1.43,16.77,8.27,16.77,8.27Z"/>
      <path d="M1081.23,443.96c.92-.54,1.9-.04,2.94-.25,1.08-.22,2.2-.22,3.3-.17.03,0,.06-.01.09-.01,1.17,1.05,1.85,2.62,1.68,4.3-.28,2.8-2.77,4.84-5.56,4.55-2.79-.28-4.82-2.78-4.54-5.58.02-.24.22-1.48.27-1.71.66-.4,1.15-.74,1.81-1.12Z"/>
      <path d="M1072.87,449.15s8.88-9.04,17.39-7.29c11.98,2.47,12.12,4.71,16.28,8.91,0,0-7.49-5.21-16.79-6.89-8.44-1.53-16.88,5.27-16.88,5.27Z"/>
      <path class="cls-25" d="M1047.22,443.48s-18.62-3.52-21.47-8c0,0-.24-4.26,1.15-5.66,2.4-2.42,9.11-.98,11.58.65,2.48,1.63,8.43,7.61,8.74,13.02Z"/>
      <path d="M1027.7,429.56c.08,0,.19-.12.28-.16,2.62-.94,5.29-.14,7.95.78.18.06.37.08.54.06.07.02.14.05.21.07.13.05.26.09.4.14.4,1.06.47,2.26.07,3.42-.91,2.66-3.79,4.09-6.44,3.18-2.65-.91-4.09-4.17-3.19-6.84.02-.05.16-.61.18-.66Z"/>
      <path d="M1030.4,428.22c2.72-.49,5.39-.78,9.56,1.5,6.68,3.65,7.25,13.77,7.25,13.77,0,0-1.99-8.2-8.5-11.97-3.14-1.82-8.99-1.93-12.05-1.67.35-.66,2.08-1.24,3.74-1.62Z"/>
      <path class="cls-25" d="M463.68,203.96s6.92,12.75,16.8,17.81c9.88,5.07,19.97,5.29,19.97,5.29,0,0-9.58-13.54-15.78-16.8-6.2-3.26-16.27-7.6-20.98-6.31Z"/>
      <path class="cls-25" d="M562.89,249.36s-7.19,5.71-15.58,2.37c-8.38-3.34-16.79-10.44-16.79-10.44,0,0,12.06-4.09,17.37-2.04,5.31,2.05,13.34,6.01,15,10.11Z"/>
      <path d="M500.44,227.08s-4.95-13.01-15.93-19.07c-8.36-4.62-15.78-5.46-22.34-4.46,0,0,14.68,3.51,20.53,6.85,5.59,3.19,17.74,16.69,17.74,16.69Z"/>
      <path d="M462.87,204.25s-4.13-.6-3.83-5.95c0,0,5.03,5.98,13.4,7.4l-9.57-1.45Z"/>
      <path d="M554.87,253.18c-3.22-.2-6.58-.79-9.38-2.49-.32-1.74.06-3.6.9-4.93.25-.4,1.38-2.05,3.37-2.41,2.47-.43,4.91,1.45,5.9,3.23.23.42.57,1.56.52,3.18-.03,1.27-.56,2.46-1.32,3.41Z"/>
      <path d="M530.52,241.29s7.65-4.73,13.17-3.95c11.26,1.6,18.21,6.25,19.69,11.23,0,0-9.39-7.21-19.07-8.48-5.44-.71-13.79,1.19-13.79,1.19Z"/>
      <path d="M562.68,248.86s3.02,2.88,7.05-.65c0,0-4.02,2.17-10.29-3.54l3.25,4.2Z"/>
      <path d="M487.7,224.71c-3.63-.61-7.78-1.52-10.3-4.28-.04-2.03.72-4.14,2.56-5.46,2.08-1.49,5.11-1.7,7.26-.08,1.61,1.22,2.9,3.47,2.67,5.71-.18,1.75-1.04,2.93-1.37,3.35-.21.27-.5.52-.82.76Z"/>
      <path d="M794.58,523.23s-15.9-15.74-26.45-31.61c0,0,12.31,11.45,26.45,31.61Z"/>
      <path d="M786.81,534.27s-29.39-6.83-49.57-17.51c0,0,22.44,6.53,49.57,17.51Z"/>
      <path d="M785.3,549.83s-24.53,4.15-43.35,2.45c0,0,19.17-2.17,43.35-2.45Z"/>
      <path d="M822.32,519.26s8.5-24.24,15.95-37.5c0,0-5.15,17.68-15.95,37.5Z"/>
      <path d="M833.27,527.17s20.83-20.2,35.01-29.8c0,0-14.15,15.28-35.01,29.8Z"/>
      <path d="M807.99,517.68s-8.19-29.44-8.4-51.9c0,0,5.56,21.52,8.4,51.9Z"/>
      <path class="cls-19" d="M982.06,678.76s-38.04-19.47-43.02-28.73c-3.32-6.18-3.67-16.22-6.62-22.59l-46.04-30.09c-3.92-3.17-21.77-16.75-22.47-15.05h0c-2.26,7.43-11.13,16.57-17.86,20.61l-1.79.87c-1.26,2.05,14.96,19.28,18.13,22.61,13.54,14.23,44.52,49.11,52.21,56.69,9.02,8.89,26.15,27.64,47.32,19.77,17.39-3.24,20.13-24.09,20.13-24.09Z"/>
      <path class="cls-41" d="M975.96,640.58c1.23-8.07,1.49-16.34,1.99-24.47.64-10.42,1.18-20.85,1.8-31.27.22-3.7.41-7.4.77-11.09.08-.79-2-.4-2.06.27-.76,7.94-1.05,15.94-1.5,23.91-.59,10.48-1.15,20.96-1.94,31.42-.29,3.83-.54,7.69-1.12,11.5-.12.77,1.96.4,2.06-.27h0Z"/>
      <path class="cls-19" d="M1143.9,562.06c10.74,11.46,16.27,43.32,7.52,55.08-30.56,41.46-87.86,96.62-114.85,102.29-33.08,6.95-166.02-88.66-166.02-88.66l24.28-19.57,127.7,51.2s89.03-88.7,97.72-91.85"/>
      <path class="cls-44" d="M1015.76,660.68c8.68,2.54,14.42,11.84,13.56,20.71-.12,1.21,2.77.7,2.87-.33.94-9.67-5.33-19.26-14.7-22.01-.63-.19-1.57.07-2.03.54s-.31.91.29,1.09h0Z"/>
      <path class="cls-19" d="M880.48,636.98l-27.34-2.75c-4.63-1.95-8.82-4.86-12.29-8.55l-11.02-11.7c-6.02-4.25-11.79-8.84-17.3-13.75-1.98-2.66-.55-3.9.62-4.76,1.17-.86,16.05,6.86,16.05,6.86,0,0-18.82-12.92-20.33-16.92-1.51-4,1.43-5.76,3.51-6.39s30.72,22.24,30.72,22.24l-10.31-11.86s-18.04-9.9-20.59-14.61c-2.55-4.7,2.71-8.09,2.71-8.09l21.39,13.19,14.51,9.85-13.25-12.34s-15.44-9.41-16.75-14.17c-1.31-4.76,4.67-5.58,4.67-5.58l22.9,12.63,21.77,18.35c-1.44-3.51-2.39-7.22-2.82-11-.46-5.49,2.1-3.26,2.1-3.26l18.44,17.53,7.68,27.12-15.06,17.97Z"/>
      <path class="cls-19" d="M800.79,576.94l15.65,8.92-9.59-.3c-3.8-1.57-7.78-2.66-11.85-3.23-2.6.38-2.82,4.3-2.82,4.3l29.79,11.42,13.9,7.68c5.36,2.96,11.86,2.79,17.07-.44l20.85-12.97-3.6-16.41-2.11-17.46-2.65-9.29-7.96-12.04s-4.8.43-3.28,6.8c1.52,6.37,2.7,10.06,2.7,10.06l-.22,10.2-4.4,1.19-26.74-13.42-7.03-7.3s-3.8-10.31-11.05-11.76c-.27-.05-.56-.01-.81.1-.75.32-1.1,1.2-.79,1.97l7.65,18.18,8.09,7.2-10.66-5.25s-9.55-12.53-15.12-14.5-4.38,2.27-4.38,2.27l9.99,18.12,13.81,10.82-11-5-12.47-9.48s-4.01-2.78-5.94.14c-.73,1.06-.7,2.48.08,3.5l14.88,15.97Z"/>
      <path class="cls-44" d="M813.43,598.78c-.46-.65-.95-1.45-.84-2.28.08-.62.46-.85.82-1.29.7-.85-1.15.45-1,.18-.06.12-.26-.11-.02.02s.35.08.65.18c1.62.53,3.2,1.24,4.75,1.93,3.9,1.75,7.74,3.64,11.56,5.56.92.46,1.84.93,2.76,1.4.66.34,3.19-.73,2.49-1.19-3.59-2.32-7.13-4.71-10.64-7.16-2.75-1.92-5.48-3.88-8.13-5.95-1.88-1.47-3.93-2.98-5.42-4.87-.85-1.08-1.15-2.74-.59-4.01.3-.69.86-1.22,1.52-1.58.08-.05.78-.29.8-.34-.06.14-.76.04-.88.08.14-.05.05.07-.05-.02.39.35,1.25.57,1.72.84.86.5,1.69,1.05,2.51,1.6,5.11,3.42,10.02,7.16,14.91,10.88,3.49,2.66,6.96,5.34,10.41,8.05.62.49,3.38-.28,2.67-1.08-1.85-2.1-3.7-4.2-5.55-6.3-1.15-1.3-2.3-2.61-3.44-3.91-.44-.5-.83-1.06-1.39-1.43-2.36-1.55-4.96-2.79-7.38-4.26-3.63-2.22-7.37-4.51-10.53-7.39-1.51-1.38-2.91-3.06-2.54-5.27.19-1.17.83-2.21,1.64-3.06.27-.29.57-.54.88-.79.11-.09.66-.46.21-.17l-2.21.19c9.19,5.59,18.44,11.05,27.37,17.03,2.61,1.75,5.23,3.5,7.84,5.25.65.44,3.42-.39,2.67-1.08-4.25-3.91-8.36-8.05-12.78-11.75-.5-.42-.43-.32-1.13-.76-1.32-.82-2.63-1.67-3.91-2.54-3.47-2.34-7.1-4.82-9.91-7.97-1.19-1.34-2.4-3.23-1.44-5.06.4-.76,1.13-1.23,1.92-1.53.18-.07.46-.15.78-.22.26-.06-.3.04.1-.01l-.93-.06c6.79,3.69,13.59,7.38,20.38,11.08l1.6.87c.17.09.66.43.32.17.78.6,1.52,1.26,2.27,1.89,3.62,3.01,7.23,6.02,10.85,9.03,2.73,2.27,5.47,4.55,8.2,6.82.5.42,3.13-.03,2.77-.92-1.4-3.44-2.48-7.16-2.77-10.88-.05-.67-.08-1.38.07-2.04.04-.16.15-.36.16-.52.03-.63-1.22.37-1.22.3,0,.09-.18-.18,0,.03.01.01.25.13.17.08-.05-.03.12.09.16.12.71.6,3.35-.5,2.67-1.08-1.33-1.12-3.88-.72-4.6.92-.76,1.73-.15,4.15.17,5.9.5,2.72,1.3,5.37,2.34,7.93l2.77-.92c-5.5-4.58-11-9.16-16.51-13.73-1.64-1.37-3.26-3.06-5.09-4.17-2.59-1.58-5.37-2.92-8.03-4.36-3.88-2.11-7.76-4.22-11.64-6.33-.86-.47-1.74-1.1-2.66-1.44-1.14-.44-2.9.3-3.93.76-2.08.93-3.83,2.61-3.45,5.06.28,1.86,1.81,3.38,3.11,4.63,3.48,3.34,7.59,6.08,11.65,8.67.52.33,1.05.66,1.58.99.14.09.3.17.44.27.13.09-.25-.19-.05,0,1.03.93,2.05,1.88,3.07,2.82l9.18,8.44c.22.2.44.41.66.61.89-.36,1.78-.72,2.67-1.08-4.71-3.15-9.37-6.39-14.14-9.46-4.76-3.07-9.7-5.9-14.54-8.84-2.18-1.33-4.36-2.65-6.54-3.98-.62-.38-1.62-.19-2.21.19-3.06,1.98-5.24,5.77-2.89,9.15.97,1.39,2.38,2.5,3.71,3.53,1.82,1.41,3.73,2.7,5.66,3.94,3.2,2.06,6.48,3.99,9.8,5.84.29.16.62.3.88.49.19.13-.19-.15-.08-.04.09.1.18.2.27.31.92,1.13,1.93,2.2,2.9,3.29,2.3,2.62,4.61,5.23,6.91,7.85.89-.36,1.78-.72,2.67-1.08-8.26-6.51-16.57-13.08-25.32-18.93-1.41-.95-2.96-2.16-4.61-2.67-1.26-.39-2.59.19-3.69.77-1.52.79-2.92,2.08-3.11,3.87-.3,2.75,1.69,4.48,3.56,6.11,2.48,2.16,5.13,4.12,7.8,6.04,4.53,3.27,9.17,6.42,13.86,9.45.83-.4,1.66-.79,2.49-1.19-3.07-1.58-6.16-3.11-9.27-4.6-2.27-1.09-4.56-2.17-6.88-3.16-1.42-.6-3.07-1.46-4.64-1.5-1.23-.03-2.28.62-3.09,1.51-1.31,1.43-.8,2.98.23,4.43.5.7,3.27-.23,2.67-1.08h0Z"/>
      <path class="cls-44" d="M968.14,693.75c-3.19-2.12-6.38-4.24-9.57-6.37-7.53-5.01-15.06-10.02-22.59-15.03-8.78-5.84-17.55-11.68-26.33-17.52-7.02-4.67-14.05-9.35-21.07-14.02-1.91-1.27-3.83-2.55-5.74-3.82-.38-.26-.76-.55-1.16-.77-1.05-.59-2.76-.29-3.93-.29h-2.6c-1.64,0-2.19,2.12-.25,2.12h5.46l-.98-.23c2.88,1.91,5.75,3.83,8.63,5.74,6.87,4.57,13.75,9.15,20.62,13.72,8.35,5.56,16.7,11.11,25.05,16.67,7.19,4.78,14.38,9.57,21.57,14.35,3.49,2.32,6.91,4.91,10.54,7.01.05.03.1.07.15.1,1.06.71,3.57-.76,2.21-1.67h0Z"/>
      <path class="cls-28" d="M1056.51,618.16l57.96,58.13s51.14-26.7,54-69.45c2.5-37.39-20.19-54.17-37.4-52.9-16.86,1.25-74.55,64.21-74.55,64.21Z"/>
      <path class="cls-44" d="M1016.86,659.91c-4.66-1.9-9.32-3.8-13.97-5.7-10.91-4.45-21.82-8.89-32.72-13.34-12.49-5.09-24.97-10.18-37.46-15.27-9.64-3.93-19.27-7.86-28.91-11.78-2.28-.93-4.57-1.86-6.85-2.79-.2-.08-.44-.14-.62-.25-.28-.17.02.13-.13-.13-.54-.94-.73-2.32-1.05-3.35-.5-1.58-.99-3.16-1.49-4.73-.24-.75-.47-1.5-.71-2.25-.2-.64-3.05.17-2.87.77.75,2.4,1.51,4.8,2.26,7.2l.61,1.95c.11.36.18.92.39,1.23.1.15.12.16.25.26.43.33,1.2.49,1.69.69l3.37,1.37c8.94,3.64,17.88,7.29,26.82,10.93,12.44,5.07,24.88,10.14,37.32,15.21,11.36,4.63,22.72,9.26,34.08,13.89,5.67,2.31,11.3,4.82,17.04,6.94.08.03.16.07.24.1.56.23,1.3.03,1.84-.17.11-.04,1.3-.62.86-.8h0Z"/>
      <path class="cls-41" d="M1144.66,568.54c-13.71-5.2-29.01-3.28-41.36,4.46-6.55,4.1-12.38,9.32-18.15,14.42-6.26,5.53-12.4,11.2-18.55,16.85-3.5,3.21-7.19,6.3-10.53,9.68-1.44,1.45-.68,2.52.41,3.91,1.48,1.89,2.96,3.78,4.44,5.66.4.52,2.39-.19,1.92-.79-1.18-1.51-2.37-3.02-3.55-4.53-.49-.62-1.03-1.24-1.48-1.89-.97-1.41-.18-2.03.9-3.02,2.81-2.58,5.62-5.16,8.43-7.74,5.68-5.21,11.34-10.45,17.09-15.58,10.46-9.35,21.45-20.01,35.77-22.61,7.7-1.39,15.69-.65,23.01,2.12.58.22,2.46-.65,1.65-.96h0Z"/>
      <path class="cls-41" d="M1107.09,668.76c1.7,1.71,3.39,3.43,5.09,5.14.79.8,1.58,1.6,2.37,2.4.58.58,1.06,1.08,1.92,1.1,1.94.04,3.39-1.58,4.76-2.72,1.84-1.53,3.69-3.07,5.53-4.6,7.44-6.19,14.88-12.38,22.32-18.57.83-.69-1.2-.48-1.6-.14-6.61,5.5-13.23,11-19.84,16.5-1.65,1.38-3.31,2.75-4.96,4.13-.76.63-1.53,1.27-2.29,1.9-.45.37-.89.74-1.34,1.11-.38.31-.89.94-1.34,1.11l-.32.25c-.22-.12-.41-.28-.58-.47-.35-.32-.68-.69-1.02-1.03l-2.37-2.4c-1.47-1.48-2.94-2.97-4.41-4.45-.41-.41-2.33.34-1.94.73h0Z"/>
    </g>
  </g>
</svg>