<?xml version="1.0" encoding="UTF-8"?>
<svg xmlns="http://www.w3.org/2000/svg" xmlns:xlink="http://www.w3.org/1999/xlink" viewBox="0 0 1334 1000">
  <defs>
    <style>
      .cls-1 {
        fill: #131429;
      }

      .cls-2 {
        fill: #040404;
      }

      .cls-3 {
        fill: #13110f;
      }

      .cls-4 {
        fill: #906143;
      }

      .cls-5 {
        fill: #f0ebe0;
      }

      .cls-6 {
        fill: #273339;
      }

      .cls-7 {
        fill: #010101;
      }

      .cls-8 {
        fill: #ddad6f;
      }

      .cls-9 {
        fill: #5f6161;
      }

      .cls-10 {
        fill: #231f20;
      }

      .cls-11 {
        fill: #715446;
      }

      .cls-12 {
        fill: #27153c;
      }

      .cls-13 {
        fill: #f1eef7;
      }

      .cls-14 {
        fill: #31160e;
      }

      .cls-15 {
        fill: #0a2f44;
      }

      .cls-16 {
        fill: #044d66;
      }

      .cls-17 {
        fill: #c79e81;
      }

      .cls-18 {
        fill: url(#linear-gradient);
        opacity: .5;
      }

      .cls-19 {
        fill: #b3b2ab;
      }

      .cls-20 {
        fill: #fff;
      }

      .cls-21 {
        fill: #5a697c;
      }

      .cls-22 {
        fill: #59341c;
      }

      .cls-23 {
        fill: #42221a;
      }

      .cls-24 {
        fill: #513835;
      }

      .cls-25 {
        fill: #1d170f;
      }

      .cls-26 {
        fill: #628e9f;
      }

      .cls-27 {
        fill: #bb997a;
      }

      .cls-28 {
        fill: #825639;
      }

      .cls-29 {
        fill: #517568;
      }

      .cls-30 {
        fill: #94664a;
      }

      .cls-31 {
        fill: #09658d;
      }

      .cls-32 {
        fill: #162916;
      }

      .cls-33 {
        fill: #343535;
      }

      .cls-34 {
        fill: #a38166;
      }

      .cls-35 {
        fill: #b7ac8a;
      }

      .cls-36 {
        fill: #4f2e25;
      }

      .cls-37 {
        fill: #706c62;
      }

      .cls-38 {
        fill: #301811;
      }
    </style>
    <linearGradient id="linear-gradient" x1="-5425.17" y1="7842.23" x2="-4574.29" y2="7842.23" gradientTransform="translate(-7148.04 5427.01) rotate(90) scale(1 -1)" gradientUnits="userSpaceOnUse">
      <stop offset="0" stop-color="#f0ebe0"/>
      <stop offset=".18" stop-color="#eee8dd" stop-opacity=".99"/>
      <stop offset=".33" stop-color="#e8e1d4" stop-opacity=".97"/>
      <stop offset=".46" stop-color="#ded4c5" stop-opacity=".93"/>
      <stop offset=".59" stop-color="#d0c2b0" stop-opacity=".88"/>
      <stop offset=".72" stop-color="#bdab95" stop-opacity=".82"/>
      <stop offset=".84" stop-color="#a78e73" stop-opacity=".73"/>
      <stop offset=".96" stop-color="#8d6d4d" stop-opacity=".64"/>
      <stop offset="1" stop-color="#83603d" stop-opacity=".6"/>
    </linearGradient>
  </defs>
  <g id="Layer_1" data-name="Layer 1">
    <polyline class="cls-5" points="-58.46 1037.94 -58.46 -71.84 1463.56 -71.84 1463.56 1037.94"/>
    <polyline class="cls-18" points="1446.83 849.91 -58.46 849.91 -58.46 -.97 1446.83 -.97"/>
    <polyline class="cls-11" points="-41.47 1094.89 1463.56 1094.89 1463.56 829.76 -41.47 829.76"/>
    <path class="cls-26" d="M418.86,295.77s69.92,38.75,86.6,55.97c21.33,22.03,25.01,96.41,31.9,121.41,7.64,27.71,25.62,117.97,25.62,117.97l-101.99,18.12-36.21-97.7-5.25-221.3-.67,5.52Z"/>
    <ellipse class="cls-19" cx="292.38" cy="357.76" rx="22.38" ry="15.69"/>
    <ellipse class="cls-19" cx="291.87" cy="530.39" rx="22.38" ry="15.69"/>
    <polygon class="cls-23" points="575.4 831.76 557.43 823.71 557.43 781.28 575.4 789.34 575.4 831.76"/>
    <path class="cls-17" d="M217.49,845.24c-2.79-8.69-12.1-18.42-18.89-23.13-6.79-4.71-15.76-1.59-18.15-.8-17.84,5.89-27.93,19.43-42.51,30.6-11.18,8.56-23.41,15.75-36.32,21.35-13.13,5.7-27.11,8-40.35,13.03-.09.04-.19.07-.28.11-6.57,2.5-12.05,7.22-15.54,13.32-1.27,2.23-2.57,4.42-3.95,6.47-1.92,2.85-3.93,4.92-2.46,8.59,2.7,6.76,13.89-.53,17.19-1.62.61-.2,1.26-.24,1.89-.13,2.53.44,10.04,1.32,22.97-.4,1.25-.17,2.47-.25,3.66-.27.02.08-.02-.08,0,0,6.83-.52,43.89.21,49.39.13,10.85-.17,38.08-3.36,38.08-3.36,0,0,44.39-2.5,57.99,7.48l21.28-51.04s-31.19-11.64-33.99-20.32Z"/>
    <path class="cls-15" d="M290.52,648.59l-41.33,147.05,52.98,9.4-4.81,98.52s271.33.54,287.13-20.19c28.2-37,27.88-58.81,12.65-84.81-27.96-47.75-222.56-157.47-226.03-155.59l-80.59,5.63Z"/>
    <path class="cls-17" d="M373.07,223.7s-2.5,15.56-10.92,32.84c-12.16,24.93-46.98,30.45-46.98,30.45l88.49,86.69,48.85-24.65s-18.09-19.85-16.89-25.21c1.2-5.37,23.39-41.03,23.39-41.03"/>
    <path class="cls-26" d="M344.9,274.18l-6.45,2.5c-20.81,3.02-80.78,10.88-98.08,22.86-39.99,27.71-28.74,59.38-31.43,79.68-1.25,9.86,32.04,135.22,8.55,187.79-15.54,34.98-28.96,70.86-40.18,107.45l57.15,23.94c27.92,11.7,74.24-15.64,104.28-12.14l75.99-1.94c8.66-38.28,16.73-35.42,25.99-86.18l40.63-150.32-4.12-76.42s-11.34-19.82-12.07-23.91l-29.4-37.1s4.19,33.35-26.36,29.5c-31.54-3.98-38.99-10.95-57.05-34.81,0,0-7.95-19.71-7.44-30.91Z"/>
    <path class="cls-26" d="M130.43,619.52c.79-1.66,1.61-3.32,2.43-4.96,8.66-17.37,17.26-33.77,28.38-49.72,10.76-15.43,19.67-29.09,24.35-48.07,11.74-47.56,14.49-195.57,43.11-206.01,5.75-2.1,73.02-6.91,73.02-6.91,0,0,1.72-1.69,1.72-1.69-4.72,4.66,23.7,32.37,26.78,35.12,20.44,18.26,56.08,39.36,83.73,22.99l-.22,6.34-5.18,34.12-13.53,92.53c.18-.96-4.47,32.59-8.22,47.81-14.09,57.34-51.27,203.32-56.68,213.09-3.64,6.98-11.17,11.04-19,10.25,0,0-180.19-99.81-180.99-100.25-9.11-5.05-6.69-16.03-5.62-26.18.68-6.46,3.13-12.54,5.94-18.43Z"/>
    <path class="cls-6" d="M291.23,934.48c.43-6.63-2.57-11.25-3.5-10.84s.31,5.02.02,10.63-2.18,9.99-1.35,10.52c.74.58,4.39-3.68,4.82-10.31Z"/>
    <path class="cls-15" d="M250.89,694.65l-49.15,134.81-.96,5.87-5.21,10.91c-9.24,19.33-14.08,40.46-14.19,61.88l-.1,19.39s287.91,62.09,350.66,17.25c37.85-27.05,30.97-57.24,17.15-84.02-25.18-48.78-212.97-178.93-219.36-179.13-.08,0-.16.02-.24.02l-78.61,13.03Z"/>
    <path class="cls-15" d="M121.88,652.2s24.11,37.35,78.27,9.83c17.38,11.44,35.73,21.38,54.36,30.65,34.99,17.41,71.1,32.51,105.62,50.78-26.13,23.41-73.83,63.83-104.31,81.13-39.87,22.94-98.78,8.6-132.26-22.95-13.5-13.13-37.5-89.57-1.68-149.44Z"/>
    <path class="cls-21" d="M199.92,836.25c11.09,2.55,22.34,4.5,33.55,6.47,15.74,2.77,31.51,5.36,47.29,7.9,16.34,2.63,32.69,5.19,49.04,7.71,12.69,1.96,25.38,3.89,38.08,5.79,2.13.32,4.25.64,6.38.95.84.13,1.69.25,2.53.38.37.05.74.11,1.11.16.11.01.73.11.19.01.06.01.12.02.18.04,5.26,1.12,11.37,3.27,14.96,7.45,1.08,1.25,1.82,2.66,2.13,4.29.23,1.23,3.14.5,2.9-.78-1.3-6.81-9.3-10.2-15.2-11.99-3.24-.98-6.57-1.35-9.9-1.85-11.84-1.77-23.67-3.56-35.5-5.37-16.12-2.47-32.24-4.99-48.35-7.56-16.21-2.59-32.41-5.23-48.59-8.02-12.09-2.09-24.2-4.17-36.19-6.77-.97-.21-1.94-.43-2.9-.65-.69-.16-1.56,0-2.05.55-.4.46-.32,1.13.34,1.28h0Z"/>
    <rect class="cls-8" x="484.09" y="132.36" width="14.55" height="38.79" rx="7.04" ry="7.04" transform="translate(67.05 -138.8) rotate(17.24)"/>
    <rect class="cls-8" x="429.98" y="163.01" width="14.55" height="38.79" rx="7.04" ry="7.04" transform="translate(296.29 -269.91) rotate(50.05)"/>
    <path class="cls-28" d="M372.37,226.61c-.03.09-.05.18-.08.27,0-.12.03-.23.08-.27Z"/>
    <path class="cls-17" d="M413.93,304.43l24.91,12.65,11.65,4.43c5.16,1.96,10.19,1.12,14.26-2.6,8.53-7.81,11.98-12.18,13.06-13.1,5.61-4.76,14.54-13.8,19.13-19.58,4.91-6.19,9-9.37,13.44-17.41,3.25-5.89,5-10.22,5.7-21.64.18-2.9,1.17-5.47,2.9-7.98,3.66-5.27,6.85-11.87,11.58-19,.37-.56,2.27-3.23,2.29-3.99,0,0,14.3-31.89,13.07-45.83-1.24-13.94-2.22-28.05-9.88-33.65-7.66-5.6-39.1-8.81-39.1-8.81l-32.81-18.86-35.41,2.84-29.35,29.94-14.47,42.56-12.51,42.21"/>
    <path d="M416.2,127.39c5.05-19.46,24.37-19.87,32.56-20.35,6.93-.4,25.61.83,37.02,7.44,4.91,2.84-1.9,12.84.16,15.94.83.56,10.5,7.18,14.46,9.47,5.31,3.07,10.18,5.8,16,6.72.81,0,4.85.14,9.29,2.71,5.09,2.95,12.68-9.46,18.74,7.47l.76-.35c-6.72-23.97-25.21-30.92-45.9-42.89-2.19-1.26-4.49-2.48-6.82-3.61-33.98-16.36-32.97-15.66-64.84-1.5-18.52,8.23-31.39,18.02-34.41,26.21l-.69,1.84c-3.18,8.52-20.84,28.08-19.69,33.89.73,3.72,1.6,19.13,2.24,32.18l16.55,6.95c.89-3.29,10.2-30.72,11.32-34.01"/>
    <path class="cls-17" d="M372.88,227.5c-18.72,7.74-12.45-15.68-12.45-15.68-4.72-15.12.24-27.1,3.97-35.16,3.73-8.06,12.69-4.21,12.69-4.21,7.31,4,10.84,7.66,6.57,36.14"/>
    <path d="M523.77,140.03c-12.44-5.16-41.91-26.8-58.48-34.57-6.86-3.22-37.1,4.98-41.7,7.74-10.55,6.34-2.68,33.55-26.13,57.78-7.75,8-6.7-10.95-14.2-6.66-7.49,4.29-10.41,6.06-10.41,6.06,7.24-29.19,6.95-28.18,23.87-53.15,16.87-24.9,51.37-25.1,66.7-21.71,15.33,3.39,59.8,26.22,70.01,36.97"/>
    <path class="cls-1" d="M380.31,201.81c-.2-4.53-.59-9.1-1.66-13.52-.54-2.26-1.26-4.55-2.49-6.54-.45-.74-1.05-1.6-1.82-2.04-.87-.5-1.76.39-2.39.95-3.06,2.7-4.58,6.7-5.19,10.64-.1.65,1.27.47,1.36-.11.47-3.08,1.48-6.14,3.46-8.6.51-.64,1.08-1.24,1.72-1.75.17-.14.39-.25.55-.4.13-.12.17-.1.09-.06l-.69.06c-.22-.09.26.19.38.29.39.33.87.96,1.19,1.47,1.7,2.67,2.44,5.98,3,9.05.64,3.52.94,7.1,1.1,10.68.03.68,1.39.46,1.36-.11h0Z"/>
    <path class="cls-1" d="M376.9,202.04c-5.02-2.34-5.37,5.84-6.63,8.62-.12.27-.43.56-.51.81-.18.52-.12-.55.13.08-.02-.05-.07-.03-.1-.12-.07-.24-.17-.46-.22-.71-.3-1.67.05-3.53.33-5.17.45-2.62,1.01-5.06,2.24-7.4,1.27-2.41,3.35-5.85,6.43-5.9.75-.01,1.05-.95.13-.93-2.98.05-5.19,2.47-6.71,4.78-1.24,1.88-2.17,3.85-2.71,6.03s-1.02,4.53-1.14,6.83c-.05.91-.24,2.76.69,3.36.77.5,1.79-.11,2.27-.74.64-.83.9-1.97,1.16-2.96.39-1.47,1.11-6.95,3.59-5.8.5.23,1.69-.45,1.05-.75h0Z"/>
    <path d="M458.28,202.8c-1.49-1.78-4.07-1.86-5.77-1.29-.4.13-1.5.54-2.39,1.64-1.14,1.4-1.26,3.48-.72,5,.72,2.03,2.85,3.22,4.89,3.14,2.78-.11,4.71-2.59,4.98-4.86.05-.42.21-2.19-.99-3.63"/>
    <path class="cls-2" d="M430.95,188.55l-.63,6.95c-.89,5.21-.27,16.44.25,19.7.73,4.58,25.47,17.32,31.71,16.7,6.24-.61,15.33-13.58,18.12-16.29l9.89,5.11c-.99,4.67-3.81,19.59-2.69,22.28,1.11,2.69,12.89,7.59,14.22,8.14,1.11.45,2.65,1.07,4.37,1.68,4.53,1.66,10.19,3.33,12.53,2.47,3.49-1.27,10.17-9.11,16.25-16.64l.97-1.17c.22-.29.43-.47.47-.56h0l1.1-1.36c-11.56-13.39-31.22-20.87-46.57-17.71l.02.19-9.63-5.03c-7.93-12.3-25.48-24.94-41.63-25.89h0l-43.36-6.61-1.78,3.67,36.39,4.35ZM489.4,242.17c-.7-1.68.98-12.26,2.54-20.39,13.25-2.54,30.96,4.22,41.62,15.46l-.09.19c-3.27,4.03-11.95,14.76-15.38,16.01-4.05,1.47-27.39-8.53-28.71-11.23l.02-.04ZM434.03,215.54c-1.64-7.27-1.12-17.45.02-25.78,14.72.04,35.87,13.31,43.71,25.13-4.39,5.16-11.2,14.57-15.67,14.99-6.44.63-27.62-11.46-28.06-14.34h0Z"/>
    <path class="cls-30" d="M460.77,271.11c-9.61-4.33-24.67-12.48-24.67-12.48,0,0-8.67,24.18,13.61,34.22,22.28,10.04,31.54-12.93,31.54-12.93,0,0-10.87-4.48-20.48-8.81Z"/>
    <path class="cls-38" d="M460.86,271.15c-4.57-2.06-22.63-11.13-22.63-11.13,0,0-1.13,18.79,15.39,26.24,17.91,8.08,25.12-6.86,25.12-6.86l-17.88-8.24Z"/>
    <path class="cls-13" d="M460.75,271.92c-4.57-2.06-18.12-9.1-18.12-9.1,0,0,2.75,7.25,16.46,13.43,13.7,6.18,20.24,3.29,20.24,3.29l-18.58-7.62Z"/>
    <path class="cls-30" d="M484.17,278.62c-.43-.34.44,1.11-1.74-.11-3.63-2.03-5.55-4.09-8.2-5.54-4.52-2.47-8.32-1.96-10.35-2.88-2.03-.92-4.17-4.1-9.01-5.85-2.83-1.03-10.06-3.09-13.99-4.47-2.36-.83-4.62-2.91-5.16-3.01-.75-.14-1.67,5.4,23.89,16.92,25.56,11.52,25.16,5.4,24.56,4.93Z"/>
    <path d="M463.18,263.26l-1.59,2.24c-.41.61-1.16.88-1.89.68-5-1.39-23.53-5.91-27.8-7.8-.1-.05-.42-.23-.51-.29l-.52-.27c-1.48-.99-.06-2.93,1.7-2.85,5.36.23,10.02.78,12.84,1.3,3.51.65,13.12,2.73,16.98,4.44,1.02.45,1.4,1.68.8,2.57Z"/>
    <path d="M469.53,265.75l-1.18,2.64c-.14.72.11,1.43.64,1.77,3.64,2.38,15.07,10.82,18.61,12.34.08.04,1.39.68,1.48.7l.82.26c1.43.28,1.32-3.11.29-4.25-3.13-3.47-5.15-5.57-7.03-7.1-2.35-1.91-8.44-6.31-11.63-7.69-.84-.36-1.8.27-2.01,1.32Z"/>
    <path d="M458.36,324.94l4.69-3.76s-47.01-11.6-54.59-17.6c-20.05-15.84-24.18-55.81-24.18-55.81,0,0-1.08,15.53,5.84,34.81,6.92,19.28,9.23,22.3,22.75,27.77,10.27,4.15,29.06,12.1,37.51,15.68,2.66,1.13,5.72.7,7.98-1.11Z"/>
    <path d="M365.82,174.41s-1.56-16.91,7.49-39.72c9.05-22.81,22.85-52.81,54.03-54.3,9.13-.44,16.51,1.63,16.51,1.63,0,0,24.55-11.17,69.5,17.64,31.55,20.22,39.43,39.54,32.06,66.97,0,0-4.02-17.4-7.42-17.28-3.4.12-8.68,5.98-20.59,2.4-11.91-3.58-29.54-12.67-35.17-20.49-5.63-7.82-17.38-18.25-25.68-20.32-20.16-5.04-28.06,8.58-33.04,16.4-4.98,7.82-21.55,35.89-32.58,36.23-11.03.34-14.61,8.39-14.61,8.39l-1.77-.02c-3.09-.03-6.12.83-8.73,2.48h0Z"/>
    <path d="M384.28,247.78c11.24,33.71,21.4,46.15,29.19,50.06,7.97,4,13.11,8.91,19.81,8.82,8.2-.1,11.74-2.93,13.03-.82.57.93,1.72,6.47,2.29,7.4,1.18,1.94,6.51,3.27,8.78,3.26,5.77-.02,10.47-1.14,15.12-5.09-4.04,4.46-8.67,11.25-14.65,11.9-3.7.4-8.08-2.07-11.58-3.35-7.68-2.79-14.98-5.48-22.57-8.53-6.66-2.68-13.62-5-19.03-9.72-9.09-7.93-14.86-26.56-17.77-38.59l-2.61-15.36Z"/>
    <path class="cls-3" d="M466.72,256.15c1.85,1.96,4.26,3.34,6.74,4.35,1.35.55,2.75.98,4.17,1.3.92.21,1.79.1,2.7-.11,1.04-.24,2.07-.59,3.05-1.03.69-.31,1.45-.65,1.96-1.23,1.1-1.25,1.27-3.28,1.41-4.86.14-1.62.02-3.26.17-4.87.04-.38-1.06-.16-1.09.16-.11,1.18-.03,2.39-.08,3.57-.08,1.66-.2,3.43-.82,5-.24.61-.57,1.11-1.13,1.45-.8.48-1.71.81-2.6,1.09-.74.23-1.6.5-2.38.41-1.31-.16-2.65-.66-3.88-1.12-2.65-1-5.24-2.43-7.2-4.5-.23-.24-1.27.15-1.02.41h0Z"/>
    <path class="cls-3" d="M460.58,244.76c-.9-.44-2.02-.11-2.78.47-.82.63-1.38,1.61-1.77,2.55s-.59,1.89-.18,2.87c.54,1.32,1.82,2.23,3.02,2.91,1.65.94,3.51.63,5.3,1,.24.05.55-.04.76-.15.09-.04.38-.21.14-.26-1.34-.28-2.74-.13-4.06-.49-1.19-.32-2.43-1.19-3.26-2.09-.71-.76-1.2-1.81-1-2.87.16-.82.53-1.63.96-2.33.26-.42.56-.82.93-1.14.09-.08.18-.15.28-.21.04-.03.21-.08.12-.07-.11.02.1.02.15.03.12.02.24.07.35.13.2.1.51,0,.7-.07.04-.02.49-.21.33-.29h0Z"/>
    <path class="cls-21" d="M563.38,892.28c-.38-17.19-.84-34.84-6.43-51.28-2.71-7.98-6.71-15.47-12.07-21.99-5.4-6.57-11.93-12.12-18.78-17.13-6.78-4.96-13.95-9.3-20.92-13.97-6.81-4.56-13.46-9.36-20.03-14.26-14.19-10.55-28.06-21.54-42.18-32.18-13.48-10.15-27.18-20.12-41.74-28.67-1.67-.98-3.36-1.94-5.06-2.88-.93-.51-3.56.8-2.28,1.51,14.42,7.97,27.93,17.52,41.14,27.32,14.08,10.45,27.84,21.33,41.83,31.9,6.68,5.05,13.41,10.03,20.28,14.82,6.68,4.66,13.61,8.93,20.35,13.49,7.04,4.75,13.89,9.86,19.88,15.91s10.88,12.98,14.3,20.78c6.95,15.86,8.14,33.56,8.63,50.65.06,2.1.11,4.2.16,6.3.03,1.33,2.94.77,2.91-.31h0Z"/>
    <path class="cls-26" d="M130.27,624.01c-7.43,5.7-8.51,20.48-8.39,28.19.04,2.35,3.32,3.67,4.37,5.78,1.5,3.02,4.7,4.75,7.71,6.29,17.09,8.74,34.27,17.52,52.54,23.43,35.56,11.49,73.65,11.63,111.02,11.28,37.37-.35,75.1-1.14,111.4-10.02,6.33-1.55,18.92-13.31,19.41-19.81.53-7.08-3.3-18.82-10.04-21.05-18-5.95-45.39,4.22-63.39-1.74"/>
    <path d="M487.35,192.19c-1.07,1.82-2.16,3.65-3.24,5.48-.28.47-.67,1.17-1.1,1.92-1.17,2.09-4.19,2.34-5.97.5-2.95-3.04-5.5-5.89-7.73-7.68-6.16-4.94-12.23-10.39-19.57-13.49-3.52-1.48-6.8-2.46-10.35-2.64-1.12-.06-4.57.51-5.57-.73-.41-.51,1.78-2.26,2-2.44,4.43-3.5,10.14-2.7,16.41-.49,12.77,4.51,24.18,11.5,35.13,19.56"/>
    <path d="M535.7,211.16s-2.97-1.84-3-1.85c-8.31-5.2-17.51-7.7-27.14-9.13-.62,2.03-1.23,4.06-1.85,6.1-.17.58-.41,1.32-.67,2.11-.6,1.86.67,3.73,2.5,3.64,3.04-.13,5.71-.32,7.77-.13,5.66.51,11.64.97,16.73,3.6.4.21,2.56,1.37,2.94,1.59,2.56-2.28,3.33-5.25,2.72-5.92Z"/>
    <path class="cls-20" d="M433.78,197.09s11.86,11.61,19.44,14.97c7.58,3.36,15.11,4.2,15.11,4.2,0,0-7.89-14.11-11.83-16.04-3.94-1.93-17.42-6.31-22.72-3.13Z"/>
    <path class="cls-20" d="M493.49,227.17s7.5,6.72,15.36,9.35c7.87,2.62,11.79-1.05,11.79-1.05,0,0-3.91-7.08-8.02-8.63s-12.86-1.36-19.14.33Z"/>
    <path d="M468.39,216.11s-6.7-12.89-11.83-16.04c-7.48-4.58-19.15-5.28-23.72-3.01,0,0,17.61,2.13,22.8,5.5,4.95,3.22,12.75,13.54,12.75,13.54Z"/>
    <path d="M459.87,204.21c-1.23-1.94-3.75-2.33-5.49-1.96-.41.08-1.54.36-2.55,1.33-1.3,1.24-1.69,3.28-1.35,4.85.45,2.09,2.37,3.52,4.39,3.69,2.74.23,4.95-1.99,5.51-4.2.1-.41.49-2.14-.5-3.71"/>
    <path d="M493.46,227s10.88-4.12,16.56-2.14c8.29,2.89,9.5,5.64,10.63,10.61,0,0-3.45-6.23-9.34-8.11-5.63-1.8-17.85-.36-17.85-.36Z"/>
    <path d="M512.07,226.95c2.29-.12,4.07,1.7,4.79,3.34.17.38.6,1.46.4,2.85-.26,1.78-1.69,3.28-3.16,3.91-1.96.85-4.24.11-5.55-1.44-1.77-2.1-1.25-5.18.22-6.93.27-.32,1.46-1.64,3.31-1.74"/>
    <rect class="cls-34" x="1155.39" y="-399.67" width="518.13" height="1228.86"/>
    <rect class="cls-27" x="1143.06" y="-409.66" width="29.1" height="1238.86"/>
    <g>
      <path class="cls-9" d="M1248.99,204.02h71.33c4.72,0,8.54,4.34,8.54,9.69h0c0,5.35-3.82,9.69-8.54,9.69h-71.33c-4.72,0-8.54-4.34-8.54-9.69h0c0-5.35,3.82-9.69,8.54-9.69Z"/>
      <path class="cls-9" d="M1248.83,225.26c-.52,0-1.05-.03-1.57-.08-3.11-.28-6.34-1.51-8.19-4.25-1.03-1.54-1.54-3.43-1.78-5.32-.28-2.16-.21-4.41.52-6.43,1.33-3.66,4.93-5.34,8.23-6.12.79-.19,10.59-1.18,10.59-.63v-34.76c0-10.07-7.49-18.24-16.73-18.24h-.04c-9.24,0-16.73,8.17-16.73,18.24v125.69c0,10.07,7.49,18.24,16.73,18.24h.04c9.24,0,16.73-8.17,16.73-18.24v-59.57c0-2.94.01-5.88-.02-8.81-2.59-.02-5.19.33-7.78.28ZM1243.75,277.23v7.13c0,1.55-1.15,2.8-2.57,2.8-1.4-.02-2.53-1.27-2.53-2.8v-7.13c-2.05-1.03-3.34-3.28-3.29-5.73.07-3.4,2.66-6.11,5.78-6.03s5.6,2.89,5.53,6.3c.02,2.27-1.1,4.37-2.93,5.47Z"/>
    </g>
    <path class="cls-33" d="M1243.75,277.23v7.13c0,1.55-1.15,2.8-2.57,2.8-1.4-.02-2.53-1.27-2.53-2.8v-7.13c-2.05-1.03-3.34-3.28-3.29-5.73.07-3.4,2.65-6.11,5.78-6.03s5.6,2.89,5.53,6.3c.02,2.27-1.1,4.37-2.93,5.47Z"/>
    <path class="cls-22" d="M946.71,761.2s-8.14,25.11-8.84,32.19c-.71,7.07,1.19,18.04-3.06,23.35-4.24,5.31-7.43,20.52,0,23.35,7.43,2.83,19.1-.71,32.19,0,13.09.71,27.94,7.07,35.02,4.95,7.07-2.12,19.46-7.43,19.46-12.03,0-4.6,1.77-8.84-5.66-20.52s-11.55-30.07-12.25-38.56c-.71-8.49-5.08-13.09-11.45-15.56-6.37-2.48-8.49-2.12-8.49-2.12,0,0-5.31-4.6-14.5-4.24-9.2.35-12.73,6.01-12.73,6.01l-9.68,3.18Z"/>
    <path class="cls-22" d="M897.62,761.18s8.13,25.08,8.83,32.15c.71,7.07-1.19,18.02,3.05,23.32,4.24,5.3,7.42,20.49,0,23.32-7.42,2.83-19.08-.71-32.15,0-13.07.71-27.91,7.07-34.98,4.95-7.07-2.12-19.43-7.42-19.43-12.01,0-4.59-1.77-8.83,5.65-20.49,7.42-11.66,11.53-30.03,12.24-38.51.71-8.48,5.07-13.07,11.43-15.54,6.36-2.47,8.48-2.12,8.48-2.12,0,0,5.3-4.59,14.48-4.24,9.19.35,12.72,6.01,12.72,6.01l9.66,3.18Z"/>
    <g>
      <path class="cls-7" d="M914.56,831.8s3,6.27,0,9.89c-3,3.63-33.42,14.14-62.71,8.88-29.29-5.26-30.79-10.89-30.79-10.89,0,0,.75-7.13,2.25-10.14,0,0,22.91,11.96,27.41,11.24,4.51-.72,11.27-3.35,23.66-3.35,12.39,0,13.52,2.63,20.28,1.13s19.9-6.76,19.9-6.76Z"/>
      <path class="cls-10" d="M913.69,832.03c1.27,2.69,2.35,7.37-.06,9.61-1.76,1.63-4.55,2.5-6.75,3.32-9.69,3.59-20.14,5.46-30.42,6.16-12.87.87-25.53-.85-37.97-4.13-3.6-.95-7.19-2.03-10.6-3.52-1.67-.73-3.36-1.56-4.79-2.72-.4-.32-.61-.52-.95-.94-.18-.22-.22-.39-.21-.33.04.18,0,.01.05-.23.13-.81.21-1.63.34-2.44.37-2.4.77-4.95,1.83-7.16l-1.5.4c3.93,2.05,7.92,4,11.94,5.86,3.04,1.4,6.1,2.77,9.24,3.93,2,.74,4.36,1.73,6.54,1.61,2.79-.16,5.65-1.24,8.38-1.81,4.81-1.01,9.7-1.51,14.61-1.56,4.35-.05,8.6.35,12.88,1.1,2.73.48,5.33.64,8.08.09,4.38-.87,8.66-2.48,12.86-4,2.61-.95,5.21-1.92,7.79-2.95,1.11-.44.13-1.39-.77-1.03-5.76,2.3-11.63,4.52-17.61,6.16-2.8.76-5.44,1.13-8.32.7-3.49-.53-6.9-1.14-10.44-1.28-5.16-.21-10.35.05-15.46.86-3.34.53-6.6,1.37-9.9,2.09-.89.2-1.74.42-2.63.3-1.07-.14-2.11-.47-3.13-.8-2.96-.97-5.83-2.21-8.66-3.47-4.75-2.12-9.43-4.39-14.04-6.8-.49-.25-1.24-.14-1.5.4-.97,2.02-1.39,4.32-1.76,6.51-.16.91-.29,1.82-.41,2.73-.05.37-.2.86-.12,1.24.09.44.52.86.82,1.16,1.13,1.15,2.58,1.96,4,2.68,3.08,1.56,6.38,2.66,9.68,3.63,12.38,3.61,25.26,5.67,38.17,5.19,11.17-.42,22.52-2.3,33.1-5.97,2.93-1.02,6.42-2.1,8.83-4.16,3.03-2.6,2.16-7.69.65-10.88-.36-.76-2.08-.26-1.74.47Z"/>
    </g>
    <path class="cls-10" d="M894.52,760.23c-1.83-1.09-3.9-1.85-5.96-2.36-2.47-.62-6.06-1.23-8.31.39-1.71,1.24-1.42,3.64-1.39,5.49.03,2.46-.16,4.91-.09,7.38.08,2.92.31,5.85.76,8.73.37,2.4.82,5.01,2.04,7.15,1.16,2.05,3.29,3.66,5.12,5.07,2.14,1.66,4.47,3.28,6.99,4.31,2.18.9,4.05.73,5.89-.84,1.72-1.47,3.11-3.42,4.26-5.36.38-.64-1.34-.42-1.6.02-.82,1.38-1.76,2.71-2.82,3.91-.54.62-1.5,1.86-2.4,2.01-.57.1-1.66-.4-2.28-.68-2.26-1-4.34-2.43-6.29-3.93-1.71-1.31-3.63-2.79-4.87-4.58-1.11-1.6-1.56-3.69-1.94-5.57-.51-2.52-.79-5.08-.97-7.64-.15-2.17-.22-4.35-.16-6.52s-.1-4.44.14-6.58c.09-.86.31-1.89,1.19-2.27,1.42-.61,3.62-.1,5.07.22,2.14.48,4.32,1.29,6.22,2.42.43.26,2.05-.4,1.4-.78h0Z"/>
    <path class="cls-10" d="M849.15,760.53c1.33-.63,2.68-1.22,4.03-1.78,2.07-.85,4.55-2.1,6.83-2.17,2.95-.09,4.39,3.96,4.95,6.25.7,2.85.59,5.79.56,8.7s-.11,5.62-.32,8.42c-.18,2.43-.37,4.99-1.16,7.31-.65,1.91-2.22,2.74-3.85,3.78-2.71,1.73-5.49,3.34-8.28,4.93-.75.43-1.62,1.12-2.44,1.33s-1.88-.24-2.52-.79c-1.47-1.27-1.49-3.53-2.04-5.28-.69-2.2-1.97-3.98-3.24-5.88-.27-.41-1.86.29-1.74.47,1.27,1.9,2.55,3.68,3.24,5.88.53,1.7.57,3.87,1.91,5.19,1,.98,2.41,1.28,3.76,1.08,1.51-.22,2.77-1.05,4.07-1.8,1.69-.97,3.38-1.94,5.05-2.94,1.45-.86,2.89-1.74,4.3-2.66.85-.56,1.83-1.12,2.54-1.87,1.35-1.44,1.56-4.02,1.8-5.87.42-3.19.55-6.42.62-9.64s.29-6.51-.28-9.66c-.47-2.65-1.67-6.69-4.67-7.5-1.15-.31-2.43-.02-3.56.25-1.52.37-3.01.89-4.47,1.45-2.06.79-4.1,1.65-6.1,2.6-1.03.49.6.38.99.19h0Z"/>
    <g>
      <path class="cls-7" d="M887.98,788.14s-20.53-1.18-29.08,0c0,0-2.37-.39-1.45-2.24.92-1.84,26.32-1.45,28.3-.79s3.95,1.71,2.24,3.03Z"/>
      <path class="cls-10" d="M888.54,787.77c-8.98-.52-18.14-.97-27.11-.23-.54.05-1.09.1-1.63.16-.29.03-.8-.06-.21.09-.12-.03-.26-.04-.37-.1-.79-.4-1.53-1.22-.91-1.93-.05.06.03,0,.15-.04.29-.07.59-.13.89-.18.8-.13,1.61-.2,2.41-.27,4.79-.39,9.63-.38,14.44-.3,2.22.04,4.45.09,6.67.24,1.44.1,6.54,1.03,4.32,2.98-.31.28.28.31.42.32.38.02.88-.18,1.16-.42,2.19-1.93-1.67-3.3-3.34-3.49-1.82-.21-3.67-.25-5.5-.31-5.31-.16-10.64-.18-15.94.14-1.85.11-3.78.21-5.58.68-1.21.32-3.13,1.54-1.47,2.86.68.54,1.42.56,2.23.47,1.33-.16,2.68-.24,4.02-.31,3.28-.16,6.56-.16,9.84-.11,4.8.07,9.61.23,14.4.5.4.02,1.99-.69,1.12-.74Z"/>
    </g>
    <g>
      <path class="cls-7" d="M887.98,779.19s-20.53-1.18-29.08,0c0,0-2.37-.39-1.45-2.24.92-1.84,26.32-1.45,28.3-.79,1.97.66,3.95,1.71,2.24,3.03Z"/>
      <path class="cls-10" d="M888.29,778.58c-8.83-.51-17.82-.93-26.64-.27-.75.06-2.08.34-2.57.23-.39-.09-.82-.35-.93-.74-.05-.17.15-.9.07-.68-.02.05-.17.11-.05.05.8-.44,2.58-.5,3.68-.59,4.68-.4,9.41-.4,14.11-.33,2.28.03,4.57.09,6.85.23.67.04,1.34.09,2.01.17.58.08,3.82,1.09,2.6,2.16-.88.78.51,1.31,1.14.75,1.24-1.1,1.17-2.24-.3-3.11-.87-.51-1.84-.88-2.83-1.03-1.71-.24-3.47-.26-5.19-.32-5.35-.18-10.73-.2-16.08.09-1.91.1-3.9.18-5.76.66-1.41.36-3,1.83-1.45,3.22.65.58,1.47.75,2.3.67,1.32-.13,2.63-.25,3.96-.32,3.25-.16,6.51-.17,9.76-.13,4.91.06,9.82.22,14.71.51.82.05,1.79-1.16.61-1.22Z"/>
    </g>
    <g>
      <path class="cls-7" d="M885.94,771.29s-18.58-1.18-26.33,0c0,0-2.14-.39-1.31-2.24.83-1.84,23.83-1.45,25.61-.79,1.79.66,3.57,1.71,2.03,3.03Z"/>
      <path class="cls-10" d="M886.28,770.81c-8.02-.51-16.21-.92-24.23-.25-.48.04-.96.09-1.44.15-.21.03-.45.09-.66.09.28,0,.1.03-.06-.04-.39-.17-.76-.41-.87-.85-.07-.28,0-.61.12-.87.05-.11-.1.1-.03.03.04-.04.68-.2,1.05-.26.76-.13,1.52-.21,2.29-.28,4.23-.38,8.51-.36,12.75-.29,2.01.03,4.03.09,6.04.23.57.04,1.16.07,1.73.17.79.15,3.62,1.21,2.29,2.52-.72.71.99.67,1.39.27,1.99-1.96-.98-3.49-2.84-3.76-1.61-.24-3.26-.27-4.88-.33-4.84-.18-9.7-.19-14.53.11-1.73.11-3.53.2-5.21.66-1.22.34-2.81,1.49-1.56,2.9.53.59,1.33.8,2.08.73,1.19-.11,2.38-.27,3.58-.33,2.99-.17,5.99-.17,8.98-.13,4.45.06,8.9.23,13.34.51.66.04,1.85-.9.68-.97Z"/>
    </g>
    <path class="cls-31" d="M701.57,768.71s13.44,49.89,11.61,60.77c-1.82,10.88-5.55,11.76-26.23,14.52-20.68,2.75-41.45-1.03-50.86-3.73-9.68-2.77-8.14-17.64-2.95-34.49,5.19-16.84,10.89-37.98,10.89-37.98,0,0,33.72-24.52,57.53.92Z"/>
    <path class="cls-37" d="M707.33,839.33s-13.21,7.2-37.35,6.08c-24.15-1.12-31.87,2.14-40.05-10.37,0,0,5.67,6.47,12.95,6.37s9.66-4.38,13.25-8.07c3.59-3.69,12.05-5.04,17.39-5.22,13.61-.46,14.44,8.78,17.61,9.46,3.16.68,9.37,4.53,16.21,1.74Z"/>
    <path class="cls-16" d="M649.05,770.71s-4.53,34.07-2.43,40.71c2.09,6.64,11.4,4.51,20.07,4.39,8.67-.12,20.63-3.06,26.67-.09,6.04,2.97,8.96-2.74,6.79-15.38-2.18-12.64-6.82-34.91-6.82-34.91,0,0-35.43-6.18-44.27,5.28Z"/>
    <path class="cls-20" d="M655.65,787.76s34.38-.15,34.89-3.18c.51-3.03-2.84-3.19-2.84-3.19,0,0-25.34.67-33.2,3.44-3.79,1.33,1.16,2.93,1.16,2.93Z"/>
    <path class="cls-20" d="M655.65,778.33s34.38-.15,34.89-3.18c.51-3.03-2.84-3.19-2.84-3.19,0,0-25.34.67-33.2,3.44-3.79,1.33,1.16,2.93,1.16,2.93Z"/>
    <path class="cls-16" d="M693.32,765.43s-1.07-3.27,0-7.2c1.93-7.11-14.57-7.35-24.69-7.1-10.13.25-19.26,1.26-20.27,7.9-1,6.64,1.93,10.36,1.93,10.36,0,0,28.17-7.91,43.02-3.96Z"/>
    <path class="cls-20" d="M655.75,768.9s34.38-.15,34.89-3.18c.51-3.03-2.84-3.19-2.84-3.19,0,0-25.34.67-33.2,3.44-3.79,1.33,1.16,2.93,1.16,2.93Z"/>
    <path class="cls-31" d="M732.34,768.71s-13.44,49.89-11.61,60.77c1.82,10.88,5.55,11.76,26.23,14.52,20.68,2.75,41.45-1.03,50.86-3.73,9.68-2.77,8.14-17.64,2.95-34.49-5.19-16.84-10.89-37.98-10.89-37.98,0,0-33.72-24.52-57.53.92Z"/>
    <path class="cls-37" d="M726.52,839.44s13.22,7.21,37.4,6.09c24.18-1.12,31.91,2.15,40.1-10.38,0,0-5.68,6.48-12.97,6.38-7.29-.1-9.67-4.39-13.27-8.08-3.59-3.7-12.06-5.05-17.41-5.23-13.62-.46-14.46,8.79-17.63,9.48-3.17.68-9.38,4.53-16.23,1.74Z"/>
    <path class="cls-16" d="M784.86,770.71s4.53,34.07,2.43,40.71c-2.09,6.64-11.4,4.51-20.07,4.39-8.67-.12-20.63-3.06-26.67-.09-6.04,2.97-8.96-2.74-6.79-15.38,2.18-12.64,6.82-34.91,6.82-34.91,0,0,35.43-6.18,44.27,5.28Z"/>
    <path class="cls-20" d="M778.26,787.76s-34.38-.15-34.89-3.18c-.51-3.03,2.84-3.19,2.84-3.19,0,0,25.34.67,33.2,3.44,3.79,1.33-1.16,2.93-1.16,2.93Z"/>
    <path class="cls-20" d="M778.26,778.33s-34.38-.15-34.89-3.18c-.51-3.03,2.84-3.19,2.84-3.19,0,0,25.34.67,33.2,3.44,3.79,1.33-1.16,2.93-1.16,2.93Z"/>
    <path class="cls-16" d="M740.59,765.43s1.07-3.27,0-7.2c-1.93-7.11,14.57-7.35,24.69-7.1,10.13.25,19.26,1.26,20.27,7.9,1,6.64-1.93,10.36-1.93,10.36,0,0-28.17-7.91-43.02-3.96Z"/>
    <path class="cls-20" d="M778.17,768.9s-34.38-.15-34.89-3.18c-.51-3.03,2.84-3.19,2.84-3.19,0,0,25.34.67,33.2,3.44,3.79,1.33-1.16,2.93-1.16,2.93Z"/>
    <path class="cls-24" d="M777.6,481.06c.07.02.14.03.21.02-.03-.16-.05-.33-.08-.49-.04.16-.08.31-.12.47Z"/>
    <path class="cls-24" d="M740.43,421.75c-.04.07-.08.13-.14.18-.11-.15-.23-.3-.34-.45.16.09.32.18.49.27Z"/>
    <path class="cls-12" d="M498.61,431.32c-5.81,17.78-11.8,35.51-17.71,53.26-7.3,21.94-14.55,43.89-21.54,65.93-3.33,10.51-6.61,21.04-9.69,31.62-.27.92,2.18.59,2.43-.28,5.84-20.12,12.32-40.06,18.83-59.97,6.98-21.38,14.11-42.72,21.23-64.06,2.98-8.92,5.96-17.84,8.88-26.78.29-.89-2.15-.58-2.43.28h0Z"/>
    <path class="cls-26" d="M444.01,578.38s67.77-10.06,79.98-21.38c8.15-7.56,13.67-22.35,21.35-30.37l85.27-21.91c7.56-2.77,41.57-14.11,41.8-11.24h0c-.25,12.2,8.76,30.25,17.03,39.63l2.3,2.19c.9,3.69-32.43,21.28-38.93,24.67-27.76,14.46-92.41,51.01-107.93,58.47-18.2,8.75-53.68,28.15-82.1,5.87-24.95-13.5-18.77-45.94-18.77-45.94Z"/>
    <path class="cls-26" d="M245.16,300.01c-21.43,11.08-48.8,58.88-32.78,88.19,25.29,72.85,84.68,188.92,121.93,209.65,45.66,25.41,275.27-25.95,275.27-25.95l-13.15-59.63-202.5,12.33s-82.4-186.75-93.77-195.29"/>
    <path class="cls-12" d="M548.09,515.24c-5.37.22-10.75.44-16.12.66l-38.7,1.6c-15.51.64-31.03,1.28-46.54,1.92-13.48.56-26.96,1.11-40.45,1.67-4.44.18-8.88.37-13.32.55l-4.11.17c-.7.03-1.51-.05-2.19.09-.08.02-.18,0-.27.01l.4.13c-.73-2.21-1.47-4.42-2.21-6.63-1.98-5.9-3.97-11.81-5.97-17.7-2.9-8.55-5.82-17.09-8.77-25.62-3.45-9.99-6.93-19.97-10.44-29.94-3.71-10.5-7.45-20.98-11.27-31.44-3.56-9.76-7.19-19.51-10.93-29.2-3.12-8.09-6.32-16.16-9.75-24.13-2.26-5.24-4.53-10.56-7.44-15.48-.74-1.26-1.53-2.52-2.58-3.55-.31-.3-.59-.76-.92-1.26-.93-1.42-1.9-2.81-2.9-4.19-3.28-4.51-6.86-8.82-10.82-12.74-4.46-4.41-9.55-8.57-15.46-10.86-2.56-.99-5.26-1.58-8.01-1.58-.5,0-1.28.12-1.67.45-.29.24-.41.44.12.44,6.11.01,11.78,3.2,16.51,6.81,4.99,3.81,9.34,8.43,13.29,13.3,2.46,3.03,4.78,6.18,6.9,9.46.59.92,1.42,1.63,2.05,2.54,2.82,4.06,4.81,8.77,6.82,13.26,3.3,7.38,6.32,14.89,9.28,22.42,3.69,9.4,7.25,18.86,10.74,28.34,3.81,10.32,7.53,20.67,11.22,31.04,3.61,10.15,7.17,20.32,10.7,30.5,3.08,8.87,6.13,17.76,9.15,26.65,2.24,6.59,4.48,13.18,6.69,19.78,1.07,3.18,2.03,6.42,3.2,9.56.05.14.09.28.14.42.04.13.32.13.4.13,5.37-.22,10.75-.44,16.12-.66l38.7-1.6c15.51-.64,31.03-1.28,46.54-1.92,13.48-.56,26.96-1.11,40.45-1.67,6.54-.27,13.08-.51,19.62-.81.09,0,.18,0,.27-.01.51-.02,1.26-.11,1.67-.45.27-.23.42-.46-.12-.44h0Z"/>
    <path class="cls-12" d="M218.38,412.6c9.62,25.54,20.41,50.66,32.09,75.32,10.52,22.21,21.91,44.08,34.75,65.05,6.1,9.95,12.72,19.69,20.57,28.35,7.27,8.01,15.82,15.34,26.03,19.26,6.69,2.57,14.01,3.02,21.08,3.75,6.6.68,13.21,1.25,19.84,1.63,8.25.47,16.55.66,24.81.13,5.44-.35,10.76-1.15,16.14-2,10.2-1.62,20.41-3.25,30.61-4.87,14.99-2.39,29.98-4.77,44.97-7.16,16.05-2.55,32.09-5.11,48.14-7.66,13.31-2.12,26.63-4.24,39.94-6.36,7-1.11,14-2.23,21.01-3.34.32-.05.63-.1.95-.15s1.39-.29,1.39-.78c-.04-5.13-.09-10.26-.13-15.39,0-.43-2.36-.08-2.36.63.04,5.13.09,10.26.13,15.39l1.39-.78c-4.85.77-9.69,1.54-14.54,2.31-12.08,1.92-24.17,3.85-36.25,5.77-15.65,2.49-31.3,4.98-46.95,7.47-15.54,2.47-31.07,4.94-46.61,7.42-11.7,1.86-23.41,3.73-35.11,5.59-4.65.74-9.7,1.68-14.18,2.21-17,2-34.24.71-51.2-1.03-7.2-.74-14.61-1.19-21.41-3.85-4.95-1.94-9.52-4.76-13.71-8-9.22-7.14-16.75-16.3-23.43-25.79-6.43-9.15-12.1-18.81-17.6-28.53-6.02-10.62-11.83-21.34-17.3-32.26-12.42-24.76-23.7-50.13-34.01-75.83-2.28-5.69-4.51-11.4-6.67-17.14-.22-.59-2.55.13-2.36.63h0Z"/>
    <path class="cls-12" d="M387.14,520.04c-14.74-.57-29.49,9.66-32.85,24.26-.21.93,2.17.58,2.36-.27,3.04-13.24,16.03-23.11,29.59-22.58.46.02,1.35-.16,1.55-.66s-.17-.73-.65-.75h0Z"/>
    <path class="cls-17" d="M598.17,558.4l53.96,1.74,30.24-12.32c9.94-1.86,19.78-4.3,29.47-7.29,3.99-2.2,2.92-4.58,1.95-6.34-.98-1.76-23.96-.65-23.96-.65,0,0,30.89-5.37,35.07-9.53s1.5-8.07-.72-10.07c-2.23-2-51.09,10.21-51.09,10.21l19.66-8.95s28.19-2.02,34.07-6.47c5.88-4.44,1.24-11.75,1.24-11.75l-34.25,4.22-23.76,4,23.61-7.86s24.66-2.91,29.03-8.14c4.36-5.23-2.64-9.73-2.64-9.73l-35.83,2.64-37.68,10.49c3.81-3.59,7.73-4.59,10.43-9.1,3.72-6.64-1.37-8.43-1.37-8.43l-33.06,11.38-25.11,29.67.75,42.26Z"/>
    <path class="cls-17" d="M747.95,527.15l-24.65,2.16,12.14,5.17c5.65.22,11.24,1.16,16.64,2.8,3.03,1.98,1.06,7.05,1.06,7.05l-43.73-2.86-21.76,1.62c-8.39.63-16.41-3.35-21.06-10.43l-18.62-28.37,13.88-18.57,12.62-20.75,8.62-10.16,16.83-10.54s5.75,3.31.21,10.45c-5.54,7.14-9.12,11.09-9.12,11.09l-5.56,12.95,4.82,4.04,41.07-1.42,12.95-5.11s10.65-10.78,20.52-8.4c.37.1.7.31.96.59.75.84.69,2.15-.14,2.94l-19.95,18.44-14.23,4.38,16.32-.44s19.09-10.23,27.18-9.49c8.09.74,4.17,5.39,4.17,5.39l-22.84,17.02-23.43,5.62,16.59.07,21-4.71s6.6-1.18,7.34,3.61c.31,1.75-.54,3.52-2.1,4.36l-27.72,11.49Z"/>
    <path class="cls-35" d="M791.62,461.21s26.23-12.71,45.83-27.76c0,0-20,8.95-45.83,27.76Z"/>
    <path class="cls-35" d="M796.84,477.81s39.45,3.63,68.97-1.18c0,0-30.66-1.16-68.97,1.18Z"/>
    <path class="cls-35" d="M792.41,497.38s28.93,15.03,53.12,20.61c0,0-23.04-10.43-53.12-20.61Z"/>
    <path class="cls-35" d="M758.6,445.09s-.78-32.99-4.7-52.16c0,0-.74,23.64,4.7,52.16Z"/>
    <path class="cls-35" d="M741.73,450.29s-17.81-33.08-31.62-50.53c0,0,11.47,24.37,31.62,50.53Z"/>
    <path class="cls-35" d="M777.13,449s22.16-32.54,31.53-59.8c0,0-15.67,23.95-31.53,59.8Z"/>
    <path class="cls-36" d="M684.67,548.24c8.79-1.66,17.49-3.72,26.07-6.24,2.71-.8,7.34-1.78,7.51-5.4.06-1.25-.48-3.15-1.82-3.53-1.15-.32-2.44-.3-3.62-.31-1.95-.02-3.91.05-5.86.14-4.57.21-9.14.56-13.7.94-2.77.23-5.54.48-8.31.75l-.29,1.29c5.92-1.13,11.82-2.37,17.7-3.7,4.61-1.04,9.21-2.14,13.77-3.41,3.39-.95,6.92-1.89,10.09-3.47,1.6-.8,2.88-1.9,3.73-3.53,1.32-2.54.6-5.24-1.17-7.35-.84-1-1.44-1.52-2.72-1.61-1.13-.08-2.28.03-3.4.13-8.17.75-16.29,2.49-24.32,4.07-4.05.8-8.1,1.62-12.14,2.47-1.39.29-2.79.59-4.18.89-.75.16-1.66.22-2.37.51-.09.04-.21.05-.31.07l.61,1.08c3.39-1.43,6.77-2.86,10.16-4.3,2.1-.89,4.21-1.78,6.31-2.67.53-.22,1.1-.41,1.6-.68.47-.25-.88.08-.1.05,4.11-.12,8.33-.9,12.38-1.53,5.43-.84,11.17-1.72,16.25-3.92,2.83-1.23,5.46-3.41,6.11-6.56.42-2.04-.02-4.32-1.1-6.1-.15-.25-.66-.23-.89-.2-8.41,1.04-16.82,2.07-25.23,3.11-6.61.81-13.11,1.8-19.68,2.9-4.37.73-8.74,1.47-13.11,2.2l.3,1.13c7.7-3.45,15.39-6.89,23.09-10.34.28-.12.8-.24,1.02-.46-.12.12-1.22.07-.69.17.22.04.46.02.68.02,2.11.06,4.23.05,6.34-.03,3.04-.1,6.08-.31,9.09-.78,2.72-.43,5.54-1.02,7.98-2.34s4.34-3.95,3.66-6.83c-.46-1.95-2.23-4.33-4.08-5.24-.7-.34-1.88-.09-2.64-.05l-6.15.34c-5.49.3-10.99.6-16.48.9l-6.15.34c-.72.04-1.48.02-2.19.18-3.81.84-7.58,2.11-11.35,3.16l-13.49,3.75-.8.22c-1.33.37-1.03,1.55.32,1.18,8.11-2.26,16.23-4.52,24.34-6.77.43-.12.86-.25,1.29-.36.25-.06-.38.05-.19.04.12,0,.25-.02.37-.02,1.5-.03,3.01-.16,4.51-.25,5.36-.29,10.72-.58,16.08-.88,3.8-.21,7.6-.41,11.41-.62l-.74-.09c1.59,1.03,3.11,2.71,3.64,4.54.78,2.73-1.04,5.05-3.44,6.07-2.47,1.06-5.24,1.46-7.89,1.76s-5.49.45-8.24.5c-1.64.02-3.27-.01-4.91-.04-.86-.01-1.5.31-2.26.65-4.11,1.84-8.22,3.68-12.33,5.52-3.57,1.6-7.14,3.2-10.71,4.79-.92.41-.75,1.31.3,1.13,7.86-1.32,15.71-2.77,23.6-3.97,7.86-1.2,15.8-1.95,23.69-2.92,3.57-.44,7.15-.88,10.72-1.32l-.89-.2c.82,1.34,1.26,3.5.98,5.2-.46,2.79-2.61,4.68-5.1,5.72-4.89,2.04-10.4,2.83-15.61,3.61-3.85.58-7.72.96-11.59,1.41-.76.09-1.42.41-2.12.71-1.9.81-3.81,1.61-5.71,2.42-3.76,1.59-7.53,3.18-11.29,4.78-1.24.52-.42,1.3.61,1.08,4.81-1.05,9.62-2.05,14.44-3.02,8.15-1.65,16.33-3.29,24.57-4.43,1.45-.2,2.9-.38,4.36-.5.57-.04.93-.07,1.43-.07.19,0,.39,0,.58,0,.15,0,.54.05.36.03.12.02.4.15.19.03.04.02.07.03.11.06-.22-.13.28.29.37.38.91.91,1.69,1.97,2.09,3.2.74,2.3-.42,5.06-2.26,6.19-2.41,1.48-5.59,2.3-8.37,3.11-4.31,1.26-8.67,2.33-13.05,3.34-4.11.95-8.23,1.85-12.37,2.7-1.5.31-3,.61-4.5.91-.52.1-1.05.21-1.57.31-.18.04-.36.07-.54.11-.26.05-.39.08-.23.04-.11.02-.23.04-.34.07-.37.07-1.23.27-1.26.78s.59.55.97.51c6.03-.6,12.07-1.11,18.12-1.48,3.54-.22,7.13-.48,10.68-.29.51.03.9.05,1.35.14.14.03.38.12.28.07.18.1.02-.09.14.13.47.85.94,1.88.75,2.88-.34,1.79-2.16,2.48-3.69,2.95-8.98,2.7-18.1,4.93-27.32,6.67-.37.07-1.23.27-1.26.78s.6.59.97.51h0Z"/>
    <path class="cls-36" d="M647.04,491.9c-2.22-.25-4.38.44-6.41,1.28-1.81.75-3.56,1.67-5.2,2.72-3.37,2.16-6.31,4.89-8.76,8.05-.33.43.29.68.62.7.53.04,1.14-.2,1.47-.62,2.13-2.74,4.68-5.15,7.57-7.08,1.39-.93,2.86-1.75,4.38-2.44,1.74-.78,3.55-1.52,5.49-1.3.9.1,2.35-1.15.85-1.32h0Z"/>
  </g>
  <g id="Layer_2" data-name="Layer 2">
    <path class="cls-24" d="M811.72,384.92c.07,0,.13,0,.2-.01-.05-.16-.11-.31-.16-.47-.01.16-.03.32-.04.48Z"/>
    <path class="cls-24" d="M757.02,308.25c-.02.08-.06.14-.11.21-.14-.13-.28-.26-.42-.39.18.06.35.12.53.18Z"/>
  </g>
  <g id="Layer_3" data-name="Layer 3">
    <g>
      <path class="cls-7" d="M895.7,801.68s-3.22,6.72,0,10.61c3.22,3.89,35.84,15.17,67.26,9.53,31.41-5.64,33.02-11.68,33.02-11.68,0,0-.81-7.65-2.42-10.87,0,0-24.57,12.83-29.4,12.05-4.83-.77-12.08-3.59-25.37-3.59s-14.5,2.82-21.75,1.21c-7.25-1.61-21.34-7.25-21.34-7.25Z"/>
      <path class="cls-10" d="M894.84,801.82c-1.49,3.15-2.51,8.16.2,10.94,1.8,1.85,4.84,2.81,7.17,3.71,10.61,4.07,22.13,6.15,33.44,6.96,7.23.51,14.51.42,21.71-.46s13.71-2.28,20.39-4.03c4.08-1.07,8.15-2.31,12.02-4,1.94-.85,3.9-1.83,5.55-3.18.5-.41,1.34-1.06,1.51-1.74.22-.85-.24-2.23-.37-3.07-.41-2.65-.85-5.48-2.02-7.92-.18-.38-1.14-.03-1.38.1-4.12,2.15-8.31,4.2-12.52,6.15-3.14,1.45-6.31,2.87-9.56,4.08-1.93.72-4.35,1.87-6.46,1.55-3.23-.5-6.39-1.5-9.61-2.11-5.13-.98-10.34-1.44-15.56-1.44-4.42,0-8.77.4-13.12,1.16-2.94.52-5.65.71-8.6.04-7.25-1.63-14.34-4.47-21.23-7.22-.4-.16-1.97.48-1.42.7,6.31,2.52,12.74,4.97,19.31,6.74,3.06.83,6.04,1.24,9.2.82,3.8-.51,7.51-1.26,11.36-1.43,5.75-.25,11.55.09,17.22,1.07,3.52.61,6.96,1.58,10.46,2.27,2.28.44,4.39-.13,6.57-.83,3.25-1.05,6.4-2.4,9.51-3.79,5.22-2.33,10.38-4.83,15.45-7.48l-1.38.1c1.01,2.1,1.45,4.51,1.84,6.79.16.93.3,1.85.42,2.79.04.27.17,1.18.17,1.21-.1.42-.4.67-.71.98-1.09,1.1-2.5,1.88-3.87,2.57-3.12,1.57-6.48,2.68-9.82,3.66-13,3.79-26.52,5.95-40.07,5.41-11.51-.46-23.13-2.39-34.06-6.07-3.14-1.06-6.73-2.18-9.4-4.24-3.23-2.5-2.13-7.88-.62-11.06.14-.3-1.5-.17-1.72.29Z"/>
    </g>
    <path class="cls-29" d="M1074.02,620.08s-21.1-4.96-42.53,25.87c-26.1,37.55-27.62,69.68-28.69,76.4,0,0,65.11,16.09,88.33,14.68,23.21-1.4,32.51-39.66,32.51-39.66,0,0,4.94-21.52-34.35-65.73"/>
    <path class="cls-17" d="M767.05,845.24s18.38-5.23,35.51-1.43c8.92,1.98,181.68-121.95,181.68-121.95l23.59,82.24,2.06-4.5-50.18,39.78-8.26,5.36c-11.74,8.97-60.83,10.51-74.73,15.54l-58.78,21.25-12.03,2.13"/>
    <path class="cls-20" d="M750.12,772.08c4.09,2.69,3.58,7.68,5.46,11.35.05.34.15.68.35,1.03,2.78,5.04,6.83,9.4,10.8,13.66,1.42,2.54,3.05,4,4.99,5.46,4.84,5.37,9.74,10.68,15.44,15.16.5.39,1.06.65,1.64.75,8.43,6.84,23.66,17.98,26.3,20.27l9.22,39.82c-7.11.87-20.71,11.37-27.53,15.48-7.85,4.73-15.77.73-22.16-5.7-5.38-5.41-6.43-8.81-8.56-16.04-2.79-9.44-4.37-20.03-7.16-29.48-2.4-8.09-8.97-33.89-13.46-41.05-6.99-11.14-7.6-19.36-7.28-25.55.09-1.71-.34-2.6.75-3.79,2.85-3.07,6.79-4.26,11.2-1.37Z"/>
    <path class="cls-20" d="M776.15,895.45c4.74-2.37,9.12.83,13.57,1.06.34.14.72.23,1.15.24,6.23.14,12.5-1.27,18.64-2.67,3.15.05,5.4-.68,7.82-1.7,7.65-1.6,15.28-3.3,22.56-6.2.63-.25,1.18-.64,1.59-1.13,10.97-4.16,29.66-12.35,33.24-13.57l42.23,13.03c-3.05,7.12-.62,25.54-.49,34.14.15,9.91-2.13,18.97-11.62,21.45-7.98,2.09-11.73,1.22-19.65-.71-10.34-2.52-21.1-6.8-31.44-9.32-8.87-2.16-36.55-10.03-45.68-9.73-14.21.48-27.98-7.25-33.59-10.92-1.55-1.01-2.62-1.09-3.13-2.76-1.32-4.33-.29-8.67,4.8-11.21Z"/>
    <path class="cls-20" d="M810.67,836.28l33.04-17.62s5.97,34.67,23.75,44.97l-53.46,20.31-3.33-47.66Z"/>
    <path class="cls-17" d="M991.21,605.04c-4.98-6.74-12.73-20.34-14.32-25.24-2.04-3.28-4.38-7.1-7.18-11.72-.81-1.34-1.55-2.65-2.28-3.95-.31-.71-.68-1.38-1.1-2.02-12.45-23.22-11.83-39.5-11.83-39.5.87-20.66,12.65-39.27,30.93-48.87,21.27-11.74,47.64-9.94,64.97-2.8,8.6,3.52,15.6,10.09,19.66,18.46,3.48,7.14,6.35,15.76,8.81,24.28,7.15-4.59,15.88-6.12,21.04,8.96,7.12,20.81-1.57,33.57-10.2,31.71-1.17.99-.5,8.14,1.45,12.22,3.73,7.8,11.7,20.88,19.15,25.28l1.03,2.24c-1.06,34.73-11.59,49.66-74.54,65.93l11.95-28.98-3.97-9.09c-4.28,2.1-5.14,3.3-9.82,3.96-19.46,5.42-37.9-12.92-43.77-20.86Z"/>
    <path class="cls-36" d="M1044.93,621.9s20.95-9.98,32.09-32.27c0,0,1.31,7.28-8.89,19.24-10.2,11.96-21.33,16.29-21.33,16.29l-1.87-3.25Z"/>
    <ellipse class="cls-10" cx="982.26" cy="568.9" rx="5.16" ry="5.18" transform="translate(-120.61 837.51) rotate(-43.77)"/>
    <path class="cls-10" d="M1095.92,526.51c-.49-2.45-1.49-4.91-3.37-6.63-.58-.53-1.31-1.29-2.13-.83-1.59.89-2.23,3.43-2.61,5.02-.81,3.3-.95,6.76-.96,10.14,0,.54.98.33,1.14-.02.23-.52.57-1.12,1.02-1.48.88-.7,1.81.59,2.19,1.33,1.28,2.47-.22,4.88-2.24,6.37-.64.47.33.75.75.44,2.52-1.85,4.36-5.12,2.14-7.96-1.68-2.15-4.01-.91-4.96,1.22l1.14-.02c.01-4.02.1-8.44,1.61-12.23.27-.69.6-1.4,1.09-1.96.11-.13.31-.31.31-.31.05-.08.23-.12.04-.03l-.7.02c2.58,1.28,3.85,4.65,4.38,7.26.1.47,1.27.18,1.17-.31h0Z"/>
    <ellipse class="cls-25" cx="1029" cy="542.41" rx="5.16" ry="5.18" transform="translate(-89.3 862.48) rotate(-43.77)"/>
    <path d="M1079.88,532.05c-.03-.13-.1-.25-.13-.38-.51-3.24-.74-6.39.35-9.56.5-1.45,1.13-3.1,2.07-4.4.94-1.3,1.93-2.72,3.22-3.71,1.68-1.6,3.65-2.67,5.91-3.22.41-.04.82-.09,1.23-.13-4.2-19.14-11.85-37.8-35.08-51.02-6.7-3.8-19.34-5.02-23.26-5.5-23.68-2.71-39.17,4.92-56.58,17.2-20.18,14.23-32.37,39.28-25.05,63.66,1.77,5.88,4.52,10.26,8.04,15.28,0,0-8.79-22.3-1.97-34.3,6.82-12,13.81-4,28.59-11.95,17.08-9.27,17.43-21.6,34.99-22.23,16.05-.54,25.84,8.19,25.84,8.19,6.06,6.29,12.21,9.3,14.94,18.9.64,2.29,1.38,4.55,2.18,6.8,2,3.78,3.52,7.85,6.28,11.16,1.35,1.63,3.1,3.13,5.29,3.33,2.36.22,1.68,3.49,3.13,1.85Z"/>
    <path d="M1092.55,510.66s9.54-24.39-21.44-51.5c-3.54-3.1-7.88-5.2-12.47-6.21l-4.29-.94s-8.31-8.87-21.74-10.95c-13.43-2.08-37.44,9.61-51.41,9.1-13.97-.51-19.63-4.05-19.63-4.05,0,0-.49,10.94,2.53,16.67,0,0-31.05,22.14-11.51,72.21,0,0,8.19-58.34,53.59-65.15,45.4-6.81,86.37,40.81,86.37,40.81Z"/>
    <path d="M973.32,453.01s-8.64,7.22-23.1,1.84c0,0-3.23,17.1,8.58,21.1"/>
    <path class="cls-3" d="M1019.87,581.22c-1.06,1.55-2.54,2.79-4.13,3.77-.84.52-1.73.98-2.64,1.36-.71.3-1.51.62-2.23.74-1.55.27-3.16-.25-4.35-1.26-.48-.41-.88-.88-1.11-1.47-.21-.53-.3-1.1-.36-1.67-.08-.8-.12-1.6-.2-2.39-.12-1.09-.32-2.17-.6-3.23-.05-.19-.97.05-.92.25.27,1.02.47,2.05.59,3.1.09.78.13,1.57.2,2.36.06.6.13,1.22.35,1.78.24.62.65,1.12,1.14,1.55,1.32,1.14,3.07,1.58,4.79,1.35.82-.11,1.61-.38,2.38-.67,1.01-.38,1.99-.83,2.94-1.36,1.95-1.09,3.79-2.52,5.06-4.38.09-.13-.33-.08-.37-.08-.17.03-.44.09-.54.24h0Z"/>
    <path class="cls-3" d="M1025.38,570.48s.07-.04.1-.06c-.03.02,0,0,0,0h.02s-.04,0-.06.01c-.06.01,0,0,.01,0-.02,0-.05,0-.07.02,0,0-.01,0,.03,0,.12,0,.28.05.41.1.35.15.66.4.93.67.61.61,1.09,1.36,1.45,2.13s.53,1.63.22,2.49c-.39,1.09-1.32,1.95-2.25,2.59-.51.35-1.14.45-1.74.53-.75.11-1.49.21-2.21.44-.08.02-.37.13-.28.24.09.11.5-.03.59-.06.62-.2,1.29-.24,1.93-.34.71-.11,1.43-.28,2.07-.61.59-.3,1.13-.76,1.6-1.22.45-.44.85-.93,1.1-1.51s.35-1.2.24-1.81c-.06-.34-.2-.66-.34-.97-.4-.85-.93-1.67-1.62-2.31-.34-.32-.73-.6-1.19-.69-.54-.11-1.18.04-1.64.35-.14.09-.12.17.05.18.2,0,.48-.06.65-.17h0Z"/>
    <path class="cls-20" d="M1041.79,584.78s-6.76,3.45-11.86,6.64c-5.11,3.19-11.16,7.75-11.16,7.75,0,0-3.4-3.62,5.86-9.41,9.26-5.79,17.16-4.98,17.16-4.98Z"/>
    <path class="cls-17" d="M1045.17,702.44s-24.08-33.63-37.77-36.85c-13.69-3.22-39.5-1-54.06,13.22-14.56,14.23-83.68,182.34-83.68,182.34l31.72,24.85s80.5-66.73,88.09-129.16l25.21,66.53,45.09-110.93-14.59-10.01Z"/>
    <path class="cls-36" d="M903.52,777.32c-4.71,10.8-9.3,21.66-13.88,32.52-3.85,9.14-7.68,18.3-11.49,27.46-.75,1.81-1.5,3.61-2.25,5.42-.15.37,2.33.17,2.6-.48,2.14-5.17,4.3-10.34,6.45-15.5,4.49-10.74,9-21.48,13.55-32.19,2.51-5.91,5.04-11.81,7.61-17.7.16-.36-2.31-.18-2.6.48h0Z"/>
    <path class="cls-36" d="M1014.64,824.15c.55,0,1.47-.17,1.74-.74.25-.54-.21-.85-.74-.85-.55,0-1.47.17-1.74.74-.25.54.21.85.74.85h0Z"/>
    <path class="cls-15" d="M1206.3,868.39c-1.15-40.69-85.5-90.87-85.5-90.87l-71.19-81.6s-35.77,49.68-58.09,65.33c-.41,2.24-1.35,4.34-2.45,6.34-.36,1.59-.94,3.12-1.72,4.55l7.93,24.55,11.77,55.99s17.31,57.49,43.77,76.25c26.46,18.76,101.59,12.52,118.34,8.96,16.75-3.56,38.29-28.81,37.14-69.5Z"/>
    <path class="cls-29" d="M1120.06,802.13s64.5,18.13,82.31,54.25l4.52,10.3s13.02-22.26,3.61-105.17c-9.41-82.91-55.42-137.88-74.5-152.42-19.08-14.54-19.39-19.54-32.41-16.87-13.02,2.67-31.29,32.65-50.04,44.46-18.74,11.81-12.32,6.06-12.32,6.06l-10.62,41.58s52.17,55.35,72.54,87.45c20.37,32.1,16.9,30.36,16.9,30.36Z"/>
    <path class="cls-20" d="M858.83,892.03l18.37-49.55s35.28,31.92,56.98,26.6l-35.25,49.72-40.1-26.76Z"/>
    <path class="cls-36" d="M987.24,723.78c3,11.64,5.35,23.3,3.38,35.34-.63,3.84-1.64,7.61-3.03,11.24-.18.48-.36.86-.61,1.3-.92,1.61-1.86,3.22-2.8,4.83-10.2,17.38-21,34.44-32.49,51-8.28,11.93-16.92,23.64-26.36,34.69l2.3-.26c-5.62-4.54-13.51-6.74-20.59-7.17-3.97-.24-7.92.11-11.81.9-.44.09-1.27.53-1.12,1.1.16.6,1.1.47,1.52.39,7.22-1.46,14.74-.95,21.64,1.65,2.04.77,4.02,1.72,5.89,2.85.53.32,1.06.66,1.57,1.02.14.1.75.57.45.33.6.49,1.79.33,2.3-.26,16.48-19.28,30.81-40.41,44.36-61.82,4.72-7.46,9.34-15,13.83-22.6,1.16-1.96,2.31-3.93,3.44-5.9,1.54-2.68,2.39-5.72,3.14-8.7,1.9-7.51,2.2-15.32,1.3-23-.7-5.99-2.17-11.81-3.68-17.64-.26-1.02-2.91-.32-2.64.71h0Z"/>
    <path class="cls-17" d="M1054.31,693.21s-5.27,74.96-12.55,108.21l-114.67,72.33,14.2,28.87s93.49-22.61,136.75-44.58c30.64-15.56,56.81-172.27,56.81-172.27l-80.54,7.45Z"/>
    <path class="cls-36" d="M1039.26,803.48c6.83,4.4,12.69,10.26,17.04,17.14.48.76,2.96-.2,2.64-.71-4.41-6.97-10.27-12.92-17.21-17.39-.48-.31-1.23-.14-1.73.06-.17.07-1.21.6-.75.9h0Z"/>
    <path class="cls-32" d="M1031.61,682.78c3.43-11.4,6.34-22.93,8.72-34.59.18-.89-1.61-.69-1.77.12-2.36,11.54-5.23,22.96-8.63,34.24-.3.99,1.44,1.01,1.68.23h0Z"/>
    <path class="cls-29" d="M1110.07,622.86s-21.1-4.96-42.53,25.87c-26.1,37.55-27.62,69.68-28.69,76.4,0,0,65.11,16.09,88.33,14.68,23.21-1.4,32.51-39.66,32.51-39.66,0,0,4.94-21.52-34.35-65.73"/>
    <path class="cls-32" d="M1046.18,698.59c2.52-8.9,2.69-18.44,5.82-27.17,1.45-4.04,3.01-8.06,5.42-11.65,2.92-4.35,6.16-8.65,9.93-12.3,4.76-4.61,10.49-8.27,16.92-10,1.02-.27.87-.9-.17-.62-5.6,1.51-10.76,4.28-15.24,7.95-4.47,3.66-8.01,8.1-11.4,12.74-2.45,3.34-4.35,6.79-5.86,10.65-1.81,4.64-2.97,9.28-3.88,14.17-1.02,5.5-1.74,11.12-3.27,16.51-.12.43,1.59.19,1.73-.29h0Z"/>
    <path class="cls-32" d="M1125,740.48c4.42-.15,8.81-.66,13.23-.81.4-.01.86-.27.97-.67,4.22-14.71,6.2-30.02,6.62-45.3.21-7.5.03-15.01-.53-22.49-.56-7.5-1.42-15.22-4.69-22.09-2.96-6.2-7.94-11.56-14.59-13.73-.68-.22-2.06.76-1.03,1.1,14,4.56,17.4,20.82,18.45,33.64,1.22,14.9.93,29.96-1.02,44.79-1.08,8.19-2.7,16.31-4.97,24.26l.97-.67c-4.42.15-8.81.66-13.23.81-.95.03-1.38,1.21-.18,1.17h0Z"/>
    <path class="cls-4" d="M1026.37,589.24c6.27-3.8,15.99-10.66,15.99-10.66,0,0,11.49,17.04-6.05,27.29-14.66,8.57-25.11-7.98-25.11-7.98,0,0,8.91-4.86,15.17-8.65Z"/>
    <path class="cls-14" d="M1026.31,589.27c2.98-1.8,14-8.64,14-8.64,0,0,3.67,11.85-7.1,18.38-11.68,7.08-19.24-1.38-19.24-1.38l12.35-8.36Z"/>
    <path class="cls-13" d="M1027.01,590.72c2.98-1.8,11.75-7.78,11.75-7.78,0,0-2.08,4.61-11.01,10.03-8.94,5.41-12.91,4.59-12.91,4.59l12.17-6.83Z"/>
    <path class="cls-4" d="M1011.2,597.76c-.2-.32.36-.85,1.77-1.87,2.34-1.7,2.61-3.07,4.32-4.28,2.91-2.07,5.55-2.09,6.88-2.89,1.33-.8,2.56-3.14,5.75-4.76,1.87-.95,6.67-3,9.26-4.29,1.55-.77,2.95-2.38,3.31-2.5.5-.16,1.93,4.51-14.73,14.61-16.67,10.1-16.28,6.42-16.55,5.98Z"/>
    <path class="cls-20" d="M860.95,871.06l8.7-1.93,46.72,14.54-8.71,35.36s-60.52-21.83-46.71-47.97Z"/>
    <path class="cls-17" d="M873.55,865.64c.24,3.7,2.6,6.93,6.05,8.29,0,0-7.49,10.49,3.41,15.97,0,0-3.84,11.17,6.58,14.16.94,6.49,6.2,11.5,12.73,12.13,11.44,1.17,38.97-13.58,38.97-13.58l5.56-32.99s-38.6-13.86-42.26-13.88c-2.52-.04-16.38,1.31-23.64,2-4.1.39-7.28,3.78-7.41,7.9Z"/>
    <path class="cls-17" d="M864.13,874.13c1.75-3.06,3.68-6.25,4.4-9.74-.04-.06-.07-.13-.12-.19-4.01,1.83-8.41,2.8-12.82,2.8-3.3,0-6.88-.45-9.64,1.34-2.75,1.78-3.95,5.38-6.8,6.99-1.18.67-2.54.94-3.76,1.53-3.89,1.87-6.18,9.24-7.46,13.37,7.63-1.13,14.4-3.81,20.98-5.31,3.64-1.09,7.34-2.17,10.87-3.61,1.58-2.3,2.95-4.73,4.36-7.18Z"/>
    <path d="M967.29,564.24c-.14-.17-.26-.36-.37-.56-.04-.09-.06-.19-.09-.28.63-1.9,1.63-4.11,1.63-4.11.81-1.87,1.86-3.53,3.19-4.84,1.75-1.73,7.4-5.05,15.96-7.57.09.16.57-.11.65.06.84,1.82,2.05,3.25,3.02,5.02-3.67.46-8.97.9-12.22,2.32-3.81,1.64-6.35,4.93-9.39,7.77-.55.52-.8,1.05-1.28,1.66,0,0-.27.48-.61,1-.17-.15-.34-.3-.5-.46Z"/>
    <path d="M1009.96,533.44c-.11-.16.54-.54.43-.7,9.07-7.84,16.79-12.34,19.9-13.45,2.37-.84,4.89-1.25,7.46-1.33,0,0,7.04-.29,8.32.43,1.28.73-3.66,1.3-3.66,1.3-.99.25-1.74.29-2.69.65-5.24,1.99-10.6,3.28-15.17,6.55-3.93,2.78-8.37,8.09-11.62,11.71-1.12-1.72-1.71-3.57-2.97-5.18Z"/>
    <path class="cls-20" d="M1048.13,529.56s-4.92,11.97-12.59,16c-7.68,4.03-13.82,5.05-13.82,5.05,0,0,1.06-9.06,5.54-13.26,4.48-4.2,15.09-10.82,20.88-7.8Z"/>
    <ellipse cx="1031.39" cy="539.85" rx="5.82" ry="5.84" transform="translate(-87.83 860.07) rotate(-43.59)"/>
    <path d="M1021.53,550.52s1.49-15.08,10.7-18.89c10.43-4.32,13.16-3.43,15.9-2.07,0,0-5.29-.62-14.97,4.26-8.78,4.43-11.63,16.7-11.63,16.7Z"/>
    <path class="cls-20" d="M998.1,564.61s-9.92,9.56-14.74,10.09c-4.82.53-9.72-1.34-9.72-1.34,0,0,.2-4.44,4.52-7.53s8.52-6.88,19.95-1.21Z"/>
    <ellipse class="cls-10" cx="982.14" cy="568.48" rx="5.82" ry="5.84" transform="translate(-105.58 891.95) rotate(-46.62)"/>
    <path d="M974.25,568.67c1.55-2.68,3.31-4.36,8.08-6.95,7.64-4.15,15.77,2.89,15.77,2.89,0,0-7.3-4.49-14.95-.58-3.68,1.88-7.76,6.24-9.52,9.33-.38-.75-.12-2.86.61-4.69Z"/>
  </g>
</svg>