<svg xmlns="http://www.w3.org/2000/svg" xmlns:xlink="http://www.w3.org/1999/xlink" width="1080" zoomAndPan="magnify" viewBox="0 0 810 809.999993" height="1080" preserveAspectRatio="xMidYMid meet" version="1.0"><path fill="#e24000" d="M 387.988281 364.730469 C 387.988281 342.460938 387.902344 322.023438 388.015625 301.589844 C 388.105469 285.40625 402.683594 276.921875 416.421875 285.011719 C 423.449219 289.148438 423.816406 296.890625 425.0625 303.601562 C 425.941406 308.328125 424.117188 313.492188 424.015625 318.472656 C 423.804688 328.648438 423.945312 338.832031 423.941406 349.015625 C 423.9375 353.597656 423.941406 358.183594 423.941406 364.597656 C 430.550781 358.003906 436.035156 352.367188 441.703125 346.921875 C 446.640625 342.175781 451.453125 337.207031 456.914062 333.128906 C 464.8125 327.222656 475.269531 328.8125 481.09375 336.078125 C 486.75 343.132812 486.191406 353.394531 479.382812 360.277344 C 462.367188 377.480469 445.089844 394.429688 428.238281 411.789062 C 425.878906 414.222656 424.285156 418.363281 424.128906 421.796875 C 423.625 433.210938 423.941406 444.660156 423.941406 458.355469 C 432.203125 450.121094 438.972656 443.285156 445.84375 436.554688 C 452.28125 430.253906 457.523438 422.132812 468.566406 423.320312 C 476.632812 424.183594 481.394531 428.6875 483.921875 435.777344 C 486.148438 442.027344 484.742188 447.734375 479.894531 452.550781 C 465.519531 466.839844 451.214844 481.195312 436.890625 495.527344 C 433.78125 498.636719 430.277344 501.457031 427.734375 504.976562 C 425.820312 507.617188 424.117188 511.15625 424.097656 514.304688 C 423.859375 554.632812 423.839844 594.964844 424.003906 635.292969 C 424.046875 646.496094 425.292969 657.703125 425.226562 668.902344 C 425.109375 688.433594 424.519531 707.96875 423.878906 727.496094 C 423.632812 734.976562 419.578125 740.921875 412.785156 743.292969 C 406.382812 745.53125 399.566406 745.578125 393.808594 739.808594 C 291.542969 637.398438 188.976562 535.285156 87.015625 432.574219 C 65.300781 410.695312 51.152344 383.796875 41.902344 354.105469 C 35.386719 333.191406 29.910156 312.28125 31.316406 290.335938 C 33.289062 259.582031 38.757812 229.765625 52.597656 201.507812 C 64.59375 177.011719 80.03125 155.375 99.953125 137.285156 C 117.511719 121.335938 137.195312 107.800781 159.886719 99.847656 C 174.691406 94.664062 189.667969 89.140625 205.035156 86.605469 C 224.65625 83.375 244.667969 80.796875 264.695312 85.753906 C 279.742188 89.480469 295.394531 91.183594 310.046875 96 C 322.902344 100.222656 335.011719 107.039062 346.945312 113.621094 C 355.785156 118.5 364.023438 124.574219 372.140625 130.632812 C 378.523438 135.394531 383.855469 141.425781 382.308594 150.25 C 380.984375 157.824219 376.480469 162.96875 368.804688 165.464844 C 361.617188 167.800781 355.894531 164.445312 351.398438 160.382812 C 328.953125 140.125 302.222656 128.265625 273.226562 122.53125 C 259.429688 119.800781 244.964844 118.863281 230.25 119.765625 C 205.476562 121.289062 182.667969 127.660156 160.8125 138.605469 C 129.527344 154.28125 106.015625 178.125 89.113281 208.476562 C 78.734375 227.117188 72.132812 247.039062 69.738281 268.480469 C 66.609375 296.503906 68.394531 323.855469 78.214844 350.382812 C 86.519531 372.796875 98.339844 393.09375 115.351562 410.222656 C 139.222656 434.265625 162.78125 458.625 186.640625 482.683594 C 202.386719 498.566406 218.496094 514.089844 234.316406 529.902344 C 248.914062 544.496094 263.273438 559.335938 277.871094 573.933594 C 290.035156 586.09375 302.488281 597.96875 314.636719 610.144531 C 335.125 630.683594 355.453125 651.378906 375.898438 671.957031 C 379.316406 675.398438 382.980469 678.589844 387.160156 682.476562 C 387.503906 680.484375 387.953125 679.082031 387.957031 677.675781 C 387.992188 622.828125 388.046875 567.976562 387.816406 513.128906 C 387.804688 510.261719 385.96875 506.769531 383.882812 504.640625 C 366.929688 487.292969 349.710938 470.210938 332.585938 453.03125 C 324.84375 445.261719 325.242188 435.183594 333.5625 427.375 C 340.195312 421.148438 352.578125 422.304688 359.058594 429.355469 C 367.808594 438.871094 376.847656 448.117188 385.765625 457.476562 C 386.496094 457.054688 387.230469 456.632812 387.960938 456.207031 C 387.960938 443.226562 388.113281 430.238281 387.785156 417.265625 C 387.738281 415.4375 385.554688 413.46875 384.007812 411.914062 C 366.957031 394.746094 349.796875 377.6875 332.753906 360.507812 C 326.402344 354.105469 325.492188 347.195312 329.476562 338.734375 C 332.160156 333.039062 339.96875 328.144531 346.929688 329.652344 C 351.679688 330.6875 356.492188 333.699219 360.152344 337.054688 C 369.316406 345.449219 377.839844 354.542969 387.988281 364.730469 " fill-opacity="1" fill-rule="nonzero"/><path fill="#174168" d="M 780.191406 290.710938 C 780.191406 292.09375 780.324219 301.675781 780.191406 303.042969 C 778.816406 316.960938 777.984375 323.933594 774.757812 337.410156 C 771.375 351.539062 764.5 364.796875 759.835938 378.664062 C 754.71875 393.867188 745.667969 406.667969 736.382812 419.351562 C 732.496094 424.667969 728.070312 429.660156 723.414062 434.324219 C 639.707031 518.152344 555.890625 601.871094 472.230469 685.742188 C 466.070312 691.921875 459.3125 692.628906 451.820312 690.179688 C 444.089844 687.65625 440.347656 681.085938 439.625 673.78125 C 439.265625 670.136719 441.808594 665.257812 444.570312 662.421875 C 456.695312 649.957031 469.457031 638.109375 481.847656 625.890625 C 498.753906 609.210938 515.5625 592.429688 532.355469 575.632812 C 544.640625 563.347656 556.785156 550.925781 569.070312 538.644531 C 583.664062 524.0625 598.398438 509.613281 612.980469 495.019531 C 626.976562 481.007812 640.828125 466.851562 654.804688 452.820312 C 666.957031 440.625 678.851562 428.132812 691.496094 416.464844 C 705.042969 403.96875 716.363281 389.417969 724.238281 373.320312 C 733.019531 355.363281 740.054688 336.269531 742.191406 315.753906 C 745.160156 287.296875 743.824219 259.417969 733.703125 232.472656 C 726.695312 213.824219 717.25 196.589844 704.140625 181.207031 C 692.777344 167.871094 679.988281 156.523438 665.617188 146.722656 C 647.125 134.113281 626.398438 126.425781 604.789062 122.347656 C 585.667969 118.734375 566.183594 118.613281 546.457031 121.519531 C 516.339844 125.953125 489.929688 137.890625 465.820312 155.6875 C 459.78125 160.140625 454.363281 165.523438 449.058594 170.871094 C 427.074219 193.027344 405.15625 215.25 383.375 237.605469 C 357.875 263.78125 336.988281 293.484375 319.71875 325.492188 C 310.6875 342.234375 303.226562 360.125 297.5 378.269531 C 290.597656 400.132812 286.640625 422.925781 288.5 446.113281 C 290.484375 470.875 299.058594 492.742188 318.414062 509.449219 C 329.9375 519.398438 343.558594 525.269531 357.816406 529.753906 C 367.101562 532.671875 372.171875 541.226562 369.957031 551.769531 C 368.359375 559.375 357.011719 566.597656 349.03125 564.230469 C 307.617188 551.945312 275.632812 528.730469 260.789062 486.34375 C 251.667969 460.285156 249.46875 433.570312 255.253906 406.535156 C 259.113281 388.511719 262.6875 370.257812 268.679688 352.898438 C 279.710938 320.945312 296.367188 291.671875 315.769531 264 C 333.351562 238.917969 353.253906 215.875 375.261719 194.535156 C 392.996094 177.335938 409.445312 158.796875 427.421875 141.867188 C 437.890625 132.003906 449.78125 123.421875 461.890625 115.589844 C 472.359375 108.820312 483.757812 103.265625 495.246094 98.347656 C 510.796875 91.691406 527.105469 87.320312 544.105469 85.933594 C 553.152344 85.195312 562.183594 83.277344 571.207031 83.367188 C 594.164062 83.601562 616.742188 86.984375 638.574219 94.382812 C 675.972656 107.050781 707.472656 128.539062 732.539062 158.964844 C 751.65625 182.171875 765.859375 208.328125 772.667969 237.738281 C 776.738281 255.316406 777.359375 265.707031 780.191406 283.570312 C 780.191406 287.191406 780.191406 287.191406 780.191406 290.710938 " fill-opacity="1" fill-rule="nonzero"/><path fill="#174168" d="M 559.640625 434.070312 C 559.4375 462.878906 553.691406 488.566406 538.753906 511.753906 C 527.046875 529.925781 511.371094 543.609375 491.75 552.578125 C 482.585938 556.773438 473.226562 560.65625 463.675781 563.855469 C 455.019531 566.753906 443.90625 560.195312 442.007812 551.957031 C 439.542969 541.226562 444.539062 532.835938 454.605469 529.742188 C 480.578125 521.761719 502.222656 507.730469 514.417969 482.636719 C 520.324219 470.476562 523.046875 457.007812 523.503906 443.316406 C 524.703125 407.667969 514.910156 374.621094 500.378906 342.484375 C 487.597656 314.226562 470.386719 288.835938 451.9375 264.179688 C 446.421875 256.804688 440.144531 249.953125 433.824219 243.230469 C 427.035156 236.011719 428.242188 222.945312 434.699219 217.042969 C 441.5 210.824219 455.359375 211.75 461.175781 219.453125 C 478.003906 241.722656 495.65625 263.488281 510.800781 286.867188 C 529.230469 315.308594 543.207031 346.089844 551.429688 379.324219 C 556.027344 397.898438 559.425781 416.488281 559.640625 434.070312 " fill-opacity="1" fill-rule="nonzero"/></svg>